<svg width="877.523" height="102.657" viewBox="0 0 877.523 102.657" xmlns="http://www.w3.org/2000/svg"><g id="svgGroup" stroke-linecap="round" fill-rule="evenodd" font-size="9pt" stroke="#ffffff" stroke-width="0.50mm" fill="#000" style="stroke:#ffffff;stroke-width:0.50mm;fill:#000"><path d="M 637.852 37.618 L 637.852 83.672 L 630.293 83.672 L 630.293 26.661 L 637.852 26.661 L 637.852 31.993 L 639.316 31.993 A 15.922 15.922 0 0 1 641.26 29.509 A 11.811 11.811 0 0 1 643.975 27.393 A 10.083 10.083 0 0 1 646.258 26.482 Q 647.429 26.163 648.835 26.019 A 24.422 24.422 0 0 1 651.328 25.899 A 20.675 20.675 0 0 1 655.351 26.259 Q 657.571 26.701 659.191 27.683 A 8.507 8.507 0 0 1 662.93 32.461 L 664.512 32.461 Q 666.445 29.414 669.434 27.657 A 11.798 11.798 0 0 1 672.608 26.395 Q 674.619 25.899 677.109 25.899 A 21.64 21.64 0 0 1 680.553 26.154 Q 682.368 26.448 683.817 27.077 A 9.298 9.298 0 0 1 686.484 28.799 A 8.481 8.481 0 0 1 688.552 31.94 Q 689.099 33.325 689.358 35.073 A 23.449 23.449 0 0 1 689.59 38.496 L 689.59 83.672 L 682.09 83.672 L 682.09 37.852 Q 681.973 34.922 680.273 33.604 Q 678.742 32.416 675.401 32.298 A 21.479 21.479 0 0 0 674.648 32.286 Q 666.855 32.286 663.809 37.793 L 663.809 83.672 L 656.309 83.672 L 656.309 37.852 Q 656.191 34.922 654.492 33.604 Q 652.793 32.286 648.984 32.286 A 20.012 20.012 0 0 0 644.98 32.656 Q 639.922 33.691 637.852 37.618 Z M 229.922 37.618 L 229.922 83.672 L 222.363 83.672 L 222.363 7.618 L 229.922 7.618 L 229.922 31.993 L 231.738 31.993 A 16.097 16.097 0 0 1 233.772 29.472 A 12.104 12.104 0 0 1 236.514 27.393 Q 238.467 26.322 241.458 26.019 A 25.095 25.095 0 0 1 243.984 25.899 A 24.028 24.028 0 0 1 247.605 26.153 Q 249.459 26.436 250.942 27.035 A 9.695 9.695 0 0 1 253.828 28.799 Q 256.201 30.935 256.827 35.183 A 22.801 22.801 0 0 1 257.051 38.496 L 257.051 83.672 L 249.551 83.672 L 249.551 37.852 Q 249.551 34.922 247.705 33.604 Q 245.859 32.286 241.758 32.286 Q 232.969 32.286 229.922 37.618 Z M 93.574 63.34 L 100.43 63.34 A 103.415 103.415 0 0 0 100.359 65.426 Q 100.324 66.938 100.342 68.291 A 224.913 224.913 0 0 0 100.368 69.889 Q 100.38 70.515 100.396 71.075 A 112.007 112.007 0 0 0 100.43 72.129 A 7.444 7.444 0 0 0 100.632 73.784 Q 101.106 75.698 102.686 76.582 A 6.804 6.804 0 0 0 104.148 77.163 Q 105.686 77.6 108.055 77.743 A 41.804 41.804 0 0 0 110.566 77.813 A 43.443 43.443 0 0 0 113.253 77.736 Q 115.82 77.576 117.463 77.085 A 7.371 7.371 0 0 0 118.74 76.582 Q 121.113 75.352 121.289 72.129 Q 121.465 70.137 121.523 69.17 Q 121.573 68.355 121.539 66.934 A 65.793 65.793 0 0 0 121.523 66.387 A 11.083 11.083 0 0 0 121.266 64.531 Q 120.875 62.848 119.941 61.758 Q 118.535 60.118 113.848 59.414 L 106.992 57.832 A 44.49 44.49 0 0 1 103.931 57.079 Q 100.925 56.218 98.98 55.097 A 13.12 13.12 0 0 1 98.848 55.02 A 10.644 10.644 0 0 1 96.473 53.142 A 8.784 8.784 0 0 1 94.805 50.596 A 15.074 15.074 0 0 1 94.007 48.145 Q 93.538 46.181 93.398 43.711 A 14.221 14.221 0 0 1 93.35 42.53 Q 93.35 41.546 93.477 40.481 A 21.568 21.568 0 0 1 93.691 39.082 A 21.614 21.614 0 0 1 94.042 35.414 Q 94.411 33.475 95.161 31.966 A 9.041 9.041 0 0 1 97.529 28.946 A 10.153 10.153 0 0 1 100.431 27.347 Q 103.384 26.244 108.028 25.981 A 54.386 54.386 0 0 1 111.094 25.899 A 46.993 46.993 0 0 1 115.45 26.086 Q 119.784 26.491 122.42 27.775 A 9.065 9.065 0 0 1 124.189 28.887 Q 127.852 31.875 128.203 38.731 A 252.431 252.431 0 0 1 128.198 40.364 Q 128.192 41.198 128.181 42.12 A 425.608 425.608 0 0 1 128.174 42.745 Q 128.145 45 127.969 46.7 L 120.879 46.7 Q 121.172 44.649 121.143 42.012 Q 121.113 39.375 120.996 37.911 A 7.286 7.286 0 0 0 120.803 36.317 Q 120.564 35.339 120.03 34.642 A 3.824 3.824 0 0 0 118.857 33.633 Q 117.279 32.744 113.624 32.529 A 43.421 43.421 0 0 0 111.094 32.461 Q 105.352 32.461 103.271 33.633 A 4.23 4.23 0 0 0 101.35 35.966 Q 101.039 36.819 100.957 37.911 Q 100.901 39.302 100.793 40.245 A 16.653 16.653 0 0 1 100.781 40.342 Q 100.684 41.148 100.708 42.462 A 34.402 34.402 0 0 0 100.723 43.008 A 23.99 23.99 0 0 0 100.945 44.828 Q 101.085 45.679 101.281 46.429 A 14.54 14.54 0 0 0 101.338 46.641 A 4.35 4.35 0 0 0 102.745 48.809 A 5.828 5.828 0 0 0 103.33 49.248 A 6.465 6.465 0 0 0 104.458 49.827 Q 105.621 50.299 107.357 50.626 A 28.478 28.478 0 0 0 108.398 50.801 L 114.961 52.149 A 36.442 36.442 0 0 1 118.864 53.161 Q 122.939 54.48 125.231 56.543 A 10.738 10.738 0 0 1 125.391 56.69 A 9.652 9.652 0 0 1 127.951 60.843 Q 128.672 63.066 128.672 65.977 A 125.408 125.408 0 0 1 128.665 67.31 A 151.938 151.938 0 0 1 128.643 68.731 A 43.204 43.204 0 0 1 128.537 71.034 A 38.313 38.313 0 0 1 128.496 71.543 A 20.103 20.103 0 0 1 127.945 75.273 Q 126.929 79.286 124.189 81.387 Q 120.893 83.915 113.425 84.304 A 54.974 54.974 0 0 1 110.566 84.375 A 46.095 46.095 0 0 1 106.21 84.185 Q 100.217 83.614 97.471 81.329 Q 93.809 78.282 93.516 71.368 Q 93.398 69.551 93.369 67.295 A 38.08 38.08 0 0 1 93.366 66.801 Q 93.366 65.056 93.533 63.664 A 18.199 18.199 0 0 1 93.574 63.34 Z M 476.543 63.34 L 483.398 63.34 A 103.415 103.415 0 0 0 483.328 65.426 Q 483.293 66.938 483.311 68.291 A 224.913 224.913 0 0 0 483.337 69.889 Q 483.349 70.515 483.365 71.075 A 112.007 112.007 0 0 0 483.398 72.129 A 7.444 7.444 0 0 0 483.601 73.784 Q 484.075 75.698 485.654 76.582 A 6.804 6.804 0 0 0 487.117 77.163 Q 488.655 77.6 491.023 77.743 A 41.804 41.804 0 0 0 493.535 77.813 A 43.443 43.443 0 0 0 496.221 77.736 Q 498.789 77.576 500.432 77.085 A 7.371 7.371 0 0 0 501.709 76.582 Q 504.082 75.352 504.258 72.129 Q 504.434 70.137 504.492 69.17 Q 504.542 68.355 504.508 66.934 A 65.793 65.793 0 0 0 504.492 66.387 A 11.083 11.083 0 0 0 504.235 64.531 Q 503.844 62.848 502.91 61.758 Q 501.504 60.118 496.816 59.414 L 489.961 57.832 A 44.49 44.49 0 0 1 486.9 57.079 Q 483.894 56.218 481.949 55.097 A 13.12 13.12 0 0 1 481.816 55.02 A 10.644 10.644 0 0 1 479.442 53.142 A 8.784 8.784 0 0 1 477.773 50.596 A 15.074 15.074 0 0 1 476.976 48.145 Q 476.506 46.181 476.367 43.711 A 14.221 14.221 0 0 1 476.319 42.53 Q 476.319 41.546 476.446 40.481 A 21.568 21.568 0 0 1 476.66 39.082 A 21.614 21.614 0 0 1 477.011 35.414 Q 477.379 33.475 478.13 31.966 A 9.041 9.041 0 0 1 480.498 28.946 A 10.153 10.153 0 0 1 483.399 27.347 Q 486.353 26.244 490.996 25.981 A 54.386 54.386 0 0 1 494.063 25.899 A 46.993 46.993 0 0 1 498.419 26.086 Q 502.752 26.491 505.389 27.775 A 9.065 9.065 0 0 1 507.158 28.887 Q 510.82 31.875 511.172 38.731 A 252.431 252.431 0 0 1 511.166 40.364 Q 511.161 41.198 511.15 42.12 A 425.608 425.608 0 0 1 511.143 42.745 Q 511.113 45 510.938 46.7 L 503.848 46.7 Q 504.141 44.649 504.111 42.012 Q 504.082 39.375 503.965 37.911 A 7.286 7.286 0 0 0 503.772 36.317 Q 503.533 35.339 502.998 34.642 A 3.824 3.824 0 0 0 501.826 33.633 Q 500.247 32.744 496.592 32.529 A 43.421 43.421 0 0 0 494.063 32.461 Q 488.32 32.461 486.24 33.633 A 4.23 4.23 0 0 0 484.319 35.966 Q 484.008 36.819 483.926 37.911 Q 483.87 39.302 483.762 40.245 A 16.653 16.653 0 0 1 483.75 40.342 Q 483.652 41.148 483.677 42.462 A 34.402 34.402 0 0 0 483.691 43.008 A 23.99 23.99 0 0 0 483.914 44.828 Q 484.053 45.679 484.249 46.429 A 14.54 14.54 0 0 0 484.307 46.641 A 4.35 4.35 0 0 0 485.714 48.809 A 5.828 5.828 0 0 0 486.299 49.248 A 6.465 6.465 0 0 0 487.427 49.827 Q 488.59 50.299 490.326 50.626 A 28.478 28.478 0 0 0 491.367 50.801 L 497.93 52.149 A 36.442 36.442 0 0 1 501.833 53.161 Q 505.908 54.48 508.199 56.543 A 10.738 10.738 0 0 1 508.359 56.69 A 9.652 9.652 0 0 1 510.92 60.843 Q 511.641 63.066 511.641 65.977 A 125.408 125.408 0 0 1 511.633 67.31 A 151.938 151.938 0 0 1 511.611 68.731 A 43.204 43.204 0 0 1 511.506 71.034 A 38.313 38.313 0 0 1 511.465 71.543 A 20.103 20.103 0 0 1 510.914 75.273 Q 509.898 79.286 507.158 81.387 Q 503.862 83.915 496.394 84.304 A 54.974 54.974 0 0 1 493.535 84.375 A 46.095 46.095 0 0 1 489.179 84.185 Q 483.186 83.614 480.439 81.329 Q 476.777 78.282 476.484 71.368 Q 476.367 69.551 476.338 67.295 A 38.08 38.08 0 0 1 476.335 66.801 Q 476.335 65.056 476.501 63.664 A 18.199 18.199 0 0 1 476.543 63.34 Z M 49.16 71.778 L 49.16 26.661 L 56.66 26.661 L 56.66 72.422 Q 56.66 75.293 58.477 76.641 Q 60.293 77.989 64.395 77.989 A 20.835 20.835 0 0 0 68.069 77.68 A 15.478 15.478 0 0 0 71.689 76.582 A 11.527 11.527 0 0 0 74.094 75.154 A 8.739 8.739 0 0 0 76.289 72.657 L 76.289 26.661 L 83.906 26.661 L 83.906 83.672 L 76.289 83.672 L 76.289 78.282 L 74.707 78.282 A 12.676 12.676 0 0 1 65.612 84.123 A 20.162 20.162 0 0 1 62.344 84.375 A 23.56 23.56 0 0 1 58.734 84.117 Q 56.828 83.821 55.299 83.185 A 10.048 10.048 0 0 1 52.471 81.446 A 8.707 8.707 0 0 1 50.15 78.009 Q 49.593 76.577 49.35 74.784 A 22.366 22.366 0 0 1 49.16 71.778 Z M 0.176 53.204 L 8.086 53.204 A 139.728 139.728 0 0 0 7.91 57.459 A 171.879 171.879 0 0 0 7.852 62.022 A 170.219 170.219 0 0 0 7.91 66.57 A 135.442 135.442 0 0 0 8.086 70.782 A 7.463 7.463 0 0 0 8.599 72.993 A 5.811 5.811 0 0 0 11.016 75.791 A 8.203 8.203 0 0 0 12.901 76.606 Q 14.904 77.217 17.963 77.359 A 42.169 42.169 0 0 0 19.922 77.403 A 36.627 36.627 0 0 0 22.919 77.289 Q 25.838 77.048 27.682 76.298 A 7.532 7.532 0 0 0 28.711 75.791 A 5.226 5.226 0 0 0 31.303 72.041 A 7.399 7.399 0 0 0 31.406 70.782 L 31.406 0 L 39.551 0 L 39.551 69.434 Q 39.551 77.461 35.068 80.948 A 13.002 13.002 0 0 1 31.461 82.86 Q 27.877 84.15 22.42 84.383 A 58.618 58.618 0 0 1 19.922 84.434 A 51.471 51.471 0 0 1 15.007 84.216 Q 9.857 83.72 6.717 82.096 A 11.039 11.039 0 0 1 4.922 80.948 Q 0.527 77.461 0.176 69.434 A 186.468 186.468 0 0 1 0 61.333 A 188.497 188.497 0 0 1 0.176 53.204 Z M 468.223 46.7 L 460.84 46.7 A 30.881 30.881 0 0 0 460.996 44.761 Q 461.061 43.477 461.045 42.012 Q 461.016 39.375 461.016 37.911 A 6.349 6.349 0 0 0 460.78 36.247 A 4.074 4.074 0 0 0 458.584 33.633 A 8.314 8.314 0 0 0 457.01 33.067 Q 455.283 32.615 452.687 32.5 A 42.378 42.378 0 0 0 450.82 32.461 Q 446.52 32.461 444.148 33.176 A 7.443 7.443 0 0 0 442.969 33.633 A 4.107 4.107 0 0 0 440.719 36.561 A 6.756 6.756 0 0 0 440.566 37.911 A 431.329 431.329 0 0 0 440.259 46.795 A 345.385 345.385 0 0 0 440.156 55.049 A 343.561 343.561 0 0 0 440.259 63.289 A 424.979 424.979 0 0 0 440.566 72.129 A 6.951 6.951 0 0 0 440.791 73.826 A 4.222 4.222 0 0 0 442.969 76.582 A 7.924 7.924 0 0 0 444.583 77.191 Q 446.303 77.655 448.896 77.773 A 41.198 41.198 0 0 0 450.762 77.813 A 37.563 37.563 0 0 0 453.415 77.726 Q 456.79 77.486 458.555 76.582 A 4.287 4.287 0 0 0 460.859 73.53 A 7.105 7.105 0 0 0 461.016 72.129 A 214.854 214.854 0 0 1 461.02 70.848 Q 461.023 70.275 461.029 69.636 A 429.071 429.071 0 0 1 461.045 68.291 Q 461.074 66.036 460.84 63.34 L 468.223 63.34 A 17.286 17.286 0 0 1 468.414 64.89 Q 468.503 66.001 468.486 67.295 Q 468.457 69.551 468.34 71.368 Q 468.106 75.965 466.279 78.852 A 9.522 9.522 0 0 1 464.033 81.329 A 11.539 11.539 0 0 1 460.86 83 Q 457.715 84.127 452.944 84.331 A 51.232 51.232 0 0 1 450.762 84.375 A 45.75 45.75 0 0 1 446.155 84.16 Q 441.505 83.688 438.661 82.177 A 10.348 10.348 0 0 1 437.314 81.329 Q 433.242 78.282 432.949 71.368 A 199.392 199.392 0 0 1 432.794 67.901 Q 432.738 66.368 432.696 64.686 A 358.103 358.103 0 0 1 432.627 61.172 A 391.643 391.643 0 0 1 432.583 55.298 A 397.532 397.532 0 0 1 432.627 49.395 A 357.064 357.064 0 0 1 432.713 45.171 Q 432.758 43.5 432.817 41.978 A 199.173 199.173 0 0 1 432.949 39.082 A 19.812 19.812 0 0 1 433.456 35.252 Q 433.974 33.108 434.999 31.498 A 9.444 9.444 0 0 1 437.373 28.946 A 12.466 12.466 0 0 1 440.734 27.242 Q 444.634 25.899 450.82 25.899 A 45.594 45.594 0 0 1 455.373 26.11 Q 459.973 26.573 462.806 28.055 A 10.466 10.466 0 0 1 464.15 28.887 A 9.532 9.532 0 0 1 467.537 33.635 Q 468.096 35.271 468.268 37.285 A 21.37 21.37 0 0 1 468.34 38.731 Q 468.457 40.489 468.486 42.745 Q 468.513 44.784 468.276 46.369 A 15.032 15.032 0 0 1 468.223 46.7 Z M 563.496 7.5 L 563.496 83.672 L 555.352 83.672 L 555.352 7.5 L 539.355 7.5 L 539.355 0 L 579.551 0 L 579.551 7.5 L 563.496 7.5 Z M 793.711 48.926 L 793.711 38.086 A 6.003 6.003 0 0 0 793.478 36.363 A 4.409 4.409 0 0 0 791.543 33.838 Q 789.794 32.728 785.948 32.513 A 35.316 35.316 0 0 0 783.984 32.461 A 30.429 30.429 0 0 0 781.526 32.554 Q 778.613 32.791 776.865 33.633 A 4.465 4.465 0 0 0 774.39 36.708 A 7.005 7.005 0 0 0 774.199 37.911 A 26.846 26.846 0 0 0 774.148 38.722 Q 774.103 39.639 774.088 40.892 A 107.115 107.115 0 0 0 774.082 42.1 Q 774.082 43.973 774.137 45.445 A 50.828 50.828 0 0 0 774.199 46.7 L 766.875 46.7 A 76.363 76.363 0 0 1 766.816 45.912 Q 766.729 44.649 766.641 42.891 A 37.392 37.392 0 0 1 766.597 41.587 Q 766.582 40.559 766.631 39.648 A 21.465 21.465 0 0 1 766.699 38.731 A 18.371 18.371 0 0 1 767.211 35.028 Q 767.778 32.784 768.945 31.131 A 9.527 9.527 0 0 1 771.123 28.916 A 12.7 12.7 0 0 1 774.541 27.198 Q 777.834 26.077 782.698 25.923 A 50.135 50.135 0 0 1 784.277 25.899 A 42.827 42.827 0 0 1 788.633 26.104 Q 793.029 26.555 795.678 27.999 A 8.933 8.933 0 0 1 797.373 29.18 Q 800.159 31.676 800.859 36.614 A 25.286 25.286 0 0 1 801.094 39.961 L 801.094 83.672 L 793.711 83.672 L 793.711 78.282 L 792.07 78.282 A 10.347 10.347 0 0 1 787.881 82.764 A 10.024 10.024 0 0 1 785.568 83.695 Q 783.306 84.317 780.117 84.317 A 29.072 29.072 0 0 1 776.391 84.094 Q 772.005 83.526 769.541 81.504 Q 766.113 78.692 765.527 72.715 Q 765.469 71.543 765.381 70.371 A 13.284 13.284 0 0 1 765.343 69.378 A 12.329 12.329 0 0 1 765.41 68.086 Q 765.82 62.871 768.691 59.327 A 12.797 12.797 0 0 1 770.989 57.171 Q 773.514 55.283 777.675 53.589 A 56.194 56.194 0 0 1 779.59 52.852 A 78.592 78.592 0 0 1 785.377 51.041 A 87.869 87.869 0 0 1 786.504 50.743 A 649.918 649.918 0 0 1 793.711 48.926 Z M 302.52 56.719 L 274.453 56.719 Q 274.453 60.411 274.512 64.219 Q 274.57 68.028 274.746 72.129 A 6.767 6.767 0 0 0 274.982 73.847 A 4.237 4.237 0 0 0 277.207 76.582 Q 279.178 77.592 283.24 77.773 A 42.198 42.198 0 0 0 285.117 77.813 A 38.337 38.337 0 0 0 287.64 77.736 Q 291.123 77.505 292.793 76.582 Q 295.02 75.352 295.254 72.129 Q 295.43 68.907 295.254 63.34 L 302.52 63.34 A 17.286 17.286 0 0 1 302.711 64.89 Q 302.8 66.001 302.783 67.295 Q 302.754 69.551 302.637 71.368 A 21.133 21.133 0 0 1 302.096 75.132 Q 301.6 77.159 300.688 78.708 A 9.555 9.555 0 0 1 298.447 81.329 Q 295.187 83.957 287.806 84.318 A 50.305 50.305 0 0 1 285.352 84.375 A 48.492 48.492 0 0 1 280.606 84.16 Q 275.88 83.694 272.994 82.214 A 10.473 10.473 0 0 1 271.553 81.329 A 10.065 10.065 0 0 1 268.059 76.513 Q 267.454 74.842 267.233 72.783 A 22.019 22.019 0 0 1 267.129 71.368 A 199.392 199.392 0 0 1 266.974 67.901 Q 266.918 66.368 266.876 64.686 A 358.103 358.103 0 0 1 266.807 61.172 A 391.643 391.643 0 0 1 266.763 55.298 A 397.532 397.532 0 0 1 266.807 49.395 A 357.064 357.064 0 0 1 266.893 45.171 Q 266.938 43.5 266.997 41.978 A 199.173 199.173 0 0 1 267.129 39.082 A 19.242 19.242 0 0 1 267.651 35.229 Q 268.199 33.029 269.299 31.393 A 9.529 9.529 0 0 1 271.67 28.946 A 13.011 13.011 0 0 1 275.109 27.242 Q 279.087 25.899 285.352 25.899 Q 293.149 25.899 297.174 28.189 A 10.122 10.122 0 0 1 298.242 28.887 A 10.006 10.006 0 0 1 301.531 33.312 Q 302.451 35.624 302.637 38.731 A 80.325 80.325 0 0 1 302.695 39.947 Q 302.774 41.834 302.853 45.092 A 691.085 691.085 0 0 1 302.871 45.879 A 89.851 89.851 0 0 1 302.895 47.944 Q 302.895 52.125 302.52 56.719 Z M 620.332 56.719 L 592.266 56.719 Q 592.266 60.411 592.324 64.219 Q 592.383 68.028 592.559 72.129 A 6.767 6.767 0 0 0 592.794 73.847 A 4.237 4.237 0 0 0 595.02 76.582 Q 596.991 77.592 601.052 77.773 A 42.198 42.198 0 0 0 602.93 77.813 A 38.337 38.337 0 0 0 605.453 77.736 Q 608.936 77.505 610.605 76.582 Q 612.832 75.352 613.066 72.129 Q 613.242 68.907 613.066 63.34 L 620.332 63.34 A 17.286 17.286 0 0 1 620.523 64.89 Q 620.613 66.001 620.596 67.295 Q 620.566 69.551 620.449 71.368 A 21.133 21.133 0 0 1 619.909 75.132 Q 619.413 77.159 618.501 78.708 A 9.555 9.555 0 0 1 616.26 81.329 Q 612.999 83.957 605.618 84.318 A 50.305 50.305 0 0 1 603.164 84.375 A 48.492 48.492 0 0 1 598.419 84.16 Q 593.692 83.694 590.807 82.214 A 10.473 10.473 0 0 1 589.365 81.329 A 10.065 10.065 0 0 1 585.872 76.513 Q 585.267 74.842 585.046 72.783 A 22.019 22.019 0 0 1 584.941 71.368 A 199.392 199.392 0 0 1 584.786 67.901 Q 584.73 66.368 584.688 64.686 A 358.103 358.103 0 0 1 584.619 61.172 A 391.643 391.643 0 0 1 584.575 55.298 A 397.532 397.532 0 0 1 584.619 49.395 A 357.064 357.064 0 0 1 584.706 45.171 Q 584.75 43.5 584.809 41.978 A 199.173 199.173 0 0 1 584.941 39.082 A 19.242 19.242 0 0 1 585.464 35.229 Q 586.012 33.029 587.112 31.393 A 9.529 9.529 0 0 1 589.482 28.946 A 13.011 13.011 0 0 1 592.922 27.242 Q 596.9 25.899 603.164 25.899 Q 610.961 25.899 614.986 28.189 A 10.122 10.122 0 0 1 616.055 28.887 A 10.006 10.006 0 0 1 619.344 33.312 Q 620.263 35.624 620.449 38.731 A 80.325 80.325 0 0 1 620.508 39.947 Q 620.586 41.834 620.665 45.092 A 691.085 691.085 0 0 1 620.684 45.879 A 89.851 89.851 0 0 1 620.707 47.944 Q 620.707 52.125 620.332 56.719 Z M 877.148 56.719 L 849.082 56.719 Q 849.082 60.411 849.141 64.219 Q 849.199 68.028 849.375 72.129 A 6.767 6.767 0 0 0 849.61 73.847 A 4.237 4.237 0 0 0 851.836 76.582 Q 853.807 77.592 857.869 77.773 A 42.198 42.198 0 0 0 859.746 77.813 A 38.337 38.337 0 0 0 862.269 77.736 Q 865.752 77.505 867.422 76.582 Q 869.648 75.352 869.883 72.129 Q 870.059 68.907 869.883 63.34 L 877.148 63.34 A 17.286 17.286 0 0 1 877.34 64.89 Q 877.429 66.001 877.412 67.295 Q 877.383 69.551 877.266 71.368 A 21.133 21.133 0 0 1 876.725 75.132 Q 876.229 77.159 875.317 78.708 A 9.555 9.555 0 0 1 873.076 81.329 Q 869.816 83.957 862.435 84.318 A 50.305 50.305 0 0 1 859.98 84.375 A 48.492 48.492 0 0 1 855.235 84.16 Q 850.509 83.694 847.623 82.214 A 10.473 10.473 0 0 1 846.182 81.329 A 10.065 10.065 0 0 1 842.688 76.513 Q 842.083 74.842 841.862 72.783 A 22.019 22.019 0 0 1 841.758 71.368 A 199.392 199.392 0 0 1 841.603 67.901 Q 841.547 66.368 841.505 64.686 A 358.103 358.103 0 0 1 841.436 61.172 A 391.643 391.643 0 0 1 841.392 55.298 A 397.532 397.532 0 0 1 841.436 49.395 A 357.064 357.064 0 0 1 841.522 45.171 Q 841.567 43.5 841.626 41.978 A 199.173 199.173 0 0 1 841.758 39.082 A 19.242 19.242 0 0 1 842.28 35.229 Q 842.828 33.029 843.928 31.393 A 9.529 9.529 0 0 1 846.299 28.946 A 13.011 13.011 0 0 1 849.738 27.242 Q 853.716 25.899 859.98 25.899 Q 867.778 25.899 871.802 28.189 A 10.122 10.122 0 0 1 872.871 28.887 A 10.006 10.006 0 0 1 876.16 33.312 Q 877.08 35.624 877.266 38.731 A 80.325 80.325 0 0 1 877.324 39.947 Q 877.403 41.834 877.481 45.092 A 691.085 691.085 0 0 1 877.5 45.879 A 89.851 89.851 0 0 1 877.523 47.944 Q 877.523 52.125 877.148 56.719 Z M 356.367 83.672 L 335.859 83.672 L 335.859 0 L 356.66 0 A 53.554 53.554 0 0 1 362.171 0.263 Q 368.896 0.962 372.451 3.516 Q 376.842 6.671 377.434 13.555 A 25.312 25.312 0 0 1 377.52 15.176 A 949.946 949.946 0 0 1 377.761 24.434 A 812.296 812.296 0 0 1 377.9 33.223 A 832.697 832.697 0 0 1 377.944 41.778 A 832.697 832.697 0 0 1 377.9 50.332 A 818.867 818.867 0 0 1 377.761 59.136 A 966.488 966.488 0 0 1 377.52 68.438 A 21.525 21.525 0 0 1 376.998 72.865 Q 376.388 75.473 375.077 77.4 A 10.873 10.873 0 0 1 372.422 80.127 Q 368.027 83.293 358.679 83.632 A 63.867 63.867 0 0 1 356.367 83.672 Z M 707.813 78.282 L 707.813 102.657 L 700.254 102.657 L 700.254 26.661 L 707.813 26.661 L 707.813 31.993 L 709.453 31.993 A 14.969 14.969 0 0 1 711.569 29.362 A 11.722 11.722 0 0 1 714.229 27.393 A 10.816 10.816 0 0 1 716.608 26.482 Q 717.826 26.163 719.287 26.019 A 26.323 26.323 0 0 1 721.875 25.899 A 24.481 24.481 0 0 1 725.445 26.141 Q 727.273 26.411 728.738 26.982 A 9.615 9.615 0 0 1 731.748 28.799 A 8.821 8.821 0 0 1 733.935 32.011 Q 734.51 33.397 734.808 35.141 A 23.621 23.621 0 0 1 735.117 38.496 A 117.549 117.549 0 0 1 735.233 40.915 Q 735.315 43.078 735.352 45.733 A 601.928 601.928 0 0 1 735.396 50.098 A 704.097 704.097 0 0 1 735.41 54.698 A 701.176 701.176 0 0 1 735.359 63.31 A 642.964 642.964 0 0 1 735.352 63.868 Q 735.293 68.321 735.117 71.778 Q 735.011 75.849 733.75 78.529 A 8.799 8.799 0 0 1 731.602 81.446 A 10.496 10.496 0 0 1 728.04 83.448 Q 725.339 84.375 721.582 84.375 A 22.146 22.146 0 0 1 718.628 84.19 Q 717.096 83.983 715.818 83.547 A 10.968 10.968 0 0 1 714.375 82.94 Q 711.563 81.504 709.453 78.282 L 707.813 78.282 Z M 140.391 71.368 L 140.391 33.223 L 134.766 33.223 L 134.766 26.661 L 140.566 26.661 L 140.566 10.489 L 148.008 10.489 L 148.008 26.661 L 160.898 26.661 L 160.898 33.223 L 147.949 33.223 L 147.949 72.188 A 12.067 12.067 0 0 0 148.039 73.717 Q 148.297 75.728 149.297 76.641 A 2.965 2.965 0 0 0 150.227 77.179 Q 151.775 77.781 155.067 77.86 A 43.121 43.121 0 0 0 156.094 77.871 A 94.346 94.346 0 0 0 157.143 77.866 Q 158.274 77.853 159.068 77.812 A 22.107 22.107 0 0 0 159.521 77.784 A 62.038 62.038 0 0 1 160.645 77.712 Q 161.415 77.67 162.305 77.637 L 162.305 83.907 A 30.16 30.16 0 0 1 160.504 84.149 A 37.348 37.348 0 0 1 159.258 84.258 A 46.87 46.87 0 0 1 155.918 84.375 Q 148.959 84.375 145.447 82.609 A 7.66 7.66 0 0 1 143.584 81.329 A 9.038 9.038 0 0 1 141.415 77.959 Q 140.391 75.284 140.391 71.368 Z M 194.355 71.368 L 194.355 33.223 L 188.73 33.223 L 188.73 26.661 L 194.531 26.661 L 194.531 10.489 L 201.973 10.489 L 201.973 26.661 L 214.863 26.661 L 214.863 33.223 L 201.914 33.223 L 201.914 72.188 A 12.067 12.067 0 0 0 202.004 73.717 Q 202.262 75.728 203.262 76.641 A 2.965 2.965 0 0 0 204.192 77.179 Q 205.739 77.781 209.031 77.86 A 43.121 43.121 0 0 0 210.059 77.871 A 94.346 94.346 0 0 0 211.108 77.866 Q 212.239 77.853 213.032 77.812 A 22.107 22.107 0 0 0 213.486 77.784 A 62.038 62.038 0 0 1 214.61 77.712 Q 215.38 77.67 216.27 77.637 L 216.27 83.907 A 30.16 30.16 0 0 1 214.469 84.149 A 37.348 37.348 0 0 1 213.223 84.258 A 46.87 46.87 0 0 1 209.883 84.375 Q 202.924 84.375 199.412 82.609 A 7.66 7.66 0 0 1 197.549 81.329 A 9.038 9.038 0 0 1 195.38 77.959 Q 194.355 75.284 194.355 71.368 Z M 814.336 71.368 L 814.336 33.223 L 808.711 33.223 L 808.711 26.661 L 814.512 26.661 L 814.512 10.489 L 821.953 10.489 L 821.953 26.661 L 834.844 26.661 L 834.844 33.223 L 821.895 33.223 L 821.895 72.188 A 12.067 12.067 0 0 0 821.984 73.717 Q 822.242 75.728 823.242 76.641 A 2.965 2.965 0 0 0 824.172 77.179 Q 825.72 77.781 829.012 77.86 A 43.121 43.121 0 0 0 830.039 77.871 A 94.346 94.346 0 0 0 831.088 77.866 Q 832.22 77.853 833.013 77.812 A 22.107 22.107 0 0 0 833.467 77.784 A 62.038 62.038 0 0 1 834.591 77.712 Q 835.36 77.67 836.25 77.637 L 836.25 83.907 A 30.16 30.16 0 0 1 834.449 84.149 A 37.348 37.348 0 0 1 833.203 84.258 A 46.87 46.87 0 0 1 829.863 84.375 Q 822.904 84.375 819.392 82.609 A 7.66 7.66 0 0 1 817.529 81.329 A 9.038 9.038 0 0 1 815.36 77.959 Q 814.336 75.284 814.336 71.368 Z M 356.66 7.5 L 344.004 7.5 L 344.004 76.172 L 356.367 76.172 Q 362.043 76.172 365.108 75.008 A 8.804 8.804 0 0 0 366.27 74.473 A 6.388 6.388 0 0 0 368.131 72.956 Q 369.187 71.665 369.348 69.847 A 7.488 7.488 0 0 0 369.375 69.317 A 860.524 860.524 0 0 0 369.814 41.807 A 866.032 866.032 0 0 0 369.375 14.239 A 6.276 6.276 0 0 0 368.933 11.945 Q 368.3 10.403 366.765 9.416 A 7.39 7.39 0 0 0 366.299 9.141 A 10.33 10.33 0 0 0 364.125 8.294 Q 361.901 7.677 358.624 7.54 A 46.979 46.979 0 0 0 356.66 7.5 Z M 754.512 7.618 L 754.512 83.672 L 746.895 83.672 L 746.895 7.618 L 754.512 7.618 Z M 391.875 81.094 A 9.76 9.76 0 0 0 393.472 82.17 Q 397.522 84.375 405.352 84.375 A 49.204 49.204 0 0 0 407.879 84.313 Q 412.594 84.07 415.659 82.881 A 10.669 10.669 0 0 0 418.799 81.065 Q 421.527 78.711 422.464 74.211 A 24.377 24.377 0 0 0 422.93 70.196 A 151.235 151.235 0 0 0 423.223 65.516 A 198.861 198.861 0 0 0 423.398 60.381 A 244.662 244.662 0 0 0 423.457 55.035 A 240.663 240.663 0 0 0 423.398 49.717 A 191.43 191.43 0 0 0 423.223 44.656 A 142.251 142.251 0 0 0 422.93 40.079 A 25.945 25.945 0 0 0 422.613 36.838 Q 421.764 31.715 418.799 29.18 A 9.383 9.383 0 0 0 417.21 28.094 Q 413.212 25.899 405.352 25.899 A 50.038 50.038 0 0 0 403.416 25.935 Q 398.471 26.127 395.232 27.329 A 11.346 11.346 0 0 0 391.904 29.18 A 9.999 9.999 0 0 0 389.389 32.374 Q 388.549 34.017 388.111 36.137 A 24.073 24.073 0 0 0 387.656 40.079 Q 387.305 44.473 387.188 49.864 A 247.011 247.011 0 0 0 387.129 55.232 A 240.996 240.996 0 0 0 387.188 60.557 A 191.43 191.43 0 0 0 387.363 65.618 A 142.251 142.251 0 0 0 387.656 70.196 Q 387.812 74.242 388.993 77.065 A 10.335 10.335 0 0 0 391.875 81.094 Z M 405.352 77.813 Q 410.742 77.813 413.027 76.495 A 4.725 4.725 0 0 0 415.348 73.211 A 7.32 7.32 0 0 0 415.488 72.129 A 299.14 299.14 0 0 0 415.928 63.311 A 237.448 237.448 0 0 0 416.074 55.137 A 237.448 237.448 0 0 0 415.928 46.963 A 299.14 299.14 0 0 0 415.488 38.145 A 7.053 7.053 0 0 0 415.179 36.384 A 4.531 4.531 0 0 0 413.086 33.75 A 6.92 6.92 0 0 0 411.574 33.127 Q 409.933 32.645 407.402 32.512 A 39.234 39.234 0 0 0 405.352 32.461 Q 401.072 32.461 398.756 33.24 A 6.576 6.576 0 0 0 397.588 33.75 A 4.611 4.611 0 0 0 395.353 36.789 A 7.376 7.376 0 0 0 395.156 38.145 A 354.62 354.62 0 0 0 394.753 46.971 A 283.239 283.239 0 0 0 394.6 55.166 A 202.62 202.62 0 0 0 394.598 55.92 Q 394.598 63.48 395.156 72.129 Q 395.273 75.176 397.646 76.495 A 7.97 7.97 0 0 0 399.367 77.176 Q 401.136 77.671 403.769 77.781 A 37.807 37.807 0 0 0 405.352 77.813 Z M 707.813 37.618 L 707.813 72.657 A 10.047 10.047 0 0 0 709.748 75.181 A 8.706 8.706 0 0 0 712.119 76.758 Q 714.071 77.64 717 77.89 A 29.136 29.136 0 0 0 719.473 77.989 Q 727.383 77.989 727.617 72.422 A 293.514 293.514 0 0 0 728.012 57.292 A 281.869 281.869 0 0 0 727.998 54.493 A 663.412 663.412 0 0 0 727.859 45.909 A 549.012 549.012 0 0 0 727.617 37.852 A 7.971 7.971 0 0 0 727.393 36.216 Q 727.147 35.243 726.639 34.526 A 4.129 4.129 0 0 0 725.742 33.604 Q 723.984 32.286 719.824 32.286 Q 714.81 32.286 711.647 33.954 A 9.309 9.309 0 0 0 707.813 37.618 Z M 793.652 72.95 L 793.652 55.196 A 105.096 105.096 0 0 0 788.618 56.378 A 115.665 115.665 0 0 0 787.881 56.573 A 84.026 84.026 0 0 0 785.517 57.244 Q 784.473 57.557 783.328 57.923 A 156.11 156.11 0 0 0 780.938 58.711 Q 776.815 60.238 775.08 62.163 A 5.901 5.901 0 0 0 774.609 62.754 Q 773.027 65.039 772.793 68.086 A 44.899 44.899 0 0 1 772.844 69.002 A 56.41 56.41 0 0 1 772.881 69.991 A 27.221 27.221 0 0 0 772.974 71.578 A 31.024 31.024 0 0 0 773.027 72.129 A 6.087 6.087 0 0 0 774.048 74.787 A 6.216 6.216 0 0 0 775.84 76.465 A 9.232 9.232 0 0 0 778.627 77.62 Q 779.814 77.908 781.2 77.971 A 17.424 17.424 0 0 0 781.992 77.989 A 22.11 22.11 0 0 0 786.107 77.633 Q 788.413 77.195 790.162 76.219 A 9.666 9.666 0 0 0 793.652 72.95 Z M 274.453 50.508 L 295.371 50.508 A 268.699 268.699 0 0 0 295.481 44.729 A 233.5 233.5 0 0 0 295.488 42.891 Q 295.488 39.46 295.279 38.067 A 6.856 6.856 0 0 0 295.254 37.911 A 6.257 6.257 0 0 0 294.865 36.131 A 4.584 4.584 0 0 0 292.734 33.721 Q 290.803 32.656 286.863 32.492 A 36.2 36.2 0 0 0 285.352 32.461 A 41.055 41.055 0 0 0 282.713 32.54 Q 280.114 32.708 278.44 33.235 A 7.552 7.552 0 0 0 277.236 33.721 A 4.56 4.56 0 0 0 275.585 35.112 Q 274.968 35.975 274.804 37.157 A 6.409 6.409 0 0 0 274.746 37.911 A 288.487 288.487 0 0 0 274.532 42.843 A 251.35 251.35 0 0 0 274.482 44.414 A 130.24 130.24 0 0 0 274.43 48.099 A 122.904 122.904 0 0 0 274.453 50.508 Z M 592.266 50.508 L 613.184 50.508 A 268.699 268.699 0 0 0 613.293 44.729 A 233.5 233.5 0 0 0 613.301 42.891 Q 613.301 39.46 613.092 38.067 A 6.856 6.856 0 0 0 613.066 37.911 A 6.257 6.257 0 0 0 612.677 36.131 A 4.584 4.584 0 0 0 610.547 33.721 Q 608.615 32.656 604.675 32.492 A 36.2 36.2 0 0 0 603.164 32.461 A 41.055 41.055 0 0 0 600.526 32.54 Q 597.926 32.708 596.253 33.235 A 7.552 7.552 0 0 0 595.049 33.721 A 4.56 4.56 0 0 0 593.397 35.112 Q 592.781 35.975 592.617 37.157 A 6.409 6.409 0 0 0 592.559 37.911 A 288.487 288.487 0 0 0 592.344 42.843 A 251.35 251.35 0 0 0 592.295 44.414 A 130.24 130.24 0 0 0 592.242 48.099 A 122.904 122.904 0 0 0 592.266 50.508 Z M 849.082 50.508 L 870 50.508 A 268.699 268.699 0 0 0 870.11 44.729 A 233.5 233.5 0 0 0 870.117 42.891 Q 870.117 39.46 869.908 38.067 A 6.856 6.856 0 0 0 869.883 37.911 A 6.257 6.257 0 0 0 869.494 36.131 A 4.584 4.584 0 0 0 867.363 33.721 Q 865.432 32.656 861.491 32.492 A 36.2 36.2 0 0 0 859.98 32.461 A 41.055 41.055 0 0 0 857.342 32.54 Q 854.742 32.708 853.069 33.235 A 7.552 7.552 0 0 0 851.865 33.721 A 4.56 4.56 0 0 0 850.214 35.112 Q 849.597 35.975 849.433 37.157 A 6.409 6.409 0 0 0 849.375 37.911 A 288.487 288.487 0 0 0 849.161 42.843 A 251.35 251.35 0 0 0 849.111 44.414 A 130.24 130.24 0 0 0 849.059 48.099 A 122.904 122.904 0 0 0 849.082 50.508 Z" vector-effect="non-scaling-stroke"/></g></svg>