<svg role="img" style="shape-rendering: geometricPrecision;
text-rendering: optimizeLegibility; fill-rule:evenodd; clip-rule:evenodd;" version="1.1" viewbox="0 0 185000 95000" width="240px" xml:space="preserve" xmlns="http://www.w3.org/2000/svg">
 <title>
  5.8.1
 </title>
 <g fill="#FFF" stroke="gray" stroke-width="800">
  <rect height="90000" rx="4500" ry="4500" width="180000" x="2500" y="2500">
  </rect>
 </g>
 <g class="blue_layer" fill="#0177D9" style="fill-rule: evenodd; clip-rule: nonzero;">
  <symbol id="5_8_1">
   <path d="M48844 34449l2500 0 0 7144 -2500 0 0 -7144zm44812 0l2500 0 0 7144 -2500 0 0 -7144zm-44812 19390l2500 0 0 7144 -2500 0 0 -7144zm44812 0l2500 0 0 7144 -2500 0 0 -7144zm-44812 -9865l2500 0 0 7144 -2500 0 0 -7144zm44812 0l2500 0 0 7144 -2500 0 0 -7144zm-44812 19390l2500 0 0 7863 -2500 0 0 -7863zm44812 0l2500 0 0 7863 -2500 0 0 -7863z" fill="#FFF">
   </path>
  </symbol>
  <symbol id="arrow up direction">
   <polygon fill="#FFF" points="5938,63000 5938,16642 0,16642 9500,0 19000,16642 13063,16642 13063,63000 ">
   </polygon>
  </symbol>
  <symbol id="arrow_up_left_direction">
   <path d="M30543 63000l0 -46359 5957 0 -9531 -16641 -9532 16641 5957 0 0 12596c-1773,-896 -3981,-1407 -6725,-1478l0 -5947 -16669 9516 16669 9515 0 -5947c3538,0 5729,738 6725,3328l0 24776 7149 0z" fill="#FFF">
   </path>
  </symbol>
  <symbol id="arrow_right_direction">
   <path d="M7148 63000l-7149 0 1 -33136c16,-9085 7353,-16426 16419,-16469l3368 -1 0 -5957 16641 9531 -16641 9532 0 -5957 -3289 0c-5164,1 -9349,4186 -9350,9350l0 33107z" fill="#FFF">
   </path>
  </symbol>
  <rect height="86000" rx="2500" ry="2500" width="176000" x="4500" y="4500">
  </rect>
  <g fill="#FFF" transform="scale(1.28)">
   <use x="1" xlink:href="#5_8_1" y="1">
   </use>
   <use x="100000" xlink:href="#arrow_right_direction" y="9000">
   </use>
   <use x="63000" xlink:href="#arrow up direction" y="9000">
   </use>
   <use x="8000" xlink:href="#arrow_up_left_direction" y="9000">
   </use>
  </g>
 </g>
 <g fill="red">
 </g>
</svg>
