<svg role="img" style="shape-rendering: geometricPrecision;
text-rendering: optimizeLegibility; fill-rule:evenodd; clip-rule:evenodd;" version="1.1" viewbox="0 0 124000 124000" width="168px" xml:space="preserve" xmlns="http://www.w3.org/2000/svg">
 <title>
  2.1
 </title>
 <g fill="#FFF" stroke="gray" stroke-width="800">
  <path d="M7455 58402l50947 -50947c2067,-2067 5449,-2067 7516,0l50947 50947c2067,2067 2067,5449 0,7516l-50947 50947c-2067,2067 -5449,2067 -7516,0l-50947 -50947c-2067,-2067 -2067,-5449 0,-7516z">
  </path>
 </g>
 <g class="blue_layer" fill="#0177D9" style="fill-rule: evenodd; clip-rule: nonzero;">
 </g>
 <g class="black_layer" fill="#000" stroke="#000" stroke-width="0.8mm" style="shape-rendering: geometricPrecision">
  <path class="yellow_layer" d="M32093 60490l28397 -28397c918,-919 2422,-919 3340,0l28397 28397c919,918 919,2422 0,3340l-28397 28397c-918,919 -2422,919 -3340,0l-28397 -28397c-919,-918 -919,-2422 0,-3340z" fill="orange">
  </path>
  <path d="M32093 60490l28397 -28397c918,-919 2422,-919 3340,0l28397 28397c919,918 919,2422 0,3340l-28397 28397c-918,919 -2422,919 -3340,0l-28397 -28397c-919,-918 -919,-2422 0,-3340zm835 835c-457,458 -457,1212 0,1670l28397 28397c458,457 1212,457 1670,0l28397 -28397c457,-458 457,-1212 0,-1670l-28397 -28397c-458,-457 -1212,-457 -1670,0l-28397 28397z">
  </path>
  <path d="M8290 59237c-1606,1606 -1606,4240 0,5846l50947 50947c1606,1606 4240,1606 5846,0l50947 -50947c1606,-1606 1606,-4240 0,-5846l-50947 -50947c-1606,-1606 -4240,-1606 -5846,0l-50947 50947zm835 835c-1145,1145 -1145,3031 0,4176l50947 50947c1145,1145 3031,1145 4176,0l50947 -50947c1145,-1145 1145,-3031 0,-4176l-50947 -50947c-1145,-1145 -3031,-1145 -4176,0l-50947 50947z">
  </path>
 </g>
</svg>
