<svg role="img" style="shape-rendering: geometricPrecision;
text-rendering: optimizeLegibility; fill-rule:evenodd; clip-rule:evenodd;" version="1.1" viewbox="0 0 95000 85000" width="140px" xml:space="preserve" xmlns="http://www.w3.org/2000/svg">
 <title>
  1.9
 </title>
 <g fill="#FFF" stroke="gray" stroke-width="800">
  <path d="M91867 75270c1761,2953 -345,6802 -3867,6802l-81000 0c-3522,0 -5628,-3849 -3867,-6802l40470 -70097c1762,-3051 6146,-2951 7824,52l40440 70045z">
  </path>
 </g>
 <g class="blue_layer" fill="#0177D9" style="fill-rule: evenodd; clip-rule: nonzero;">
 </g>
 <g fill="red">
  <path d="M91005 75776l-40448 -70057c-1321,-2368 -4733,-2393 -6088,-46l-40474 70103c-1383,2317 306,5296 3005,5296l81000 0c2740,0 4379,-2994 3005,-5296zm-42613 -61812l34411 59607c380,656 -90,1500 -866,1500l-68874 0c-801,0 -1265,-892 -838,-1546l34387 -59554c368,-724 1407,-728 1780,-7z">
  </path>
  <path d="M91596 78067l12 -110c148,16 339,32 484,59l-90 -104 75 -55 131 176 -11 100 -601 -66zm-75 384l24 -108c145,31 334,66 476,107l-80 -112 81 -47 112 189 -21 97 -592 -126zm-130 426l98 -309 80 26c18,12 148,221 231,276 100,66 184,18 111,-107l83 -39c37,63 52,115 32,179 -55,170 -244,130 -365,-24l-115 -160 -60 188 -95 -30zm247 373c-69,161 -294,69 -344,-41 -40,-90 19,-211 84,-256l97 42c-61,35 -158,155 -22,213 97,43 133,-33 139,-113l39 -22 271 137 -103 237 -92 -40 64 -149 -116 -59c-3,15 -9,33 -17,51zm-288 128l85 47 -101 182 -84 -47 100 -182zm-473 414l184 -267 69 47c14,17 78,255 141,331 77,92 171,70 138,-70l90 -14c18,71 17,125 -21,181 -101,147 -270,54 -342,-129l-64 -186 -112 163 -83 -56zm-25 499c-115,-97 -226,-214 -131,-327 95,-113 229,-23 344,74 113,95 226,215 132,327 -95,113 -227,24 -345,-74zm141 -167c-69,-57 -162,-141 -199,-98 -39,46 80,137 131,179 65,54 163,141 200,98 36,-43 -66,-123 -132,-179zm-459 464c-101,-112 -193,-244 -83,-342 109,-99 229,9 329,121 99,111 194,246 85,343 -110,99 -229,-8 -331,-122zm163 -145c-60,-67 -141,-163 -183,-126 -45,41 60,147 104,196 56,63 142,163 184,125 42,-37 -47,-131 -105,-195zm-669 155l261 -192 49 68c7,21 -9,266 25,359 42,112 139,122 153,-21l90 16c-7,73 -25,124 -80,164 -143,106 -273,-37 -281,-234l1 -197 -159 118 -59 -81z">
  </path>
 </g>
 <g class="black_layer" fill="#000" stroke="#000" stroke-width="0.8mm" style="shape-rendering: geometricPrecision">
  <g transform="scale(1.4625) translate(0, 0)">
   <path d="M21592 35750l13763 -15003 1673 1529 -13762 15003 -1674 -1529zm21855 8198l0 -8185 3058 0 7987 13780 -11045 0c-432,-306 -1152,-666 -2051,-666 -1260,0 -2734,791 -3994,791 -1619,0 -2878,-791 -4461,-791 -1583,0 -3094,791 -4677,791 -1224,0 -2411,-791 -3634,-791 -1134,0 -2159,270 -3077,684l-11045 0 7969 -13798 3076 0 0 8275c1008,-396 2051,-648 3059,-648 1223,0 2410,792 3670,792 1547,0 3058,-792 4641,-792 1619,0 2878,792 4497,792 1224,0 2734,-792 3958,-792 702,0 1385,324 2069,558zm0 2123l0 -1044c-684,-234 -1367,-558 -2069,-558 -1224,0 -2734,792 -3958,792 -1619,0 -2878,-792 -4497,-792 -1583,0 -3094,792 -4641,792 -1260,0 -2447,-792 -3670,-792 -1008,0 -2051,216 -3059,630l0 1062c918,-432 2033,-648 3077,-648 1223,0 2410,791 3634,791 1583,0 3094,-791 4677,-791 1583,0 2842,791 4461,791 1260,0 2734,-791 3994,-791 684,0 1367,324 2051,558zm0 2284l0 -1205c-684,-234 -1367,-558 -2051,-558 -1260,0 -2734,792 -3994,792 -1619,0 -2878,-792 -4461,-792 -1583,0 -3094,792 -4677,792 -1224,0 -2411,-792 -3634,-792 -1044,0 -2087,252 -3077,630l0 1223c936,-324 2033,-647 3077,-647 1223,0 2410,791 3634,791 1583,0 3094,-791 4677,-791 1583,0 2842,791 4461,791 1260,0 2734,-791 3994,-791 684,0 1367,323 2051,557z">
   </path>
  </g>
 </g>
</svg>
