<svg role="img" style="shape-rendering: geometricPrecision;
text-rendering: optimizeLegibility; fill-rule:evenodd; clip-rule:evenodd;" version="1.1" viewbox="0 0 75000 110000" width="140px" xml:space="preserve" xmlns="http://www.w3.org/2000/svg">
 <title>
  5.45
 </title>
 <g fill="#FFF" stroke="gray" stroke-width="800">
  <rect height="105000" rx="4500" ry="4500" width="70000" x="2500" y="2500">
  </rect>
 </g>
 <g class="blue_layer" fill="#0177D9" style="fill-rule: evenodd; clip-rule: nonzero;">
  <g fill="darkgrey">
   <path d="M49104.17 70407.29l-27010.72 -27010.71c-2527.9,3346.47 -3885.78,7398.57 -3885.78,11611.49 0,10651.48 8633.52,19285 19285,19285 4212.92,0 8265.02,-1357.88 11611.5,-3885.78z">
   </path>
   <path d="M25881.17 39608.57l27010.72 27010.71c2527.9,-3346.47 3885.78,-7398.57 3885.78,-11611.49 0,-10651.48 -8633.52,-19285 -19285,-19285 -4212.92,0 -8265.02,1357.88 -11611.5,3885.78z">
   </path>
  </g>
 </g>
 <g fill="red">
  <path d="M61778.36 55007.93c0,-13412.8 -10872.89,-24285.69 -24285.69,-24285.69 -13412.8,0 -24285.69,10872.89 -24285.69,24285.69 0,13412.8 10872.89,24285.69 24285.69,24285.69 13412.8,0 24285.69,-10872.89 24285.69,-24285.69zm-36970.74 -15462.85l28147.9 28147.9c2834.94,-3452.2 4537.18,-7869.33 4537.18,-12685.05 0,-11045.72 -8954.31,-20000.03 -20000.03,-20000.03 -4815.72,0 -9232.85,1702.09 -12685.05,4537.18zm25370.1 30925.7l-28147.9 -28147.9c-2834.94,3452.2 -4537.18,7869.33 -4537.18,12685.05 0,11045.72 8954.31,20000.03 20000.03,20000.03 4815.72,0 9232.85,-1702.09 12685.05,-4537.18z" fill="gray">
  </path>
 </g>
 <g class="black_layer" fill="#000" stroke="#000" stroke-width="0.8mm" style="shape-rendering: geometricPrecision">
  <path d="M18094.92 11202.45l1066.35 1460.84c907.93,-725.84 1538.24,-1083.79 2767.13,-1082.19 337.08,0.44 686.96,65.69 969.68,258.74 224.69,153.43 381.16,371.37 455.38,632.94 74.09,261.13 59.7,543.66 -22.89,800.97 -155.4,484.13 -551.51,880.79 -1075.79,916.98 -485.06,33.49 -972.03,37.73 -1458.19,38.14l0 1363.8 678.75 0c520.17,0 1099.21,89.5 1534.28,394.85 316.63,222.23 528.66,544.03 565.12,933.17 33.37,356.32 -87.51,707.59 -302.66,989.63 -246.68,323.37 -601.78,541.7 -992.25,646.9 -501.82,135.19 -1033.2,79.64 -1522.38,-79.97 -669.3,-218.38 -1285.38,-632.99 -1814.86,-1094.68l-1101.55 1415.25c1132.6,895.79 2223.26,1673.09 3738.94,1658.77 696.49,-6.57 1389.75,-141.34 2016.91,-450.82 515.67,-254.46 968.87,-619.65 1311.28,-1082.93 300.47,-406.51 509.84,-882.54 585.02,-1383.61 68.38,-455.8 23.75,-927.43 -164.26,-1350.81 -237.12,-533.97 -665.25,-912.01 -1204.44,-1126.69l-193.78 -77.15 178.23 -108.34c567.76,-345.14 955.99,-881.91 1113.61,-1526.38 238.46,-974.94 -88.31,-2045.75 -840.14,-2712.94 -1621.28,-1438.75 -4673.95,-733.42 -6213.2,505.72l-74.29 59.81zm13595.84 9087.75c1233.78,0 2182.42,-586.38 2906.47,-1559.52 1549.66,-2082.77 1549.67,-5169.89 0,-7252.66 -724.05,-973.13 -1672.69,-1559.53 -2906.47,-1559.53 -1233.78,0 -2182.42,586.4 -2906.47,1559.53 -1549.67,2082.77 -1549.66,5169.89 0,7252.66 724.05,973.14 1672.69,1559.52 2906.47,1559.52zm21.7 -1916.96c-1576.37,0 -2012.44,-2061.53 -2012.44,-3294.21 0,-1236.67 430.71,-3291.8 2012.44,-3291.8 1580.14,0 2019.68,2054.17 2019.68,3291.8 0,1236.49 -440.72,3294.21 -2019.68,3294.21zm8484.82 -8512.47l-2030.3 0 0 10323.33 2030.3 0 0 -4564.9 3537.77 0 0 4564.9 2027.89 0 0 -10323.33 -2027.89 0 0 3877.64 -3537.77 0 0 -3877.64zm14987.93 10323.33l2281.07 0 -3464.94 -10316.1 -2186.56 0 -3428.04 10316.1 2281.24 0 651.09 -2090.74 3195.75 0 670.39 2090.74zm-3338.9 -3908.83l1030.69 -3347.01 1174.23 3347.01 -2204.92 0z">
  </path>
  <path d="M6992.67 3507.92l61000 0c1925,0 3500,1575 3500,3500l0 95999.99c0,1925 -1575,3500 -3500,3500l-61000 0c-1925,0 -3500,-1575 -3500,-3500l0 -95999.99c0,-1925 1575,-3500 3500,-3500zm63500 9815.77l-66000 60914.89 0 4082.47 66000 -60914.89 0 -4082.47zm-66000 58873.65l66000 -60914.89 0 -4274.54c0,-1375 -1125,-2500 -2500,-2500l-61000 0c-1375,0 -2500,1125 -2500,2500l0 65189.43zm66000 -52749.94l-66000 60914.89 0 4082.46 66000 -60914.89 0 -4082.46zm0 6123.71l-66000 60914.89 0 4082.46 66000 -60914.89 0 -4082.46zm0 6123.7l-66000 60914.89 0 4082.47 66000 -60914.89 0 -4082.47zm0 6123.71l-66000 60914.89 0 4274.49c0,1375 1125,2500 2500,2500l61000 0c1375,0 2500,-1125 2500,-2500l0 -65189.38z">
  </path>
  <path d="M56403.53 96113.47c-713,-26.27 -805.9,1060.21 -805.9,1766.22 0,600.48 71.71,1044.15 213.94,1332.25 142.22,286.88 340.35,430.31 591.96,430.31 723.72,0 801.07,-1030.07 801.07,-1762.56 0,-600.48 -71.73,-1045.39 -213.95,-1333.46 -142.21,-288.1 -337.92,-432.76 -587.12,-432.76zm-21.87 -894.64c545.78,0 978.52,229.74 1298.21,688.01 319.7,458.27 482.57,1120.75 489.87,1987.43 -36.46,918.97 -206.64,1592.38 -511.76,2022.68 -305.09,429.08 -730.54,644.26 -1276.32,644.26 -550.65,0 -980.94,-215.18 -1289.72,-646.68 -307.53,-430.31 -475.27,-1107.37 -502.02,-2031.2 14.6,-866.68 179.91,-1526.74 495.96,-1981.36 314.84,-454.59 747.56,-683.14 1295.78,-683.14zm-4316.97 894.64c-713.01,-26.27 -805.92,1060.21 -805.92,1766.22 0,600.48 71.71,1044.15 213.94,1332.25 142.22,286.88 340.35,430.31 591.98,430.31 723.71,0 801.03,-1030.07 801.03,-1762.56 0,-600.48 -71.71,-1045.39 -213.92,-1333.46 -142.23,-288.1 -337.94,-432.76 -587.11,-432.76zm-21.89 -894.64c545.78,0 978.54,229.74 1298.21,688.01 319.7,458.27 482.58,1120.75 489.87,1987.43 -36.46,918.97 -206.63,1592.38 -511.74,2022.68 -305.11,429.08 -730.56,644.26 -1276.34,644.26 -550.65,0 -980.95,-215.18 -1289.71,-646.68 -307.54,-430.31 -475.29,-1107.37 -502.03,-2031.2 14.6,-866.68 179.91,-1526.74 495.97,-1981.36 314.82,-454.59 747.56,-683.14 1295.77,-683.14zm-3220.62 3879.98c629.55,0 954.52,760.68 503.31,1211.89 -447.12,447.11 -1211.9,134.33 -1211.9,-498.35 0,-398.48 309.36,-713.54 708.59,-713.54zm-3623.09 -4440.18c-915.13,103.49 -1295.45,1376.34 -703.63,1928.57 222.69,207.81 455.09,287.12 693.7,238.4 239.85,-48.96 521.25,-180.84 844.34,-398.99 324.23,-218.92 432.85,-477.09 327.8,-776.48 -165.45,-471.66 -601.12,-1051.62 -1162.21,-991.5zm2374.11 993.18c115.89,641.74 129.14,1301.37 41.4,1978.87 -86.1,677.47 -349.34,1306.24 -784.75,1887.88 -437.08,580 -955.29,903.32 -1557.92,966.69 -600.98,63.35 -1233.41,-42.25 -1895.65,-315.19l-67.88 -1095.05c763.23,302.2 1332.75,420.81 1708.56,355.81 377.49,-64.99 700.34,-279.44 970.19,-643.37 269.86,-363.94 443.69,-887.07 521.5,-1572.7 -624.16,558.89 -1175.46,817.23 -1655.59,778.24 -480.12,-40.63 -907.26,-251.83 -1281.41,-638.5 -372.53,-385.07 -544.7,-914.7 -513.25,-1588.95 29.8,-674.23 253.31,-1221.77 667.21,-1642.54 413.9,-420.8 928.78,-638.51 1546.32,-654.75 617.53,-16.25 1127.46,183.59 1528.12,597.88 400.65,414.28 658.91,942.32 773.15,1585.68zm-6390.59 4869.27l-1337.72 0 0 -5301.21 -867.52 605.95 -476.82 -610.91 1538.05 -1653.94 1144.01 0 0 6960.11zm-4695.75 -3779.35l0 1067.86 -3297.94 0 0 -1067.86 3297.94 0zm-7285.95 -647.46c-713,-26.28 -805.93,1060.21 -805.93,1766.21 0,600.49 71.73,1044.16 213.96,1332.26 142.2,286.86 340.33,430.3 591.97,430.3 723.7,0 801.06,-1030.07 801.06,-1762.56 0,-600.48 -71.73,-1045.38 -213.95,-1333.45 -142.23,-288.11 -337.94,-432.76 -587.11,-432.76zm-21.87 -894.64c545.79,0 978.51,229.74 1298.2,688.01 319.69,458.26 482.58,1120.74 489.88,1987.42 -36.48,918.97 -206.66,1592.39 -511.76,2022.69 -305.09,429.08 -730.53,644.26 -1276.32,644.26 -550.67,0 -980.97,-215.18 -1289.72,-646.69 -307.54,-430.3 -475.27,-1107.37 -502.02,-2031.19 14.57,-866.69 179.9,-1526.74 495.94,-1981.37 314.83,-454.59 747.57,-683.13 1295.8,-683.13zm-4316.99 894.64c-713,-26.28 -805.91,1060.21 -805.91,1766.21 0,600.49 71.71,1044.16 213.94,1332.26 142.21,286.86 340.36,430.3 591.97,430.3 723.71,0 801.05,-1030.09 801.05,-1762.56 0,-600.48 -71.72,-1045.38 -213.93,-1333.45 -142.22,-288.11 -337.93,-432.76 -587.12,-432.76zm-21.87 -894.64c545.78,0 978.52,229.74 1298.19,688.01 319.71,458.26 482.6,1120.74 489.9,1987.42 -36.47,918.97 -206.66,1592.39 -511.77,2022.69 -305.09,429.08 -730.54,644.26 -1276.32,644.26 -550.66,0 -980.94,-215.18 -1289.72,-646.69 -307.54,-430.3 -475.28,-1107.37 -502.03,-2031.19 14.59,-866.69 179.9,-1526.74 495.97,-1981.37 314.84,-454.59 747.56,-683.13 1295.78,-683.13zm-3391.02 3899.18c629.55,0 954.52,760.68 503.31,1211.89 -447.11,447.1 -1211.9,134.34 -1211.9,-498.35 0,-398.49 309.36,-713.54 708.59,-713.54zm-4633.55 -4311.05l208.61 -1216.85 4355.86 0 0 1086.06c-1153.95,1706.92 -1953.6,3662.17 -2400.6,5864.11l-1397.32 0c369.2,-1855.92 1215.2,-3766.46 2536.36,-5733.32l-3302.91 0z">
  </path>
 </g>
</svg>
