<svg role="img" style="shape-rendering: geometricPrecision;
text-rendering: optimizeLegibility; fill-rule:evenodd; clip-rule:evenodd;" version="1.1" viewbox="0 0 75000 40000" width="140px" xml:space="preserve" xmlns="http://www.w3.org/2000/svg">
 <title>
  7.17
 </title>
 <g fill="#FFF" stroke="gray" stroke-width="800">
  <rect height="35000" rx="4500" ry="4500" width="70000" x="2500" y="2500">
  </rect>
 </g>
 <g class="blue_layer" fill="#0177D9" style="fill-rule: evenodd; clip-rule: nonzero;">
 </g>
 <g fill="red">
 </g>
 <g class="black_layer" fill="#000" stroke="#000" stroke-width="0.8mm" style="shape-rendering: geometricPrecision">
  <symbol id="7_17">
   <path d="M34193 14499l0 3408c0,700 -812,1485 -1537,1485l-5909 0c-878,0 -1873,962 -1873,1815l0 6121c-32,1509 960,1797 1808,1746 1054,-51 1510,-621 1510,-1968l170 -4241 1441 -11c770,4457 3943,7589 8691,7589 4910,0 8913,-3815 8913,-8555 0,-4690 -3257,-8104 -7789,-8603l0 -1303c0,-722 -68,-1629 -1561,-1570 -1966,64 -3894,1885 -3864,4087zm-2044 8355c486,3089 3014,5471 6345,5471 3671,0 6667,-2893 6667,-6437 0,-3125 -2336,-5753 -5416,-6322l0 3918c0,1676 -1753,3370 -3489,3370l-4107 0zm5613 -18132c1638,111 2295,996 2295,2216 0,1219 -837,2564 -2848,2786 -2010,222 -3207,-900 -3207,-2120 0,-1220 2124,-2993 3761,-2882l-1 0zm-4529 9078l-6453 0c-1290,-31 -1239,2633 0,2633l6453 0 0 -2633z">
   </path>
  </symbol>
  <g transform="scale(1)">
   <use x="3000" xlink:href="#7_17" y="3000">
   </use>
  </g>
  <use x="0" xlink:href="#border 350x700" y="0">
  </use>
 </g>
</svg>
