<svg role="img" style="shape-rendering: geometricPrecision;
text-rendering: optimizeLegibility; fill-rule:evenodd; clip-rule:evenodd;" version="1.1" viewbox="0 0 75000 40000" width="140px" xml:space="preserve" xmlns="http://www.w3.org/2000/svg">
 <title>
  7.8
 </title>
 <g fill="#FFF" stroke="gray" stroke-width="800">
  <rect height="35000" rx="4500" ry="4500" width="70000" x="2500" y="2500">
  </rect>
 </g>
 <g class="blue_layer" fill="#0177D9" style="fill-rule: evenodd; clip-rule: nonzero;">
 </g>
 <g fill="red">
 </g>
 <g class="black_layer" fill="#000" stroke="#000" stroke-width="0.8mm" style="shape-rendering: geometricPrecision">
  <symbol id="7_8">
   <path d="M35410 11468c-156,-2283 1379,-3791 3733,-3879 2060,-79 3757,1262 3988,3491 119,1167 -524,2565 -1511,3209l-3172 2081 4623 -24 9 1712 -7590 40 -8 -1580 4824 -3450c587,-419 920,-1226 950,-1937 51,-1161 -918,-2010 -2104,-1875 -1122,130 -2033,955 -2041,2203l-1701 9zm13361 -3998c2433,-13 4437,2420 4452,5419 16,3003 -1962,5452 -4396,5465 -2438,13 -4442,-2415 -4457,-5419 -16,-2999 1962,-5452 4401,-5465zm8 1637c1411,-7 2575,1697 2586,3791 11,2100 -1135,3816 -2546,3824 -1416,7 -2580,-1698 -2591,-3797 -11,-2094 1135,-3811 2551,-3818zm-27487 -697l49 9276 -1740 9 -37 -7146 -1740 9 -6 -1178c1100,-14 1669,-148 1813,-961l1661 -9zm2182 4725l206 -4775 6051 -31 8 1545 -4629 24 -62 1732c508,-395 1262,-827 1951,-759 1627,162 2906,1511 2949,3261 60,2474 -1630,3786 -3702,3950 -1482,115 -2788,-1047 -3456,-2040l1347 -755c437,570 1104,1092 2008,1206 1021,126 1939,-662 2177,-1838 220,-1078 -476,-2155 -1546,-2191 -736,-25 -1522,284 -1997,899l-1305 -228zm-17545 -3871l41 7703 -1445 8 -31 -5935 -1445 7 -5 -977c913,-12 1386,-124 1505,-799l1380 -7zm2367 -4606c-4522,24 -8200,3740 -8176,8258 10,1888 668,3625 1752,5005 1511,2347 4164,3902 7168,3886 2635,-14 4983,-1236 6532,-3141 544,749 1192,1414 1927,1976 1740,1687 4120,2721 6735,2708 3525,-19 6597,-1933 8263,-4773 1172,2182 3030,3942 5238,5066 2053,1449 4554,2296 7244,2282 6867,-36 12437,-5665 12401,-12532 -25,-4803 -2780,-8972 -6783,-11031 -2048,-1449 -4554,-2301 -7243,-2287 -5202,27 -9653,3266 -11503,7803 -509,-661 -1141,-1208 -1759,-1770 -1793,-1638 -4134,-2737 -6759,-2723 -3338,17 -6279,1744 -7996,4334 -1646,-1850 -4538,-3074 -7041,-3061zm2461 4333c1854,-9 3378,1841 3390,4122 11,2281 -1493,4147 -3346,4157 -1854,9 -3377,-1841 -3389,-4122 -12,-2281 1492,-4147 3345,-4157zm7 1244c1071,-5 1958,1288 1967,2885 8,1598 -865,2900 -1937,2906 -1076,6 -1958,-1287 -1967,-2885 -8,-1598 860,-2900 1937,-2906zm22021 7829c1567,-3081 1340,-6850 -597,-9716 1820,-4596 6080,-7750 11090,-7776 6607,-35 12076,5221 12111,11843 34,6588 -5207,12067 -11834,12102 -4645,24 -8660,-2472 -10770,-6453zm-16901 197c1006,-1407 1596,-3125 1587,-4974 -11,-1951 -684,-3742 -1802,-5167 1775,-2797 4829,-4356 8138,-4251 4671,153 8694,4148 8719,8838 26,5049 -3722,9434 -8977,9461 -3131,17 -5818,-1370 -7665,-3907zm-7192 -13103c4052,170 7349,3599 7370,7675 22,4232 -3445,7756 -7692,7778 -4198,22 -7741,-3435 -7763,-7648 -23,-4410 3650,-7988 8085,-7805z">
   </path>
  </symbol>
  <g transform="scale(1)">
   <use x="8750" xlink:href="#7_8" y="7000">
   </use>
  </g>
  <use x="0" xlink:href="#border 350x700" y="0">
  </use>
 </g>
</svg>
