<svg role="img" style="shape-rendering: geometricPrecision;
text-rendering: optimizeLegibility; fill-rule:evenodd; clip-rule:evenodd;" version="1.1" viewbox="0 0 75000 75000" width="140px" xml:space="preserve" xmlns="http://www.w3.org/2000/svg">
 <title>
  4.5
 </title>
 <g fill="#FFF" stroke="gray" stroke-width="800">
  <circle cx="37500" cy="37500" r="35000">
  </circle>
 </g>
 <g class="blue_layer" fill="#0177D9" style="fill-rule: evenodd; clip-rule: nonzero;">
  <circle cx="37500" cy="37500" r="33000">
  </circle>
  <symbol id="bicycle fill #FFF">
   <path d="M32780 10573c3298,0 5987,2693 5987,5991 0,3298 -2689,5992 -5987,5992 -2963,0 -5434,-2174 -5908,-5004l5663 0c622,0 1071,-270 1077,-929 5,-516 -444,-914 -716,-1355l-2563 -4171c747,-337 1576,-524 2447,-524zm-22070 -329c-1035,-574 -2225,-902 -3486,-902 -3979,0 -7224,3245 -7224,7224 0,3977 3245,7222 7224,7222 3978,0 7222,-3245 7222,-7222 0,-2175 -971,-4132 -2504,-5459l657 -1218 9082 7663 3944 0c486,3514 3512,6236 7155,6236 3975,0 7220,-3245 7220,-7224 0,-3979 -3245,-7224 -7220,-7224 -1106,0 -2157,251 -3096,700l-2230 -3635 1002 -1704 614 0c1304,0 1310,-1779 0,-1779l-4618 0c-1137,0 -1131,1857 0,1857l2232 0 -538 1006 -12086 0c239,-894 9,-1667 -538,-2167 -462,-423 -1321,-635 -1155,-1317 98,-406 581,-771 1002,-771l2924 0c1169,0 1178,-1318 0,-1318l-2385 0c-1611,0 -2772,965 -2772,2322 0,1120 843,1686 1463,1780 535,79 472,1138 231,1626l-2120 4304zm-545 1108c-872,-494 -1874,-777 -2941,-777 -3300,0 -5991,2691 -5991,5991 0,3298 2691,5990 5991,5990 3298,0 5989,-2692 5989,-5990 0,-1706 -720,-3249 -1871,-4341l-1218 2264c-559,1042 -1237,2183 -2235,2816 -442,279 -1263,43 -1440,-449 -196,-547 255,-1108 795,-1220 721,-147 1294,-982 1582,-1568l1339 -2716zm18754 637c-1110,938 -1878,2275 -2078,3783l4386 0 -2308 -3783zm-649 -1063c-1457,1171 -2457,2893 -2669,4846l-2457 0 3693 -7199 1433 2353zm-6589 4614l-8390 -7045 539 -1316 11930 0 -4079 8361z" fill="#FFF">
   </path>
  </symbol>
  <g transform="scale(1.2)">
   <use x="11000" xlink:href="#bicycle fill #FFF" y="18000">
   </use>
  </g>
 </g>
</svg>
