<svg role="img" style="shape-rendering: geometricPrecision;
text-rendering: optimizeLegibility; fill-rule:evenodd; clip-rule:evenodd;" version="1.1" viewbox="0 0 118000 105000" width="140px" xml:space="preserve" xmlns="http://www.w3.org/2000/svg">
 <title>
  1.17 временный
 </title>
 <g fill="#FFD323" stroke="gray" stroke-width="800">
  <path d="M58999 2791c1665,0 3119,904 3897,2248l1 0 52156 90336c33,55 65,110 96,167l5 9 0 0c351,641 551,1376 551,2158 0,2486 -2015,4500 -4500,4500l-104410 -4c-2485,0 -4500,-2015 -4500,-4500 0,-797 208,-1545 571,-2194l-1 0 12 -20c11,-20 23,-40 34,-59l52187 -90391 3 0c778,-1345 2232,-2250 3898,-2250z">
  </path>
 </g>
 <g class="blue_layer" fill="#0177D9" style="fill-rule: evenodd; clip-rule: nonzero;">
 </g>
 <g fill="red">
  <path d="M55624 6130l-51847 89802c-10,17 -20,35 -30,52l-9 16c-292,522 -443,1106 -443,1705 0,1933 1567,3500 3500,3500l104410 4c1933,1 3500,-1566 3500,-3500 0,-586 -145,-1159 -426,-1674l-1 -2 -5 -9c-24,-44 -49,-87 -75,-129l-5 -10 -51817 -89748 0 0 -345 -597c-627,-1082 -1777,-1749 -3032,-1749 -1255,0 -2406,667 -3032,1751l-341 589 -2 -1zm3374 12157c368,0 690,199 863,495l0 0 4 6 1 3 41787 72376c100,155 158,340 158,539 0,552 -448,1000 -1000,1000l-83623 0c-553,0 -1000,-448 -1000,-1000 0,-183 48,-354 134,-501l-1 0 41809 -72414 2 -3 3 -6 0 0c174,-296 495,-495 863,-495z">
  </path>
 </g>
 <g class="black_layer" fill="#000" stroke="#000" stroke-width="0.8mm" style="shape-rendering: geometricPrecision">
  <g transform="scale(1.73) translate(1800, 2200)">
   <path d="M47364 43301c839,0 1523,683 1523,1523 0,840 -684,1523 -1523,1523 -840,0 -1524,-683 -1524,-1523 0,-840 684,-1523 1524,-1523zm-4059 1522c977,0 1777,800 1777,1777 0,976 -800,1777 -1777,1777 -976,0 -1777,-801 -1777,-1777 0,-977 801,-1777 1777,-1777zm-8708 4058l5976 -2168 312 1191 -6093 1660 -195 -683zm10864 -12851c1231,0 2227,996 2227,2226 0,1230 -996,2226 -2227,2226 -1230,0 -2226,-996 -2226,-2226 0,-1230 996,-2226 2226,-2226zm-16106 12978l12753 -9316 976 1133 -13378 8788 -351 -605zm5157 -15853c684,0 1231,547 1231,1230 0,684 -547,1231 -1231,1231 -683,0 -1230,-547 -1230,-1231 0,-683 547,-1230 1230,-1230zm761 3720c1055,0 1914,859 1914,1914 0,1055 -859,1914 -1914,1914 -1054,0 -1914,-859 -1914,-1914 0,-1055 860,-1914 1914,-1914zm-9046 12259l6230 -7538 937 781 -6562 7285 -605 -528zm-3847 -3635l3066 0 0 2226c0,703 -762,1563 -1563,1563 -859,-20 -1523,-781 -1523,-1524l20 -2265zm930 -7356c976,0 1757,782 1757,1758 0,976 -781,1758 -1757,1758 -977,0 -1758,-782 -1758,-1758 0,-976 781,-1758 1758,-1758zm-3574 -8378l840 0c1054,0 2460,586 2773,1602l1562 5077 625 0c742,0 1601,840 1601,1602l0 4472c0,937 -1093,2070 -2050,2070l-13925 0 4805 -8300 7206 0 -1230 -3984c-176,-547 -879,-1016 -1446,-1016l-1640 0 879 -1523z">
   </path>
  </g>
 </g>
</svg>
