<svg role="img" style="shape-rendering: geometricPrecision;
text-rendering: optimizeLegibility; fill-rule:evenodd; clip-rule:evenodd;" version="1.1" viewbox="0 0 75000 75000" width="140px" xml:space="preserve" xmlns="http://www.w3.org/2000/svg">
 <title>
  3.6
 </title>
 <g fill="#FFF" stroke="gray" stroke-width="800">
  <circle cx="37500" cy="37500" r="35000">
  </circle>
 </g>
 <g class="blue_layer" fill="#0177D9" style="fill-rule: evenodd; clip-rule: nonzero;">
 </g>
 <g fill="red">
  <path d="M37500 3500c18778,0 34000,15222 34000,34000 0,18778 -15222,34000 -34000,34000 -18778,0 -34000,-15222 -34000,-34000 0,-18778 15222,-34000 34000,-34000zm0 6000c15464,0 28000,12536 28000,28000 0,15464 -12536,28000 -28000,28000 -15464,0 -28000,-12536 -28000,-28000 0,-15464 12536,-28000 28000,-28000z">
  </path>
 </g>
 <g class="black_layer" fill="#000" stroke="#000" stroke-width="0.8mm" style="shape-rendering: geometricPrecision">
  <symbol id="3_6">
   <path d="M5184 24244c1581,0 2869,1290 2869,2870 0,1581 -1288,2869 -2869,2869 -1579,0 -2870,-1288 -2870,-2869 0,-1580 1291,-2870 2870,-2870zm0 -2314c2857,0 5183,2332 5183,5184 0,2857 -2326,5183 -5183,5183 -2852,0 -5184,-2326 -5184,-5183 0,-2852 2332,-5184 5184,-5184zm30815 -5634c4409,0 8001,3599 8001,8001 0,4408 -3592,8000 -8001,8000 -4401,0 -8000,-3592 -8000,-8000 0,-4402 3599,-8001 8000,-8001zm0 3320c2578,0 4681,2105 4681,4681 0,2578 -2103,4680 -4681,4680 -2575,0 -4680,-2102 -4680,-4680 0,-2576 2105,-4681 4680,-4681zm2852 -4264c-899,-289 -1858,-444 -2852,-444 -5161,0 -9386,4225 -9386,9386 0,62 3,125 3,187l-15444 0c-1014,-2297 -3316,-3911 -5988,-3911 -917,0 -1794,192 -2588,538l0 -7475c0,-1271 1422,-2713 2695,-2713l7689 0 0 -9015 2384 0 0 9015 5316 0 3569 -8135c760,-1734 1981,-2782 4362,-2782l7211 0c1570,0 2942,1297 2942,2941l0 7179c0,588 182,1221 556,1674l1190 1437 -1659 2118zm-12539 -12248l-2222 4705c-670,1422 -110,3191 1507,3191l7931 0c1779,0 2426,-1121 2426,-2426l0 -4833c0,-1158 -1046,-2010 -2010,-2010l-5413 0c-976,0 -1960,693 -2219,1373z">
   </path>
  </symbol>
  <use x="15500" xlink:href="#3_6" y="20350">
  </use>
 </g>
</svg>
