<svg role="img" style="shape-rendering: geometricPrecision;
text-rendering: optimizeLegibility; fill-rule:evenodd; clip-rule:evenodd;" version="1.1" viewbox="0 0 75000 110000" width="140px" xml:space="preserve" xmlns="http://www.w3.org/2000/svg">
 <title>
  6.4
 </title>
 <g fill="#FFF" stroke="gray" stroke-width="800">
  <rect height="105000" rx="4500" ry="4500" width="70000" x="2500" y="2500">
  </rect>
 </g>
 <g class="blue_layer" fill="#0177D9" style="fill-rule: evenodd; clip-rule: nonzero;">
  <rect height="101000" rx="2500" ry="2500" width="66000" x="4500" y="4500">
  </rect>
  <rect fill="#FFFFFF" height="57000" rx="2000" ry="2000" width="57000" x="9000" y="17500">
  </rect>
 </g>
 <g fill="red">
 </g>
 <g class="black_layer" fill="#000" stroke="#000" stroke-width="0.8mm" style="shape-rendering: geometricPrecision">
  <symbol id="service station">
   <path d="M7404 22049l0 23722c100,2359 2056,4211 4413,4197 2354,-11 4283,-1903 4347,-4264l0 -23842c-31,-1670 -257,-3312 -1199,-4680 -184,-1023 112,-2074 799,-2854 688,-780 1695,-1203 2734,-1148l998 6 4 -3394 -5389 0 0 -3083 5389 0 0 -6678 -12059 0 -7441 4624 0 2054 9752 0 0 3083 -9752 0c572,1993 2304,3436 4370,3636l1282 13c930,113 1784,553 2338,1304 553,750 1019,1782 612,2624 -722,1495 -1366,3027 -1198,4680z">
   </path>
  </symbol>
  <symbol fill="#FFF" id="service station direction">
   <polygon points="33836,6587 38402,6587 38402,8315 43768,4858 38402,1401 38402,3129 33836,3129 ">
   </polygon>
   <path d="M3589 9495l-1776 0 0 -7031 -1151 804 -630 -810 2038 -2194 1519 0 0 9231zm4957 -9470c986,0 1769,415 2345,1243 576,827 908,2025 883,3590 -27,1660 -371,2877 -922,3653 -550,775 -1320,1164 -2306,1164 -994,0 -1771,-389 -2329,-1168 -557,-777 -896,-2000 -907,-3669 -10,-1565 325,-2759 894,-3579 569,-821 1352,-1234 2342,-1234zm38 1616c-476,-8 -836,240 -1083,769 -247,529 -371,1337 -371,2421 0,1085 130,1887 387,2407 256,518 612,777 1067,777 494,0 858,-260 1093,-777 236,-520 354,-1322 354,-2407 0,-1084 -127,-1889 -385,-2408 -257,-521 -613,-774 -1062,-782zm7686 -1616c986,0 1768,415 2345,1243 576,827 908,2025 882,3590 -27,1660 -370,2877 -922,3653 -550,776 -1319,1164 -2305,1164 -995,0 -1772,-389 -2330,-1168 -557,-778 -895,-2000 -907,-3669 -10,-1566 325,-2758 894,-3579 570,-822 1352,-1234 2343,-1234zm37 1616c-476,-9 -836,240 -1082,769 -248,529 -371,1337 -371,2421 0,1085 129,1887 386,2407 256,518 613,777 1067,777 494,0 858,-259 1094,-777 236,-521 353,-1322 353,-2407 0,-1084 -127,-1888 -384,-2408 -258,-521 -613,-774 -1063,-782zm6613 1280l1500 0 1590 2958 1600 -2958 1550 0 631 6574 -1504 0 -503 -4163 -1770 3293 -1767 -3293 -503 4163 -1511 0 687 -6574z">
   </path>
  </symbol>
  <g transform="scale(0.95)">
   <use x="28000" xlink:href="#service station" y="24500">
   </use>
   <use x="17000" xlink:href="#service station direction" y="90000">
   </use>
  </g>
 </g>
</svg>
