<svg role="img" style="shape-rendering: geometricPrecision;
text-rendering: optimizeLegibility; fill-rule:evenodd; clip-rule:evenodd;" version="1.1" viewbox="0 0 95000 85000" width="140px" xml:space="preserve" xmlns="http://www.w3.org/2000/svg">
 <title>
  1.25
 </title>
 <g fill="#FFF" stroke="gray" stroke-width="800">
  <path d="M91867 75270c1761,2953 -345,6802 -3867,6802l-81000 0c-3522,0 -5628,-3849 -3867,-6802l40470 -70097c1762,-3051 6146,-2951 7824,52l40440 70045z">
  </path>
 </g>
 <g class="blue_layer" fill="#0177D9" style="fill-rule: evenodd; clip-rule: nonzero;">
 </g>
 <g fill="red">
  <path d="M91005 75776l-40448 -70057c-1321,-2368 -4733,-2393 -6088,-46l-40474 70103c-1383,2317 306,5296 3005,5296l81000 0c2740,0 4379,-2994 3005,-5296zm-42613 -61812l34411 59607c380,656 -90,1500 -866,1500l-68874 0c-801,0 -1265,-892 -838,-1546l34387 -59554c368,-724 1407,-728 1780,-7z">
  </path>
  <path d="M91596 78067l12 -110c148,16 339,32 484,59l-90 -104 75 -55 131 176 -11 100 -601 -66zm-75 384l24 -108c145,31 334,66 476,107l-80 -112 81 -47 112 189 -21 97 -592 -126zm-130 426l98 -309 80 26c18,12 148,221 231,276 100,66 184,18 111,-107l83 -39c37,63 52,115 32,179 -55,170 -244,130 -365,-24l-115 -160 -60 188 -95 -30zm247 373c-69,161 -294,69 -344,-41 -40,-90 19,-211 84,-256l97 42c-61,35 -158,155 -22,213 97,43 133,-33 139,-113l39 -22 271 137 -103 237 -92 -40 64 -149 -116 -59c-3,15 -9,33 -17,51zm-288 128l85 47 -101 182 -84 -47 100 -182zm-473 414l184 -267 69 47c14,17 78,255 141,331 77,92 171,70 138,-70l90 -14c18,71 17,125 -21,181 -101,147 -270,54 -342,-129l-64 -186 -112 163 -83 -56zm-25 499c-115,-97 -226,-214 -131,-327 95,-113 229,-23 344,74 113,95 226,215 132,327 -95,113 -227,24 -345,-74zm141 -167c-69,-57 -162,-141 -199,-98 -39,46 80,137 131,179 65,54 163,141 200,98 36,-43 -66,-123 -132,-179zm-459 464c-101,-112 -193,-244 -83,-342 109,-99 229,9 329,121 99,111 194,246 85,343 -110,99 -229,-8 -331,-122zm163 -145c-60,-67 -141,-163 -183,-126 -45,41 60,147 104,196 56,63 142,163 184,125 42,-37 -47,-131 -105,-195zm-669 155l261 -192 49 68c7,21 -9,266 25,359 42,112 139,122 153,-21l90 16c-7,73 -25,124 -80,164 -143,106 -273,-37 -281,-234l1 -197 -159 118 -59 -81z">
  </path>
 </g>
 <g class="black_layer" fill="#000" stroke="#000" stroke-width="0.8mm" style="shape-rendering: geometricPrecision">
  <g transform="scale(1.465) translate(0, 0)">
   <path d="M22849 39050c-293,818 1247,1364 1403,467l858 -5087c58,-312 195,-293 468,-156l3255 1793c351,176 838,215 1248,78l468 -156 5906 3840c857,527 1208,1170 1247,1872 98,1364 1287,1598 1872,1890 663,332 1364,1385 1618,2106l1325 3918c293,838 1560,448 1248,-546l-1716 -5088c-156,-487 -643,-857 -1013,-1169l-604 -487c-215,-176 -215,-624 -79,-858l1774 -3353c351,-663 -116,-1248 -467,-1501l-8227 -5516 -994 -5225 761 -38c604,-39 487,-624 0,-702l-1248 -176c-136,-19 -195,-370 -78,-468l2710 -2495c331,-312 662,-721 701,-1169l78 -780c98,-897 -682,-858 -857,-78l-156 624c-39,234 -234,487 -390,624l-2008 1871 156 -1014c117,-740 -702,-935 -1014,-78l-390 1014 -701 -624c-293,-273 -332,-468 -234,-857l156 -624c195,-780 -975,-800 -1092,-156l-253 1306c-20,175 0,448 136,545l1521 1424c448,409 292,877 -234,779l-3607 -643c-643,-117 -974,702 -467,1072l2826 2164c585,429 585,663 468,1403l-858 5166 -3021 -1637c-799,-449 -1326,-78 -1482,857l-1013 5868zm5633 -2067l1443 546 -1209 2456c-117,273 -97,527 0,819l1131 3801c273,877 -1053,1228 -1267,429l-1248 -4152c-156,-565 -331,-1092 0,-1715l1150 -2184zm10020 6862l0 4035c0,760 1286,858 1286,0l20 -3119 -1306 -916z">
   </path>
  </g>
 </g>
</svg>
