<svg role="img" style="shape-rendering: geometricPrecision;
text-rendering: optimizeLegibility; fill-rule:evenodd; clip-rule:evenodd;" version="1.1" viewbox="0 0 75000 75000" width="140px" xml:space="preserve" xmlns="http://www.w3.org/2000/svg">
 <title>
  3.7
 </title>
 <g fill="#FFF" stroke="gray" stroke-width="800">
  <circle cx="37500" cy="37500" r="35000">
  </circle>
 </g>
 <g class="blue_layer" fill="#0177D9" style="fill-rule: evenodd; clip-rule: nonzero;">
 </g>
 <g fill="red">
  <path d="M37500 3500c18778,0 34000,15222 34000,34000 0,18778 -15222,34000 -34000,34000 -18778,0 -34000,-15222 -34000,-34000 0,-18778 15222,-34000 34000,-34000zm0 6000c15464,0 28000,12536 28000,28000 0,15464 -12536,28000 -28000,28000 -15464,0 -28000,-12536 -28000,-28000 0,-15464 12536,-28000 28000,-28000z">
  </path>
 </g>
 <g class="black_layer" fill="#000" stroke="#000" stroke-width="0.8mm" style="shape-rendering: geometricPrecision">
  <symbol id="3_7" viewbox="0 0 75000 75000">
   <path d="M55026 41749c-876,634 -1541,1558 -1861,2631l-9196 0c-318,-1073 -982,-1997 -1859,-2631l12916 0zm-18514 0c-877,634 -1541,1558 -1858,2631l-5479 0 0 1713 -4869 0c5,-85 5,-174 5,-262 0,-1685 -815,-3175 -2063,-4082l14264 0zm-21930 4344c-5,-85 -8,-174 -8,-262 0,-1685 818,-3177 2066,-4082l-6386 0c231,1491 582,2942 1041,4344l3287 0zm43242 -2369c1135,0 2058,946 2058,2110 0,1164 -923,2110 -2058,2110 -1135,0 -2058,-946 -2058,-2110 0,-1164 923,-2110 2058,-2110zm0 -1970c2192,0 3978,1832 3978,4080 0,2248 -1786,4079 -3978,4079 -2192,0 -3978,-1831 -3978,-4079 0,-2248 1786,-4080 3978,-4080zm-18517 1970c1135,0 2058,946 2058,2110 0,1164 -923,2110 -2058,2110 -1135,0 -2058,-946 -2058,-2110 0,-1164 923,-2110 2058,-2110zm0 -1970c2193,0 3978,1832 3978,4080 0,2248 -1785,4079 -3978,4079 -2192,0 -3978,-1831 -3978,-4079 0,-2248 1786,-4080 3978,-4080zm-19864 1970c1135,0 2058,946 2058,2110 0,1164 -923,2110 -2058,2110 -1135,0 -2058,-946 -2058,-2110 0,-1164 923,-2110 2058,-2110zm0 -1970c2192,0 3978,1832 3978,4080 0,2248 -1786,4079 -3978,4079 -2192,0 -3979,-1831 -3979,-4079 0,-2248 1787,-4080 3979,-4080zm-9338 -1128l18042 0 0 -12894c0,-1887 -774,-2645 -2580,-2645l-12692 0c-1884,3731 -2947,7948 -2947,12413 0,1057 61,2100 177,3126zm25084 -6366l25957 0 0 6529 -25957 0 0 -6529z">
   </path>
  </symbol>
  <use x="500" xlink:href="#3_7" y="0">
  </use>
 </g>
</svg>
