<svg role="img" style="shape-rendering: geometricPrecision;
text-rendering: optimizeLegibility; fill-rule:evenodd; clip-rule:evenodd;" version="1.1" viewbox="0 0 95000 95000" width="140px" xml:space="preserve" xmlns="http://www.w3.org/2000/svg">
 <title>
  5.10.1
 </title>
 <g fill="#FFF" stroke="gray" stroke-width="800">
  <rect height="90000" rx="4500" ry="4500" width="90000" x="2500" y="2500">
  </rect>
 </g>
 <g class="blue_layer" fill="#0177D9" style="fill-rule: evenodd; clip-rule: nonzero;">
  <rect height="86000" rx="2500" ry="2500" width="86000" x="4500" y="4500">
  </rect>
  <symbol id="5_10_1">
   <path d="M27680 29729c2800,0 3160,-758 3160,-3161l0 -14917c0,-1502 -1513,-3188 -3190,-3188l-15066 0c-1677,0 -3191,1692 -3191,3188l0 14917c0,2397 360,3161 3161,3161l15126 0zm7487 -26100l4666 0 0 67742 -4666 0 0 -67742zm19903 4740l-9400 16077 5994 0 0 46676 6812 0 0 -46676 5995 0 -9401 -16077zm-34963 58168l-9401 -16077 5995 0 0 -9810 6812 0 0 9810 5995 0 -9401 16077zm-10167 -35747l3434 0 0 2236c0,1198 -859,1814 -1718,1820 -859,3 -1716,-595 -1716,-1820l0 -2236zm16919 0l3434 0 0 2236c0,1198 -859,1814 -1719,1820 -859,3 -1715,-595 -1715,-1820l0 -2236zm-13927 -7222c877,0 1590,714 1590,1591 0,877 -713,1591 -1590,1591 -878,0 -1591,-714 -1591,-1591 0,-877 713,-1591 1591,-1591zm14373 0c877,0 1590,714 1590,1591 1,877 -713,1591 -1590,1591 -877,0 -1591,-714 -1591,-1591 0,-877 714,-1591 1591,-1591zm-14468 -13056l14563 0c1035,0 1876,841 1876,1876l0 3859c0,1035 -841,1877 -1876,1877l-14563 0c-1036,0 -1877,-842 -1877,-1876l0 -3860c0,-1035 841,-1876 1877,-1876z" fill="#FFF">
   </path>
  </symbol>
  <g fill="#FFF" transform="scale(1.285)">
   <use x="-1000" xlink:href="#5_10_1" y="-500">
   </use>
  </g>
 </g>
 <g fill="red">
 </g>
</svg>
