<svg role="img" style="shape-rendering: geometricPrecision;
text-rendering: optimizeLegibility; fill-rule:evenodd; clip-rule:evenodd;" version="1.1" viewbox="0 0 95000 140000" width="px" xml:space="preserve" xmlns="http://www.w3.org/2000/svg">
 <title>
  4.9.2
 </title>
 <g fill="#FFF" stroke="gray" stroke-width="800">
  <rect height="135000" rx="4500" ry="4500" width="90000" x="2500" y="2500">
  </rect>
 </g>
 <g class="blue_layer" fill="#0177D9" style="fill-rule: evenodd; clip-rule: nonzero;">
  <path d="M47500 80047c-11522,0 -20867,9344 -20867,20866 0,11522 9345,20866 20867,20866 2208,0 4335,-344 6333,-980l130 -17722c124,-1460 -1304,-3265 -2983,-3239l-9636 0 0 3776 -9936 -5779 9936 -5874 0 3707 9413 0c3505,-107 7328,2340 7485,7289l-4 15849c6068,-3650 10128,-10298 10128,-17893 0,-11522 -9344,-20866 -20866,-20866z">
  </path>
 </g>
 <g fill="red">
 </g>
 <g class="black_layer" fill="#000" stroke="#000" stroke-width="0.8mm" style="shape-rendering: geometricPrecision">
  <path d="M7000 3500l81000 0c1925,0 3500,1575 3500,3500l0 126000c0,1925 -1575,3500 -3500,3500l-81000 0c-1925,0 -3500,-1575 -3500,-3500l0 -126000c0,-1925 1575,-3500 3500,-3500zm36779 60656l-8936 0 0 -5340c-1109,0 -3908,0 -5017,0l0 13789c1109,0 3908,1 5017,1l0 -5604 8980 0c569,1401 1969,2408 3589,2408 1620,0 3021,-1007 3590,-2408l9112 0 0 5603c1686,0 3373,1 5060,1 0,-4597 0,-9194 0,-13790 -1686,0 -3374,0 -5060,0l0 5340 -9068 0c-569,-1444 -2014,-2495 -3634,-2495 -1619,0 -3064,1051 -3633,2495zm-12535 -7325l32457 0 0 -1488 -32457 0 0 1488zm-24244 -52331l81000 0c1375,0 2500,1125 2500,2500l0 126000c0,1375 -1125,2500 -2500,2500l-81000 0c-1375,0 -2500,-1125 -2500,-2500l0 -126000c0,-1375 1125,-2500 2500,-2500z">
  </path>
  <path d="M31244 53332l32457 0 0 -30730c0,-2456 -1992,-4381 -4381,-4381l-23629 0c-2390,0 -4447,1991 -4447,4381l0 30730z" fill="orange">
  </path>
 </g>
</svg>
