<svg role="img" style="shape-rendering: geometricPrecision;
text-rendering: optimizeLegibility; fill-rule:evenodd; clip-rule:evenodd;" version="1.1" viewbox="0 0 95000 95000" width="140px" xml:space="preserve" xmlns="http://www.w3.org/2000/svg">
 <title>
  2.5
 </title>
 <g fill="#FFF" stroke="gray" stroke-width="800">
  <polygon points="28860,2500 2500,28860 2500,66140 28860,92500 66140,92500 92500,66140 92500,28860 66140,2500 ">
  </polygon>
 </g>
 <g class="blue_layer" fill="#0177D9" style="fill-rule: evenodd; clip-rule: nonzero;">
 </g>
 <g fill="red">
  <polygon points="29689,4500 4500,29689 4500,65311 29689,90500 65311,90500 90500,65311 90500,29689 65311,4500 ">
  </polygon>
  <path d="M12741 52316c1915,1985 3668,2938 5261,2869 3622,0 5318,-3398 2730,-5076 -820,-537 -2100,-985 -3834,-1348 -6415,-1363 -7442,-8753 -2247,-11911 1005,-611 2280,-921 3825,-921 2536,0 4825,947 6873,2843l-2252 2775c-1403,-1295 -2782,-1943 -4128,-1943 -2297,0 -3909,724 -3920,3162 -10,2253 5355,2785 7432,3757 3533,1653 3984,6082 2181,9147 -1508,2562 -4209,3401 -7115,3401 -2484,-52 -4930,-1416 -7333,-4086l2527 -2669zm31891 -12112l-5460 0 0 18420 -3555 0 0 -18467 -5456 0 0 -3623 14471 0 0 3670zm12603 18715c-2313,0 -4227,-1102 -5740,-3302 -1515,-2202 -2271,-4855 -2271,-7962 0,-3106 756,-5759 2271,-7961 1513,-2200 3427,-3302 5740,-3302 2232,0 4103,1102 5617,3302 1515,2202 2270,4855 2270,7961 0,3107 -755,5760 -2270,7962 -1514,2200 -3385,3302 -5617,3302zm28 -3660c1242,0 2273,-739 3095,-2222 822,-1481 1237,-3270 1237,-5366 0,-2096 -413,-3886 -1237,-5371 -820,-1479 -1853,-2217 -3095,-2217 -1341,0 -2425,736 -3237,2217 -814,1483 -1218,3275 -1218,5371 0,2096 407,3887 1218,5366 814,1485 1896,2222 3237,2222zm14397 3381l0 -22090 6276 0c2549,0 4901,1147 6105,3375 495,915 704,1976 740,3181 123,4148 -1937,7619 -6608,7619l-2929 0 0 7915 -3584 0zm3584 -11280l2596 0c2521,0 3776,-1915 3721,-4181 -49,-1978 -1866,-3112 -3773,-3112l-2544 0 0 7293z" fill="#FFFFFF">
  </path>
 </g>
</svg>
