<svg role="img" style="shape-rendering: geometricPrecision;
text-rendering: optimizeLegibility; fill-rule:evenodd; clip-rule:evenodd;" version="1.1" viewbox="0 0 65000 25000" width="px" xml:space="preserve" xmlns="http://www.w3.org/2000/svg">
 <title>
  5.28
 </title>
 <g fill="#FFF" stroke="gray" stroke-width="800">
  <rect height="20000" rx="4500" ry="4500" width="60000" x="2500" y="2500">
  </rect>
 </g>
 <g class="blue_layer" fill="#0177D9" style="fill-rule: evenodd; clip-rule: nonzero;">
  <path d="M6996.48 3466.79l20999.99 0c1925,0 3500,1575 3500,3500l0 11038.47c0,1925.01 -1575,3500.01 -3500,3500.01l-20999.99 0c-1925,0 -3500.01,-1575 -3500.01,-3500.01l0 -11038.47c0,-1925 1575.01,-3500 3500.01,-3500zm10537.92 5957.3c-429.21,0 -793.39,296.98 -1096.87,893.11 -301.32,593.97 -453.06,1313.66 -453.06,2154.74 0,843.25 151.74,1562.94 453.06,2159.07 303.48,598.3 667.66,897.45 1096.87,897.45 427.05,0 782.56,-299.15 1062.2,-897.45 281.81,-596.13 422.71,-1315.82 422.71,-2159.07 0,-841.08 -140.9,-1560.77 -422.71,-2154.74 -279.64,-596.13 -635.15,-893.11 -1062.2,-893.11zm-39.01 -1580.28c860.59,0 1593.29,453.06 2200.26,1359.17 606.96,906.12 912.62,1998.66 912.62,3281.97 0,1283.3 -305.66,2378.01 -912.62,3284.13 -606.97,906.12 -1339.67,1359.17 -2200.26,1359.17 -858.43,0 -1593.3,-453.05 -2200.26,-1359.17 -606.97,-906.12 -910.46,-2000.83 -910.46,-3284.13 0,-1283.31 303.49,-2375.85 910.46,-3281.97 606.96,-906.11 1341.83,-1359.17 2200.26,-1359.17z">
  </path>
  <path d="M36996.48 3466.79l20999.99 0c1925,0 3500,1575 3500,3500l0 11038.47c0,1925.01 -1575,3500.01 -3500,3500.01l-20999.99 0c-1925,0 -3500.01,-1575 -3500.01,-3500.01l0 -11038.47c0,-1925 1575.01,-3500 3500.01,-3500zm837.08 13310.76l-299.15 -1465.4c890.95,294.82 1630.17,436.78 2224.11,427.05 591.73,-9.7 1092.2,-163.14 1497.91,-459.56 407.11,-297.46 568.13,-639.58 483.4,-1029.68 -84.28,-388.04 -334.11,-693.28 -750.03,-916.96 -414.24,-222.79 -964.65,-307.82 -1651.82,-257.96l0 -1060.02c732.69,-134.4 1255.16,-359.89 1567.27,-676.34 309.95,-314.28 455.27,-622.18 431.38,-921.29 -23.72,-296.94 -126.3,-545.81 -307.82,-741.37 -182.59,-196.72 -435.81,-306.85 -758.71,-327.33 -325.18,-20.63 -613.51,4.38 -864.92,78.04 -251.42,73.66 -641.66,270.97 -1170.59,587.46l-546.27 -1287.64c485.58,-279.64 966.51,-484.74 1437.22,-611.31 472.17,-126.97 995.12,-161.33 1565.11,-101.88 572.34,59.7 1095.27,315.99 1567.28,769.55 470.88,452.48 651.34,1077.56 539.76,1870.76 -111.62,793.51 -606.96,1298.48 -1482.73,1513.09 641.65,190.76 1134.31,485.15 1469.73,880.1 336.5,396.2 507.3,921.32 513.75,1571.62 6.48,652.44 -278.53,1234.51 -851.92,1749.36 -573.27,514.76 -1309.32,806.41 -2206.76,871.44 -897.44,65.03 -1699.51,-88.88 -2406.2,-461.73zm6983.88 -119.23l-145.24 -1424.21c968.98,403.2 1734.24,559.41 2293.47,470.4 557.1,-88.68 1003.14,-282.43 1333.16,-580.95 328.93,-297.55 510.55,-663.43 541.94,-1094.71 31.41,-431.42 -91.61,-814.66 -370.69,-1148.91 -280.14,-335.53 -648.25,-519.21 -1105.55,-552.77 -457.44,-33.58 -932.13,208.1 -1428.54,730.53l-888.77 -509.42 0 -4469.89 5180.9 0 -474.73 1352.68 -3327.49 0 0 2267.45c444.39,-381.52 999.37,-542 1667,-483.4 665.47,58.4 1249.74,339.28 1751.53,838.91 501.82,499.64 740.26,1146.73 717.53,1940.13 -22.73,793.33 -257.97,1465.41 -704.52,2016.01 -446.55,550.6 -1077.67,931.14 -1892.44,1142.4 -815.31,211.39 -1864.26,47.69 -3147.56,-494.25zm10231.02 -7082.02c-429.21,0 -793.85,296.8 -1096.87,893.11 -301.71,593.72 -453.06,1313.66 -453.06,2154.74 0,843.25 151.35,1563.19 453.06,2159.07 303.02,598.48 667.66,897.45 1096.87,897.45 427.05,0 781.29,-299.8 1062.2,-897.45 280.47,-596.71 422.71,-1315.82 422.71,-2159.07 0,-841.08 -142.24,-1560.19 -422.71,-2154.74 -280.91,-595.48 -635.15,-893.11 -1062.2,-893.11zm-39.01 -1580.28c860.59,0 1593.3,453.06 2200.26,1359.17 606.96,906.11 912.62,1998.66 912.62,3281.97 0,1283.3 -305.69,2378.05 -912.62,3284.13 -606.93,906.09 -1339.67,1359.17 -2200.26,1359.17 -858.43,0 -1593.33,-453.09 -2200.26,-1359.17 -606.93,-906.09 -910.46,-2000.83 -910.46,-3284.13 0,-1283.31 303.53,-2375.88 910.46,-3281.97 606.93,-906.07 1341.83,-1359.17 2200.26,-1359.17z">
  </path>
 </g>
 <g fill="red">
 </g>
</svg>
