<svg role="img" style="shape-rendering: geometricPrecision;
text-rendering: optimizeLegibility; fill-rule:evenodd; clip-rule:evenodd;" version="1.1" viewbox="0 0 75000 40000" width="px" xml:space="preserve" xmlns="http://www.w3.org/2000/svg">
 <title>
  5.29.1
 </title>
 <g fill="#FFF" stroke="gray" stroke-width="800">
  <rect height="35000" rx="4500" ry="4500" width="70000" x="2500" y="2500">
  </rect>
 </g>
 <g class="blue_layer" fill="#0177D9" style="fill-rule: evenodd; clip-rule: nonzero;">
  <rect height="33001.86" rx="3500.2" ry="3500.2" width="68003.84" x="3492.28" y="3506.93">
  </rect>
  <path d="M15936.48 22433.18l4136.99 0 -2145.41 -6675.06 -1991.58 6675.06zm3570.28 -10884.9l5833.08 16981.11 -3424.55 0 -1153.67 -3262.64 -5513.29 0 -1113.19 3262.64 -3428.6 0 5537.59 -16981.11 3262.63 0zm16893.46 7368.4l0 2606.87 -8063.5 0 0 -2606.87 8063.5 0zm14471.38 6682.01l-890.54 2930.71 -10047 0 0 -2396.39c1570.28,-1581.23 7433.33,-7073.89 7865.15,-9439.8 518.93,-2842.88 -3521.56,-3734.62 -5788.55,-744.81l-1623.23 -2040.17c1343.92,-1408.68 2805.23,-2198.03 4387.97,-2372.08 3418.56,-376.92 5952.81,1397.08 6071.91,4966.81 62.79,1882.22 -1943.74,4914.21 -6821.51,9095.73l6845.79 0zm13410.24 0l-890.55 2930.71 -10046.99 0 0 -2396.39c1579.08,-1590.08 7426.04,-7063.61 7865.15,-9439.8 523.8,-2834.27 -3517.03,-3740.6 -5788.56,-744.81l-1623.22 -2040.17c1343.92,-1408.68 2805.26,-2197.81 4387.96,-2372.08 3417.33,-376.28 5952.87,1398.05 6071.91,4966.81 62.79,1882.21 -1943.73,4914.21 -6821.5,9095.73l6845.79 0z" fill="#FFF">
  </path>
 </g>
 <g fill="red">
 </g>
</svg>
