<svg role="img" style="shape-rendering: geometricPrecision;
text-rendering: optimizeLegibility; fill-rule:evenodd; clip-rule:evenodd;" version="1.1" viewbox="0 0 75000 75000" width="140px" xml:space="preserve" xmlns="http://www.w3.org/2000/svg">
 <title>
  3.29
 </title>
 <g fill="#FFF" stroke="gray" stroke-width="800">
  <circle cx="37500" cy="37500" r="35000">
  </circle>
 </g>
 <g class="blue_layer" fill="#0177D9" style="fill-rule: evenodd; clip-rule: nonzero;">
  <g>
   <path d="M53756 59059l-13756 -13756 0 12197 -5000 0 0 -17197 -19059 -19059c-3539,4685 -5440,10358 -5440,16256 0,14912 12087,26999 26999,26999 5898,0 11571,-1901 16256,-5440z">
   </path>
   <path d="M21244 15941l13756 13756 0 -12197 5000 0 0 17197 19059 19059c3539,-4685 5440,-10358 5440,-16256 0,-14912 -12087,-26999 -26999,-26999 -5898,0 -11571,1901 -16256,5440z">
   </path>
  </g>
 </g>
 <g fill="red">
  <path d="M71500 37500c0,-18778 -15222,-34000 -34000,-34000 -18778,0 -34000,15222 -34000,34000 0,18778 15222,34000 34000,34000 18778,0 34000,-15222 34000,-34000zm-51759 -21648l39407 39407c3969,-4833 6352,-11017 6352,-17759 0,-15464 -12536,-28000 -28000,-28000 -6742,0 -12926,2383 -17759,6352zm35518 43296l-39407 -39407c-3969,4833 -6352,11017 -6352,17759 0,15464 12536,28000 28000,28000 6742,0 12926,-2383 17759,-6352z">
  </path>
 </g>
</svg>
