<svg role="img" style="shape-rendering: geometricPrecision;
text-rendering: optimizeLegibility; fill-rule:evenodd; clip-rule:evenodd;" version="1.1" viewbox="0 0 75000 75000" width="140px" xml:space="preserve" xmlns="http://www.w3.org/2000/svg">
 <title>
  4.4
 </title>
 <g fill="#FFF" stroke="gray" stroke-width="800">
  <circle cx="37500" cy="37500" r="35000">
  </circle>
 </g>
 <g class="blue_layer" fill="#0177D9" style="fill-rule: evenodd; clip-rule: nonzero;">
  <circle cx="37500" cy="37500" r="33000">
  </circle>
  <symbol id="auto_side">
   <path d="M32586 12097c1520,0 2848,876 3504,2140 279,535 437,1139 437,1777 0,661 -164,1285 -452,1832 -660,1264 -1979,2128 -3489,2128 -1502,0 -2806,-856 -3463,-2110 -291,-552 -456,-1182 -456,-1850 0,-644 159,-1254 441,-1792 652,-1256 1964,-2125 3478,-2125zm-32586 -2523l109 3289c21,974 649,1645 1860,2012 1537,-5171 8634,-5106 9369,606l16488 0c1017,-5496 7681,-5755 9239,-671 714,-216 1580,-692 1774,-1449l1104 -4003c195,-736 -130,-1623 -671,-2186l-6578 -6431c-454,-455 -1125,-711 -1774,-711l-11511 -4c-1060,0 -2142,642 -2791,1464l-3657 4341c-671,844 -1774,1385 -2834,1536l-8461 996c-692,64 -1687,519 -1666,1211zm17084 -1839l14940 0c1406,0 2033,-1493 1536,-2661l-1363 -2848c-217,-541 -974,-801 -1558,-801l-10850 0c-844,0 -1406,22 -2164,974l-2337 2805c-648,822 -324,2531 1796,2531zm-10419 4371c2165,0 3940,1770 3940,3908 0,2181 -1775,3951 -3940,3951 -2165,0 -3919,-1770 -3919,-3951 0,-2138 1754,-3908 3919,-3908zm0 1446c1364,0 2468,1123 2468,2462 0,1382 -1104,2504 -2468,2504 -1364,0 -2468,-1122 -2468,-2504 0,-1339 1104,-2462 2468,-2462zm25921 0c959,0 1788,554 2197,1348 172,336 270,716 270,1114 0,422 -103,820 -284,1169 -414,794 -1235,1335 -2183,1335 -942,0 -1760,-535 -2176,-1322 -185,-352 -290,-755 -290,-1182 0,-403 99,-786 275,-1125 412,-788 1238,-1337 2191,-1337z">
   </path>
  </symbol>
  <g fill="#FFF" transform="scale(1.15)">
   <use x="12250" xlink:href="#auto_side" y="21500">
   </use>
  </g>
 </g>
</svg>
