<svg role="img" style="shape-rendering: geometricPrecision;
text-rendering: optimizeLegibility; fill-rule:evenodd; clip-rule:evenodd;" version="1.1" viewbox="0 0 110000 40000" width="px" xml:space="preserve" xmlns="http://www.w3.org/2000/svg">
 <title>
  5.29.2
 </title>
 <g fill="#FFF" stroke="gray" stroke-width="800">
  <rect height="35000" rx="4500" ry="4500" width="105000" x="2500" y="2500">
  </rect>
 </g>
 <g class="blue_layer" fill="#0177D9" style="fill-rule: evenodd; clip-rule: nonzero;">
  <path d="M68592.07 3506.73l34400 0c1925,0 3500,1575.03 3500,3500l0 25999.99c0,1924.97 -1575.02,3500 -3500,3500l-34400 0c-1924.98,0 -3500,-1575.01 -3500,-3500l0 -25999.99c0,-1924.99 1575,-3500 3500,-3500zm9819.2 29476.92l10453.92 -10453.92 4311.68 4311.68 4941.83 -19360.13 -19360.13 4941.83 4311.68 4311.68 -10453.92 10453.92 5794.94 5794.94z">
  </path>
  <path d="M6992.07 3506.73l53600 0c1925,0 3500,1575.14 3500,3500l0 25999.99c0,1924.86 -1575.13,3500 -3500,3500l-53600 0c-1924.87,0 -3500,-1575.01 -3500,-3500l0 -25999.99c0,-1924.99 1575,-3500 3500,-3500zm6970.46 24596.66l-294.11 -2883.99c1962.16,816.48 3511.77,1132.85 4644.22,952.55 1128.17,-179.61 2031.33,-571.87 2699.62,-1176.41 666.12,-602.58 1033.8,-1343.41 1097.41,-2216.77 63.64,-873.68 -185.46,-1649.61 -750.63,-2326.5 -567.31,-679.47 -1312.68,-1051.34 -2238.7,-1119.35 -926.36,-68.03 -1887.54,421.4 -2892.77,1479.3l-1799.74 -1031.56 0 -9051.41 10491.2 0 -961.32 2739.13 -6738.09 0 0 4591.55c899.88,-772.58 2023.66,-1097.58 3375.63,-978.89 1347.61,118.31 2530.64,686.99 3546.81,1698.78 1016.2,1011.81 1499.05,2322.07 1452.97,3928.72 -46.07,1606.52 -522.39,2967.4 -1426.63,4082.35 -904.24,1114.93 -2182.18,1885.5 -3832.14,2313.33 -1651.01,428.11 -3775.08,96.58 -6373.73,-1000.83zm13942.88 -14147.77l807.68 -3226.37 11035.52 0 0 2879.59c-2203.59,4696.91 -3700.46,7989.12 -4490.59,9876.66 -785.75,1887.54 -1286.16,3775.07 -1492.47,5671.4l-3700.46 0c162.42,-1733.9 820.86,-3722.41 1970.94,-5974.28 1154.48,-2251.88 2651.34,-5324.62 4494.99,-9227l-8625.61 0zm20307.51 6856.6c-1536.36,728.67 -2421.24,1601.65 -2651.33,2620.61 -230.82,1022.19 -53.81,1835.96 526.75,2445.01 582.67,611.26 1492.51,843.06 2730.36,706.74 1233.5,-135.83 1911.49,-865.01 2041.17,-2181.65 129.3,-1312.73 -750.63,-2510.86 -2646.95,-3590.71zm-52.67 -2545.98c1409.07,-755.02 2153.31,-1553.69 2238.71,-2392.35 85.78,-842.57 -98.72,-1477.07 -548.71,-1909.48 -449.88,-432.34 -1018.39,-649.66 -1707.56,-649.66 -689.16,0 -1259.67,250.34 -1703.17,755.01 -447.59,509.32 -607.56,1167.93 -478.47,1975.32 129.89,812.36 864.75,1549.55 2199.2,2221.16zm-3164.92 1259.82c-711.12,-636.5 -1289.01,-1291.57 -1733.9,-1962.17 -446.21,-672.61 -603.6,-1531.71 -474.08,-2572.31 129.45,-1040.07 636.51,-2032.4 1523.21,-2971.78 886.7,-939.36 2142.13,-1409.07 3761.91,-1409.07 1619.76,0 2896.06,448.9 3836.52,1347.62 938.28,896.62 1450.79,1896.49 1536.37,3006.89 85.61,1110.75 -42.13,1995.92 -386.29,2660.12 -345.02,665.85 -943.77,1299.32 -1812.92,1900.7 825.25,408.24 1490.05,945.67 2006.06,1606.6 515.56,660.34 730.72,1672.58 645.28,3033.23 -85.74,1365.29 -699.05,2575.55 -1839.25,3639 -1142.39,1065.5 -2409.91,1597.83 -3805.8,1597.83 -1628.56,0 -3011.29,-544.32 -4148.2,-1628.56 -1136.91,-1084.24 -1703.17,-2265.04 -1703.17,-3538.03 0,-1273 214.08,-2239.37 654.04,-2905.93 437.95,-663.51 1084.24,-1264.21 1940.22,-1804.14z">
  </path>
 </g>
 <g fill="red">
 </g>
</svg>
