<svg role="img" style="shape-rendering: geometricPrecision;
text-rendering: optimizeLegibility; fill-rule:evenodd; clip-rule:evenodd;" version="1.1" viewbox="0 0 95000 85000" width="140px" xml:space="preserve" xmlns="http://www.w3.org/2000/svg">
 <title>
  1.17
 </title>
 <g fill="#FFF" stroke="gray" stroke-width="800">
  <path d="M91867 75270c1761,2953 -345,6802 -3867,6802l-81000 0c-3522,0 -5628,-3849 -3867,-6802l40470 -70097c1762,-3051 6146,-2951 7824,52l40440 70045z">
  </path>
 </g>
 <g class="blue_layer" fill="#0177D9" style="fill-rule: evenodd; clip-rule: nonzero;">
 </g>
 <g fill="red">
  <path d="M91005 75776l-40448 -70057c-1321,-2368 -4733,-2393 -6088,-46l-40474 70103c-1383,2317 306,5296 3005,5296l81000 0c2740,0 4379,-2994 3005,-5296zm-42613 -61812l34411 59607c380,656 -90,1500 -866,1500l-68874 0c-801,0 -1265,-892 -838,-1546l34387 -59554c368,-724 1407,-728 1780,-7z">
  </path>
  <path d="M91596 78067l12 -110c148,16 339,32 484,59l-90 -104 75 -55 131 176 -11 100 -601 -66zm-75 384l24 -108c145,31 334,66 476,107l-80 -112 81 -47 112 189 -21 97 -592 -126zm-130 426l98 -309 80 26c18,12 148,221 231,276 100,66 184,18 111,-107l83 -39c37,63 52,115 32,179 -55,170 -244,130 -365,-24l-115 -160 -60 188 -95 -30zm247 373c-69,161 -294,69 -344,-41 -40,-90 19,-211 84,-256l97 42c-61,35 -158,155 -22,213 97,43 133,-33 139,-113l39 -22 271 137 -103 237 -92 -40 64 -149 -116 -59c-3,15 -9,33 -17,51zm-288 128l85 47 -101 182 -84 -47 100 -182zm-473 414l184 -267 69 47c14,17 78,255 141,331 77,92 171,70 138,-70l90 -14c18,71 17,125 -21,181 -101,147 -270,54 -342,-129l-64 -186 -112 163 -83 -56zm-25 499c-115,-97 -226,-214 -131,-327 95,-113 229,-23 344,74 113,95 226,215 132,327 -95,113 -227,24 -345,-74zm141 -167c-69,-57 -162,-141 -199,-98 -39,46 80,137 131,179 65,54 163,141 200,98 36,-43 -66,-123 -132,-179zm-459 464c-101,-112 -193,-244 -83,-342 109,-99 229,9 329,121 99,111 194,246 85,343 -110,99 -229,-8 -331,-122zm163 -145c-60,-67 -141,-163 -183,-126 -45,41 60,147 104,196 56,63 142,163 184,125 42,-37 -47,-131 -105,-195zm-669 155l261 -192 49 68c7,21 -9,266 25,359 42,112 139,122 153,-21l90 16c-7,73 -25,124 -80,164 -143,106 -273,-37 -281,-234l1 -197 -159 118 -59 -81z">
  </path>
 </g>
 <g class="black_layer" fill="#000" stroke="#000" stroke-width="0.8mm" style="shape-rendering: geometricPrecision">
  <g transform="scale(1.465) translate(700, 0)">
   <path d="M47364 43301c839,0 1523,683 1523,1523 0,840 -684,1523 -1523,1523 -840,0 -1524,-683 -1524,-1523 0,-840 684,-1523 1524,-1523zm-4059 1522c977,0 1777,800 1777,1777 0,976 -800,1777 -1777,1777 -976,0 -1777,-801 -1777,-1777 0,-977 801,-1777 1777,-1777zm-8708 4058l5976 -2168 312 1191 -6093 1660 -195 -683zm10864 -12851c1231,0 2227,996 2227,2226 0,1230 -996,2226 -2227,2226 -1230,0 -2226,-996 -2226,-2226 0,-1230 996,-2226 2226,-2226zm-16106 12978l12753 -9316 976 1133 -13378 8788 -351 -605zm5157 -15853c684,0 1231,547 1231,1230 0,684 -547,1231 -1231,1231 -683,0 -1230,-547 -1230,-1231 0,-683 547,-1230 1230,-1230zm761 3720c1055,0 1914,859 1914,1914 0,1055 -859,1914 -1914,1914 -1054,0 -1914,-859 -1914,-1914 0,-1055 860,-1914 1914,-1914zm-9046 12259l6230 -7538 937 781 -6562 7285 -605 -528zm-3847 -3635l3066 0 0 2226c0,703 -762,1563 -1563,1563 -859,-20 -1523,-781 -1523,-1524l20 -2265zm930 -7356c976,0 1757,782 1757,1758 0,976 -781,1758 -1757,1758 -977,0 -1758,-782 -1758,-1758 0,-976 781,-1758 1758,-1758zm-3574 -8378l840 0c1054,0 2460,586 2773,1602l1562 5077 625 0c742,0 1601,840 1601,1602l0 4472c0,937 -1093,2070 -2050,2070l-13925 0 4805 -8300 7206 0 -1230 -3984c-176,-547 -879,-1016 -1446,-1016l-1640 0 879 -1523z">
   </path>
  </g>
 </g>
</svg>
