<svg role="img" style="shape-rendering: geometricPrecision;
text-rendering: optimizeLegibility; fill-rule:evenodd; clip-rule:evenodd;" version="1.1" viewbox="0 0 75000 75000" width="140px" xml:space="preserve" xmlns="http://www.w3.org/2000/svg">
 <title>
  7.1.2
 </title>
 <g fill="#FFF" stroke="gray" stroke-width="800">
  <rect height="70000" rx="4500" ry="4500" width="70000" x="2500" y="2500">
  </rect>
 </g>
 <g class="blue_layer" fill="#0177D9" style="fill-rule: evenodd; clip-rule: nonzero;">
 </g>
 <g fill="red">
 </g>
 <g class="black_layer" fill="#000" stroke="#000" stroke-width="0.8mm" style="shape-rendering: geometricPrecision">
  <symbol id="7_1_2">
   <path d="M2527 17657c1616,1508 3095,2231 4439,2179 1112,0 1924,-212 2443,-627 520,-420 800,-960 840,-1624 36,-664 -288,-1200 -980,-1604 -691,-407 -1771,-747 -3235,-1023 -1463,-280 -2603,-832 -3419,-1656 -815,-824 -1223,-1775 -1223,-2855 0,-1084 244,-1991 735,-2731 492,-740 1164,-1340 2012,-1804 848,-464 1923,-700 3227,-700 2139,0 4071,720 5798,2160l-1899 2107c-1184,-983 -2347,-1475 -3483,-1475 -1136,0 -1976,200 -2519,608 -544,407 -816,1011 -820,1823 -4,808 828,1388 2499,1744 1672,355 2939,715 3803,1079 864,364 1540,920 2031,1676 492,752 720,1611 680,2575 -40,964 -328,1863 -872,2695 -543,832 -1311,1472 -2303,1916 -992,444 -2223,668 -3699,668 -2095,-40 -4159,-1076 -6186,-3104l2131 -2027zm25798 -9197l-4607 0 0 13988 -2999 0 0 -14024 -4603 0 0 -2752 12209 0 0 2788zm9194 14212c-1951,0 -3567,-836 -4842,-2508 -1280,-1671 -1916,-3687 -1916,-6046 0,-2359 636,-4375 1916,-6046 1275,-1672 2891,-2508 4842,-2508 1884,0 3463,836 4739,2508 1280,1671 1915,3687 1915,6046 0,2359 -635,4375 -1915,6046 -1276,1672 -2855,2508 -4739,2508zm24 -2780c1048,0 1920,-559 2612,-1687 695,-1124 1043,-2483 1043,-4075 0,-1592 -348,-2951 -1043,-4079 -692,-1124 -1564,-1683 -2612,-1683 -1131,0 -2043,559 -2731,1683 -684,1128 -1028,2487 -1028,4079 0,1592 344,2951 1028,4075 688,1128 1600,1687 2731,1687zm10708 2568l0 -16776 5574 0c1276,0 2347,253 3216,760 871,509 1517,1107 1935,1804 417,694 594,1680 624,2595 49,1501 -332,2839 -1240,4019 -907,1179 -2352,1767 -4335,1767l-2751 0 0 5831 -3023 0zm3023 -8626l2212 0c803,0 1531,-88 2175,-584 644,-496 994,-1224 964,-2351 -21,-765 -396,-1529 -1028,-1936 -635,-408 -1352,-607 -2155,-607l-2168 0 0 5478z">
   </path>
  </symbol>
  <path d="M7000 3500l61000 0c1925,0 3500,1575 3500,3500l0 61000c0,1925 -1575,3500 -3500,3500l-61000 0c-1925,0 -3500,-1575 -3500,-3500l0 -61000c0,-1925 1575,-3500 3500,-3500zm0 1000l61000 0c1375,0 2500,1125 2500,2500l0 61000c0,1375 -1125,2500 -2500,2500l-61000 0c-1375,0 -2500,-1125 -2500,-2500l0 -61000c0,-1375 1125,-2500 2500,-2500z">
  </path>
  <use x="7500" xlink:href="#7_1_2" y="7500">
  </use>
  <g transform="scale(1.45)">
   <use x="7000" xlink:href="#digit 2 fill #000" y="30000">
   </use>
   <use x="16000" xlink:href="#digit 5 fill #000" y="30000">
   </use>
   <use x="25500" xlink:href="#digit 0 fill #000" y="30000">
   </use>
   <use x="35000" xlink:href="#char м fill #000" y="30000">
   </use>
  </g>
 </g>
</svg>
