<svg role="img" style="shape-rendering: geometricPrecision;
text-rendering: optimizeLegibility; fill-rule:evenodd; clip-rule:evenodd;" version="1.1" viewbox="0 0 75000 110000" width="140px" xml:space="preserve" xmlns="http://www.w3.org/2000/svg">
 <title>
  5.13
 </title>
 <g fill="#FFF" stroke="gray" stroke-width="800">
  <rect height="105000" rx="4500" ry="4500" width="70000" x="2500" y="2500">
  </rect>
 </g>
 <g class="blue_layer" fill="#0177D9" style="fill-rule: evenodd; clip-rule: nonzero;">
  <rect height="101000" rx="2500" ry="2500" width="66000" x="4500" y="4500">
  </rect>
  <rect fill="#FFFFFF" height="57000" rx="2000" ry="2000" width="57000" x="9000" y="17500">
  </rect>
 </g>
 <g fill="red">
 </g>
 <g class="black_layer" fill="#000" stroke="#000" stroke-width="0.8mm" style="shape-rendering: geometricPrecision">
  <symbol id="tram">
   <path d="M23664 10298l3444 -3322 -6605 -5346 0 -1587 -1006 0 0 1587 -6605 5346 3445 3322 7327 0 0 0zm4461 13583c1162,0 2125,898 2229,2035 103,-1137 1066,-2035 2228,-2035 1232,0 2239,1007 2239,2238 0,1231 -1007,2238 -2239,2238 -1162,0 -2125,-898 -2228,-2035 -104,1137 -1067,2035 -2229,2035 -1232,0 -2239,-1007 -2239,-2238 0,-1231 1007,-2238 2239,-2238zm7573 2088c-75,-1632 -1441,-2948 -3091,-2948l-25351 0c-1654,0 -3020,1316 -3095,2948 -366,0 -725,0 -1072,0 -1591,0 -3089,-1138 -3089,-3035l0 -4549c0,-593 382,-1216 644,-1731l2229 -4336c219,-431 732,-866 1219,-866l31816 0c481,0 997,429 1219,866l2229 4336c264,522 644,1128 644,1731l0 4549c0,1909 -1498,3035 -3089,3035 -394,0 -797,3 -1213,0l0 0zm-28523 -12607l0 3580c0,469 -223,722 -722,722l-3945 0c-535,0 -729,-691 -504,-1157l1507 -3104c212,-437 738,-794 1223,-794l1797 0c315,0 644,306 644,753zm25648 0l0 3580c0,469 221,722 722,722l3944 0c536,0 728,-691 503,-1157l-1506 -3104c-213,-437 -737,-794 -1222,-794l-1797 0c-316,0 -644,306 -644,753zm-23667 -753l5386 0c476,0 862,388 862,863l0 3328c0,476 -386,864 -862,864l-5386 0c-475,0 -863,-388 -863,-864l0 -3328c0,-475 388,-863 863,-863zm16301 0l5387 0c475,0 863,388 863,863l0 3328c0,476 -388,864 -863,864l-5387 0c-475,0 -862,-388 -862,-864l0 -3328c0,-475 387,-863 862,-863zm-8149 0l5386 0c476,0 863,388 863,863l0 3328c0,476 -387,864 -863,864l-5386 0c-474,0 -862,-388 -862,-864l0 -3328c0,-475 388,-863 862,-863zm-10055 11272c1162,0 2125,898 2229,2035 103,-1137 1065,-2035 2228,-2035 1232,0 2239,1007 2239,2238 0,1231 -1007,2238 -2239,2238 -1163,0 -2125,-898 -2228,-2035 -104,1137 -1067,2035 -2229,2035 -1232,0 -2239,-1007 -2239,-2238 0,-1231 1007,-2238 2239,-2238zm18612 209c-464,504 -763,1160 -813,1879l-10247 0c-31,-713 -313,-1366 -751,-1879l11811 0zm-11117 -17033l2086 2011 6332 0 2086 -2011 -5321 -4195 -5183 4195 0 0z">
   </path>
  </symbol>
  <g transform="scale(1.2)">
   <use x="11500" xlink:href="#tram" y="22000">
   </use>
  </g>
 </g>
</svg>
