<svg role="img" style="shape-rendering: geometricPrecision;
text-rendering: optimizeLegibility; fill-rule:evenodd; clip-rule:evenodd;" version="1.1" viewbox="0 0 75000 40000" width="140px" xml:space="preserve" xmlns="http://www.w3.org/2000/svg">
 <title>
  7.4.2
 </title>
 <g fill="#FFF" stroke="gray" stroke-width="800">
  <rect height="35000" rx="4500" ry="4500" width="70000" x="2500" y="2500">
  </rect>
 </g>
 <g class="blue_layer" fill="#0177D9" style="fill-rule: evenodd; clip-rule: nonzero;">
 </g>
 <g fill="red">
 </g>
 <g class="black_layer" fill="#000" stroke="#000" stroke-width="0.8mm" style="shape-rendering: geometricPrecision">
  <symbol id="7_4_2">
   <path d="M49301 17715c-932,673 -1638,1655 -1978,2795l-9771 0c-337,-1140 -1043,-2122 -1975,-2795l13724 0zm-19671 0c-932,673 -1638,1655 -1975,2795l-5822 0 0 1820 -5173 0c6,-91 6,-184 6,-278 0,-1791 -866,-3373 -2192,-4337l15156 0zm-23301 4615c-6,-91 -9,-184 -9,-278 0,-1791 869,-3376 2195,-4337l-8515 0 0 4615 6329 0zm45944 -2517c1206,0 2187,1005 2187,2242 0,1237 -981,2242 -2187,2242 -1206,0 -2186,-1005 -2186,-2242 0,-1237 980,-2242 2186,-2242zm0 -2093c2330,0 4227,1946 4227,4335 0,2388 -1897,4334 -4227,4334 -2329,0 -4227,-1946 -4227,-4334 0,-2389 1898,-4335 4227,-4335zm-19674 2093c1206,0 2186,1005 2186,2242 0,1237 -980,2242 -2186,2242 -1206,0 -2186,-1005 -2186,-2242 0,-1237 980,-2242 2186,-2242zm0 -2093c2329,0 4227,1946 4227,4335 0,2388 -1898,4334 -4227,4334 -2329,0 -4227,-1946 -4227,-4334 0,-2389 1898,-4335 4227,-4335zm-21106 2093c1206,0 2186,1005 2186,2242 0,1237 -980,2242 -2186,2242 -1206,0 -2186,-1005 -2186,-2242 0,-1237 980,-2242 2186,-2242zm0 -2093c2329,0 4227,1946 4227,4335 0,2388 -1898,4334 -4227,4334 -2329,0 -4227,-1946 -4227,-4334 0,-2389 1898,-4335 4227,-4335zm-11493 -1198l20741 0 0 -13701c0,-2004 -823,-2810 -2741,-2810l-18000 0 0 16511zm28223 -6764l27580 0 0 6937 -27580 0 0 -6937z">
   </path>
  </symbol>
  <g transform="scale(1)">
   <use x="4000" xlink:href="#7_4_2" y="8000">
   </use>
  </g>
  <use x="0" xlink:href="#border 350x700" y="0">
  </use>
 </g>
</svg>
