<svg role="img" style="shape-rendering: geometricPrecision;
text-rendering: optimizeLegibility; fill-rule:evenodd; clip-rule:evenodd;" version="1.1" viewbox="0 0 75000 75000" width="140px" xml:space="preserve" xmlns="http://www.w3.org/2000/svg">
 <title>
  5.41
 </title>
 <g fill="#FFF" stroke="gray" stroke-width="800">
  <rect height="70000" rx="4500" ry="4500" width="70000" x="2500" y="2500">
  </rect>
 </g>
 <g class="blue_layer" fill="#0177D9" style="fill-rule: evenodd; clip-rule: nonzero;">
  <rect height="66000" rx="2500" ry="2500" width="66000" x="4500" y="4500">
  </rect>
  <symbol id="5_41">
   <g fill="#FFF">
    <path d="M41008 4696l15604 0 0 27213 -4644 0 0 36780 -6501 0 -2 -7833c-50,-7187 -3323,-13916 -8703,-18538l-28094 -22793 4104 -5043 26880 21810c2178,1675 4138,3631 5815,5807l0 -10190 -4459 0 0 -27213z">
    </path>
   </g>
   <g fill="red">
    <path d="M44323 7833l2991 0 0 2992 2992 0 0 -2992 2991 0 0 2992 -2991 0 0 2991 2991 0 0 2991 -2991 0 0 2992 2991 0 0 2991 -2991 0 0 2991 2991 0 0 2991 -2991 0 0 -2991 -2992 0 0 2991 -2991 0 0 -2991 2991 0 0 -2991 -2991 0 0 -2991 2991 0 0 -2992 -2991 0 0 -2991 2991 0 0 -2991 -2991 0 0 -2992zm5983 14957l0 -2991 -2992 0 0 2991 2992 0zm0 -5983l0 -2991 -2992 0 0 2991 2992 0z">
    </path>
   </g>
  </symbol>
  <g transform="scale(0.99)">
   <use x="2500" xlink:href="#5_41" y="2500">
   </use>
  </g>
 </g>
 <g fill="red">
 </g>
</svg>
