<svg role="img" style="shape-rendering: geometricPrecision;
text-rendering: optimizeLegibility; fill-rule:evenodd; clip-rule:evenodd;" version="1.1" viewbox="0 0 118000 105000" width="140px" xml:space="preserve" xmlns="http://www.w3.org/2000/svg">
 <title>
  1.33 временный
 </title>
 <g fill="#FFD323" stroke="gray" stroke-width="800">
  <path d="M58999 2791c1665,0 3119,904 3897,2248l1 0 52156 90336c33,55 65,110 96,167l5 9 0 0c351,641 551,1376 551,2158 0,2486 -2015,4500 -4500,4500l-104410 -4c-2485,0 -4500,-2015 -4500,-4500 0,-797 208,-1545 571,-2194l-1 0 12 -20c11,-20 23,-40 34,-59l52187 -90391 3 0c778,-1345 2232,-2250 3898,-2250z">
  </path>
 </g>
 <g class="blue_layer" fill="#0177D9" style="fill-rule: evenodd; clip-rule: nonzero;">
 </g>
 <g fill="red">
  <path d="M55624 6130l-51847 89802c-10,17 -20,35 -30,52l-9 16c-292,522 -443,1106 -443,1705 0,1933 1567,3500 3500,3500l104410 4c1933,1 3500,-1566 3500,-3500 0,-586 -145,-1159 -426,-1674l-1 -2 -5 -9c-24,-44 -49,-87 -75,-129l-5 -10 -51817 -89748 0 0 -345 -597c-627,-1082 -1777,-1749 -3032,-1749 -1255,0 -2406,667 -3032,1751l-341 589 -2 -1zm3374 12157c368,0 690,199 863,495l0 0 4 6 1 3 41787 72376c100,155 158,340 158,539 0,552 -448,1000 -1000,1000l-83623 0c-553,0 -1000,-448 -1000,-1000 0,-183 48,-354 134,-501l-1 0 41809 -72414 2 -3 3 -6 0 0c174,-296 495,-495 863,-495z">
  </path>
 </g>
 <g class="black_layer" fill="#000" stroke="#000" stroke-width="0.8mm" style="shape-rendering: geometricPrecision">
  <g transform="scale(1.73) translate(1600, 2200)">
   <path d="M41836 45638c521,71 996,-254 1060,-725l330 -2424 -2639 -359 -330 2424c-30,227 39,457 195,642 156,183 384,306 634,340l750 102zm2093 415c331,0 599,255 599,570 0,315 -268,571 -599,571 -331,0 -598,-256 -598,-571 0,-315 267,-570 598,-570zm-1809 1781c499,0 904,387 904,863 0,477 -405,863 -904,863 -500,0 -905,-386 -905,-863 0,-476 405,-863 905,-863zm-3035 -83c377,0 682,280 682,626 0,346 -305,626 -682,626 -376,0 -682,-280 -682,-626 0,-346 306,-626 682,-626zm-278 -2199c423,0 766,336 766,751 0,415 -343,752 -766,752 -423,0 -765,-337 -765,-752 0,-415 342,-751 765,-751zm-2297 -905c277,0 501,224 501,501 0,277 -224,501 -501,501 -277,0 -501,-224 -501,-501 0,-277 224,-501 501,-501zm-515 1517c469,0 849,380 849,849 0,469 -380,849 -849,849 -469,0 -849,-380 -849,-849 0,-469 380,-849 849,-849zm-2770 1375c371,0 671,301 671,671 0,371 -300,671 -671,671 -370,0 -670,-300 -670,-671 0,-370 300,-671 670,-671zm459 -3273c219,0 395,177 395,395 0,218 -176,394 -395,394 -217,0 -394,-176 -394,-394 0,-218 177,-395 394,-395zm-20029 -190l16699 0 -646 -88c-251,-34 -479,-157 -634,-340 -156,-184 -226,-415 -195,-641l330 -2424 0 0 2638 358 -330 2424c-48,357 -337,632 -701,711l823 0 0 3730 -17984 0 0 -3730zm29781 -13674l842 4561c47,253 270,451 548,489l425 57c519,71 892,513 829,982l-551 4054c-117,855 -811,1357 -1560,1255l-14988 -2038c-749,-102 -1210,-899 -1167,-1627l551 -4053c31,-226 160,-429 359,-565 199,-136 452,-194 702,-160l392 53c255,35 502,-71 629,-270l224 -351 1753 -3872c107,-238 380,-376 665,-337l9798 1333c280,38 503,236 549,489zm-396 4815l-698 -3928c-44,-253 -268,-455 -549,-493l-8029 -1092c-286,-39 -560,101 -667,340l-1616 3601 11559 1572z">
   </path>
  </g>
 </g>
</svg>
