<svg role="img" style="shape-rendering: geometricPrecision;
text-rendering: optimizeLegibility; fill-rule:evenodd; clip-rule:evenodd;" version="1.1" viewbox="0 0 65000 95000" width="140px" xml:space="preserve" xmlns="http://www.w3.org/2000/svg">
 <title>
  5.34.2
 </title>
 <g fill="#FFD323" stroke="gray" stroke-width="800">
  <rect height="90000" rx="4500" ry="4500" width="60000" x="2500" y="2500">
  </rect>
 </g>
 <g class="blue_layer" fill="#0177D9" style="fill-rule: evenodd; clip-rule: nonzero;">
 </g>
 <g fill="red">
 </g>
 <g class="black_layer" fill="#000" stroke="#000" stroke-width="0.8mm" style="shape-rendering: geometricPrecision">
  <symbol id="5_34_2">
   <path d="M4500 1000l51000 0c1925,0 3500,1575 3500,3500l0 81000c0,1925 -1575,3500 -3500,3500l-51000 0c-1925,0 -3500,-1575 -3500,-3500l0 -81000c0,-1925 1575,-3500 3500,-3500zm0 1000l51000 0c1375,0 2500,1125 2500,2500l0 81000c0,1375 -1125,2500 -2500,2500l-51000 0c-1375,0 -2500,-1125 -2500,-2500l0 -81000c0,-1375 1125,-2500 2500,-2500z">
   </path>
   <path d="M32206 1549l0 23877c0,532 435,968 967,968l6054 0c532,0 967,-436 967,-968l0 -23877 -7988 0z">
   </path>
   <path d="M39227 63606l-6054 0c-532,0 -967,436 -967,968l0 23877 7988 0 0 -23877c0,-532 -435,-968 -967,-968z">
   </path>
   <path d="M19539 62346l0 26096 -4857 0 0 -27540c-27,-907 140,-2251 1342,-3414l14677 -16039 -2853 -2771 12873 -4058 -3684 12985 -2852 -2771 -13800 15080c-640,844 -820,1450 -846,2432z">
   </path>
   <circle cx="17120" cy="16338" fill="#FFF" r="10000" stroke="#FFF">
   </circle>
   <path d="M17120 7005c5155,0 9333,4179 9333,9333 0,5155 -4178,9334 -9333,9334 -5155,0 -9333,-4179 -9333,-9334 0,-5154 4178,-9333 9333,-9333zm-6840 7447l13680 0c92,0 167,75 167,167l0 3439c0,92 -75,167 -167,167l-13680 0c-92,0 -167,-75 -167,-167l0 -3439c0,-92 75,-167 167,-167z" fill="red">
   </path>
  </symbol>
  <use x="2500" xlink:href="#5_34_2" y="2500">
  </use>
 </g>
</svg>
