<svg role="img" style="shape-rendering: geometricPrecision;
text-rendering: optimizeLegibility; fill-rule:evenodd; clip-rule:evenodd;" version="1.1" viewbox="0 0 75000 40000" width="140px" xml:space="preserve" xmlns="http://www.w3.org/2000/svg">
 <title>
  7.5.3
 </title>
 <g fill="#FFF" stroke="gray" stroke-width="800">
  <rect height="35000" rx="4500" ry="4500" width="70000" x="2500" y="2500">
  </rect>
 </g>
 <g class="blue_layer" fill="#0177D9" style="fill-rule: evenodd; clip-rule: nonzero;">
 </g>
 <g fill="red">
 </g>
 <g class="black_layer" fill="#000" stroke="#000" stroke-width="0.8mm" style="shape-rendering: geometricPrecision">
  <symbol id="7_5_3">
   <path d="M1264 2051l3191 0 0 3541 582 0 0 1715 -909 0 0 -844 -3042 0 0 844 -918 0 0 -1715 375 0c374,-482 613,-1437 721,-2865l0 -676zm2197 875l-1233 0c-63,816 -145,1413 -248,1792 -102,378 -194,656 -278,831l1759 0 0 -2623zm6101 -875l-1348 3567 0 1749 -970 0 0 -1749 -1353 -3567 1043 0 818 2390 759 -2390 1051 0zm4006 -1663l797 0c-18,325 -173,600 -465,832 -311,246 -687,371 -1129,371 -440,0 -814,-125 -1125,-371 -295,-232 -452,-507 -469,-832l810 0c112,322 375,482 790,482 416,0 679,-160 791,-482zm-2688 6083l0 -4407 1008 0 0 2753 1822 -2753 1052 0 0 4407 -1052 0 0 -2748 -1822 2748 -1008 0zm8246 -1598l943 306c-97,250 -240,479 -427,689 -395,446 -885,668 -1469,668 -606,0 -1106,-222 -1503,-668 -397,-445 -594,-982 -594,-1611 0,-633 197,-1171 594,-1616 397,-445 897,-668 1503,-668 584,0 1075,223 1469,669 157,177 283,368 380,572l-918 353c-51,-140 -122,-268 -206,-387 -163,-234 -409,-368 -741,-354 -355,15 -617,169 -792,419 -176,250 -264,584 -264,1003 0,416 88,757 264,1023 175,266 438,399 792,399 333,0 575,-122 741,-357 96,-136 177,-280 228,-440zm3253 -353c-18,296 69,560 260,793 191,232 444,355 761,370 316,15 569,-45 758,-181 190,-135 309,-254 358,-357l750 498c-288,361 -556,595 -806,709 -250,114 -605,223 -1069,227 -610,5 -1113,-269 -1512,-718 -399,-449 -598,-993 -598,-1629 0,-639 198,-1183 598,-1634 399,-450 903,-677 1512,-677 590,0 1084,227 1482,677 400,451 556,952 556,1504 0,217 -65,355 -279,418l-2771 0zm1909 -768c10,-241 -82,-422 -225,-598 -193,-238 -407,-380 -706,-380 -322,0 -550,141 -741,380 -141,175 -231,357 -221,598l1893 0zm2641 2719l0 -4407 1009 0 0 1677 1606 0 0 -1677 1008 0 0 4407 -1008 0 0 -1886 -1606 0 0 1886 -1009 0zm7079 -3498c-276,0 -511,136 -704,409 -195,273 -292,604 -292,991 0,382 98,710 292,982 194,273 428,411 704,411 272,0 506,-138 700,-411 194,-272 291,-600 291,-982 0,-387 -97,-718 -291,-991 -194,-273 -428,-409 -700,-409zm1697 -2077c-132,173 -344,260 -637,250 -548,-17 -960,12 -1232,95 -274,83 -500,214 -681,392 -181,178 -269,515 -263,1009 216,-306 586,-516 1116,-522 727,-8 1242,262 1549,698 305,436 458,964 458,1583 0,619 -196,1147 -588,1584 -391,436 -865,654 -1419,654 -557,0 -1016,-197 -1376,-594 -361,-397 -577,-916 -649,-1560 -72,-643 -84,-1231 -37,-1764 47,-533 143,-941 287,-1226 144,-284 297,-510 459,-676 162,-167 377,-298 644,-396 268,-98 544,-147 831,-149 288,-1 565,-8 832,-22 266,-13 575,-23 927,-32l-221 676zm2679 1172l0 4395 -1051 0 0 -4395 1051 0zm-507 -1732c172,0 321,62 445,185 125,124 187,275 187,453 0,175 -62,324 -187,447 -124,124 -273,186 -445,186 -175,0 -327,-62 -452,-186 -123,-123 -186,-272 -186,-447 0,-178 63,-329 186,-453 125,-123 277,-185 452,-185zm5061 3452l0 948 -2929 0 0 -948 2929 0zm-39947 9857l0 948 -2929 0 0 -948 2929 0zm4385 1085l943 306c-97,250 -240,479 -427,690 -395,445 -885,667 -1469,667 -606,0 -1106,-222 -1503,-667 -397,-446 -594,-983 -594,-1612 0,-632 197,-1171 594,-1616 397,-445 897,-668 1503,-668 584,0 1074,223 1469,669 157,177 283,368 380,572l-918 353c-51,-139 -123,-267 -206,-386 -164,-234 -409,-369 -741,-355 -355,15 -617,170 -793,419 -176,251 -263,584 -263,1003 0,416 87,757 263,1024 176,265 439,398 793,398 332,0 575,-122 741,-357 96,-136 177,-280 228,-440zm5057 -904c16,-293 -66,-565 -250,-815 -178,-268 -437,-400 -776,-400 -314,0 -574,75 -784,228 -146,144 -243,266 -288,366l-711 -491c302,-356 562,-590 784,-703 221,-112 550,-172 987,-181 573,0 1050,224 1428,668 378,445 566,982 566,1612 0,632 -188,1170 -566,1616 -378,445 -855,667 -1428,667 -554,0 -1021,-222 -1399,-667 -378,-446 -566,-984 -566,-1616 0,-127 47,-221 141,-284l2862 0zm-2000 689c-12,252 66,462 233,628 182,265 427,397 741,397 339,0 598,-132 776,-397 166,-166 244,-376 233,-628l-1983 0zm5291 1309l0 2099 -1016 0 0 -6002 1016 0 0 297c334,-289 735,-435 1207,-435 537,0 989,216 1353,647 365,431 547,962 547,1594 0,628 -176,1166 -526,1611 -350,445 -794,667 -1331,667 -470,0 -888,-159 -1250,-478zm53 -1020c63,69 118,133 163,194 199,266 459,400 784,400 302,0 553,-133 755,-399 200,-264 301,-588 301,-967 0,-375 -101,-697 -301,-962 -202,-266 -453,-399 -755,-399 -325,0 -585,134 -784,400 -45,61 -100,125 -163,194l0 1539zm7367 -74l943 306c-97,250 -240,479 -426,690 -396,445 -886,667 -1469,667 -606,0 -1106,-222 -1503,-667 -397,-446 -594,-983 -594,-1612 0,-632 197,-1171 594,-1616 397,-444 897,-668 1503,-668 583,0 1073,224 1469,669 156,178 282,368 379,572l-918 353c-51,-139 -120,-269 -205,-386 -162,-236 -409,-355 -742,-355 -354,30 -617,169 -792,419 -177,250 -264,584 -264,1003 0,416 87,757 264,1024 175,266 438,398 792,398 333,0 580,-119 742,-357 100,-133 176,-280 227,-440zm3353 -353c-17,296 69,560 261,793 191,232 444,356 760,370 316,15 569,-45 759,-180 189,-136 308,-255 357,-358l750 499c-288,360 -556,595 -806,709 -250,114 -606,189 -1069,226 -609,-28 -1113,-268 -1512,-718 -400,-448 -598,-992 -598,-1629 0,-638 198,-1182 598,-1634 399,-450 903,-676 1512,-676 590,0 1084,226 1482,676 400,452 584,953 556,1505 28,214 -65,354 -279,417l-2771 0zm1909 -767c10,-242 -63,-440 -225,-599 -172,-253 -407,-379 -706,-379 -322,0 -569,126 -741,379 -159,159 -231,357 -221,599l1893 0zm2541 2719l0 -4408 1009 0 0 1677 1606 0 0 -1677 1008 0 0 4408 -1008 0 0 -1887 -1606 0 0 1887 -1009 0zm7079 -3499c-276,0 -510,137 -704,409 -194,274 -291,604 -291,991 0,382 97,710 291,982 194,274 428,411 704,411 272,0 506,-137 700,-411 194,-272 291,-600 291,-982 0,-387 -97,-717 -291,-991 -194,-272 -428,-409 -700,-409zm1697 -2076c-132,172 -344,256 -637,250 -548,-21 -960,11 -1232,94 -273,84 -500,215 -681,392 -181,178 -269,515 -263,1009 216,-306 588,-479 1116,-522 727,30 1243,262 1549,699 306,435 458,963 458,1582 0,619 -195,1147 -588,1584 -391,437 -864,654 -1419,654 -557,0 -1016,-197 -1376,-594 -361,-397 -577,-916 -649,-1560 -72,-643 -84,-1231 -37,-1763 47,-534 143,-941 287,-1227 144,-284 297,-510 459,-676 162,-166 376,-299 644,-396 268,-98 544,-147 831,-148 288,-2 565,-9 832,-22 266,-14 575,-24 927,-33l-221 677zm2879 1172l0 4394 -1051 0 0 -4394 1051 0zm-507 -1733c172,0 321,62 446,186 125,123 186,275 186,453 0,175 -61,323 -186,447 -125,123 -274,185 -446,185 -175,0 -327,-61 -451,-185 -124,-123 -187,-272 -187,-447 0,-178 63,-330 187,-453 124,-124 276,-186 451,-186zm-32261 15993l0 -4407 3666 0 0 4407 -1007 0 0 -3568 -1650 0 0 3568 -1009 0zm5010 0l0 -4407 1009 0 0 1676 1606 0 0 -1676 1008 0 0 4407 -1008 0 0 -1887 -1606 0 0 1887 -1009 0zm7682 -2684l0 949 -2929 0 0 -949 2929 0zm4085 1085l943 306c-97,250 -240,480 -427,690 -395,446 -885,668 -1469,668 -606,0 -1106,-222 -1503,-668 -397,-446 -594,-982 -594,-1612 0,-632 197,-1170 594,-1616 397,-444 897,-668 1503,-668 584,0 1074,224 1469,670 156,177 283,367 380,572l-918 353c-51,-140 -120,-270 -206,-387 -162,-236 -409,-355 -741,-355 -354,30 -618,169 -793,419 -176,250 -263,584 -263,1003 0,417 87,758 263,1024 175,266 439,398 793,398 332,0 579,-119 741,-357 100,-132 177,-279 228,-440zm3313 1095l0 2098 -1016 0 0 -6001 1016 0 0 297c334,-290 735,-436 1208,-436 536,0 988,217 1352,647 365,431 548,962 548,1595 0,627 -177,1166 -527,1610 -350,445 -794,667 -1331,667 -470,0 -888,-158 -1250,-477zm53 -1021c63,69 118,134 163,194 199,266 459,400 784,400 302,0 553,-132 755,-398 200,-265 301,-589 301,-968 0,-375 -101,-697 -301,-962 -202,-266 -453,-398 -755,-398 -325,0 -585,133 -784,400 -45,60 -100,125 -163,194l0 1538z">
   </path>
  </symbol>
  <use x="16000" xlink:href="#7_5_3" y="6500">
  </use>
  <use x="0" xlink:href="#border 350x700" y="0">
  </use>
 </g>
</svg>
