<svg role="img" style="shape-rendering: geometricPrecision;
text-rendering: optimizeLegibility; fill-rule:evenodd; clip-rule:evenodd;" version="1.1" viewbox="0 0 95000 95000" width="140px" xml:space="preserve" xmlns="http://www.w3.org/2000/svg">
 <title>
  5.11.1
 </title>
 <g fill="#FFF" stroke="gray" stroke-width="800">
  <rect height="90000" rx="4500" ry="4500" width="90000" x="2500" y="2500">
  </rect>
 </g>
 <g class="blue_layer" fill="#0177D9" style="fill-rule: evenodd; clip-rule: nonzero;">
  <rect height="86000" rx="2500" ry="2500" width="86000" x="4500" y="4500">
  </rect>
  <symbol id="5_11_1">
   <path d="M40374 7212c11000,0 17600,9001 17600,20000l0 44287 -7500 0 0 -44287c0,-6875 -3225,-12500 -10100,-12500 -6875,0 -10102,5626 -10100,12500l5 22989 5747 0 -9500 16688 -9500 -16688 5748 0 0 -22989c0,-11000 6600,-20000 17600,-20000z">
   </path>
  </symbol>
  <g fill="#FFF" transform="scale(1.280)">
   <use height="95000" x="-2000" xlink:href="#5_11_1" y="0">
   </use>
  </g>
 </g>
 <g fill="red">
 </g>
</svg>
