<svg role="img" style="shape-rendering: geometricPrecision;
text-rendering: optimizeLegibility; fill-rule:evenodd; clip-rule:evenodd;" version="1.1" viewbox="0 0 75000 75000" width="140px" xml:space="preserve" xmlns="http://www.w3.org/2000/svg">
 <title>
  3.8
 </title>
 <g fill="#FFF" stroke="gray" stroke-width="800">
  <circle cx="37500" cy="37500" r="35000">
  </circle>
 </g>
 <g class="blue_layer" fill="#0177D9" style="fill-rule: evenodd; clip-rule: nonzero;">
 </g>
 <g fill="red">
  <path d="M37500 3500c18778,0 34000,15222 34000,34000 0,18778 -15222,34000 -34000,34000 -18778,0 -34000,-15222 -34000,-34000 0,-18778 15222,-34000 34000,-34000zm0 6000c15464,0 28000,12536 28000,28000 0,15464 -12536,28000 -28000,28000 -15464,0 -28000,-12536 -28000,-28000 0,-15464 12536,-28000 28000,-28000z">
  </path>
 </g>
 <g class="black_layer" fill="#000" stroke="#000" stroke-width="0.8mm" style="shape-rendering: geometricPrecision">
  <symbol id="3_8" viewbox="0 0 48500 28500">
   <path d="M47134 23758c-108,-2737 -2370,-4932 -5129,-4932 -269,0 -533,19 -790,61l0 -5959 6776 0c644,1915 807,6008 -287,10830l-570 0zm-5131 -3755c2176,0 3956,1777 3956,3961 0,2176 -1780,3956 -3956,3956 -2183,0 -3961,-1780 -3961,-3956 0,-2184 1777,-3961 3961,-3961zm-3 1604c1296,0 2353,1057 2353,2354 0,1295 -1058,2353 -2353,2353 -1297,0 -2354,-1058 -2354,-2353 0,-1297 1057,-2354 2354,-2354zm-14192 -574l-2067 -501 -2996 6168c-646,1332 776,2096 1498,789l3565 -6456zm-1141 -12836l-12837 0c-570,-216 -1141,-431 -1712,-646l-1923 -1937 712 -933c947,-1241 -468,-2435 -1498,-1292l-713 791 -3067 -2799c-328,-301 -786,-450 -1212,-572l-2496 -718c-1053,-303 -1504,1075 -500,1506l999 431 -2210 4734c-642,1378 276,2145 1569,1290l2281 -1505 3067 8105 -2709 -575 -287 1794 2639 502 -3709 4232c-798,911 -639,774 0,2081l1756 3601c658,1351 2227,627 1539,-835l-1368 -2911c-269,-580 -637,-550 0,-1218l3422 -3587c666,-697 1285,-942 2355,-790l15973 2296c1726,244 2854,1527 2854,2940l0 4734c0,1804 1711,1809 1711,0l0 -6815 5633 862 1640 -1866 -9055 -1361c-1745,-262 -2996,-1486 -2996,-3299l0 -4664c1141,96 1498,691 1498,1364l0 2653c0,1429 639,2651 1924,2583l0 -5165c0,-1954 -1232,-3393 -3280,-3011zm-16117 10112l0 8893c0,1663 1855,1670 1855,1l0 -8392 -1855 -502z">
   </path>
  </symbol>
  <use width="48500" x="15700" xlink:href="#3_8" y="-2000">
  </use>
 </g>
</svg>
