<svg role="img" style="shape-rendering: geometricPrecision;
text-rendering: optimizeLegibility; fill-rule:evenodd; clip-rule:evenodd;" version="1.1" viewbox="0 0 75000 40000" width="140px" xml:space="preserve" xmlns="http://www.w3.org/2000/svg">
 <title>
  7.6.14
 </title>
 <g fill="#FFF" stroke="gray" stroke-width="800">
  <rect height="35000" rx="4500" ry="4500" width="70000" x="2500" y="2500">
  </rect>
 </g>
 <g class="blue_layer" fill="#0177D9" style="fill-rule: evenodd; clip-rule: nonzero;">
 </g>
 <g fill="red">
 </g>
 <g class="black_layer" fill="#000" stroke="#000" stroke-width="0.8mm" style="shape-rendering: geometricPrecision">
  <g transform="scale(0.93)">
   <g transform="scale(1.15) translate(4000,2500)">
    <path d="M52581.54 20804.87c1335.99,0 2503.22,769.95 3079.8,1880.93 245.22,470.23 384.1,1001.11 384.1,1561.88 0,580.98 -144.15,1129.44 -397.28,1610.22 -580.11,1110.98 -1739.42,1870.38 -3066.62,1870.38 -1320.16,0 -2466.3,-752.37 -3043.75,-1854.56 -255.77,-485.17 -400.8,-1038.91 -400.8,-1626.03 0,-566.04 139.76,-1102.19 387.61,-1575.06 573.07,-1103.95 1726.23,-1867.75 3056.94,-1867.75zm-28641.08 -2217.56l95.81 2890.83c18.46,856.09 570.43,1445.86 1634.82,1768.43 1350.93,-4544.99 7588.76,-4487.86 8234.77,532.64l14491.94 0c893.88,-4830.65 6751.12,-5058.29 8120.51,-589.78 627.57,-189.85 1388.73,-608.22 1559.24,-1273.57l970.35 -3518.39c171.4,-646.9 -114.26,-1426.52 -589.77,-1921.36l-5781.66 -5652.46c-399.03,-399.91 -988.81,-624.92 -1559.24,-624.92l-10117.46 -3.52c-931.67,0 -1882.68,564.28 -2453.12,1286.76l-3214.27 3815.48c-589.77,741.82 -1559.24,1217.32 -2490.92,1350.05l-7436.69 875.42c-608.23,56.25 -1482.78,456.17 -1464.32,1064.39zm15015.79 -1616.37l13131.34 0c1235.78,0 1786.88,-1312.25 1350.05,-2338.85l-1197.99 -2503.22c-190.73,-475.51 -856.08,-704.03 -1369.39,-704.03l-9536.47 0c-741.82,0 -1235.79,19.34 -1902.03,856.09l-2054.08 2465.42c-569.55,722.48 -284.77,2224.59 1578.58,2224.59zm-9157.66 3841.84c1902.91,0 3463.02,1555.73 3463.02,3434.9 0,1916.97 -1560.11,3472.69 -3463.02,3472.69 -1902.9,0 -3444.56,-1555.72 -3444.56,-3472.69 0,-1879.17 1541.66,-3434.9 3444.56,-3434.9zm0 1270.95c1198.87,0 2169.22,987.05 2169.22,2163.94 0,1214.69 -970.35,2200.86 -2169.22,2200.86 -1198.86,0 -2169.21,-986.17 -2169.21,-2200.86 0,-1176.89 970.35,-2163.94 2169.21,-2163.94zm22782.96 0c842.9,0 1571.55,486.93 1931.03,1184.8 151.18,295.32 237.31,629.32 237.31,979.14 0,370.91 -90.53,720.72 -249.61,1027.48 -363.88,697.87 -1085.49,1173.38 -1918.73,1173.38 -827.95,0 -1546.93,-470.23 -1912.57,-1161.95 -162.6,-309.39 -254.88,-663.61 -254.88,-1038.91 0,-354.21 87.01,-690.85 241.7,-988.81 362.12,-692.61 1088.13,-1175.13 1925.75,-1175.13z">
    </path>
   </g>
   <g transform="scale(-1, 1) translate(-75000, 0)">
    <use x="-3000" xlink:href="#short_sidewalk" y="1500">
    </use>
   </g>
  </g>
  <use x="0" xlink:href="#border 350x700" y="0">
  </use>
 </g>
</svg>
