<svg role="img" style="shape-rendering: geometricPrecision;
text-rendering: optimizeLegibility; fill-rule:evenodd; clip-rule:evenodd;" version="1.1" viewbox="0 0 75000 75000" width="140px" xml:space="preserve" xmlns="http://www.w3.org/2000/svg">
 <title>
  3.17.1
 </title>
 <g fill="#FFF" stroke="gray" stroke-width="800">
  <circle cx="37500" cy="37500" r="35000">
  </circle>
 </g>
 <g class="blue_layer" fill="#0177D9" style="fill-rule: evenodd; clip-rule: nonzero;">
 </g>
 <g fill="red">
  <path d="M37500 3500c18778,0 34000,15222 34000,34000 0,18778 -15222,34000 -34000,34000 -18778,0 -34000,-15222 -34000,-34000 0,-18778 15222,-34000 34000,-34000zm0 6000c15464,0 28000,12536 28000,28000 0,15464 -12536,28000 -28000,28000 -15464,0 -28000,-12536 -28000,-28000 0,-15464 12536,-28000 28000,-28000z">
  </path>
 </g>
 <g class="black_layer" fill="#000" stroke="#000" stroke-width="0.8mm" style="shape-rendering: geometricPrecision">
  <symbol id="keden">
   <path d="M27984 30940l-1358 0 -1025 -1735c-262,-567 -499,-907 -713,-1021 -215,-114 -521,-163 -917,-145l0 2901 -1110 0 0 -6390 1110 0 0 2370c275,24 489,-33 643,-170 152,-139 398,-441 737,-908 550,-933 1199,-1393 1947,-1381l192 1059c-396,-19 -791,244 -1185,790 -324,533 -610,884 -856,1056 327,114 727,550 1198,1311l1337 2263zm1158 0l0 -6385 4131 4 0 1056 -2946 0 0 1515 2357 0 0 1060 -2357 0 0 1690 2941 0 0 1060 -4126 0zm6850 -6376l3681 0 0 5159 748 0 0 2117 -1106 0 0 -1039 -3750 0 0 1039 -1062 0 0 -2117 628 0c505,-740 792,-2147 861,-4223l0 -936zm2521 1060l-1399 0c-87,1275 -179,2160 -280,2657 -101,499 -248,978 -438,1442l2117 0 0 -4099zm3194 5316l0 -6385 4130 4 0 1056 -2945 0 0 1515 2357 0 0 1060 -2357 0 0 1690 2941 0 0 1060 -4126 0zm5768 0l0 -6385 1154 0 0 2445 2356 0 0 -2445 1154 0 0 6385 -1154 0 0 -2880 -2356 0 0 2880 -1154 0z">
   </path>
   <path d="M21596 46378c-263,-758 -698,-1122 -1306,-1092 -386,29 -686,269 -898,718 -211,448 -319,989 -319,1621 0,632 113,1174 340,1621 225,449 518,674 877,674 446,0 797,-225 1052,-674 63,-106 117,-220 166,-342l1040 450c-102,222 -228,434 -376,633 -486,656 -1073,984 -1761,984 -778,0 -1382,-328 -1808,-984 -428,-657 -641,-1449 -641,-2380 0,-933 213,-1726 641,-2383 426,-658 1030,-986 1808,-986 688,0 1275,329 1761,986 135,180 250,372 346,575l-922 579zm3686 3356c-326,-126 -515,-425 -563,-897l0 -4419 -1044 0 0 4449c68,832 441,1426 1122,1779 681,354 1347,340 1997,-41 651,-382 1019,-962 1109,-1737l0 -4450 -1048 0 0 4419c-40,478 -231,779 -572,902 -341,123 -676,122 -1001,-5zm4559 -763c557,573 1066,849 1528,829 381,0 661,-79 840,-239 178,-158 274,-365 287,-617 14,-253 -98,-456 -336,-610 -237,-155 -608,-284 -1112,-389 -503,-107 -897,-315 -1177,-630 -280,-313 -421,-675 -421,-1086 0,-412 85,-757 255,-1039 169,-281 398,-509 690,-686 292,-176 661,-266 1110,-266 737,0 1401,274 1996,821l-654 802c-408,-374 -807,-561 -1199,-561 -391,0 -680,77 -866,231 -186,155 -281,386 -283,694 -1,306 287,527 861,663 575,135 1011,272 1308,410 297,139 530,350 699,637 169,286 248,613 234,980 -14,366 -114,709 -300,1025 -187,316 -451,560 -792,728 -341,169 -766,254 -1274,254 -719,-15 -1429,-409 -2127,-1180l733 -771zm9070 -3498l-1583 0 0 5320 -1031 0 0 -5334 -1583 0 0 -1046 4197 0 0 1060zm3418 5405c-671,0 -1227,-318 -1666,-953 -440,-636 -659,-1402 -659,-2300 0,-897 219,-1664 659,-2299 439,-636 995,-954 1666,-954 648,0 1191,318 1630,954 440,635 659,1402 659,2299 0,897 -219,1664 -659,2300 -439,635 -982,953 -1630,953zm8 -1057c361,0 660,-213 898,-640 240,-429 359,-946 359,-1551 0,-606 -120,-1123 -359,-1552 -237,-427 -538,-640 -898,-640 -389,0 -703,213 -939,640 -235,429 -354,946 -354,1552 0,605 118,1122 354,1551 236,427 550,640 939,640zm3458 972l0 -6380 1221 0 1562 2935 1552 -2935 1217 0 4 6380 -1087 0 0 -4401 -1686 3159 -1716 -3164 0 4406 -1067 0zm7482 -1822c556,573 1065,849 1527,829 382,0 662,-79 841,-239 177,-158 274,-365 287,-617 14,-253 -99,-456 -337,-610 -236,-155 -608,-284 -1111,-389 -503,-107 -897,-315 -1177,-630 -281,-313 -421,-675 -421,-1086 0,-412 85,-757 254,-1039 169,-281 399,-509 691,-686 292,-176 661,-266 1110,-266 737,0 1401,274 1995,821l-653 802c-408,-374 -807,-561 -1199,-561 -391,0 -680,77 -867,231 -186,155 -280,386 -282,694 -1,306 286,527 861,663 575,135 1011,272 1308,410 296,139 530,350 699,637 169,286 247,613 234,980 -14,366 -114,709 -300,1025 -187,316 -451,560 -792,728 -341,169 -767,254 -1274,254 -719,-15 -1429,-409 -2128,-1180l734 -771z">
   </path>
  </symbol>
  <g transform="scale(1)">
   <rect height="6000" rx="2963" ry="3000" width="45156" x="14922" y="34500">
   </rect>
   <use x="1" xlink:href="#keden" y="500">
   </use>
  </g>
 </g>
</svg>
