<svg role="img" style="shape-rendering: geometricPrecision;
text-rendering: optimizeLegibility; fill-rule:evenodd; clip-rule:evenodd;" version="1.1" viewbox="0 0 105000 75000" width="300px" xml:space="preserve" xmlns="http://www.w3.org/2000/svg">
 <title>
  5.20.1
 </title>
 <g fill="#FFF" stroke="gray" stroke-width="800">
  <rect height="70000" rx="4500" ry="4500" width="100000" x="2500" y="2500">
  </rect>
 </g>
 <g class="blue_layer" fill="#0177D9" style="fill-rule: evenodd; clip-rule: nonzero;">
 </g>
 <g fill="red">
 </g>
 <g class="black_layer" fill="#000" stroke="#000" stroke-width="0.8mm" style="shape-rendering: geometricPrecision">
  <rect fill="#FFF" height="70000" rx="4519" ry="4500" width="100000" x="2500" y="2500">
  </rect>
  <path d="M7000 3400l91000 0c1980,0 3600,1620 3600,3600l0 61000c0,1980 -1620,3600 -3600,3600l-91000 0c-1980,0 -3600,-1620 -3600,-3600l0 -61000c0,-1980 1620,-3600 3600,-3600zm0 1800l91000 0c990,0 1800,810 1800,1800l0 61000c0,990 -810,1800 -1800,1800l-91000 0c-990,0 -1800,-810 -1800,-1800l0 -61000c0,-990 810,-1800 1800,-1800z" fill="#000">
  </path>
  <path d="M19466 12260l4704 7704 -2352 0 0 27730c753,-1624 2035,-2552 3754,-3428l44690 -22769 -1068 -2096 9000 694 -4729 7689 -1067 -2096 -44691 22769c-4200,2140 -5857,5151 -5878,10598l-11 11065 -4705 0 0 -50156 -2352 0 4705 -7704z" fill="#000">
  </path>
  <path d="M57015 13766l-278 0 -796 -1312c-227,-418 -424,-691 -588,-819 -164,-127 -368,-168 -612,-122l0 2253 -861 0 0 -4926 861 0 0 1832c166,24 314,-25 447,-145 132,-118 386,-444 761,-974 376,-531 772,-793 1190,-786l235 741c-366,101 -650,334 -855,700 -253,410 -485,705 -699,885 319,66 635,407 947,1023l579 986 493 0 -49 1533 -616 -7 -159 -862zm-31013 66c-552,0 -1010,-247 -1378,-741 -367,-494 -552,-1090 -552,-1787 0,-699 185,-1295 552,-1789 368,-494 826,-741 1378,-741 551,0 1010,247 1378,741 367,494 551,1090 551,1789 0,697 -184,1293 -551,1787 -368,494 -827,741 -1378,741zm10 -838c321,0 574,-161 758,-484 184,-322 276,-729 276,-1219 0,-491 -92,-896 -276,-1220 -184,-322 -437,-483 -758,-483 -322,0 -574,161 -756,483 -183,324 -274,729 -274,1220 0,490 91,897 274,1219 182,323 434,484 756,484zm2967 786l0 -4933 1478 0c675,-43 1182,101 1521,434 338,333 493,716 463,1150 -29,434 -181,795 -453,1082 -271,287 -739,430 -1404,430l-702 0 0 1837 -903 0zm903 -2621l543 0c766,8 1147,-245 1143,-761 -3,-515 -377,-760 -1121,-731l-565 0 0 1492zm4699 2617l0 -4075 -1389 0 0 -858 3672 0 0 858 -1395 0 0 4075 -888 0zm5507 -4929l1657 4933 -1009 0 -327 -1020 -1629 0 -318 1020 -1009 0 1639 -4933 996 0zm-1081 3124l1210 0 -645 -1836 -565 1836zm4468 -3124l3129 0 0 4937 -893 0 0 -4117 -1312 0 0 1963c0,598 -98,1038 -290,1321 -193,285 -418,496 -675,637 -258,141 -526,238 -806,288l-183 -885c289,-34 536,-173 741,-416 204,-244 301,-554 289,-930l0 -2798zm5275 0l0 1836 898 0c605,25 1041,170 1308,436 268,264 396,627 384,1085 -11,458 -137,806 -377,1042 -240,237 -475,385 -706,445 -231,60 -511,89 -839,89l-1557 0 0 -4933 889 0zm0 4147l555 0c442,0 751,-65 927,-196 174,-130 265,-313 272,-544 9,-232 -76,-421 -254,-567 -178,-146 -489,-219 -932,-219l-568 0 0 1526zm3883 -4147l0 4933 -879 0 0 -4933 879 0z" fill="#000">
  </path>
  <path d="M77164 37814l3129 0 0 4936 -893 0 0 -4117 -1312 0 0 1964c0,598 -97,1037 -290,1321 -193,284 -418,496 -675,637 -258,141 -526,238 -806,288l-183 -885c289,-34 536,-173 741,-417 204,-243 301,-553 289,-930l0 -2797zm-18566 4929l0 -4075 -1388 0 0 -858 3672 0 0 858 -1396 0 0 4075 -888 0zm4685 56c-552,0 -1010,-247 -1378,-741 -367,-494 -552,-1090 -552,-1788 0,-698 185,-1294 552,-1788 368,-494 826,-741 1378,-741 551,0 1010,247 1378,741 367,494 551,1090 551,1788 0,698 -184,1294 -551,1788 -368,494 -827,741 -1378,741zm10 -838c321,0 574,-161 758,-484 184,-322 276,-729 276,-1220 0,-490 -92,-896 -276,-1219 -184,-322 -437,-483 -758,-483 -322,0 -574,161 -756,483 -183,323 -274,729 -274,1219 0,491 91,898 274,1220 182,323 434,484 756,484zm2771 -4147l3179 0 0 819 -2322 0 0 1120 948 0c626,16 1059,172 1299,467 239,295 362,623 369,985 8,362 -59,655 -202,880 -143,226 -338,394 -580,507 -242,112 -504,169 -786,169l-1905 0 0 -4947zm857 4151l634 0c696,43 1052,-193 1070,-710 17,-517 -338,-761 -1067,-734l-637 0 0 1444zm4452 -4151l0 1835 898 0c604,26 1041,171 1308,437 268,264 396,626 384,1085 -12,458 -137,806 -377,1042 -240,236 -475,384 -706,444 -231,60 -511,90 -839,90l-1557 0 0 -4933 889 0zm0 4147l555 0c442,0 751,-66 926,-196 174,-131 266,-313 273,-545 8,-231 -76,-421 -254,-566 -179,-146 -489,-219 -932,-219l-568 0 0 1526zm4083 -4147l0 4933 -879 0 0 -4933 879 0z" fill="#000">
  </path>
  <path d="M43763 64943l695 0 736 1372 743 -1372 719 0 292 3048 -697 0 -233 -1930 -821 1527 -819 -1527 -233 1930 -701 0 319 -3048zm-10042 3048l-950 0 0 -3765 -616 431 -339 -434 1093 -1175 812 0 0 4943zm1361 -144l-148 -841c549,126 965,188 1244,186 280,-3 527,-95 741,-280 213,-186 318,-407 312,-663 -6,-258 -91,-454 -253,-589 -163,-137 -363,-207 -600,-214 -236,-7 -477,84 -723,275l-621 -275 0 -2391 2881 0 -190 837 -1805 0 0 954c264,-114 559,-162 888,-141 326,21 626,161 898,420 273,259 408,611 407,1052 -1,442 -134,842 -400,1198 -265,355 -648,562 -1147,620 -499,58 -994,8 -1484,-148zm5575 -4927c528,0 947,222 1256,665 309,444 467,1084 474,1923 -35,889 -200,1540 -495,1957 -295,415 -707,623 -1235,623 -532,0 -949,-208 -1247,-626 -298,-416 -460,-1071 -486,-1965 14,-838 174,-1477 480,-1916 304,-440 723,-661 1253,-661zm21 865c-255,-9 -449,128 -580,412 -132,283 -199,716 -199,1297 0,581 69,1010 207,1289 137,277 329,416 572,416 264,0 459,-139 586,-416 126,-279 189,-708 189,-1289 0,-581 -69,-1012 -207,-1290 -137,-279 -326,-419 -568,-419z" fill="#000">
  </path>
  <symbol id="3_4_mini_2">
   <g>
    <circle cx="37500" cy="37500" fill="#FFF" r="35000" stroke="#FFF" stroke-width="2000">
    </circle>
    <path d="M37500 3500c18778,0 34000,15222 34000,34000 0,18778 -15222,34000 -34000,34000 -18778,0 -34000,-15222 -34000,-34000 0,-18778 15222,-34000 34000,-34000zm0 6000c15464,0 28000,12536 28000,28000 0,15464 -12536,28000 -28000,28000 -15464,0 -28000,-12536 -28000,-28000 0,-15464 12536,-28000 28000,-28000z" fill="red">
    </path>
    <path d="M28652 31735l0 10017 29648 0 0 4513c-1392,-2 -2785,-2 -4177,-3 -96,-2406 -2087,-4445 -4517,-4445 -2430,0 -4422,2040 -4517,4447 -5652,2 -11305,3 -16958,-9 -126,-2378 -2104,-4385 -4514,-4385 -2398,0 -4369,1989 -4512,4351 -923,-5 -1845,-11 -2768,-17 -740,-4 -1337,-686 -1337,-1524l0 -7070c0,-360 112,-708 315,-983l4157 -5874c255,-344 631,-542 1027,-542l6810 0c357,0 698,161 950,447 252,286 393,684 393,1077zm20936 10709c2217,0 4014,1791 4014,4000 0,2209 -1797,4000 -4014,4000 -2217,0 -4015,-1791 -4015,-4000 0,-2209 1798,-4000 4015,-4000zm0 2050c1085,0 1964,873 1964,1950 0,1077 -879,1950 -1964,1950 -1085,0 -1965,-873 -1965,-1950 0,-1077 880,-1950 1965,-1950zm-25952 -1997c2217,0 4014,1790 4014,4000 0,2209 -1797,4000 -4014,4000 -2218,0 -4015,-1791 -4015,-4000 0,-2210 1797,-4000 4015,-4000zm0 2050c1084,0 1964,873 1964,1950 0,1077 -880,1950 -1964,1950 -1085,0 -1965,-873 -1965,-1950 0,-1077 880,-1950 1965,-1950zm33322 -20044c357,0 698,160 950,446 251,286 392,673 392,1078l0 14455 -27739 0 0 -14455c0,-405 141,-793 393,-1078 251,-286 594,-446 949,-446l25055 0zm-36939 7254l-1645 2244c-334,453 -401,1089 -184,1621 217,529 695,877 1215,877l5785 0c740,0 1342,-684 1342,-1523l0 -2244c0,-404 -142,-793 -394,-1078 -251,-286 -593,-446 -948,-446l-4139 0c-399,0 -777,200 -1032,549z" fill="#000" stroke="#FFF" stroke-width="500">
    </path>
   </g>
  </symbol>
  <g transform="scale(0.3)">
   <use x="100000" xlink:href="#3_4_mini_2" y="90000">
   </use>
  </g>
 </g>
</svg>
