<svg role="img" style="shape-rendering: geometricPrecision;
text-rendering: optimizeLegibility; fill-rule:evenodd; clip-rule:evenodd;" version="1.1" viewbox="0 0 75000 40000" width="140px" xml:space="preserve" xmlns="http://www.w3.org/2000/svg">
 <title>
  7.18
 </title>
 <g fill="#FFF" stroke="gray" stroke-width="800">
  <rect height="35000" rx="4500" ry="4500" width="70000" x="2500" y="2500">
  </rect>
 </g>
 <g class="blue_layer" fill="#0177D9" style="fill-rule: evenodd; clip-rule: nonzero;">
 </g>
 <g fill="red">
  <symbol id="7_18 red">
   <polygon points="54035,2001 23040,32996 15969,32996 46964,2001 ">
   </polygon>
  </symbol>
  <g transform="scale(1)">
   <use x="3000" xlink:href="#7_18 red" y="3000">
   </use>
  </g>
 </g>
 <g class="black_layer" fill="#000" stroke="#000" stroke-width="0.8mm" style="shape-rendering: geometricPrecision">
  <symbol id="7_18">
   <path d="M34193 14499l0 272 4341 -4340c-140,-19 -298,-26 -477,-19 -1966,64 -3894,1885 -3864,4087zm-4620 4893l-2826 0c-878,0 -1873,962 -1873,1815l0 2884 4699 -4699zm-2577 9648c616,-109 976,-457 1121,-1121l-1121 1121zm3593 -3593c1373,3031 4145,4996 7905,4996 4910,0 8913,-3815 8913,-8555 0,-3767 -2102,-6711 -5278,-7982l-1796 1796c2785,776 4828,3263 4828,6186 0,3544 -2996,6437 -6667,6437 -3020,0 -5381,-1958 -6157,-4627l-1748 1749zm9156 -9156l0 3193c0,1676 -1753,3370 -3489,3370l-3074 0 6563 -6563zm-1983 -11569c1638,111 2295,996 2295,2216 0,1219 -837,2564 -2848,2786 -2010,222 -3207,-900 -3207,-2120 0,-1220 2124,-2993 3761,-2882l-1 0zm-4529 9078l-6453 0c-1290,-31 -1239,2633 0,2633l5752 0 701 -701 0 -1932z">
   </path>
  </symbol>
  <g transform="scale(1)">
   <use x="3000" xlink:href="#7_18" y="3000">
   </use>
  </g>
  <use x="0" xlink:href="#border 350x700" y="0">
  </use>
 </g>
</svg>
