<svg role="img" style="shape-rendering: geometricPrecision;
text-rendering: optimizeLegibility; fill-rule:evenodd; clip-rule:evenodd;" version="1.1" viewbox="0 0 95000 85000" width="140px" xml:space="preserve" xmlns="http://www.w3.org/2000/svg">
 <title>
  2.4
 </title>
 <g fill="#FFF" stroke="gray" stroke-width="800">
  <path d="M3133 9730c-1761,-2953 345,-6802 3867,-6802l81000 0c3522,0 5628,3849 3867,6802l-40470 70096c-1762,3052 -6146,2952 -7824,-51l-40440 -70045z">
  </path>
 </g>
 <g fill="red">
  <path d="M3995 9224l40448 70057c1320,2368 4733,2393 6088,45l40474 -70102c1383,-2317 -306,-5296 -3005,-5296l-81000 0c-2740,0 -4379,2994 -3005,5296zm42613 61812l-34411 -59607c-380,-656 90,-1500 866,-1500l68874 0c801,0 1265,892 838,1546l-34387 59554c-368,724 -1407,728 -1780,7z">
  </path>
  <path d="M4972 4402l-261 192 -49 -68c-7,-21 9,-266 -25,-359 -42,-112 -139,-122 -153,21l-90 -16c7,-73 25,-124 80,-164 143,-106 273,37 281,234l-1 197 159 -118 59 81zm-1568 2531l-12 110c-148,-16 -339,-32 -484,-59l90 104 -75 55 -131 -176 11 -100 601 66zm75 -384l-24 108c-145,-31 -334,-66 -476,-108l80 112 -81 48 -112 -189 21 -98 592 127zm130 -426l-98 309 -80 -26c-18,-12 -148,-221 -231,-276 -100,-66 -184,-18 -111,106l-83 40c-37,-63 -52,-115 -32,-180 55,-169 244,-129 365,25l115 160 60 -188 95 30zm-247 -373c69,-161 294,-69 343,41 41,90 -18,211 -83,256l-97 -42c61,-35 158,-155 22,-213 -97,-43 -133,33 -139,113l-39 22 -271 -137 103 -237 92 40 -64 149 116 59c3,-15 9,-33 17,-51zm288 -128l-85 -47 101 -182 84 47 -100 182zm473 -414l-184 267 -69 -47c-14,-18 -78,-255 -141,-331 -77,-92 -171,-70 -138,70l-90 14c-18,-71 -17,-125 21,-181 101,-147 270,-55 342,129l64 186 112 -164 83 57zm25 -499c115,97 226,213 131,327 -95,113 -229,23 -344,-74 -113,-95 -226,-215 -132,-327 95,-113 227,-24 345,74zm-141 167c69,57 162,141 199,98 39,-46 -80,-137 -131,-179 -65,-55 -163,-141 -200,-98 -36,43 66,123 132,179zm459 -464c101,112 193,244 83,342 -109,99 -229,-9 -329,-121 -99,-111 -194,-246 -85,-343 110,-99 229,8 331,122zm-163 145c60,67 141,163 183,126 45,-41 -60,-147 -104,-196 -56,-63 -142,-163 -184,-125 -42,37 47,131 105,195z">
  </path>
 </g>
</svg>
