<svg role="img" style="shape-rendering: geometricPrecision;
text-rendering: optimizeLegibility; fill-rule:evenodd; clip-rule:evenodd;" version="1.1" viewbox="0 0 75000 40000" width="140px" xml:space="preserve" xmlns="http://www.w3.org/2000/svg">
 <title>
  7.22
 </title>
 <g fill="#FFF" stroke="gray" stroke-width="800">
  <rect height="35000" rx="4500" ry="4500" width="70000" x="2500" y="2500">
  </rect>
 </g>
 <g class="blue_layer" fill="#0177D9" style="fill-rule: evenodd; clip-rule: nonzero;">
 </g>
 <g fill="red">
 </g>
 <g class="black_layer" fill="#000" stroke="#000" stroke-width="0.8mm" style="shape-rendering: geometricPrecision">
  <path d="M34090.9 8660.03c927.36,0 2196.46,587.84 2536.73,1459.96l2460.63 6635.09c662.47,18.81 1703.85,948.38 1703.85,1706.63l0 5307.95c0,67.01 -6.42,135.02 -18.55,203.49 527.72,-362.7 978.69,-859 1446.82,-1407.14 443.03,-518.72 1112.3,-1075 1745.8,-1410.04 1122.92,-593.9 2245.29,-614.41 3410.69,-46.37 1180.38,575.31 1579.83,1344.49 2929.29,1437l0 -1471.4c0,-32.44 26.54,-58.97 58.97,-58.97l1054.65 0c32.43,0 58.97,26.53 58.97,58.97l0 370.59 1871.31 -1239.29 0 0.01c61.59,-48.38 223.36,-77.32 307.29,-77.32l3052.9 0c199.23,0 362.24,163.09 362.24,362.25l0 528.55 2695.65 0c302.45,0 547.62,245.18 547.62,547.61 0,302.44 -245.17,547.61 -547.62,547.61l-2695.65 0 0 1971.42 2695.65 0c302.45,0 547.62,245.18 547.62,547.61 0,302.44 -245.17,547.61 -547.62,547.61l-2695.65 0 0 528.54c0,199.18 -163.07,362.26 -362.24,362.26l-3052.9 0c-75.03,0 -229.23,-23.15 -287.23,-62.64l0 0 -1891.37 -1253.96 0 370.6c0,32.43 -26.54,58.96 -58.97,58.96l-1054.65 0c-32.43,0 -58.97,-26.62 -58.97,-58.96l0 -1419.55c-1379.27,8.24 -2344.64,-1022.02 -3386.71,-1548.52 -3339.45,-1687.4 -4244.94,3636.33 -8039.37,3526.06l-22298.47 0c-795.29,0 -1912.03,-1004.94 -1912.03,-1914.98l0 -5307.95c0,-796.75 681.43,-1687.82 1703.85,-1706.63l2460.62 -6635.09c341.01,-909.88 1571.03,-1459.96 2536.73,-1459.96l12720.26 0 -0.14 0zm-17377.36 17972.4l4165.06 0 0 3128.23c0,682.74 -1060.18,1592.77 -2101.4,1592.77 -1041.24,0 -2082.61,-739.45 -2082.61,-1592.77l18.8 -3128.23 0.15 0zm22033.72 0l-4164.33 0 0 3128.23c0,682.74 1060.19,1592.77 2101.42,1592.77 1041.22,0 2082.6,-739.45 2082.6,-1592.77l-19.54 -3128.23 -0.15 0zm-19856.79 -8151.76c1174.04,0 2120.22,947.63 2120.22,2123.15 0,1175.52 -946.18,2123.14 -2120.22,2123.14 -1173.31,0 -2119.48,-947.62 -2119.48,-2123.14 0,-1175.52 946.17,-2123.15 2119.48,-2123.15zm17680.6 0c-1174.05,0 -2120.21,947.63 -2120.21,2123.15 0,1175.52 946.16,2123.14 2120.21,2123.14 1173.31,0 2120.21,-947.62 2120.21,-2123.14 0,-1175.52 -946.9,-2123.15 -2120.21,-2123.15zm-2480.17 -8209.06c605.9,0 1041.22,322.2 1174.04,663.2l2119.49 5896.38 -19307.46 0 2119.48 -5896.38c151.62,-416.52 568.15,-663.2 1174.04,-663.2l12720.26 0 0.15 0z">
  </path>
  <use x="0" xlink:href="#border 350x700" y="0">
  </use>
 </g>
</svg>
