<svg role="img" style="shape-rendering: geometricPrecision;
text-rendering: optimizeLegibility; fill-rule:evenodd; clip-rule:evenodd;" version="1.1" viewbox="0 0 75000 110000" width="140px" xml:space="preserve" xmlns="http://www.w3.org/2000/svg">
 <title>
  6.14
 </title>
 <g fill="#FFF" stroke="gray" stroke-width="800">
  <rect height="105000" rx="4500" ry="4500" width="70000" x="2500" y="2500">
  </rect>
 </g>
 <g class="blue_layer" fill="#0177D9" style="fill-rule: evenodd; clip-rule: nonzero;">
  <rect height="101000" rx="2500" ry="2500" width="66000" x="4500" y="4500">
  </rect>
  <rect fill="#FFFFFF" height="57000" rx="2000" ry="2000" width="57000" x="9000" y="17500">
  </rect>
 </g>
 <g fill="red">
 </g>
 <g class="black_layer" fill="#000" stroke="#000" stroke-width="0.8mm" style="shape-rendering: geometricPrecision">
  <symbol id="police">
   <path d="M2500 136l5480 0 0 7627 -1331 0 0 -6354 -2824 0 0 6354 -1325 0 0 -7627zm15743 21581c-736,0 -1343,-285 -1820,-845 -494,-581 -716,-1266 -716,-2027 0,-763 220,-1451 716,-2033 477,-559 1084,-845 1820,-845 721,0 1311,297 1777,845 496,582 716,1270 716,2033 0,761 -222,1446 -716,2027 -466,549 -1055,845 -1777,845zm-20 -1018c394,0 720,-182 976,-547 258,-364 387,-804 387,-1318 0,-519 -129,-958 -387,-1320 -256,-364 -582,-544 -976,-544 -420,0 -759,180 -1015,544 -258,362 -387,802 -387,1320 0,514 129,954 387,1318 256,365 595,547 1015,547zm-8417 884l0 -7627 2408 0c578,0 1065,114 1461,345 397,231 690,503 880,820 190,316 270,682 284,1098 23,683 -152,1292 -564,1827 -412,537 -1069,804 -1971,804l-1123 0 0 2733 -1375 0zm1375 -3895l878 0c365,0 694,-113 987,-338 294,-226 455,-593 440,-1105 -10,-348 -180,-613 -469,-798 -287,-185 -614,-277 -980,-277l-856 0 0 2518zm12418 2623c55,149 146,308 306,360 126,41 256,60 388,40 136,-20 272,-45 407,-70l64 -12 6 1088 -36 13c-226,83 -465,124 -706,132 -221,8 -452,-4 -667,-60 -181,-46 -356,-117 -510,-222 -162,-110 -290,-263 -392,-429 -106,-173 -178,-362 -199,-565l0 -2 0 -6688 1339 0 0 6415zm3907 -4226l0 5541 -1301 0 0 -5541 1301 0zm-651 -2051c213,0 398,78 548,229 149,152 224,336 224,549 0,215 -73,400 -224,554 -150,153 -334,231 -548,231 -214,0 -398,-78 -547,-231 -151,-154 -227,-338 -227,-554 0,-213 77,-397 227,-549 150,-152 334,-228 547,-229zm5661 5502l1117 417 -20 51c-122,318 -295,608 -516,868 -466,549 -1055,845 -1778,845 -735,0 -1342,-285 -1819,-845 -495,-581 -716,-1266 -716,-2027 0,-763 220,-1451 716,-2033 477,-559 1084,-845 1819,-845 723,0 1313,297 1778,846 185,219 339,459 457,720l22 50 -1085 482 -19 -55c-57,-165 -135,-322 -237,-465 -230,-325 -532,-521 -936,-521 -415,0 -731,184 -970,521 -271,382 -377,825 -377,1289 0,463 107,905 377,1287 238,338 554,524 970,524 405,0 706,-202 936,-526 115,-162 203,-340 264,-529l17 -54zm3617 -287c-9,340 98,645 301,922l1 1 1 1c216,325 525,472 913,472 334,0 661,-72 934,-271 120,-117 275,-280 344,-433l26 -60 978 677 -34 45c-247,323 -587,708 -962,885 -372,176 -862,220 -1269,229l-1 0c-733,0 -1333,-287 -1806,-845 -494,-581 -713,-1267 -713,-2027 0,-762 218,-1451 713,-2033 473,-558 1074,-845 1806,-845 720,0 1306,298 1770,845 495,582 713,1271 713,2033 0,165 -61,303 -200,395l-14 9 -3501 0zm2419 -904c15,-313 -81,-573 -287,-779 -224,-327 -529,-490 -916,-490 -418,0 -738,163 -958,490 -206,206 -302,466 -288,779l2449 0zm4468 -11504c562,-980 993,-1485 1295,-1518 -600,-255 -938,-649 -1015,-1182 -76,-533 57,-967 398,-1302 340,-336 758,-510 1251,-525l2551 0 0 5454 -1284 0 0 -2051c-540,-34 -947,59 -1221,281 -275,221 -649,812 -1122,1770l-1389 0 536 -927zm3191 -2242l0 -1247 -856 0c-260,0 -464,57 -613,169 -149,111 -224,271 -224,482 0,209 75,360 224,455 149,94 353,141 613,141l856 0zm-9847 3169l0 -5448 1247 0 0 3403 2252 -3403 1300 0 0 5448 -1300 0 0 -3398 -2252 3398 -1247 0zm-2796 0l-4085 0 0 -5448 1245 0 0 4308 1880 0 0 -4308 1248 0 0 4325 831 0 0 2354 -1119 0 0 -1231zm-10876 0l0 -5448 1247 0 0 3403 2253 -3403 1300 0 0 5448 -1300 0 0 -3398 -2253 3398 -1247 0zm-6013 -5465l4025 0 0 5465 -1294 0 0 -4358 -1442 0 0 2062c-93,811 -391,1407 -893,1793 -503,385 -887,614 -1152,691l-422 -1157c742,-274 1134,-681 1178,-1225l0 -3271zm-4550 5545c-734,0 -1343,-274 -1823,-825 -482,-551 -722,-1215 -722,-1993 0,-781 240,-1447 722,-1998 480,-549 1089,-825 1823,-825 708,0 1302,276 1782,825 482,551 722,1217 722,1998 0,778 -240,1442 -722,1993 -480,551 -1074,825 -1782,825zm-16 -1049c371,0 676,-176 916,-527 242,-353 364,-776 364,-1273 0,-498 -122,-921 -364,-1270 -240,-351 -545,-526 -916,-526 -389,0 -705,175 -947,526 -242,349 -362,772 -362,1270 0,497 120,920 362,1273 242,351 558,527 947,527z">
   </path>
  </symbol>
  <g transform="scale(1)">
   <use x="12500" xlink:href="#police" y="35000">
   </use>
  </g>
 </g>
</svg>
