<svg role="img" style="shape-rendering: geometricPrecision;
text-rendering: optimizeLegibility; fill-rule:evenodd; clip-rule:evenodd;" version="1.1" viewbox="0 0 95000 95000" width="140px" xml:space="preserve" xmlns="http://www.w3.org/2000/svg">
 <title>
  5.10.3
 </title>
 <g fill="#FFF" stroke="gray" stroke-width="800">
  <rect height="90000" rx="4500" ry="4500" width="90000" x="2500" y="2500">
  </rect>
 </g>
 <g class="blue_layer" fill="#0177D9" style="fill-rule: evenodd; clip-rule: nonzero;">
  <rect height="86000" rx="2500" ry="2500" width="86000" x="4500" y="4500">
  </rect>
  <symbol id="5_10_3">
   <path d="M8369 19930l16077 9400 0 -5994 46676 0 0 -6812 -46676 0 0 -5995 -16077 9401zm24216 36365l0 5994c0,455 -176,893 -489,1214 -312,323 -736,505 -1178,505l-2338 0c-110,-2641 -2246,-4711 -4811,-4697 -2564,14 -4659,2119 -4737,4762l-14527 8 0 -11617 3247 0c441,0 867,-182 1179,-503 312,-321 488,-759 488,-1215l0 -3539c0,-456 -176,-894 -488,-1215 -312,-323 -738,-503 -1179,-503l-3036 0 -211 0 0 -1510 3026 0 18959 0c1040,0 1994,600 2469,1553l3626 7365 0 3398zm-2009 -4647c80,176 66,386 -34,550 -101,164 -280,266 -470,266l-3480 0 -2170 0c-1024,0 -1853,-855 -1853,-1909l11 -3559c0,-506 -77,-980 270,-1338 347,-358 556,-298 1047,-298l2875 0c650,0 1241,390 1515,999l2289 5289zm-11805 816l-5952 0c-921,0 -1667,-769 -1667,-1718l0 -3539c0,-456 176,-892 488,-1215 313,-323 738,-503 1179,-503l5952 0c443,0 866,180 1179,503 313,323 488,759 488,1215l0 3538c0,457 -187,906 -488,1216 -301,309 -736,503 -1179,503zm2703 11760c0,-1322 1040,-2394 2322,-2394 1285,0 2325,1072 2325,2394 0,1322 -1040,2394 -2325,2394 -1282,0 -2323,-1072 -2322,-2394zm-1616 0c0,-2243 1764,-4060 3938,-4060 2177,0 3941,1817 3941,4060 0,2243 -1764,4062 -3941,4062 -2174,0 -3939,-1819 -3938,-4062zm46927 -8319l-16077 -9401 0 5995 -15097 0 0 6812 15097 0 0 5995 16077 -9401zm-63156 -16072l0 -4666 67742 0 0 4666 -67742 0z" fill="#FFF">
   </path>
  </symbol>
  <g fill="#FFF" transform="scale(1.3)">
   <use x="-1300" xlink:href="#5_10_3" y="1">
   </use>
  </g>
 </g>
 <g fill="red">
 </g>
</svg>
