<svg role="img" style="shape-rendering: geometricPrecision;
text-rendering: optimizeLegibility; fill-rule:evenodd; clip-rule:evenodd;" version="1.1" viewbox="0 0 75000 40000" width="140px" xml:space="preserve" xmlns="http://www.w3.org/2000/svg">
 <title>
  7.7
 </title>
 <g fill="#FFF" stroke="gray" stroke-width="800">
  <rect height="35000" rx="4500" ry="4500" width="70000" x="2500" y="2500">
  </rect>
 </g>
 <g class="blue_layer" fill="#0177D9" style="fill-rule: evenodd; clip-rule: nonzero;">
 </g>
 <g fill="red">
  <symbol id="7_7 red">
   <polygon points="54035,2001 23040,32996 15969,32996 46964,2001 ">
   </polygon>
  </symbol>
  <g transform="scale(1)">
   <use x="2500" xlink:href="#7_7 red" y="2500">
   </use>
  </g>
 </g>
 <g class="black_layer" fill="#000" stroke="#000" stroke-width="0.8mm" style="shape-rendering: geometricPrecision">
  <symbol id="7_7">
   <path d="M10131 19497c1610,0 2930,1320 2930,2915 0,1626 -1320,2946 -2930,2946 -1611,0 -2915,-1320 -2915,-2946 0,-1595 1304,-2915 2915,-2915zm38649 -12242c4088,617 7545,3579 8687,7702 1359,4903 -933,10083 -5475,12375 -4542,2292 -10071,1058 -13207,-2948 -1043,1443 -2624,2405 -4386,2668 -1564,234 -3153,-101 -4484,-932l591 -590c1322,767 2902,987 4397,593 1701,-449 3107,-1645 3823,-3252 148,276 322,537 519,780 2876,3907 8167,5141 12475,2910 4308,-2232 6352,-7265 4820,-11869 -1264,-3798 -4653,-6371 -8488,-6708l728 -729zm-32361 15953l4470 549c309,1038 965,1910 1832,2487l489 -489c-773,-475 -1367,-1223 -1640,-2127 -440,-1457 35,-3036 1207,-4007 1621,-1343 3248,-974 4916,-74 278,-1658 1261,-3115 2695,-3993 1152,-705 2504,-982 3823,-801l696 -695c-1462,-337 -3005,-169 -4371,493 -1637,793 -2876,2226 -3425,3960 -1381,-659 -3004,-564 -4298,252 -1295,816 -2080,2240 -2078,3770l-3642 0 -674 675zm-14201 -1193l4370 0c757,-4089 5716,-4283 6876,-499 531,-161 1175,-515 1320,-1079l821 -2978c145,-548 -96,-1208 -499,-1627l-4895 -4975c-338,-338 -837,-548 -1320,-548l-6673 13 0 1082 6463 0c435,0 999,193 1160,596l1014 2271c370,869 -96,1980 -1143,1980l-7494 0 0 5764zm7913 -1439c1014,0 1835,837 1835,1836 0,1030 -821,1867 -1835,1867 -1015,0 -1836,-837 -1836,-1867 0,-999 821,-1836 1836,-1836z">
   </path>
  </symbol>
  <g transform="scale(1)">
   <use x="2500" xlink:href="#7_7" y="2500">
   </use>
  </g>
  <use x="0" xlink:href="#border 350x700" y="0">
  </use>
 </g>
</svg>
