<svg role="img" style="shape-rendering: geometricPrecision;
text-rendering: optimizeLegibility; fill-rule:evenodd; clip-rule:evenodd;" version="1.1" viewbox="0 0 75000 110000" width="140px" xml:space="preserve" xmlns="http://www.w3.org/2000/svg">
 <title>
  5.49
 </title>
 <g fill="#FFF" stroke="gray" stroke-width="800">
  <rect height="105000" rx="4500" ry="4500" width="70000" x="2500" y="2500">
  </rect>
 </g>
 <g class="blue_layer" fill="#0177D9" style="fill-rule: evenodd; clip-rule: nonzero;">
  <circle cx="37492.67" cy="55007.93" fill="grey" r="23571.43">
  </circle>
  <path d="M40070.53 39095.07c-534.29,-610 -1295,-972.14 -2096.43,-848.57 -800.72,123.57 -1471.43,675 -1744.29,1440 -273.57,764.29 -105,1615.72 435.72,2220 635,792.14 1529.28,1297.86 2501.43,1585.72 717.85,212.14 1558.57,-23.58 1806.42,-729.29 447.15,-1272.86 -15,-2654.29 -902.85,-3667.86zm-9382.86 29302.15c-1550.71,2266.42 -3942.14,87.85 -2822.14,-1538.58l6427.85 -10588.57 2443.58 1933.57 -6049.29 10193.58zm16687.86 485l-3050.72 -9365.72c-34.28,-140.71 -114.28,-265.71 -226.43,-356.43l-4593.57 -4194.28 585 -8905.72c0,-206.43 -96.43,-400.71 -260.71,-526.43l-2975 -2099.28c-219.29,-167.14 -882.14,-180 -1115.72,-34.29l-5951.42 4342.86c-679.29,496.43 -792.86,1102.86 -792.86,1330.71l0 5232.15c27.14,1799.28 2560,1947.14 2560,-150.72l173.57 -3852.85c0,-237.86 127.14,-733.58 333.57,-851.43l3402.86 -2395.72 -405 8439.29 6212.14 5005.71c125,94.29 211.43,228.57 247.14,381.43l2847.86 8460.72c439.29,1714.28 3385,1075.71 3009.29,-460zm-6541.43 -18350.72l-222.86 3158.57 2864.29 2293.57c1464.28,860.72 3035,-1152.14 1675,-2301.42l-4316.43 -3150.72z" fill="#FFF">
  </path>
 </g>
 <g fill="red">
  <polygon points="36263.91,88429.64 36515.58,92788.65 32826.94,90378.54 31614.74,92498.96 35584.04,94447.86 31643.15,96439.38 32841.15,98569.4 36529.79,96116.1 36263.91,100518.3 38702.43,100518.3 38450.76,96144.99 42101.49,98540.99 43370.61,96439.38 39387,94490.58 43370.61,92498.96 42101.49,90378.54 38464.96,92817.06 38702.43,88429.64 ">
  </polygon>
 </g>
 <g class="black_layer" fill="#000" stroke="#000" stroke-width="0.8mm" style="shape-rendering: geometricPrecision">
  <path d="M18094.92 11202.45l1066.35 1460.84c907.93,-725.84 1538.24,-1083.79 2767.13,-1082.19 337.08,0.44 686.96,65.69 969.68,258.74 224.69,153.43 381.16,371.37 455.38,632.94 74.09,261.13 59.7,543.66 -22.89,800.97 -155.4,484.13 -551.51,880.79 -1075.79,916.98 -485.06,33.49 -972.03,37.73 -1458.19,38.14l0 1363.8 678.75 0c520.17,0 1099.21,89.5 1534.28,394.85 316.63,222.23 528.66,544.03 565.12,933.17 33.37,356.32 -87.51,707.59 -302.66,989.63 -246.68,323.37 -601.78,541.7 -992.25,646.9 -501.82,135.19 -1033.2,79.64 -1522.38,-79.97 -669.3,-218.38 -1285.38,-632.99 -1814.86,-1094.68l-1101.55 1415.25c1132.6,895.79 2223.26,1673.09 3738.94,1658.77 696.49,-6.57 1389.75,-141.34 2016.91,-450.82 515.67,-254.46 968.87,-619.65 1311.28,-1082.93 300.47,-406.51 509.84,-882.54 585.02,-1383.61 68.38,-455.8 23.75,-927.43 -164.26,-1350.81 -237.12,-533.97 -665.25,-912.01 -1204.44,-1126.69l-193.78 -77.15 178.23 -108.34c567.76,-345.14 955.99,-881.91 1113.61,-1526.38 238.46,-974.94 -88.31,-2045.75 -840.14,-2712.94 -1621.28,-1438.75 -4673.95,-733.42 -6213.2,505.72l-74.29 59.81zm13595.84 9087.75c1233.78,0 2182.42,-586.38 2906.47,-1559.52 1549.66,-2082.77 1549.67,-5169.89 0,-7252.66 -724.05,-973.13 -1672.69,-1559.53 -2906.47,-1559.53 -1233.78,0 -2182.42,586.4 -2906.47,1559.53 -1549.67,2082.77 -1549.66,5169.89 0,7252.66 724.05,973.14 1672.69,1559.52 2906.47,1559.52zm21.7 -1916.96c-1576.37,0 -2012.44,-2061.53 -2012.44,-3294.21 0,-1236.67 430.71,-3291.8 2012.44,-3291.8 1580.14,0 2019.68,2054.17 2019.68,3291.8 0,1236.49 -440.72,3294.21 -2019.68,3294.21zm8484.82 -8512.47l-2030.3 0 0 10323.33 2030.3 0 0 -4564.9 3537.77 0 0 4564.9 2027.89 0 0 -10323.33 -2027.89 0 0 3877.64 -3537.77 0 0 -3877.64zm14987.93 10323.33l2281.07 0 -3464.94 -10316.1 -2186.56 0 -3428.04 10316.1 2281.24 0 651.09 -2090.74 3195.75 0 670.39 2090.74zm-3338.9 -3908.83l1030.69 -3347.01 1174.23 3347.01 -2204.92 0z">
  </path>
  <path d="M6992.67 3507.92l61000 0c1925,0 3500,1575 3500,3500l0 95999.99c0,1925 -1575,3500 -3500,3500l-61000 0c-1925,0 -3500,-1575 -3500,-3500l0 -95999.99c0,-1925 1575,-3500 3500,-3500zm63500 9815.77l-66000 60914.89 0 4082.47 66000 -60914.89 0 -4082.47zm-66000 58873.65l66000 -60914.89 0 -4274.54c0,-1375 -1125,-2500 -2500,-2500l-61000 0c-1375,0 -2500,1125 -2500,2500l0 65189.43zm66000 -52749.94l-66000 60914.89 0 4082.46 66000 -60914.89 0 -4082.46zm0 6123.71l-66000 60914.89 0 4082.46 66000 -60914.89 0 -4082.46zm0 6123.7l-66000 60914.89 0 4082.47 66000 -60914.89 0 -4082.47zm0 6123.71l-66000 60914.89 0 4274.49c0,1375 1125,2500 2500,2500l61000 0c1375,0 2500,-1125 2500,-2500l0 -65189.38z">
  </path>
 </g>
</svg>
