<svg role="img" style="shape-rendering: geometricPrecision;
text-rendering: optimizeLegibility; fill-rule:evenodd; clip-rule:evenodd;" version="1.1" viewbox="0 0 75000 110000" width="140px" xml:space="preserve" xmlns="http://www.w3.org/2000/svg">
 <title>
  5.12
 </title>
 <g fill="#FFF" stroke="gray" stroke-width="800">
  <rect height="105000" rx="4500" ry="4500" width="70000" x="2500" y="2500">
  </rect>
 </g>
 <g class="blue_layer" fill="#0177D9" style="fill-rule: evenodd; clip-rule: nonzero;">
  <rect height="101000" rx="2500" ry="2500" width="66000" x="4500" y="4500">
  </rect>
  <rect fill="#FFFFFF" height="57000" rx="2000" ry="2000" width="57000" x="9000" y="17500">
  </rect>
 </g>
 <g fill="red">
 </g>
 <g class="black_layer" fill="#000" stroke="#000" stroke-width="0.8mm" style="shape-rendering: geometricPrecision">
  <symbol id="bus">
   <path d="M41986 19847c0,-2106 -1707,-3812 -3813,-3812 -2106,0 -3812,1706 -3812,3812 0,2106 1706,3813 3812,3813 2106,0 3813,-1707 3813,-3813zm-41986 -1820c0,449 172,881 478,1198 305,319 719,498 1150,498l2155 -1c111,-2581 2217,-4638 4801,-4638 2583,0 4690,2056 4802,4636l19976 -5c115,-2578 2219,-4631 4800,-4631 2580,0 4686,2052 4802,4628l4408 -1c898,0 1628,-760 1628,-1696l0 -9174 -3540 -7268c-460,-944 -1396,-1533 -2414,-1533l-18572 0 -18520 0c-1016,0 -1948,592 -2412,1533l-3542 7268 0 9186 0 0zm1963 -10419c-78,175 -65,382 33,544 98,161 273,262 459,262l3400 0 2120 0c999,0 1809,-843 1809,-1884l-11 -3513c0,-499 76,-967 -263,-1320 -340,-353 -543,-294 -1023,-294l-2809 0c-634,0 -1212,385 -1479,986l-2236 5219zm28642 806c899,0 1628,-759 1628,-1696l0 -3492c0,-936 -729,-1696 -1628,-1696l-2951 0 -429 0 -2966 0c-431,0 -847,178 -1152,497 -304,317 -477,748 -477,1199l0 3492c0,451 172,882 477,1200 304,317 721,496 1152,496l3257 0 3089 0 0 0zm-17110 0l5814 0c900,0 1628,-759 1628,-1696l0 -3492c0,-451 -171,-881 -476,-1199 -306,-320 -721,-497 -1152,-497l-5814 0c-433,0 -846,178 -1152,497 -306,318 -477,748 -477,1199l0 3492c0,451 182,894 477,1200 293,305 719,496 1152,496l0 0zm29421 -5940l1573 4528c161,291 145,665 -2,941 -147,276 -460,471 -782,471l-2336 0 -5814 0c-433,0 -847,-179 -1152,-496 -304,-318 -476,-749 -476,-1200l0 -3492c0,-451 177,-887 476,-1199 300,-313 721,-497 1152,-497l5793 0c648,0 1245,360 1568,944l0 0zm-30531 17373c0,-2106 -1707,-3812 -3812,-3812 -2106,0 -3813,1706 -3813,3812 0,2106 1707,3813 3813,3813 2105,0 3812,-1707 3812,-3813zm-1584 0c0,-1231 -998,-2229 -2228,-2229 -1232,0 -2230,998 -2230,2229 0,1230 998,2229 2230,2229 1230,0 2228,-999 2228,-2229zm29601 0c0,-1231 -998,-2229 -2229,-2229 -1231,0 -2229,998 -2229,2229 0,1230 998,2229 2229,2229 1231,0 2228,-999 2229,-2229z">
   </path>
  </symbol>
  <g transform="scale(1)">
   <use x="13500" xlink:href="#bus" y="35000">
   </use>
  </g>
 </g>
</svg>
