<svg role="img" style="shape-rendering: geometricPrecision;
text-rendering: optimizeLegibility; fill-rule:evenodd; clip-rule:evenodd;" version="1.1" viewbox="0 0 75000 75000" width="140px" xml:space="preserve" xmlns="http://www.w3.org/2000/svg">
 <title>
  5.17.1
 </title>
 <g fill="#FFF" stroke="gray" stroke-width="800">
  <rect height="70000" rx="4500" ry="4500" width="70000" x="2500" y="2500">
  </rect>
 </g>
 <g class="blue_layer" fill="#0177D9" style="fill-rule: evenodd; clip-rule: nonzero;">
  <rect height="66000" rx="2500" ry="2500" width="66000" x="4500" y="4500">
  </rect>
  <symbol id="5_17_1">
   <path d="M39873 41813c183,450 548,802 1004,970 458,167 964,134 1395,-92l133 -69c801,-421 1142,-1391 779,-2220l-4087 -9336 -2264 3268 3040 7479zm-28893 -10839l-10968 0 0 4256 8586 0 0 4257 12003 0 0 4256 11621 0 0 4257 12130 0 0 4169 10811 0c1116,-334 2787,-968 2612,-4169l-11430 0 0 -4257 -11620 0 0 -4256 -12004 0 0 -4257 -11741 0 0 -4256zm23342 -27056c461,1311 1346,2431 2516,3184 922,581 2341,643 2979,-125 626,-755 794,-1858 896,-2755 219,-1927 -603,-3639 -3041,-4095 -1092,-203 -2209,-139 -2908,724 -699,864 -869,2041 -442,3067zm-1330 34193l6624 -10008c427,-644 373,-1493 -131,-2078l-4227 -5118 1993 -10954c48,-267 -30,-541 -213,-741l-2141 -2417c-388,-479 -1226,-431 -1689,-247l-9335 3718c-425,169 -762,603 -841,1060l-1440 7917c-336,1846 3214,2389 3532,642l1038 -5706c56,-307 272,-561 566,-665l4342 -1533 -1356 8578c-25,250 51,513 160,643l4673 5048c846,856 937,975 170,2128l-5037 7561c-1312,1968 2041,4089 3312,2172zm9743 -17751l-5274 -5279 -711 3914 3757 3875c1163,1198 3451,-1286 2228,-2510z">
   </path>
  </symbol>
  <g fill="#FFF" transform="scale(1.178333266)">
   <use x="2650" xlink:href="#5_17_1" y="8750">
   </use>
  </g>
 </g>
 <g fill="red">
 </g>
</svg>
