<svg role="img" style="shape-rendering: geometricPrecision;
text-rendering: optimizeLegibility; fill-rule:evenodd; clip-rule:evenodd;" version="1.1" viewbox="0 0 95000 85000" width="140px" xml:space="preserve" xmlns="http://www.w3.org/2000/svg">
 <title>
  1.33
 </title>
 <g fill="#FFF" stroke="gray" stroke-width="800">
  <path d="M91867 75270c1761,2953 -345,6802 -3867,6802l-81000 0c-3522,0 -5628,-3849 -3867,-6802l40470 -70097c1762,-3051 6146,-2951 7824,52l40440 70045z">
  </path>
 </g>
 <g class="blue_layer" fill="#0177D9" style="fill-rule: evenodd; clip-rule: nonzero;">
 </g>
 <g fill="red">
  <path d="M91005 75776l-40448 -70057c-1321,-2368 -4733,-2393 -6088,-46l-40474 70103c-1383,2317 306,5296 3005,5296l81000 0c2740,0 4379,-2994 3005,-5296zm-42613 -61812l34411 59607c380,656 -90,1500 -866,1500l-68874 0c-801,0 -1265,-892 -838,-1546l34387 -59554c368,-724 1407,-728 1780,-7z">
  </path>
  <path d="M91596 78067l12 -110c148,16 339,32 484,59l-90 -104 75 -55 131 176 -11 100 -601 -66zm-75 384l24 -108c145,31 334,66 476,107l-80 -112 81 -47 112 189 -21 97 -592 -126zm-130 426l98 -309 80 26c18,12 148,221 231,276 100,66 184,18 111,-107l83 -39c37,63 52,115 32,179 -55,170 -244,130 -365,-24l-115 -160 -60 188 -95 -30zm247 373c-69,161 -294,69 -344,-41 -40,-90 19,-211 84,-256l97 42c-61,35 -158,155 -22,213 97,43 133,-33 139,-113l39 -22 271 137 -103 237 -92 -40 64 -149 -116 -59c-3,15 -9,33 -17,51zm-288 128l85 47 -101 182 -84 -47 100 -182zm-473 414l184 -267 69 47c14,17 78,255 141,331 77,92 171,70 138,-70l90 -14c18,71 17,125 -21,181 -101,147 -270,54 -342,-129l-64 -186 -112 163 -83 -56zm-25 499c-115,-97 -226,-214 -131,-327 95,-113 229,-23 344,74 113,95 226,215 132,327 -95,113 -227,24 -345,-74zm141 -167c-69,-57 -162,-141 -199,-98 -39,46 80,137 131,179 65,54 163,141 200,98 36,-43 -66,-123 -132,-179zm-459 464c-101,-112 -193,-244 -83,-342 109,-99 229,9 329,121 99,111 194,246 85,343 -110,99 -229,-8 -331,-122zm163 -145c-60,-67 -141,-163 -183,-126 -45,41 60,147 104,196 56,63 142,163 184,125 42,-37 -47,-131 -105,-195zm-669 155l261 -192 49 68c7,21 -9,266 25,359 42,112 139,122 153,-21l90 16c-7,73 -25,124 -80,164 -143,106 -273,-37 -281,-234l1 -197 -159 118 -59 -81z">
  </path>
 </g>
 <g class="black_layer" fill="#000" stroke="#000" stroke-width="0.8mm" style="shape-rendering: geometricPrecision">
  <g transform="scale(1.465) translate(0, 0)">
   <path d="M41836 45638c521,71 996,-254 1060,-725l330 -2424 -2639 -359 -330 2424c-30,227 39,457 195,642 156,183 384,306 634,340l750 102zm2093 415c331,0 599,255 599,570 0,315 -268,571 -599,571 -331,0 -598,-256 -598,-571 0,-315 267,-570 598,-570zm-1809 1781c499,0 904,387 904,863 0,477 -405,863 -904,863 -500,0 -905,-386 -905,-863 0,-476 405,-863 905,-863zm-3035 -83c377,0 682,280 682,626 0,346 -305,626 -682,626 -376,0 -682,-280 -682,-626 0,-346 306,-626 682,-626zm-278 -2199c423,0 766,336 766,751 0,415 -343,752 -766,752 -423,0 -765,-337 -765,-752 0,-415 342,-751 765,-751zm-2297 -905c277,0 501,224 501,501 0,277 -224,501 -501,501 -277,0 -501,-224 -501,-501 0,-277 224,-501 501,-501zm-515 1517c469,0 849,380 849,849 0,469 -380,849 -849,849 -469,0 -849,-380 -849,-849 0,-469 380,-849 849,-849zm-2770 1375c371,0 671,301 671,671 0,371 -300,671 -671,671 -370,0 -670,-300 -670,-671 0,-370 300,-671 670,-671zm459 -3273c219,0 395,177 395,395 0,218 -176,394 -395,394 -217,0 -394,-176 -394,-394 0,-218 177,-395 394,-395zm-20029 -190l16699 0 -646 -88c-251,-34 -479,-157 -634,-340 -156,-184 -226,-415 -195,-641l330 -2424 0 0 2638 358 -330 2424c-48,357 -337,632 -701,711l823 0 0 3730 -17984 0 0 -3730zm29781 -13674l842 4561c47,253 270,451 548,489l425 57c519,71 892,513 829,982l-551 4054c-117,855 -811,1357 -1560,1255l-14988 -2038c-749,-102 -1210,-899 -1167,-1627l551 -4053c31,-226 160,-429 359,-565 199,-136 452,-194 702,-160l392 53c255,35 502,-71 629,-270l224 -351 1753 -3872c107,-238 380,-376 665,-337l9798 1333c280,38 503,236 549,489zm-396 4815l-698 -3928c-44,-253 -268,-455 -549,-493l-8029 -1092c-286,-39 -560,101 -667,340l-1616 3601 11559 1572z">
   </path>
  </g>
 </g>
</svg>
