<svg role="img" style="shape-rendering: geometricPrecision;
text-rendering: optimizeLegibility; fill-rule:evenodd; clip-rule:evenodd;" version="1.1" viewbox="0 0 75000 110000" width="140px" xml:space="preserve" xmlns="http://www.w3.org/2000/svg">
 <title>
  6.20
 </title>
 <g fill="#FFF" stroke="gray" stroke-width="800">
  <rect height="105000" rx="4500" ry="4500" width="70000" x="2500" y="2500">
  </rect>
 </g>
 <g class="blue_layer" fill="#0177D9" style="fill-rule: evenodd; clip-rule: nonzero;">
  <rect height="101000" rx="2500" ry="2500" width="66000" x="4500" y="4500">
  </rect>
  <rect fill="#FFFFFF" height="57000" rx="2000" ry="2000" width="57000" x="9000" y="17500">
  </rect>
 </g>
 <g fill="red">
 </g>
 <g class="black_layer" fill="#000" stroke="#000" stroke-width="0.8mm" style="shape-rendering: geometricPrecision">
  <g>
   <path d="M16318.73 87745.67c-116.42,704.67 -384.53,1070.68 -801.69,1098.02 -418.04,27.34 -719.66,-117.3 -905.75,-433.92l-488.6 433.92c328.96,425.1 730.25,638.53 1202.97,638.53 472.72,0 872.24,-172.86 1198.56,-516.82 326.32,-344.84 486.84,-839.61 482.43,-1484.31 -5.29,-645.59 -149.05,-1125.37 -432.15,-1441.1 -282.23,-314.86 -678.22,-471.84 -1187.98,-470.96 -509.77,0.88 -916.35,206.37 -1219.73,615.6l456.84 426.86c209.02,-285.75 503.59,-432.16 883.71,-438.33 381,-6.17 658.81,310.45 835.2,949.86l-1168.57 0 -1.77 622.65 1146.53 0zm4697.04 1614.84l-787.58 0 -594.43 -1005.42c-184.34,-311.82 -289.3,-526.53 -413.63,-592.66 -124.35,-66.13 -301.63,-94.37 -531.82,-83.79l0 1681.87 -643.82 0 0 -3705.05 643.82 0 0 1374.07c159.64,14.11 284.23,-19.17 373.07,-98.78 89.28,-80 248.41,-244 427.74,-526.52 336.23,-529.69 694.97,-807.86 1128.89,-800.81l111.12 614.72c-229.3,-11.47 -470.09,132.54 -687.03,457.73 -200.52,300.58 -353.66,512.41 -496.54,612.07 189.62,66.15 431.09,313.53 694.98,760.24l775.23 1312.33zm2054.92 38.81c-413.63,0 -757.59,-185.21 -1033.64,-555.63 -275.16,-370.42 -413.63,-817.56 -413.63,-1340.56 0,-523.87 138.47,-971.02 413.63,-1341.43 276.05,-370.42 620.01,-555.63 1033.64,-555.63 413.63,0 757.59,185.21 1033.64,555.63 275.17,370.41 413.63,817.56 413.63,1341.43 0,523 -138.46,970.14 -413.63,1340.56 -276.05,370.42 -620.01,555.63 -1033.64,555.63zm7.94 -627.95c240.77,0 430.39,-120.83 567.97,-363.36 138.47,-241.65 207.26,-546.81 207.26,-914.58 0,-367.77 -68.79,-672.04 -207.26,-914.57 -137.58,-241.66 -327.2,-362.48 -567.97,-362.48 -241.65,0 -430.39,120.82 -567.09,362.48 -137.58,242.53 -205.49,546.8 -205.49,914.57 0,367.77 67.91,672.93 205.49,914.58 136.7,242.53 325.44,363.36 567.09,363.36zm2791.36 -3110.62l2345.97 0 0 3702.41 -669.39 0 0 -3087.69 -984.25 0 0 1472.84c0,448.02 -72.53,777.75 -216.96,990.43 -144.84,213.29 -313.1,372.18 -506.24,478.01 -193.15,105.83 -394.23,178.16 -605.01,216.08l-136.7 -664.11c216.95,-25.57 402.17,-129.64 555.62,-312.2 153.46,-182.56 216.96,-415.26 216.96,-697.62l0 -2098.15zm4717.86 3738.57c-413.63,0 -757.88,-185 -1033.64,-555.63 -275.44,-370.2 -413.63,-817.56 -413.63,-1340.56 0,-523.87 138.19,-971.24 413.63,-1341.43 275.76,-370.63 620.01,-555.63 1033.64,-555.63 413.63,0 757.88,185.01 1033.64,555.63 275.45,370.2 413.63,817.56 413.63,1341.43 0,523 -138.18,970.36 -413.63,1340.56 -275.76,370.63 -620.01,555.63 -1033.64,555.63zm7.94 -627.95c240.77,0 429.87,-121.13 567.97,-363.36 137.94,-241.94 207.26,-546.81 207.26,-914.58 0,-367.77 -68.94,-671.96 -207.26,-914.57 -137.72,-241.57 -327.2,-362.48 -567.97,-362.48 -241.65,0 -430.25,120.91 -567.09,362.48 -137.43,242.61 -205.49,546.8 -205.49,914.57 0,367.77 68.44,672.64 205.49,914.58 137.22,242.23 325.44,363.36 567.09,363.36zm2508.05 -3110.62l2351.27 0 0 656.17 -1656.29 0 0 3043.59 -694.98 0 0 -3699.76zm3195.63 0l672.04 0 0 2472.09 1364.37 -2472.09 642.94 0 0 3699.76 -622.65 0 0 -2465.04 -1389.95 2465.04 -666.75 0 0 -3699.76zm4952.46 1755.07c419.8,-43.21 672.92,-159.63 761.12,-347.49l0 -1410.23 642.94 0 0 3699.76 -642.94 0 0 -1570.74c-312.21,159.63 -719.67,211.67 -1223.26,153.46 -504.47,-57.33 -757.59,-334.26 -761.12,-830.79l0 -1451.69 617.36 0 0 1292.05c-15.87,354.55 186.09,509.77 605.9,465.67zm2455.67 1944.69l0 -3702.41 2395.37 2.65 0 612.07 -1708.33 0 0 878.42 1367.01 0 0 614.71 -1367.01 0 0 979.84 1705.68 0 0 614.72 -2392.72 0zm5490.46 -1273.53l594.43 265.47c-67.03,176.39 -156.99,339.55 -269,491.24 -275.16,370.42 -627.94,555.63 -1059.21,555.63 -430.39,0 -778.76,-185.21 -1045.99,-555.63 -267.23,-370.42 -400.4,-817.56 -400.4,-1340.56 0,-523.87 133.17,-971.02 400.4,-1341.43 267.23,-370.42 615.6,-555.63 1045.99,-555.63 431.27,0 784.05,185.21 1059.21,555.63 127.89,171.97 225.78,359.83 295.46,563.56l-607.67 219.6c-34.39,-134.93 -82.9,-256.64 -144.63,-366.89 -137.59,-241.65 -327.21,-361.59 -568.86,-361.59 -240.77,0 -429.51,120.82 -567.09,362.48 -136.7,242.53 -205.49,546.8 -205.49,914.57 0,367.77 68.79,672.93 205.49,914.58 137.58,242.53 326.32,363.36 567.09,363.36 241.65,0 431.27,-121.71 568.86,-364.24 54.68,-96.13 98.77,-203.73 131.41,-320.15zm4514.13 1273.53l-787.58 0 -594.43 -1005.42c-151.7,-328.96 -289.28,-526.52 -413.63,-592.66 -124.36,-66.15 -301.63,-94.37 -531.82,-83.79l0 1681.87 -643.82 0 0 -3705.05 643.82 0 0 1374.07c159.64,14.11 283.99,-19.4 373.07,-98.78 89.07,-80.26 231.07,-255.76 427.74,-526.52 318.38,-540.63 694.97,-807.86 1128.89,-800.81l111.12 614.72c-229.3,-11.47 -457.73,141.11 -687.03,457.73 -187.86,308.68 -353.66,512.41 -496.54,612.07 189.62,66.15 421.57,319.26 694.98,760.24l775.23 1312.33zm852.29 -3699.76l672.04 0 0 2472.09 1364.37 -2472.09 642.94 0 0 3699.76 -622.65 0 0 -2465.04 -1389.95 2465.04 -666.75 0 0 -3699.76zm5633.32 -989.54c-25.58,51.15 -55.56,99.66 -89.96,144.64 -119.06,97.89 -235.48,147.28 -349.25,147.28 -113.77,0 -230.19,-49.39 -349.25,-147.28 -36.16,-44.98 -66.14,-93.49 -89.96,-144.64l-573.26 0c51.15,194.03 163.16,361.6 335.14,501.83 172.86,141.11 396.87,210.78 672.04,210.78 274.29,0 497.42,-69.67 669.4,-210.78 171.98,-140.23 283.98,-307.8 336.02,-501.83l-560.92 0zm-1814.16 989.54l672.04 0 0 2472.09 1364.37 -2472.09 642.94 0 0 3699.76 -622.65 0 0 -2465.04 -1389.95 2465.04 -666.75 0 0 -3699.76zm-31906.26 9611.44l-787.58 0 -594.43 -1005.42c-151.7,-328.96 -289.28,-526.52 -413.63,-592.66 -124.36,-66.15 -301.63,-94.37 -531.82,-83.79l0 1681.87 -643.82 0 0 -3705.05 643.82 0 0 1374.07c159.64,14.11 283.99,-19.4 373.07,-98.78 89.07,-80.26 231.07,-255.76 427.74,-526.52 318.38,-540.63 694.97,-807.86 1128.89,-800.81l111.12 614.72c-229.3,-11.47 -457.73,141.11 -687.03,457.73 -187.86,308.68 -353.66,512.41 -496.54,612.07 189.62,66.15 421.57,319.26 694.98,760.24l775.23 1312.33zm2054.92 38.81c-413.63,0 -757.88,-185 -1033.64,-555.63 -275.44,-370.2 -413.63,-817.56 -413.63,-1340.56 0,-523.87 138.19,-971.24 413.63,-1341.43 275.76,-370.63 620.01,-555.63 1033.64,-555.63 413.63,0 757.88,185.01 1033.64,555.63 275.45,370.2 413.63,817.56 413.63,1341.43 0,523 -138.18,970.36 -413.63,1340.56 -275.76,370.63 -620.01,555.63 -1033.64,555.63zm7.94 -627.95c240.77,0 429.87,-121.13 567.97,-363.36 137.94,-241.94 207.26,-546.81 207.26,-914.58 0,-367.77 -68.94,-671.96 -207.26,-914.57 -137.72,-241.57 -327.2,-362.48 -567.97,-362.48 -241.65,0 -430.25,120.91 -567.09,362.48 -137.43,242.61 -205.49,546.8 -205.49,914.57 0,367.77 68.44,672.64 205.49,914.58 137.22,242.23 325.44,363.36 567.09,363.36zm2421.28 589.14l0 -3702.41 668.52 0 0 1418.17 1367.01 0 0 -1418.17 669.4 0 0 3702.41 -669.4 0 0 -1669.52 -1367.01 0 0 1669.52 -668.52 0zm4668.48 -2.65l0 -3056.82 -1040.7 0 0 -642.94 2754.32 0 0 642.94 -1046.87 0 0 3056.82 -666.75 0zm2563.27 2.65l0 -3699.76 1108.61 0c507.28,0 886.35,75.85 1140.35,325.44 254,249.59 369.98,537.07 347.49,862.54 -22.48,325.41 -135.59,596.42 -339.55,811.39 -204.37,215.4 -554.76,322.79 -1053.04,322.79l-527.41 0 0 1377.6 -676.45 0zm676.45 -1965.86l408.34 0c574.18,0 859.45,-183.45 857.25,-570.61 -2.2,-386.3 -282.71,-548.57 -841.37,-548.57l-424.22 0 0 1119.18zm4229.61 2004.67c-413.63,0 -757.59,-185.21 -1033.64,-555.63 -275.16,-370.42 -413.63,-817.56 -413.63,-1340.56 0,-523.87 138.47,-971.02 413.63,-1341.43 276.05,-370.42 620.01,-555.63 1033.64,-555.63 413.63,0 757.59,185.21 1033.64,555.63 275.17,370.41 413.63,817.56 413.63,1341.43 0,523 -138.46,970.14 -413.63,1340.56 -276.05,370.42 -620.01,555.63 -1033.64,555.63zm7.94 -627.95c240.77,0 430.39,-120.83 567.97,-363.36 138.47,-241.65 207.26,-546.81 207.26,-914.58 0,-367.77 -68.79,-672.04 -207.26,-914.57 -137.58,-241.66 -327.2,-362.48 -567.97,-362.48 -241.65,0 -430.39,120.82 -567.09,362.48 -137.58,242.53 -205.49,546.8 -205.49,914.57 0,367.77 67.91,672.93 205.49,914.58 136.7,242.53 325.44,363.36 567.09,363.36zm2891.36 -3110.62l2345.97 0 0 3702.41 -669.39 0 0 -3087.69 -984.25 0 0 1472.84c0,448.03 -72.32,777.88 -216.96,990.43 -144.64,213.43 -313.09,372.18 -506.24,478.01 -193.15,105.84 -394.23,178.16 -605.01,216.08l-136.7 -664.11c216.95,-25.57 402.16,-129.64 555.62,-312.2 153.46,-182.57 225.78,-415.4 216.96,-697.62l0 -2098.15zm4105.79 0l0 1403.18 518.59 0c520.34,-14.12 900.46,80.25 1139.47,283.98 239.89,202.85 349.25,478.02 328.96,825.5 -21.16,346.61 -137.58,635.88 -350.13,866.95 -213.43,230.19 -600.6,336.91 -1161.52,320.15l-1142.12 0 0 -3699.76 666.75 0zm0 3110.62l389.82 0c282.22,12.35 508,-29.1 675.57,-122.59 168.45,-94.37 250.47,-242.53 247.83,-446.26 -2.65,-202.85 -72.32,-345.73 -209.02,-426.87 -136.7,-82.02 -371.3,-123.47 -703.79,-123.47l-400.41 0 0 1119.19z" fill="white">
   </path>
   <path d="M29337.41 40629.48l0 10214.05 30231.09 0 0 4601.72c-1419.4,-2.07 -2839.82,-2.07 -4259.21,-3.1 -97.86,-2453.33 -2127.95,-4532.35 -4605.85,-4532.35 -2477.9,0 -4509.02,2080.06 -4605.85,4534.42 -5763.25,2.06 -11527.32,3.09 -17291.6,-9.09 -128.41,-2424.83 -2145.29,-4471.24 -4602.75,-4471.24 -2445.07,0 -4454.93,2028.03 -4600.69,4436.56 -941.23,-5.16 -1881.23,-11.15 -2822.47,-17.34 -754.6,-4.13 -1363.23,-699.48 -1363.23,-1554.01l0 -7209.06c0,-367.08 114.17,-721.98 321.24,-1002.35l4238.77 -5989.52c259.93,-350.77 643.32,-552.69 1047.15,-552.69l6943.97 0c363.99,0 711.66,164.13 968.7,455.86 257.04,291.72 400.73,697.41 400.73,1098.14zm21347.86 10919.51c2260.71,0 4093.01,1826.32 4093.01,4078.77 0,2252.44 -1832.3,4078.76 -4093.01,4078.76 -2260.7,0 -4094.04,-1826.32 -4094.04,-4078.76 0,-2252.45 1833.34,-4078.77 4094.04,-4078.77zm0 2090.38c1106.4,0 2002.63,890.24 2002.63,1988.39 0,1098.14 -896.23,1988.38 -2002.63,1988.38 -1106.4,0 -2003.66,-890.24 -2003.66,-1988.38 0,-1098.15 897.26,-1988.39 2003.66,-1988.39zm-26462.41 -2036.29c2260.7,0 4093,1825.29 4093,4078.77 0,2252.44 -1832.3,4078.76 -4093,4078.76 -2261.53,0 -4094.05,-1826.32 -4094.05,-4078.76 0,-2253.48 1832.31,-4078.77 4094.05,-4078.77zm0 2090.38c1105.37,0 2002.63,890.24 2002.63,1988.39 0,1098.14 -897.26,1988.39 -2002.63,1988.39 -1106.41,0 -2003.67,-890.25 -2003.67,-1988.39 0,-1098.15 897.26,-1988.39 2003.67,-1988.39zm33977.24 -20438.21c363.98,0 711.66,163.1 968.7,454.83 256,291.72 399.7,686.26 399.7,1099.17l0 14739.38 -28284.61 0 0 -14739.38c0,-412.91 143.69,-808.69 400.73,-1099.17 256.01,-291.73 605.75,-454.83 967.67,-454.83l25547.81 0zm-37665.39 7396.74l-1677.26 2288.16c-340.65,461.84 -408.78,1110.33 -187.67,1652.89 221.32,539.48 708.77,894.17 1238.95,894.17l5898.68 0c754.6,0 1368.4,-697.41 1368.4,-1552.97l0 -2288.16c0,-411.88 -144.73,-808.69 -401.77,-1099.18 -256,-291.72 -604.71,-454.82 -966.63,-454.82l-4220.39 0c-406.93,0 -792.38,203.98 -1052.31,559.7l0 0.21z">
   </path>
  </g>
 </g>
</svg>
