<svg role="img" style="shape-rendering: geometricPrecision;
text-rendering: optimizeLegibility; fill-rule:evenodd; clip-rule:evenodd;" version="1.1" viewbox="0 0 75000 40000" width="140px" xml:space="preserve" xmlns="http://www.w3.org/2000/svg">
 <title>
  7.4.10
 </title>
 <g fill="#FFF" stroke="gray" stroke-width="800">
  <rect height="35000" rx="4500" ry="4500" width="70000" x="2500" y="2500">
  </rect>
 </g>
 <g class="blue_layer" fill="#0177D9" style="fill-rule: evenodd; clip-rule: nonzero;">
 </g>
 <g fill="red">
 </g>
 <g class="black_layer" fill="#000" stroke="#000" stroke-width="0.8mm" style="shape-rendering: geometricPrecision">
  <g>
   <path d="M28161.93 26166.33l2411.84 0 0 579.25 -1761.61 0 0 791.18 718.92 0c475.57,0 803.4,121.56 984.72,329.94 181.67,208.78 275.18,440.49 280.96,696.44 5.78,255.96 -44.81,462.8 -153.41,621.64 -225.01,329.1 -624.92,477.86 -1036.45,477.86l-1444.97 0 0 -3496.31zm650.23 2933.68l480.76 0c529.07,0 798.32,-136.32 811.69,-501.97 13.34,-364.82 -255.66,-518.59 -809.01,-518.59l-483.44 0 0 1020.56zm4038.72 -725.53l916.93 0 -487.9 -1298.13 -429.03 1298.13zm820.59 -2208.15l1256.77 3486.34 -765.3 0 -248.86 -720.54 -1235.35 0 -240.82 720.54 -765.3 0 1243.38 -3486.34 755.48 0zm4402.7 2286.27l601.18 250.16c-67.79,166.21 -158.5,320.23 -272.05,462.91 -277.92,349.22 -635.07,523.57 -1071.24,523.57 -435.27,0 -787.64,-174.57 -1057.86,-523.57 -270.21,-349.01 -404.94,-770.41 -404.94,-1263.23 0,-493.66 134.73,-915.07 404.94,-1264.07 270.22,-349.01 622.59,-523.57 1057.86,-523.57 436.17,0 792.94,174.61 1071.24,523.57 129.23,162.06 228.34,339.08 298.8,531.06l-614.55 206.94c-96.4,-352.38 -309.09,-686.47 -721.59,-686.47 -243.51,0 -434.97,113.62 -573.53,341.57 -279.46,459.71 -279.3,1264.19 0,1723.64 138.95,228.58 330.02,342.41 573.53,342.41 392.27,0 606.61,-307.22 708.21,-644.92zm4144.03 1190.1l-212.28 0 -602.96 -927.48c-186.94,-287.56 -321.1,-487.93 -445.98,-578.42 -123.89,-89.78 -279.18,-118.85 -463.82,-86.44l0 1592.34 -652.91 0 0 -3481.36 652.91 0 0 1294.81c125.77,16.62 238.17,-17.52 338.94,-102.22 99.85,-83.93 292.61,-314.19 577.1,-688.96 284.49,-374.78 586.01,-560.14 902.66,-555.16l177.49 523.58c-276.5,71.47 -486.2,239.38 -647.55,494.48 -185.61,293.45 -368.38,498.65 -530.71,625.8 242.61,46.54 453.57,301.95 718.91,723.03l438.84 696.44 373.73 0 -36.57 1083.72 -467.39 -4.99 -120.41 -609.17zm2711.59 -1268.22l916.93 0 -487.9 -1298.13 -429.03 1298.13zm820.6 -2208.15l1256.76 3486.34 -765.29 0 -248.86 -720.54 -1235.35 0 -240.83 720.54 -765.3 0 1243.38 -3486.34 755.49 0zm-14767.2 8406.81l-796.52 0 -601.18 -947.42c-153.42,-309.99 -292.56,-496.15 -418.33,-558.48 -125.76,-62.33 -305.04,-88.92 -537.84,-78.95l0 1584.85 -651.13 0 0 -3491.33 651.13 0 0 1294.81c161.44,13.3 287.21,-18.28 377.3,-93.08 90.09,-75.63 233.69,-241.01 432.59,-496.15 322,-509.45 702.86,-761.26 1141.71,-754.61l112.39 579.25c-231.92,-10.8 -462.93,132.97 -694.84,431.33 -189.98,290.87 -357.68,482.85 -502.17,576.76 191.77,62.34 426.35,300.85 702.86,716.39l784.03 1236.63zm1084.65 0l0 -3486.34 1121.18 0c513.05,0 896.43,71.47 1153.31,306.66 256.87,235.19 374.15,506.11 351.42,812.79 -22.72,306.62 -137.15,562.03 -343.4,764.58 -206.68,202.97 -561.08,304.18 -1065,304.18l-533.38 0 0 1298.13 -684.13 0zm684.13 -1852.46l412.97 0c580.69,0 869.2,-172.88 866.99,-537.7 -2.21,-363.99 -285.96,-516.93 -850.93,-516.93l-429.03 0 0 1054.63zm4301.86 1889.03c-418.33,0 -766.19,-174.52 -1045.37,-523.57 -278.29,-349.05 -418.33,-770.41 -418.33,-1263.23 0,-493.66 140.04,-915.02 418.33,-1264.07 279.18,-349.05 627.04,-523.57 1045.37,-523.57 418.33,0 766.19,174.52 1045.38,523.57 278.28,349.05 418.32,770.41 418.32,1264.07 0,492.82 -140.04,914.18 -418.32,1263.23 -279.19,349.05 -627.05,523.57 -1045.38,523.57zm8.03 -591.72c243.5,0 435.28,-113.86 574.42,-342.4 140.03,-227.71 209.61,-515.27 209.61,-861.83 0,-346.55 -69.58,-633.27 -209.61,-861.82 -139.14,-227.71 -330.92,-341.57 -574.42,-341.57 -244.4,0 -435.28,113.86 -573.53,341.57 -139.14,228.55 -207.82,515.27 -207.82,861.82 0,346.56 68.68,634.12 207.82,861.83 138.25,228.54 329.13,342.4 573.53,342.4zm2445.71 552.66l402.27 -3486.35 718.91 0 817.92 1618.93 755.49 -1618.93 726.05 0 426.36 3486.35 -726.95 0 -242.61 -2461.63 -938.34 1950.52 -969.55 -1958.01 -269.37 2469.12 -700.18 0zm5067.23 2.49l0 -3488.84 2422.55 2.5 0 576.76 -1727.72 0 0 827.75 1382.53 0 0 579.25 -1382.53 0 0 923.33 1725.04 0 0 579.25 -2419.87 0z">
   </path>
   <path d="M48912.02 17509.29c1379.03,0 2583.91,794.68 3179.09,1941.52 253.14,485.33 396.42,1033.3 396.42,1612.14 0,599.77 -148.79,1165.75 -410.01,1662.1 -598.86,1146.83 -1795.47,1930.68 -3165.5,1930.68 -1362.68,0 -2545.88,-776.68 -3141.8,-1914.33 -263.97,-500.76 -413.69,-1072.43 -413.69,-1678.45 0,-584.35 144.2,-1137.65 400.1,-1625.74 591.51,-1139.48 1781.87,-1927.92 3155.39,-1927.92zm-29564.29 -2289.07l98.83 2984.01c19.1,883.59 588.75,1492.36 1687.46,1825.41 1394.45,-4691.48 7833.28,-4632.51 8500.1,549.81l14958.96 0c922.72,-4986.32 6968.79,-5221.27 8382.17,-608.78 647.72,-196 1433.4,-627.88 1609.57,-1314.55l1001.71 -3631.72c176.9,-667.74 -117.93,-1472.53 -608.78,-1983.21l-5968 -5834.64c-411.85,-412.77 -1020.63,-645.15 -1609.57,-645.15l-10443.64 -3.67c-961.66,0 -1943.35,582.5 -2532.1,1328.32l-3317.97 3938.5c-608.78,765.66 -1609.57,1256.5 -2571.23,1393.54l-7676.41 903.61c-627.88,58.05 -1530.57,470.82 -1511.47,1098.71l0.37 -0.19zm15499.76 -1668.53l13554.58 0c1275.61,0 1844.52,-1354.6 1393.54,-2414.17l-1236.66 -2583.91c-196.92,-490.84 -883.59,-726.71 -1413.56,-726.71l-9843.86 0c-765.66,0 -1275.61,20.02 -1963.38,883.59l-2120.25 2544.96c-587.83,745.82 -293.92,2296.24 1629.41,2296.24l0.18 0zm-9452.77 3965.69c1964.29,0 3574.6,1605.89 3574.6,3545.57 0,1978.8 -1610.49,3584.69 -3574.6,3584.69 -1964.29,0 -3555.67,-1605.89 -3555.67,-3584.69 0,-1939.68 1591.38,-3545.57 3555.67,-3545.57zm0 1311.97c1237.58,0 2239.11,1018.8 2239.11,2233.78 0,1253.93 -1001.71,2271.8 -2239.11,2271.8 -1237.57,0 -2239.1,-1017.87 -2239.1,-2271.8 0,-1214.8 1001.71,-2233.78 2239.1,-2233.78zm23517.3 0c870,0 1622.24,502.6 1993.32,1223.07 155.96,304.75 245.05,649.56 245.05,1010.71 0,382.83 -93.5,743.98 -257.73,1060.68 -375.66,720.28 -1120.56,1211.12 -1980.64,1211.12 -854.57,0 -1596.71,-485.33 -1974.21,-1199.37 -167.9,-319.27 -263.06,-685.01 -263.06,-1072.43 0,-365.56 89.83,-713.12 249.47,-1020.63 373.82,-714.96 1123.13,-1212.96 1987.8,-1212.96l0 -0.19z">
   </path>
  </g>
  <use x="0" xlink:href="#border 350x700" y="0">
  </use>
 </g>
</svg>
