<svg role="img" style="shape-rendering: geometricPrecision;
text-rendering: optimizeLegibility; fill-rule:evenodd; clip-rule:evenodd;" version="1.1" viewbox="0 0 75000 40000" width="140px" xml:space="preserve" xmlns="http://www.w3.org/2000/svg">
 <title>
  7.1.1
 </title>
 <g fill="#FFF" stroke="gray" stroke-width="800">
  <rect height="35000" rx="4500" ry="4500" width="70000" x="2500" y="2500">
  </rect>
 </g>
 <g class="blue_layer" fill="#0177D9" style="fill-rule: evenodd; clip-rule: nonzero;">
 </g>
 <g fill="red">
 </g>
 <g class="black_layer" fill="#000" stroke="#000" stroke-width="0.8mm" style="shape-rendering: geometricPrecision">
  <g transform="scale(1)">
   <g transform="scale(1.31) translate(9750, 9250)">
    <use x="1" xlink:href="#digit 3 fill #000" y="0">
    </use>
    <use x="9101" xlink:href="#digit 0 fill #000" y="0">
    </use>
    <use x="18701" xlink:href="#digit 0 fill #000" y="0">
    </use>
    <use x="28201" xlink:href="#char м fill #000" y="0">
    </use>
   </g>
  </g>
  <symbol id="border 350x700">
   <path d="M7000 3500l61000 0c1925,0 3500,1575 3500,3500l0 26000c0,1925 -1575,3500 -3500,3500l-61000 0c-1925,0 -3500,-1575 -3500,-3500l0 -26000c0,-1925 1575,-3500 3500,-3500zm0 1000l61000 0c1375,0 2500,1125 2500,2500l0 26000c0,1375 -1125,2500 -2500,2500l-61000 0c-1375,0 -2500,-1125 -2500,-2500l0 -26000c0,-1375 1125,-2500 2500,-2500z">
   </path>
  </symbol>
  <use x="0" xlink:href="#border 350x700" y="0">
  </use>
 </g>
</svg>
