<svg role="img" style="shape-rendering: geometricPrecision;
text-rendering: optimizeLegibility; fill-rule:evenodd; clip-rule:evenodd;" version="1.1" viewbox="0 0 118000 105000" width="140px" xml:space="preserve" xmlns="http://www.w3.org/2000/svg">
 <title>
  1.16 временный
 </title>
 <g fill="#FFD323" stroke="gray" stroke-width="800">
  <path d="M58999 2791c1665,0 3119,904 3897,2248l1 0 52156 90336c33,55 65,110 96,167l5 9 0 0c351,641 551,1376 551,2158 0,2486 -2015,4500 -4500,4500l-104410 -4c-2485,0 -4500,-2015 -4500,-4500 0,-797 208,-1545 571,-2194l-1 0 12 -20c11,-20 23,-40 34,-59l52187 -90391 3 0c778,-1345 2232,-2250 3898,-2250z">
  </path>
 </g>
 <g class="blue_layer" fill="#0177D9" style="fill-rule: evenodd; clip-rule: nonzero;">
 </g>
 <g fill="red">
  <path d="M55624 6130l-51847 89802c-10,17 -20,35 -30,52l-9 16c-292,522 -443,1106 -443,1705 0,1933 1567,3500 3500,3500l104410 4c1933,1 3500,-1566 3500,-3500 0,-586 -145,-1159 -426,-1674l-1 -2 -5 -9c-24,-44 -49,-87 -75,-129l-5 -10 -51817 -89748 0 0 -345 -597c-627,-1082 -1777,-1749 -3032,-1749 -1255,0 -2406,667 -3032,1751l-341 589 -2 -1zm3374 12157c368,0 690,199 863,495l0 0 4 6 1 3 41787 72376c100,155 158,340 158,539 0,552 -448,1000 -1000,1000l-83623 0c-553,0 -1000,-448 -1000,-1000 0,-183 48,-354 134,-501l-1 0 41809 -72414 2 -3 3 -6 0 0c174,-296 495,-495 863,-495z">
  </path>
 </g>
 <g class="black_layer" fill="#000" stroke="#000" stroke-width="0.8mm" style="shape-rendering: geometricPrecision">
  <g transform="scale(1.73) translate(1600, 2200)">
   <path d="M33059 49560l-1118 0 -21450 0 3385 -5863c5645,878 6603,-6001 10763,-5947 3466,46 3597,4381 7302,4648 449,32 736,28 1118,0 3704,-277 3836,-4602 7301,-4648 4161,-54 5119,6825 10764,5947l3385 5863 -21450 0z">
   </path>
  </g>
 </g>
</svg>
