<svg role="img" style="shape-rendering: geometricPrecision;
text-rendering: optimizeLegibility; fill-rule:evenodd; clip-rule:evenodd;" version="1.1" viewbox="0 0 75000 75000" width="140px" xml:space="preserve" xmlns="http://www.w3.org/2000/svg">
 <title>
  3.17.2
 </title>
 <g fill="#FFF" stroke="gray" stroke-width="800">
  <circle cx="37500" cy="37500" r="35000">
  </circle>
 </g>
 <g class="blue_layer" fill="#0177D9" style="fill-rule: evenodd; clip-rule: nonzero;">
 </g>
 <g fill="red">
  <path d="M37500 3500c18778,0 34000,15222 34000,34000 0,18778 -15222,34000 -34000,34000 -18778,0 -34000,-15222 -34000,-34000 0,-18778 15222,-34000 34000,-34000zm0 6000c15464,0 28000,12536 28000,28000 0,15464 -12536,28000 -28000,28000 -15464,0 -28000,-12536 -28000,-28000 0,-15464 12536,-28000 28000,-28000z">
  </path>
 </g>
 <g class="black_layer" fill="#000" stroke="#000" stroke-width="0.8mm" style="shape-rendering: geometricPrecision">
  <symbol id="danger">
   <path d="M18316 30675l-338 0 -960 -1697c-276,-540 -511,-893 -710,-1058 -197,-165 -445,-218 -739,-159l0 2914 -1039 0 0 -6371 1039 0 0 2370c201,30 379,-32 540,-187 159,-154 466,-575 919,-1261 453,-686 933,-1025 1437,-1016l283 958c-440,131 -784,432 -1031,905 -305,532 -587,913 -845,1145 386,85 767,528 1144,1324l699 1274 595 0 -58 1983 -744 -9 -192 -1115zm3590 -2321l1461 0 -779 -2375 -682 2375zm1307 -4041l2001 6380 -1219 0 -396 -1318 -1967 0 -383 1318 -1219 0 1980 -6380 1203 0zm2423 0l1206 0 1470 3208 1131 -3208 1153 0 -1814 4963c-286,675 -618,1110 -995,1307 -377,196 -790,216 -1240,62l-220 -1053c255,43 511,48 769,14 259,-32 475,-257 649,-672l-2109 -4621zm7049 0l0 6399 -994 0 0 -6399 994 0zm1578 -4l4281 0 0 6380 -1040 0 0 -5316 -2206 0 0 5316 -1035 0 0 -6380zm7135 6380l0 -5272 -1676 0 0 -1108 4436 0 0 1108 -1686 0 0 5272 -1074 0zm5043 -6376l0 6399 -994 0 0 -6399 994 0zm2277 0l3778 0 0 6385 -1078 0 0 -5325 -1586 0 0 2540c0,772 -116,1342 -349,1708 -233,368 -504,642 -815,825 -311,183 -637,307 -975,372l-220 -1145c350,-44 648,-223 895,-538 247,-315 364,-717 349,-1203l1 -3619zm6328 0l0 6399 -994 0 0 -6399 994 0zm6283 6380l-1268 0 -957 -1733c-245,-568 -467,-908 -667,-1022 -199,-114 -485,-163 -856,-145l0 2900 -1037 0 0 -6389 1037 0 0 2370c257,24 457,-34 601,-170 142,-139 372,-441 688,-908 513,-933 1120,-1393 1818,-1381l180 1060c-370,-20 -739,243 -1107,789 -302,532 -570,884 -800,1055 306,115 679,551 1119,1312l1249 2262z">
   </path>
   <path d="M22119 49852l0 -4269 1144 -4c457,33 784,241 983,626 198,385 298,887 298,1509 1,620 -101,1130 -302,1527 -202,398 -491,602 -867,611l-1256 0zm1196 1078c760,-9 1335,-311 1726,-906 392,-596 587,-1358 587,-2286 0,-929 -187,-1688 -561,-2276 -373,-590 -1003,-896 -1890,-916l-2098 8 0 6376 2236 0zm5118 -2303l1405 0 -729 -2509 -676 2509zm1213 -4090l1982 6380 -1164 0 -392 -1226 -1873 0 -379 1226 -1165 0 1882 -6380 1109 0zm7640 0l0 6380 -1213 0 -2168 -4469 0 4469 -1121 0 0 -6380 1290 0 2168 4371 0 -4371 1044 0zm4860 5849c-326,432 -750,647 -1274,647 -723,-1 -1288,-326 -1698,-978 -410,-653 -615,-1439 -615,-2362 0,-922 205,-1710 615,-2361 410,-652 975,-978 1698,-978 860,-89 1618,429 2273,1555l-931 512c-325,-692 -764,-1038 -1318,-1038 -475,59 -806,295 -991,707 -185,410 -279,940 -279,1588 0,647 94,1184 279,1613 185,427 502,642 951,642 417,0 744,-128 983,-382 240,-254 357,-543 351,-867l-1023 0 0 -988 2059 0 0 3216 -919 0 -161 -526zm2220 531l0 -6380 3654 0 0 1020 -2623 0 0 1510 2092 0 0 1016 -2092 0 0 1778 2621 0 0 1056 -3652 0zm6234 -3609l583 0c412,0 714,-79 909,-239 196,-158 292,-377 292,-657 -18,-262 -117,-462 -293,-601 -177,-140 -485,-209 -923,-209l-568 -1 0 1707zm3546 3618l-1197 0 -761 -1626c-213,-401 -397,-657 -552,-766 -157,-111 -340,-166 -549,-166l-487 0 0 2553 -1081 0 0 -6380 1781 0c385,0 678,20 879,63 285,53 509,152 673,298 164,146 304,350 420,614 118,265 177,557 177,873 -28,691 -375,1220 -1040,1591 256,55 504,332 749,834l988 2112z">
   </path>
  </symbol>
  <g transform="scale(1)">
   <rect height="6000" rx="2963" ry="3000" width="45156" x="14922" y="34500">
   </rect>
   <use x="1" xlink:href="#danger" y="500">
   </use>
  </g>
 </g>
</svg>
