<svg role="img" style="shape-rendering: geometricPrecision;
text-rendering: optimizeLegibility; fill-rule:evenodd; clip-rule:evenodd;" version="1.1" viewbox="0 0 75000 40000" width="140px" xml:space="preserve" xmlns="http://www.w3.org/2000/svg">
 <title>
  7.20
 </title>
 <g fill="#FFF" stroke="gray" stroke-width="800">
  <rect height="35000" rx="4500" ry="4500" width="70000" x="2500" y="2500">
  </rect>
 </g>
 <g class="blue_layer" fill="#0177D9" style="fill-rule: evenodd; clip-rule: nonzero;">
 </g>
 <g fill="red">
 </g>
 <g class="black_layer" fill="#000" stroke="#000" stroke-width="0.8mm" style="shape-rendering: geometricPrecision">
  <symbol id="7.21.1_text">
   <g>
    <path d="M39 8646l891 -8287 1592 0 1812 3849 1673 -3849 1608 0 944 8287 -1610 0 -537 -5851 -2078 4636 -2148 -4654 -596 5869 -1551 0zm10649 6l0 -8293 5365 6 0 1371 -3826 0 0 1968 3062 0 0 1377 -3062 0 0 2194 3820 0 0 1377 -5359 0zm9792 -6l0 -6846 -2331 0 0 -1441 6169 0 0 1441 -2345 0 0 6846 -1493 0zm5782 6l0 -8287 2483 0c1134,-73 1985,170 2554,729 569,559 830,1203 778,1932 -49,729 -304,1336 -760,1818 -459,482 -1243,723 -2359,723l-1181 0 0 3085 -1515 0zm1515 -4403l914 0c1286,14 1924,-411 1920,-1278 -6,-865 -634,-1276 -1884,-1229l-950 0 0 2507zm9290 4490c-927,0 -1697,-415 -2315,-1244 -617,-830 -927,-1832 -927,-3003 0,-1173 310,-2175 927,-3005 618,-829 1388,-1244 2315,-1244 926,0 1697,415 2315,1244 616,830 926,1832 926,3005 0,1171 -310,2173 -926,3003 -618,829 -1389,1244 -2315,1244zm18 -1406c539,0 964,-271 1272,-814 310,-542 464,-1225 464,-2049 0,-823 -154,-1505 -464,-2048 -308,-541 -733,-812 -1272,-812 -542,0 -964,271 -1271,812 -308,543 -460,1225 -460,2048 0,824 152,1507 460,2049 307,543 729,814 1271,814z">
    </path>
    <path d="M39 21164l891 -8287 1592 0 1812 3849 1673 -3849 1608 0 944 8287 -1610 0 -537 -5851 -2078 4636 -2148 -4654 -596 5869 -1551 0zm10649 6l0 -8293 5365 6 0 1371 -3826 0 0 1968 3062 0 0 1377 -3062 0 0 2194 3820 0 0 1377 -5359 0zm9792 -6l0 -6846 -2331 0 0 -1441 6169 0 0 1441 -2345 0 0 6846 -1493 0zm7449 -4687l837 0c591,0 1026,-103 1306,-311 281,-205 419,-489 419,-853 -26,-340 -166,-600 -421,-780 -255,-182 -697,-273 -1325,-273l-816 0 0 2217zm5092 4699l-1718 0 -1095 -2112c-304,-521 -568,-853 -794,-995 -223,-144 -486,-216 -786,-216l-699 0 0 3317 -1553 0 0 -8287 2558 0c553,0 974,26 1263,81 408,70 730,198 966,388 235,189 438,454 604,798 168,343 253,723 253,1135 -40,895 -537,1583 -1494,2065 368,71 725,430 1077,1082l1418 2744zm4198 81c-926,0 -1697,-414 -2315,-1244 -617,-830 -926,-1832 -926,-3003 0,-1173 309,-2175 926,-3005 618,-830 1389,-1244 2315,-1244 927,0 1698,414 2315,1244 617,830 927,1832 927,3005 0,1171 -310,2173 -927,3003 -617,830 -1388,1244 -2315,1244zm18 -1406c539,0 963,-272 1272,-814 309,-542 464,-1225 464,-2049 0,-823 -154,-1505 -464,-2048 -308,-541 -733,-812 -1272,-812 -541,0 -964,271 -1270,812 -308,543 -460,1225 -460,2048 0,824 153,1507 460,2049 307,542 729,814 1270,814z">
    </path>
   </g>
  </symbol>
  <g transform="scale(1)">
   <g transform="scale(0.38) translate(20000, 20000)">
    <use x="1" xlink:href="#plus" y="13500">
    </use>
   </g>
   <use x="26000" xlink:href="#7.21.1_text" y="9000">
   </use>
  </g>
  <use x="0" xlink:href="#border 350x700" y="0">
  </use>
 </g>
</svg>
