<svg role="img" style="shape-rendering: geometricPrecision;
text-rendering: optimizeLegibility; fill-rule:evenodd; clip-rule:evenodd;" version="1.1" viewbox="0 0 75000 40000" width="140px" xml:space="preserve" xmlns="http://www.w3.org/2000/svg">
 <title>
  7.4.13
 </title>
 <g fill="#FFF" stroke="gray" stroke-width="800">
  <rect height="35000" rx="4500" ry="4500" width="70000" x="2500" y="2500">
  </rect>
 </g>
 <g class="blue_layer" fill="#0177D9" style="fill-rule: evenodd; clip-rule: nonzero;">
 </g>
 <g fill="red">
 </g>
 <g class="black_layer" fill="#000" stroke="#000" stroke-width="0.8mm" style="shape-rendering: geometricPrecision">
  <g>
   <path d="M47581.88 14522.95c2603.57,0 4726.48,2125.94 4726.48,4729.67 0,2603.56 -2122.91,4730.46 -4726.48,4730.46 -2339.18,0 -4289.93,-1716.26 -4664.13,-3950.42l4470.72 0c491.05,0 845.58,-213.23 850.22,-733.37 4,-407.29 -350.54,-721.54 -565.21,-1069.69l-2023.33 -3292.81c589.67,-265.99 1244.24,-413.68 1931.73,-413.68l0 -0.16zm-17423.32 -259.75c-3768.36,-2089.82 -8455.19,648.81 -8455.19,4991.01 0,3139.69 2561.85,5701.53 5703.13,5701.53 5247.89,0 7711.91,-6559.42 3724.72,-10011.12l518.7 -961.63 7169.87 6049.67 3113.63 0c383.63,2774.12 2772.52,4923.08 5648.62,4923.08 3138.09,0 5699.94,-2561.84 5699.94,-5703.12 0,-4198.83 -4403.27,-6938.74 -8144.13,-5150.55l-1760.54 -2869.7 791.07 -1345.26 484.65 0c1029.41,0 1034.2,-1404.41 0,-1404.41l-3645.75 0c-897.69,0 -892.9,1466.11 0,1466.11l1762.13 0 -424.7 794.27 -9541.34 0c526.37,-1969.46 -1546.03,-1885.86 -1336.47,-2750.62 77.36,-320.49 458.59,-608.69 791.07,-608.69l2308.33 0c922.95,0 929.98,-1040.44 0,-1040.44 -1433.01,0 -4071.26,-304.5 -4071.26,1833.11 0,884.27 665.43,1331.03 1155.04,1405.2 422.31,62.34 372.6,898.33 182.38,1283.72l-1673.9 3397.84zm-430.3 874.67c-3136.33,-1776.84 -7051.43,503.36 -7051.43,4116.18 0,2603.57 2124.51,4728.87 4729.67,4728.87 4247.42,0 6344.27,-5220.87 3250.94,-8155.95 -694.37,1290.59 -1597.34,3296.33 -2726.01,4010.52 -348.94,220.27 -997.11,33.89 -1136.82,-354.54 -154.73,-431.9 201.25,-874.67 627.56,-963.07 993.44,-204.28 1785.31,-2326.07 2305.93,-3382.01l0.16 0zm14805.53 502.88c-876.27,740.56 -1482.57,1796.02 -1640.49,2986.55l3462.57 0 -1822.08 -2986.55zm-512.31 -839.19c-1150.24,924.38 -1939.72,2283.87 -2107.08,3825.74l-1939.72 0 2915.42 -5683.31 1131.38 1857.57zm-5201.69 3642.56l-6623.52 -5561.67 425.51 -1038.99 9418.26 0 -3220.25 6600.66zm-10657.86 7722.21l2411.84 0 0 579.25 -1761.61 0 0 791.18 718.92 0c475.57,0 803.4,121.56 984.72,329.94 181.67,208.78 275.18,440.49 280.96,696.44 5.78,255.96 -44.81,462.8 -153.41,621.64 -225.01,329.1 -624.92,477.86 -1036.45,477.86l-1444.97 0 0 -3496.31zm650.23 2933.68l480.76 0c529.07,0 798.32,-136.32 811.69,-501.97 13.34,-364.82 -255.66,-518.59 -809.01,-518.59l-483.44 0 0 1020.56zm4038.72 -725.53l916.93 0 -487.9 -1298.13 -429.03 1298.13zm820.59 -2208.15l1256.77 3486.34 -765.3 0 -248.86 -720.54 -1235.35 0 -240.82 720.54 -765.3 0 1243.38 -3486.34 755.48 0zm4402.7 2286.27l601.18 250.16c-67.79,166.21 -158.5,320.23 -272.05,462.91 -277.92,349.22 -635.07,523.57 -1071.24,523.57 -435.27,0 -787.64,-174.57 -1057.86,-523.57 -270.21,-349.01 -404.94,-770.41 -404.94,-1263.23 0,-493.66 134.73,-915.07 404.94,-1264.07 270.22,-349.01 622.59,-523.57 1057.86,-523.57 436.17,0 792.94,174.61 1071.24,523.57 129.23,162.06 228.34,339.08 298.8,531.06l-614.55 206.94c-96.4,-352.38 -309.09,-686.47 -721.59,-686.47 -243.51,0 -434.97,113.62 -573.53,341.57 -279.46,459.71 -279.3,1264.19 0,1723.64 138.95,228.58 330.02,342.41 573.53,342.41 392.27,0 606.61,-307.22 708.21,-644.92zm4144.03 1190.1l-212.28 0 -602.96 -927.48c-186.94,-287.56 -321.1,-487.93 -445.98,-578.42 -123.89,-89.78 -279.18,-118.85 -463.82,-86.44l0 1592.34 -652.91 0 0 -3481.36 652.91 0 0 1294.81c125.77,16.62 238.17,-17.52 338.94,-102.22 99.85,-83.93 292.61,-314.19 577.1,-688.96 284.49,-374.78 586.01,-560.14 902.66,-555.16l177.49 523.58c-276.5,71.47 -486.2,239.38 -647.55,494.48 -185.61,293.45 -368.38,498.65 -530.71,625.8 242.61,46.54 453.57,301.95 718.91,723.03l438.84 696.44 373.73 0 -36.57 1083.72 -467.39 -4.99 -120.41 -609.17zm2711.59 -1268.22l916.93 0 -487.9 -1298.13 -429.03 1298.13zm820.6 -2208.15l1256.76 3486.34 -765.29 0 -248.86 -720.54 -1235.35 0 -240.83 720.54 -765.3 0 1243.38 -3486.34 755.49 0zm-14767.2 8406.81l-796.52 0 -601.18 -947.42c-153.42,-309.99 -292.56,-496.15 -418.33,-558.48 -125.76,-62.33 -305.04,-88.92 -537.84,-78.95l0 1584.85 -651.13 0 0 -3491.33 651.13 0 0 1294.81c161.44,13.3 287.21,-18.28 377.3,-93.08 90.09,-75.63 233.69,-241.01 432.59,-496.15 322,-509.45 702.86,-761.26 1141.71,-754.61l112.39 579.25c-231.92,-10.8 -462.93,132.97 -694.84,431.33 -189.98,290.87 -357.68,482.85 -502.17,576.76 191.77,62.34 426.35,300.85 702.86,716.39l784.03 1236.63zm1084.65 0l0 -3486.34 1121.18 0c513.05,0 896.43,71.47 1153.31,306.66 256.87,235.19 374.15,506.11 351.42,812.79 -22.72,306.62 -137.15,562.03 -343.4,764.58 -206.68,202.97 -561.08,304.18 -1065,304.18l-533.38 0 0 1298.13 -684.13 0zm684.13 -1852.46l412.97 0c580.69,0 869.2,-172.88 866.99,-537.7 -2.21,-363.99 -285.96,-516.93 -850.93,-516.93l-429.03 0 0 1054.63zm4301.86 1889.03c-418.33,0 -766.19,-174.52 -1045.37,-523.57 -278.29,-349.05 -418.33,-770.41 -418.33,-1263.23 0,-493.66 140.04,-915.02 418.33,-1264.07 279.18,-349.05 627.04,-523.57 1045.37,-523.57 418.33,0 766.19,174.52 1045.38,523.57 278.28,349.05 418.32,770.41 418.32,1264.07 0,492.82 -140.04,914.18 -418.32,1263.23 -279.19,349.05 -627.05,523.57 -1045.38,523.57zm8.03 -591.72c243.5,0 435.28,-113.86 574.42,-342.4 140.03,-227.71 209.61,-515.27 209.61,-861.83 0,-346.55 -69.58,-633.27 -209.61,-861.82 -139.14,-227.71 -330.92,-341.57 -574.42,-341.57 -244.4,0 -435.28,113.86 -573.53,341.57 -139.14,228.55 -207.82,515.27 -207.82,861.82 0,346.56 68.68,634.12 207.82,861.83 138.25,228.54 329.13,342.4 573.53,342.4zm2445.71 552.66l402.27 -3486.35 718.91 0 817.92 1618.93 755.49 -1618.93 726.05 0 426.36 3486.35 -726.95 0 -242.61 -2461.63 -938.34 1950.52 -969.55 -1958.01 -269.37 2469.12 -700.18 0zm5067.23 2.49l0 -3488.84 2422.55 2.5 0 576.76 -1727.72 0 0 827.75 1382.53 0 0 579.25 -1382.53 0 0 923.33 1725.04 0 0 579.25 -2419.87 0z">
   </path>
  </g>
  <use x="0" xlink:href="#border 350x700" y="0">
  </use>
 </g>
</svg>
