<svg role="img" style="shape-rendering: geometricPrecision;
text-rendering: optimizeLegibility; fill-rule:evenodd; clip-rule:evenodd;" version="1.1" viewbox="0 0 95000 85000" width="140px" xml:space="preserve" xmlns="http://www.w3.org/2000/svg">
 <title>
  1.24
 </title>
 <g fill="#FFF" stroke="gray" stroke-width="800">
  <path d="M91867 75270c1761,2953 -345,6802 -3867,6802l-81000 0c-3522,0 -5628,-3849 -3867,-6802l40470 -70097c1762,-3051 6146,-2951 7824,52l40440 70045z">
  </path>
 </g>
 <g class="blue_layer" fill="#0177D9" style="fill-rule: evenodd; clip-rule: nonzero;">
 </g>
 <g fill="red">
  <path d="M91005 75776l-40448 -70057c-1321,-2368 -4733,-2393 -6088,-46l-40474 70103c-1383,2317 306,5296 3005,5296l81000 0c2740,0 4379,-2994 3005,-5296zm-42613 -61812l34411 59607c380,656 -90,1500 -866,1500l-68874 0c-801,0 -1265,-892 -838,-1546l34387 -59554c368,-724 1407,-728 1780,-7z">
  </path>
  <path d="M91596 78067l12 -110c148,16 339,32 484,59l-90 -104 75 -55 131 176 -11 100 -601 -66zm-75 384l24 -108c145,31 334,66 476,107l-80 -112 81 -47 112 189 -21 97 -592 -126zm-130 426l98 -309 80 26c18,12 148,221 231,276 100,66 184,18 111,-107l83 -39c37,63 52,115 32,179 -55,170 -244,130 -365,-24l-115 -160 -60 188 -95 -30zm247 373c-69,161 -294,69 -344,-41 -40,-90 19,-211 84,-256l97 42c-61,35 -158,155 -22,213 97,43 133,-33 139,-113l39 -22 271 137 -103 237 -92 -40 64 -149 -116 -59c-3,15 -9,33 -17,51zm-288 128l85 47 -101 182 -84 -47 100 -182zm-473 414l184 -267 69 47c14,17 78,255 141,331 77,92 171,70 138,-70l90 -14c18,71 17,125 -21,181 -101,147 -270,54 -342,-129l-64 -186 -112 163 -83 -56zm-25 499c-115,-97 -226,-214 -131,-327 95,-113 229,-23 344,74 113,95 226,215 132,327 -95,113 -227,24 -345,-74zm141 -167c-69,-57 -162,-141 -199,-98 -39,46 80,137 131,179 65,54 163,141 200,98 36,-43 -66,-123 -132,-179zm-459 464c-101,-112 -193,-244 -83,-342 109,-99 229,9 329,121 99,111 194,246 85,343 -110,99 -229,-8 -331,-122zm163 -145c-60,-67 -141,-163 -183,-126 -45,41 60,147 104,196 56,63 142,163 184,125 42,-37 -47,-131 -105,-195zm-669 155l261 -192 49 68c7,21 -9,266 25,359 42,112 139,122 153,-21l90 16c-7,73 -25,124 -80,164 -143,106 -273,-37 -281,-234l1 -197 -159 118 -59 -81z">
  </path>
 </g>
 <g class="black_layer" fill="#000" stroke="#000" stroke-width="0.8mm" style="shape-rendering: geometricPrecision">
  <g transform="scale(1.465) translate(0, 0)">
   <path d="M40246 43853l-1665 4427c-332,886 945,1818 1678,767l1756 -4668 156 -431c-667,-28 -1284,-364 -1669,-910l-256 815zm-11143 -8315l898 -4553c58,-195 239,-330 444,-330l1013 -136c212,-29 265,-1026 37,-1050l-932 -97c-123,0 -241,-49 -328,-136 -86,-86 -136,-206 -136,-328l-20 -809c-9,-360 -301,-647 -661,-647l-33 0c-171,-7 -337,61 -457,181 -118,121 -182,287 -173,459l0 965c0,124 -49,242 -135,328 -85,86 -205,136 -329,136l-2985 0c-123,0 -242,-50 -328,-135 -86,-86 -136,-205 -136,-329l0 -816c0,-176 -72,-346 -195,-469 -124,-124 -292,-194 -468,-194 -179,-4 -353,64 -480,188 -128,123 -201,296 -201,475l0 816c0,124 -49,241 -136,328 -87,87 -206,136 -328,136l-1044 137c-211,26 -269,1032 -37,1050l1182 96c214,0 399,146 450,351l792 4338c110,442 508,753 964,753l2810 0c439,0 826,-287 952,-708zm13844 -3732l-11982 0 -1296 4789c-117,433 -510,734 -959,734l-3307 0 1156 4251c792,1448 1174,1894 2676,1928l1781 0 637 0c176,0 346,71 468,194 125,125 195,293 195,468l0 4571c4,234 108,455 282,609 177,155 408,230 641,206 223,6 440,-77 601,-230 161,-154 255,-366 259,-589l262 -5071c0,-414 255,-782 641,-929l4957 -1891c173,-65 367,-55 533,27 165,82 289,234 340,410l594 1236c70,242 269,423 515,470l2758 819c335,64 592,335 639,672l683 4188c55,392 391,684 787,684 197,32 398,-27 543,-161 147,-133 224,-328 211,-526l-68 -6086c-44,-738 -334,-1439 -824,-1994 -515,-769 -1668,-1973 -1668,-2776l0 -4120c0,-1624 -1511,-1883 -2055,-1883zm-14346 12458l0 0 -1445 4205c-239,1217 1250,1424 1771,476l1317 -4153 143 -528 -1786 0">
   </path>
  </g>
 </g>
</svg>
