<svg role="img" style="shape-rendering: geometricPrecision;
text-rendering: optimizeLegibility; fill-rule:evenodd; clip-rule:evenodd;" version="1.1" viewbox="0 0 75000 40000" width="140px" xml:space="preserve" xmlns="http://www.w3.org/2000/svg">
 <title>
  7.25
 </title>
 <g fill="#FFF" stroke="gray" stroke-width="800">
  <rect height="35000" rx="4500" ry="4500" width="70000" x="2500" y="2500">
  </rect>
 </g>
 <g class="blue_layer" fill="#0177D9" style="fill-rule: evenodd; clip-rule: nonzero;">
 </g>
 <g fill="red">
 </g>
 <g class="black_layer" fill="#000" stroke="#000" stroke-width="0.8mm" style="shape-rendering: geometricPrecision">
  <path d="M32853.73 15842.54c-2437.72,-1188.17 -4785.4,-1145.27 -7134.27,96.99 -1325.11,700.8 -2725.06,1864.39 -3651.75,2949.44 -1954.46,2288.52 -3765.9,4145.24 -6996.64,4209.43l9.62 2313.91c7936.94,230.68 9830.98,-10905.17 16816.25,-7375.58 2179.71,1101.31 4199.03,3256.32 7084.11,3239.1l0 2969.3c0,67.67 55.5,123.36 123.36,123.36l2206.02 0c67.84,0 123.36,-55.51 123.36,-123.36l0 -775.18 3956.24 2622.98 0 -0.03c121.33,82.61 443.9,131.04 600.8,131.04l6385.85 0c416.63,0 757.75,-341.12 757.75,-757.75l0 -1105.55 5638.58 0c632.64,0 1145.48,-512.85 1145.48,-1145.46 0,-632.62 -512.85,-1145.46 -1145.48,-1145.46l-5638.58 0 0 -4123.67 5638.58 0c632.64,0 1145.48,-512.86 1145.48,-1145.46 0,-632.62 -512.85,-1145.47 -1145.48,-1145.47l-5638.58 0 0 -1105.56c0,-416.61 -340.98,-757.73 -757.75,-757.73l-6385.85 0c-175.55,0 -513.91,60.51 -642.75,161.7l0 -0.01 -3914.3 2592.29 0 -775.17c0,-67.85 -55.51,-123.36 -123.36,-123.36l-2206.02 0c-67.85,0 -123.36,55.5 -123.36,123.36l0 3077.77c-2822.73,-193.49 -3658.25,-1802.43 -6127.32,-3005.82z">
  </path>
  <use x="0" xlink:href="#border 350x700" y="0">
  </use>
 </g>
</svg>
