<svg role="img" style="shape-rendering: geometricPrecision;
text-rendering: optimizeLegibility; fill-rule:evenodd; clip-rule:evenodd;" version="1.1" viewbox="0 0 75000 75000" width="140px" xml:space="preserve" xmlns="http://www.w3.org/2000/svg">
 <title>
  5.20.3
 </title>
 <g fill="#FFF" stroke="gray" stroke-width="800">
  <rect height="70000" rx="4500" ry="4500" width="70000" x="2500" y="2500">
  </rect>
 </g>
 <g class="blue_layer" fill="#0177D9" style="fill-rule: evenodd; clip-rule: nonzero;">
  <path d="M29860 4500l22300 0 0 7267 -22300 0 0 -7267zm-10000 66000l-12860 0c-1375,0 -2500,-1125 -2500,-2500l0 -20752 15360 0 0 23252zm50640 -23252l0 20752c0,1375 -1125,2500 -2500,2500 -12713,0 -25427,0 -38140,0l0 -23252c13547,0 27093,0 40640,0zm-8340 -42748l5840 0c1375,0 2500,1125 2500,2500l0 30248 -8340 0 0 -32748zm-55160 0l12860 0 0 32748 -15360 0 0 -30248c0,-1375 1125,-2500 2500,-2500z">
  </path>
 </g>
 <g fill="red">
 </g>
 <g class="black_layer" fill="#000" stroke="#000" stroke-width="0.8mm" style="shape-rendering: geometricPrecision">
  <path d="M26900 14748l28400 0c2200,0 4000,1801 4000,4000l0 21600c0,2200 -1800,4000 -4000,4000l-28400 0 0 26152 -4000 0 0 -26152 -11366 0 0 1976 -6505 -3978 6505 -3979 0 1981 11366 0 0 -21600c0,-2200 1800,-4000 4000,-4000zm1000 4000l26400 0c550,0 1000,451 1000,1000l0 19600c0,550 -450,1000 -1000,1000l-26400 0c-550,0 -1000,-450 -1000,-1000l0 -19600c0,-550 450,-1000 1000,-1000z">
  </path>
  <g>
   <circle cx="24988" cy="58641" fill="#FFF" r="8926" stroke="#FFF" stroke-width="750">
   </circle>
   <path d="M33659 58641c0,-4789 -3882,-8671 -8671,-8671 -4789,0 -8672,3882 -8672,8671 0,4789 3883,8671 8672,8671 4789,0 8671,-3882 8671,-8671zm-13201 -5521l10051 10050c1012,-1232 1620,-2809 1620,-4529 0,-3944 -3197,-7141 -7141,-7141 -1720,0 -3297,608 -4530,1620zm9059 11042l-10050 -10050c-1013,1232 -1620,2810 -1620,4529 0,3944 3197,7141 7141,7141 1719,0 3296,-608 4529,-1620z" fill="red">
   </path>
   <path d="M28916 63706l0 378 -1785 0 0 -2163 1785 1785zm-5358 -9006l2680 0c1473,0 2678,1206 2678,2678l0 4056 -1785 -1786 0 -2270c0,-491 -402,-892 -893,-892l-2270 0 -2263 -2264 1853 -1024 0 1502zm-803 2845l-3532 -1952 1018 -563 2514 2515z">
   </path>
  </g>
 </g>
</svg>
