<svg role="img" style="shape-rendering: geometricPrecision;
text-rendering: optimizeLegibility; fill-rule:evenodd; clip-rule:evenodd;" version="1.1" viewbox="0 0 75000 110000" width="140px" xml:space="preserve" xmlns="http://www.w3.org/2000/svg">
 <title>
  5.47
 </title>
 <g fill="#FFF" stroke="gray" stroke-width="800">
  <rect height="105000" rx="4500" ry="4500" width="70000" x="2500" y="2500">
  </rect>
 </g>
 <g class="blue_layer" fill="#0177D9" style="fill-rule: evenodd; clip-rule: nonzero;">
 </g>
 <g fill="red">
  <path d="M37492.67 30841.26c13346.67,0 24166.67,10820 24166.67,24166.67 0,13346.67 -10820,24166.67 -24166.67,24166.67 -13346.67,0 -24166.67,-10820 -24166.67,-24166.67 0,-13346.67 10820,-24166.67 24166.67,-24166.67zm0 4166.67c11045.83,0 20000,8954.17 20000,20000 0,11045.83 -8954.17,20000 -20000,20000 -11045.83,0 -20000,-8954.17 -20000,-20000 0,-11045.83 8954.17,-20000 20000,-20000z" fill="gray">
  </path>
 </g>
 <g class="black_layer" fill="#000" stroke="#000" stroke-width="0.8mm" style="shape-rendering: geometricPrecision">
  <path d="M18094.92 11202.45l1066.35 1460.84c907.93,-725.84 1538.24,-1083.79 2767.13,-1082.19 337.08,0.44 686.96,65.69 969.68,258.74 224.69,153.43 381.16,371.37 455.38,632.94 74.09,261.13 59.7,543.66 -22.89,800.97 -155.4,484.13 -551.51,880.79 -1075.79,916.98 -485.06,33.49 -972.03,37.73 -1458.19,38.14l0 1363.8 678.75 0c520.17,0 1099.21,89.5 1534.28,394.85 316.63,222.23 528.66,544.03 565.12,933.17 33.37,356.32 -87.51,707.59 -302.66,989.63 -246.68,323.37 -601.78,541.7 -992.25,646.9 -501.82,135.19 -1033.2,79.64 -1522.38,-79.97 -669.3,-218.38 -1285.38,-632.99 -1814.86,-1094.68l-1101.55 1415.25c1132.6,895.79 2223.26,1673.09 3738.94,1658.77 696.49,-6.57 1389.75,-141.34 2016.91,-450.82 515.67,-254.46 968.87,-619.65 1311.28,-1082.93 300.47,-406.51 509.84,-882.54 585.02,-1383.61 68.38,-455.8 23.75,-927.43 -164.26,-1350.81 -237.12,-533.97 -665.25,-912.01 -1204.44,-1126.69l-193.78 -77.15 178.23 -108.34c567.76,-345.14 955.99,-881.91 1113.61,-1526.38 238.46,-974.94 -88.31,-2045.75 -840.14,-2712.94 -1621.28,-1438.75 -4673.95,-733.42 -6213.2,505.72l-74.29 59.81zm13595.84 9087.75c1233.78,0 2182.42,-586.38 2906.47,-1559.52 1549.66,-2082.77 1549.67,-5169.89 0,-7252.66 -724.05,-973.13 -1672.69,-1559.53 -2906.47,-1559.53 -1233.78,0 -2182.42,586.4 -2906.47,1559.53 -1549.67,2082.77 -1549.66,5169.89 0,7252.66 724.05,973.14 1672.69,1559.52 2906.47,1559.52zm21.7 -1916.96c-1576.37,0 -2012.44,-2061.53 -2012.44,-3294.21 0,-1236.67 430.71,-3291.8 2012.44,-3291.8 1580.14,0 2019.68,2054.17 2019.68,3291.8 0,1236.49 -440.72,3294.21 -2019.68,3294.21zm8484.82 -8512.47l-2030.3 0 0 10323.33 2030.3 0 0 -4564.9 3537.77 0 0 4564.9 2027.89 0 0 -10323.33 -2027.89 0 0 3877.64 -3537.77 0 0 -3877.64zm14987.93 10323.33l2281.07 0 -3464.94 -10316.1 -2186.56 0 -3428.04 10316.1 2281.24 0 651.09 -2090.74 3195.75 0 670.39 2090.74zm-3338.9 -3908.83l1030.69 -3347.01 1174.23 3347.01 -2204.92 0z">
  </path>
  <path d="M6992.67 3507.92l61000 0c1925,0 3500,1575 3500,3500l0 95999.99c0,1925 -1575,3500 -3500,3500l-61000 0c-1925,0 -3500,-1575 -3500,-3500l0 -95999.99c0,-1925 1575,-3500 3500,-3500zm63500 9815.77l-66000 60914.89 0 4082.47 66000 -60914.89 0 -4082.47zm-66000 58873.65l66000 -60914.89 0 -4274.54c0,-1375 -1125,-2500 -2500,-2500l-61000 0c-1375,0 -2500,1125 -2500,2500l0 65189.43zm66000 -52749.94l-66000 60914.89 0 4082.46 66000 -60914.89 0 -4082.46zm0 6123.71l-66000 60914.89 0 4082.46 66000 -60914.89 0 -4082.46zm0 6123.7l-66000 60914.89 0 4082.47 66000 -60914.89 0 -4082.47zm0 6123.71l-66000 60914.89 0 4274.49c0,1375 1125,2500 2500,2500l61000 0c1375,0 2500,-1125 2500,-2500l0 -65189.38z">
  </path>
  <g>
   <path d="M24834.44 63501.45l-211.39 -2967.15c1727.66,570.32 3140.52,869.92 4249.2,889.69 1110.21,21.29 1975.57,-212.91 2597.59,-705.66 626.58,-495.8 958.12,-1180.17 1000.71,-2059.21 38.02,-877.52 -323.94,-1571.02 -1084.36,-2085.07 -764.98,-512.52 -1853.89,-638.75 -3265.23,-377.16l0 -2547.4c1339.86,-264.62 2205.21,-555.1 2605.19,-877.52 398.46,-328.5 676.77,-778.66 836.46,-1358.1 159.69,-576.4 83.64,-1117.81 -226.61,-1622.73 -311.77,-507.96 -761.93,-781.71 -1350.5,-819.73 -584,-41.06 -1142.14,9.12 -1671.39,152.08 -530.77,142.96 -1307.92,524.69 -2332.96,1139.11l-1058.5 -2375.54c941.4,-625.07 1869.1,-1058.5 2786.17,-1306.4 915.54,-243.33 1987.73,-331.54 3218.08,-257.02 1231.87,71.48 2266.04,571.83 3097.94,1488.89 831.89,920.11 1101.08,2025.75 803,3319.98 -302.65,1289.67 -1260.77,2395.32 -2874.38,3303.25 1244.04,369.57 2176.31,877.52 2786.17,1520.84 612.89,647.87 945.96,1660.75 996.14,3047.75 54.75,1387 -412.14,2579.33 -1403.72,3575.48 -988.55,1000.7 -2412.05,1563.41 -4278.11,1689.64 -1863.02,126.23 -3602.85,-129.27 -5219.5,-768.02z">
   </path>
   <path d="M44627.36 46063.58c1887.35,0 3383.85,795.39 4487.98,2378.58 1105.64,1584.71 1669.87,3875.08 1694.2,6872.64 -126.22,3177.03 -714.79,5505.42 -1768.72,6992.8 -1055.46,1484.33 -2526.11,2228.02 -4413.46,2228.02 -1904.09,0 -3391.46,-743.69 -4459.09,-2237.15 -1063.06,-1487.37 -1642.5,-3827.94 -1735.27,-7021.69 50.19,-2997.56 622.02,-5278.81 1713.98,-6851.35 1088.92,-1571.02 2585.42,-2361.85 4480.38,-2361.85zm76.04 3093.37c-912.5,-33.46 -1606,457.77 -2075.94,1470.65 -471.46,1012.87 -710.23,2559.56 -710.23,4637.02 0,2075.93 247.9,3608.93 739.13,4605.08 491.23,991.58 1177.12,1487.38 2047.04,1487.38 941.39,0 1639.46,-495.8 2092.67,-1487.38 450.16,-996.15 676.77,-2529.15 676.77,-4605.08 0,-2077.46 -247.9,-3615.02 -739.13,-4611.17 -492.75,-996.14 -1169.52,-1496.5 -2030.31,-1496.5z">
   </path>
  </g>
 </g>
</svg>
