<svg role="img" style="shape-rendering: geometricPrecision;
text-rendering: optimizeLegibility; fill-rule:evenodd; clip-rule:evenodd;" version="1.1" viewbox="0 0 155000 55000" width="210px" xml:space="preserve" xmlns="http://www.w3.org/2000/svg">
 <title>
  5.23
 </title>
 <g fill="#FFF" stroke="gray" stroke-width="800">
 </g>
 <g class="blue_layer" fill="#0177D9" style="fill-rule: evenodd; clip-rule: nonzero;">
 </g>
 <g fill="red">
 </g>
 <g class="black_layer" fill="#000" stroke="#000" stroke-width="0.8mm" style="shape-rendering: geometricPrecision">
  <rect fill="#FFF" height="50000.01" rx="4796.89" ry="4500" stroke="#000" stroke-width="200" width="150000.01" x="2491.74" y="2508.2">
  </rect>
  <path d="M6991.75 3408.2l141000 0c1980,0 3600,1620 3600,3600l0 41000c0,1980 -1620,3600 -3600,3600l-141000 0c-1980,0 -3600,-1620 -3600,-3600l0 -41000c0,-1980 1620,-3600 3600,-3600zm0 1800l141000 0c990,0 1800,810 1800,1800l0 41000c0,990 -810,1800 -1800,1800l-141000 0c-990,0 -1800,-810 -1800,-1800l0 -41000c0,-990 810,-1800 1800,-1800z" fill="#000">
  </path>
  <path d="M31403.57 23627.67l-753.13 0 -2139.15 -3531.49c-613.89,-1123.37 -1139.19,-1857.52 -1582.21,-2202.44 -439.85,-341.76 -990.46,-452.51 -1645.49,-329.1l0 6063.03 -2316.36 0 0 -13255.75 2316.36 0 0 4930.16c446.18,63.29 844.9,-66.45 1202.47,-389.22 354.42,-319.61 1037.93,-1196.15 2047.38,-2623.3 1009.45,-1427.16 2079.03,-2132.82 3202.39,-2113.84l629.72 1993.59c-980.97,272.14 -1746.76,898.69 -2297.36,1882.83 -680.35,1104.38 -1306.91,1898.65 -1882.83,2382.8 860.72,177.21 1708.78,1094.89 2550.52,2753.05l1556.89 2651.78 1325.89 0 -129.74 4126.4 -1658.15 -18.98 -427.2 -2319.52zm10493.21 177.2c-1484.11,0 -2718.23,-664.52 -3708.69,-1993.58 -987.3,-1329.05 -1484.12,-2933.42 -1484.12,-4809.92 0,-1879.66 496.82,-3484.02 1484.12,-4813.08 990.46,-1329.05 2224.58,-1993.58 3708.69,-1993.58 1484.12,0 2718.24,664.53 3708.7,1993.58 987.3,1329.06 1484.11,2933.42 1484.11,4813.08 0,1876.5 -496.81,3480.87 -1484.11,4809.92 -990.46,1329.06 -2224.58,1993.58 -3708.7,1993.58zm28.48 -2253.06c863.89,0 1544.24,-433.53 2037.89,-1303.74 496.81,-867.05 743.64,-1961.94 743.64,-3281.5 0,-1319.57 -246.83,-2411.29 -743.64,-3281.51 -493.65,-867.05 -1174,-1300.57 -2037.89,-1300.57 -867.05,0 -1544.23,433.52 -2034.72,1300.57 -493.65,870.22 -737.31,1961.94 -737.31,3281.51 0,1319.56 243.66,2414.45 737.31,3281.5 490.49,870.21 1167.67,1303.74 2034.72,1303.74zm16565.73 -2455.59l2132.82 952.49c-240.5,632.88 -563.27,1218.3 -965.15,1762.58 -987.3,1329.06 -2253.07,1993.58 -3800.47,1993.58 -1544.23,0 -2794.18,-664.52 -3753,-1993.58 -958.82,-1329.05 -1436.64,-2933.42 -1436.64,-4809.92 0,-1879.66 477.82,-3484.02 1436.64,-4813.08 958.82,-1329.05 2208.77,-1993.58 3753,-1993.58 1547.4,0 2813.17,664.53 3800.47,1993.58 458.84,617.07 810.09,1291.09 1060.08,2022.07l-2180.28 787.94c-123.42,-484.16 -297.46,-920.85 -518.97,-1316.4 -493.65,-867.05 -1174,-1297.41 -2041.05,-1297.41 -863.89,0 -1541.07,433.52 -2034.72,1300.57 -490.49,870.22 -737.31,1961.94 -737.31,3281.51 0,1319.56 246.82,2414.45 737.31,3281.5 493.65,870.21 1170.83,1303.74 2034.72,1303.74 867.05,0 1547.4,-436.69 2041.05,-1306.91 196.19,-344.92 354.42,-730.98 471.5,-1148.68zm9382.5 4559.93l0 -10967.88 -3734.01 0 0 -2306.86 9882.48 0 0 2306.86 -3756.17 0 0 10967.88 -2392.3 0zm13581.68 -4857.39l3253.03 0 -1730.94 -4942.82 -1522.09 4942.82zm2911.27 -8407.86l4458.66 13274.74 -2715.07 0 -882.87 -2743.55 -4382.72 0 -854.39 2743.55 -2715.07 0 4411.2 -13274.74 2680.26 0zm8455.33 13274.74l0 -13284.23 2398.62 0 0 5088.39 4904.85 0 0 -5088.39 2401.8 0 0 13284.23 -2401.8 0 0 -5990.24 -4904.85 0 0 5990.24 -2398.62 0zm17901.11 -4866.88l3253.03 0 -1730.94 -4942.82 -1522.09 4942.82zm2911.27 -8407.86l4458.66 13274.74 -2715.07 0 -882.87 -2743.55 -4382.72 0 -854.39 2743.55 -2715.07 0 4411.2 -13274.74 2680.26 0zm15008.84 -3550.47c-91.77,183.53 -199.36,357.58 -322.77,518.96 -427.2,351.25 -844.9,528.46 -1253.11,528.46 -408.21,0 -825.92,-177.21 -1253.11,-528.46 -129.75,-161.38 -237.34,-335.43 -322.77,-518.96l-2056.88 0c183.54,696.17 585.42,1297.41 1202.48,1800.55 620.23,506.31 1423.99,756.3 2411.29,756.3 984.13,0 1784.73,-249.99 2401.79,-756.3 617.06,-503.14 1018.95,-1104.38 1205.65,-1800.55l-2012.57 0zm-6509.21 3550.47l2411.28 0 0 8869.87 4895.36 -8869.87 2306.86 0 0 13274.74 -2234.08 0 0 -8844.55 -4987.12 8844.55 -2392.3 0 0 -13274.74zm-88413.86 34485.84l-2825.82 0 -2132.82 -3607.44c-544.28,-1180.33 -1037.93,-1889.15 -1484.11,-2126.49 -446.18,-237.33 -1082.23,-338.59 -1908.15,-300.62l0 6034.55 -2310.02 0 0 -13293.72 2310.02 0 0 4930.16c572.76,50.63 1018.95,-69.62 1338.55,-354.41 319.61,-287.96 829.08,-917.68 1534.75,-1889.16 1142.35,-1939.79 2493.56,-2898.61 4050.45,-2873.29l398.72 2205.6c-822.75,-41.14 -1642.33,506.3 -2465.08,1642.33 -674.02,1107.55 -1268.93,1838.53 -1781.57,2196.11 680.35,237.33 1512.59,1145.52 2493.56,2727.73l2781.52 4708.65zm8445.83 139.23c-1484.11,0 -2718.23,-664.52 -3708.69,-1993.58 -987.3,-1329.05 -1484.12,-2933.42 -1484.12,-4809.92 0,-1879.66 496.82,-3484.02 1484.12,-4813.08 990.46,-1329.05 2224.58,-1993.58 3708.69,-1993.58 1484.12,0 2718.24,664.53 3708.7,1993.58 987.3,1329.06 1484.11,2933.42 1484.11,4813.08 0,1876.5 -496.81,3480.87 -1484.11,4809.92 -990.46,1329.06 -2224.58,1993.58 -3708.7,1993.58zm28.48 -2253.06c863.89,0 1544.24,-433.53 2037.89,-1303.74 496.81,-867.05 743.64,-1961.94 743.64,-3281.5 0,-1319.57 -246.83,-2411.29 -743.64,-3281.51 -493.65,-867.05 -1174,-1300.57 -2037.89,-1300.57 -867.05,0 -1544.23,433.52 -2034.72,1300.57 -493.65,870.22 -737.31,1961.94 -737.31,3281.51 0,1319.56 243.66,2414.45 737.31,3281.5 490.49,870.21 1167.67,1303.74 2034.72,1303.74zm16565.73 -2455.59l2132.82 952.49c-240.5,632.88 -563.27,1218.3 -965.15,1762.58 -987.3,1329.06 -2253.07,1993.58 -3800.47,1993.58 -1544.23,0 -2794.18,-664.52 -3753,-1993.58 -958.82,-1329.05 -1436.64,-2933.42 -1436.64,-4809.92 0,-1879.66 477.82,-3484.02 1436.64,-4813.08 958.82,-1329.05 2208.77,-1993.58 3753,-1993.58 1547.4,0 2813.17,664.53 3800.47,1993.58 458.84,617.07 810.09,1291.09 1060.08,2022.07l-2180.28 787.94c-123.42,-484.16 -297.46,-920.85 -518.97,-1316.4 -493.65,-867.05 -1174,-1297.41 -2041.05,-1297.41 -863.89,0 -1541.07,433.52 -2034.72,1300.57 -490.49,870.22 -737.31,1961.94 -737.31,3281.51 0,1319.56 246.82,2414.45 737.31,3281.5 493.65,870.21 1170.83,1303.74 2034.72,1303.74 867.05,0 1547.4,-436.69 2041.05,-1306.91 196.19,-344.92 354.42,-730.98 471.5,-1148.68zm9382.5 4559.93l0 -10967.88 -3734.01 0 0 -2306.86 9882.48 0 0 2306.86 -3756.17 0 0 10967.88 -2392.3 0zm13581.68 -4857.39l3253.03 0 -1730.94 -4942.82 -1522.09 4942.82zm2911.27 -8407.86l4458.66 13274.74 -2715.07 0 -882.87 -2743.55 -4382.72 0 -854.39 2743.55 -2715.07 0 4411.2 -13274.74 2680.26 0zm8455.33 13274.74l0 -13284.23 2398.62 0 0 5088.39 4904.85 0 0 -5088.39 2401.8 0 0 13284.23 -2401.8 0 0 -5990.24 -4904.85 0 0 5990.24 -2398.62 0zm17901.11 -4866.88l3253.03 0 -1730.94 -4942.82 -1522.09 4942.82zm2911.27 -8407.86l4458.66 13274.74 -2715.07 0 -882.87 -2743.55 -4382.72 0 -854.39 2743.55 -2715.07 0 4411.2 -13274.74 2680.26 0zm15008.84 -3550.47c-91.77,183.53 -199.36,357.58 -322.77,518.96 -427.2,351.25 -844.9,528.46 -1253.11,528.46 -408.21,0 -825.92,-177.21 -1253.11,-528.46 -129.75,-161.38 -237.34,-335.43 -322.77,-518.96l-2056.88 0c183.54,696.17 585.42,1297.41 1202.48,1800.55 620.23,506.31 1423.99,756.3 2411.29,756.3 984.13,0 1784.73,-249.99 2401.79,-756.3 617.06,-503.14 1018.95,-1104.38 1205.65,-1800.55l-2012.57 0zm-6509.21 3550.47l2411.28 0 0 8869.87 4895.36 -8869.87 2306.86 0 0 13274.74 -2234.08 0 0 -8844.55 -4987.12 8844.55 -2392.3 0 0 -13274.74z" fill="#000">
  </path>
  <polygon fill="#FF0000" points="39510.16,49808.2 134267.51,5208.2 115482.07,5208.2 20724.73,49808.2 ">
  </polygon>
 </g>
</svg>
