<svg role="img" style="shape-rendering: geometricPrecision;
text-rendering: optimizeLegibility; fill-rule:evenodd; clip-rule:evenodd;" version="1.1" viewbox="0 0 95000 85000" width="140px" xml:space="preserve" xmlns="http://www.w3.org/2000/svg">
 <title>
  1.13
 </title>
 <g fill="#FFF" stroke="gray" stroke-width="800">
  <path d="M91867 75270c1761,2953 -345,6802 -3867,6802l-81000 0c-3522,0 -5628,-3849 -3867,-6802l40470 -70097c1762,-3051 6146,-2951 7824,52l40440 70045z">
  </path>
 </g>
 <g class="blue_layer" fill="#0177D9" style="fill-rule: evenodd; clip-rule: nonzero;">
 </g>
 <g fill="red">
  <path d="M91005 75776l-40448 -70057c-1321,-2368 -4733,-2393 -6088,-46l-40474 70103c-1383,2317 306,5296 3005,5296l81000 0c2740,0 4379,-2994 3005,-5296zm-42613 -61812l34411 59607c380,656 -90,1500 -866,1500l-68874 0c-801,0 -1265,-892 -838,-1546l34387 -59554c368,-724 1407,-728 1780,-7z">
  </path>
  <path d="M91596 78067l12 -110c148,16 339,32 484,59l-90 -104 75 -55 131 176 -11 100 -601 -66zm-75 384l24 -108c145,31 334,66 476,107l-80 -112 81 -47 112 189 -21 97 -592 -126zm-130 426l98 -309 80 26c18,12 148,221 231,276 100,66 184,18 111,-107l83 -39c37,63 52,115 32,179 -55,170 -244,130 -365,-24l-115 -160 -60 188 -95 -30zm247 373c-69,161 -294,69 -344,-41 -40,-90 19,-211 84,-256l97 42c-61,35 -158,155 -22,213 97,43 133,-33 139,-113l39 -22 271 137 -103 237 -92 -40 64 -149 -116 -59c-3,15 -9,33 -17,51zm-288 128l85 47 -101 182 -84 -47 100 -182zm-473 414l184 -267 69 47c14,17 78,255 141,331 77,92 171,70 138,-70l90 -14c18,71 17,125 -21,181 -101,147 -270,54 -342,-129l-64 -186 -112 163 -83 -56zm-25 499c-115,-97 -226,-214 -131,-327 95,-113 229,-23 344,74 113,95 226,215 132,327 -95,113 -227,24 -345,-74zm141 -167c-69,-57 -162,-141 -199,-98 -39,46 80,137 131,179 65,54 163,141 200,98 36,-43 -66,-123 -132,-179zm-459 464c-101,-112 -193,-244 -83,-342 109,-99 229,9 329,121 99,111 194,246 85,343 -110,99 -229,-8 -331,-122zm163 -145c-60,-67 -141,-163 -183,-126 -45,41 60,147 104,196 56,63 142,163 184,125 42,-37 -47,-131 -105,-195zm-669 155l261 -192 49 68c7,21 -9,266 25,359 42,112 139,122 153,-21l90 16c-7,73 -25,124 -80,164 -143,106 -273,-37 -281,-234l1 -197 -159 118 -59 -81z">
  </path>
 </g>
 <g class="black_layer" fill="#000" stroke="#000" stroke-width="0.8mm" style="shape-rendering: geometricPrecision">
  <g transform="scale(1.45) translate(0, 500)">
   <polygon points="55201,50099 21061,30294 9626,50099 ">
   </polygon>
   <g>
    <path d="M39395 37381c321,-553 680,-891 1078,-1017 397,-127 806,-68 1227,176 423,246 679,573 767,980 87,408 -30,887 -350,1440 -323,557 -682,897 -1079,1024 -398,126 -805,68 -1220,-173 -430,-249 -687,-576 -774,-984 -88,-408 28,-889 351,-1446zm920 537c-233,402 -343,697 -327,885 10,146 77,254 201,326 126,73 253,79 379,16 173,-82 375,-325 608,-727 234,-402 346,-698 334,-886 -11,-143 -81,-251 -207,-324 -126,-73 -253,-80 -380,-17 -172,82 -375,325 -608,727z">
    </path>
    <polygon points="36544,37901 35670,37394 42735,32778 43590,33274 ">
    </polygon>
    <path d="M37132 31698c320,-551 679,-888 1075,-1013 397,-125 803,-68 1218,173 429,249 688,576 778,981 89,404 -28,884 -349,1438 -320,551 -677,889 -1074,1013 -396,125 -804,67 -1219,-173 -429,-249 -687,-576 -776,-980 -89,-405 26,-885 347,-1439zm922 534c-231,398 -340,692 -326,882 12,141 81,248 204,320 127,73 255,80 384,21 169,-84 368,-325 599,-723 231,-398 340,-689 327,-875 -10,-144 -79,-253 -205,-326 -124,-72 -251,-79 -379,-19 -173,82 -374,323 -604,720z">
    </path>
    <path d="M34264 34794l-635 1093 -4142 -2403c286,-390 649,-705 1088,-947 440,-242 1170,-478 2187,-711 821,-188 1343,-336 1566,-443 303,-150 525,-344 664,-583 153,-264 201,-508 141,-732 -58,-224 -213,-407 -461,-551 -247,-144 -486,-182 -719,-118 -230,64 -457,262 -680,595l-1112 -802c448,-611 939,-952 1475,-1021 534,-68 1079,58 1634,380 609,353 991,796 1149,1327 157,530 93,1040 -191,1529 -161,279 -365,514 -610,709 -245,194 -555,365 -932,515 -249,101 -661,213 -1233,340 -574,125 -942,215 -1107,271 -166,53 -310,117 -433,188l2351 1364z">
    </path>
    <path d="M27866 32544l-1180 -684 2590 -4465c-666,155 -1348,161 -2046,15l625 -1077c367,79 812,82 1336,8 525,-72 963,-257 1315,-553l957 555 -3597 6201z">
    </path>
   </g>
  </g>
 </g>
</svg>
