<svg role="img" style="shape-rendering: geometricPrecision;
text-rendering: optimizeLegibility; fill-rule:evenodd; clip-rule:evenodd;" version="1.1" viewbox="0 0 95000 85000" width="140px" xml:space="preserve" xmlns="http://www.w3.org/2000/svg">
 <title>
  1.21
 </title>
 <g fill="#FFF" stroke="gray" stroke-width="800">
  <path d="M91867 75270c1761,2953 -345,6802 -3867,6802l-81000 0c-3522,0 -5628,-3849 -3867,-6802l40470 -70097c1762,-3051 6146,-2951 7824,52l40440 70045z">
  </path>
 </g>
 <g class="blue_layer" fill="#0177D9" style="fill-rule: evenodd; clip-rule: nonzero;">
 </g>
 <g fill="red">
  <path d="M91005 75776l-40448 -70057c-1321,-2368 -4733,-2393 -6088,-46l-40474 70103c-1383,2317 306,5296 3005,5296l81000 0c2740,0 4379,-2994 3005,-5296zm-42613 -61812l34411 59607c380,656 -90,1500 -866,1500l-68874 0c-801,0 -1265,-892 -838,-1546l34387 -59554c368,-724 1407,-728 1780,-7z">
  </path>
  <path d="M91596 78067l12 -110c148,16 339,32 484,59l-90 -104 75 -55 131 176 -11 100 -601 -66zm-75 384l24 -108c145,31 334,66 476,107l-80 -112 81 -47 112 189 -21 97 -592 -126zm-130 426l98 -309 80 26c18,12 148,221 231,276 100,66 184,18 111,-107l83 -39c37,63 52,115 32,179 -55,170 -244,130 -365,-24l-115 -160 -60 188 -95 -30zm247 373c-69,161 -294,69 -344,-41 -40,-90 19,-211 84,-256l97 42c-61,35 -158,155 -22,213 97,43 133,-33 139,-113l39 -22 271 137 -103 237 -92 -40 64 -149 -116 -59c-3,15 -9,33 -17,51zm-288 128l85 47 -101 182 -84 -47 100 -182zm-473 414l184 -267 69 47c14,17 78,255 141,331 77,92 171,70 138,-70l90 -14c18,71 17,125 -21,181 -101,147 -270,54 -342,-129l-64 -186 -112 163 -83 -56zm-25 499c-115,-97 -226,-214 -131,-327 95,-113 229,-23 344,74 113,95 226,215 132,327 -95,113 -227,24 -345,-74zm141 -167c-69,-57 -162,-141 -199,-98 -39,46 80,137 131,179 65,54 163,141 200,98 36,-43 -66,-123 -132,-179zm-459 464c-101,-112 -193,-244 -83,-342 109,-99 229,9 329,121 99,111 194,246 85,343 -110,99 -229,-8 -331,-122zm163 -145c-60,-67 -141,-163 -183,-126 -45,41 60,147 104,196 56,63 142,163 184,125 42,-37 -47,-131 -105,-195zm-669 155l261 -192 49 68c7,21 -9,266 25,359 42,112 139,122 153,-21l90 16c-7,73 -25,124 -80,164 -143,106 -273,-37 -281,-234l1 -197 -159 118 -59 -81z">
  </path>
 </g>
 <g class="black_layer" fill="#000" stroke="#000" stroke-width="0.8mm" style="shape-rendering: geometricPrecision">
  <g transform="scale(1.465) translate(0, 0)">
   <path d="M25842 30335c1277,-3427 -2383,-3049 -3701,-966 -404,639 -555,1452 -221,2102 428,708 768,1667 1763,1622 1011,-46 1868,-1976 2159,-2758zm9963 -854c-119,-217 -107,-481 31,-686l1305 -1492c122,-179 637,-287 853,-287l3487 22 1391 2409 -2837 0 2886 4850c228,443 92,988 -320,1269l-5991 3950c-176,115 -287,326 -287,543l0 399 0 6471c0,1342 -2439,1363 -2439,0l0 -7990c14,-543 109,-739 747,-1138l4277 -3099 -3103 -5221zm8912 13331l4178 -2934 -1133 -1962 -2637 1765c-248,165 -445,156 -564,-44l-1930 -3236 -1960 1266 2928 4920c274,461 639,490 1118,225zm-13187 -10614l1989 1489 2085 -2809 1196 2071 -2537 3192c-234,226 -524,329 -829,157l-3077 -2243c-1129,-1060 -122,-2454 1173,-1857zm4550 -10163c850,213 1479,1261 1307,2124 -267,1346 -1395,4386 -3253,3737 -1046,-367 -1548,-2452 -1322,-3436 374,-1630 1480,-2871 3268,-2425zm-14772 25340c221,173 505,242 781,192 275,-51 517,-218 663,-459l3569 -5340c52,-87 127,-161 213,-217l3768 -2460c287,-181 389,-552 235,-856l-2668 -4540 3313 -5439c287,-471 255,-1105 -538,-1526 -424,-225 -959,-43 -1222,363l-4607 7542c-133,206 -141,470 -20,684l1867 3136 -1943 1523c-94,58 -172,139 -225,236l-3600 5773c-239,425 -132,962 252,1262l162 126zm987 -8156l2876 -2051 -985 -1654 -1735 1243 -1455 -2225c-691,-1125 -2376,-28 -1784,1061l2308 3458c229,245 503,286 775,168zm8976 6183c-293,15 -734,-84 -1036,-583l-1976 -3327 1874 -1210 1840 3090 1392 0 0 2033 -2094 -3z">
   </path>
  </g>
 </g>
</svg>
