<svg role="img" style="shape-rendering: geometricPrecision;
text-rendering: optimizeLegibility; fill-rule:evenodd; clip-rule:evenodd;" version="1.1" viewbox="0 0 75000 40000" width="140px" xml:space="preserve" xmlns="http://www.w3.org/2000/svg">
 <title>
  7.15
 </title>
 <g fill="#FFF" stroke="gray" stroke-width="800">
  <rect height="35000" rx="4500" ry="4500" width="70000" x="2500" y="2500">
  </rect>
 </g>
 <g class="blue_layer" fill="#0177D9" style="fill-rule: evenodd; clip-rule: nonzero;">
 </g>
 <g fill="red">
 </g>
 <g class="black_layer" fill="#000" stroke="#000" stroke-width="0.8mm" style="shape-rendering: geometricPrecision">
  <symbol id="7_15">
   <path d="M6635 7352c2346,0 4248,1903 4248,4249 0,2346 -1902,4249 -4248,4249 -2347,0 -4249,-1903 -4249,-4249 0,-2346 1902,-4249 4249,-4249zm19671 -1546c2935,0 5360,2182 5742,5012 17,-3 34,-5 51,-5l59 0 8738 -9834c55,-70 114,-136 176,-198l3 -3 0 0c416,-416 991,-674 1626,-674 1270,0 2299,1030 2299,2299l-550 0c0,-966 -783,-1749 -1749,-1749 -472,0 -900,187 -1215,491l-8628 9710c65,44 107,118 107,202l0 1025c0,135 -109,244 -244,244l-622 0c-14,0 -29,-1 -43,-3 -355,2859 -2794,5073 -5750,5073 -3200,0 -5795,-2595 -5795,-5795 0,-55 1,-110 3,-165 -1252,-595 -2738,-940 -4332,-940 -1361,0 -2642,251 -3767,695 10,135 15,272 15,410 0,3200 -2595,5795 -5795,5795 -2955,0 -5393,-2212 -5750,-5070 -6,0 -13,0 -19,0l-622 0c-134,0 -244,-109 -244,-244l0 -1025c0,-135 110,-244 244,-244l622 0c9,0 18,0 27,1 239,-1758 1266,-3265 2714,-4155l5047 -5680c55,-70 114,-136 176,-198l3 -3 0 0c416,-416 991,-674 1626,-674 1270,0 2299,1030 2299,2299l-550 0c0,-966 -783,-1749 -1749,-1749 -472,0 -900,187 -1215,491l-4390 4940c561,-181 1159,-279 1781,-279 2869,0 5252,2086 5713,4824 1155,-438 2457,-684 3834,-684 1598,0 3094,332 4377,909 366,-2848 2799,-5049 5747,-5049zm-19671 671c2830,0 5124,2294 5124,5124 0,2830 -2294,5124 -5124,5124 -2830,0 -5124,-2294 -5124,-5124 0,-2830 2294,-5124 5124,-5124zm19671 0c2830,0 5124,2294 5124,5124 0,2830 -2294,5124 -5124,5124 -2830,0 -5124,-2294 -5124,-5124 0,-2830 2294,-5124 5124,-5124zm0 902c2347,0 4249,1902 4249,4249 0,2346 -1902,4248 -4249,4248 -2346,0 -4249,-1902 -4249,-4248 0,-2347 1903,-4249 4249,-4249z">
   </path>
  </symbol>
  <g transform="scale(1.1)">
   <use width="50000" x="12500" xlink:href="#7_15" y="9000">
   </use>
  </g>
  <use x="0" xlink:href="#border 350x700" y="0">
  </use>
 </g>
</svg>
