<svg role="img" style="shape-rendering: geometricPrecision;
text-rendering: optimizeLegibility; fill-rule:evenodd; clip-rule:evenodd;" version="1.1" viewbox="0 0 75000 110000" width="140px" xml:space="preserve" xmlns="http://www.w3.org/2000/svg">
 <title>
  5.42
 </title>
 <g fill="#FFF" stroke="gray" stroke-width="800">
  <rect height="105000" rx="4500" ry="4500" width="70000" x="2500" y="2500">
  </rect>
 </g>
 <g class="blue_layer" fill="#0177D9" style="fill-rule: evenodd; clip-rule: nonzero;">
  <rect height="101000" rx="2500" ry="2500" width="66000" x="4500" y="4500">
  </rect>
  <rect fill="#FFFFFF" height="57000" rx="2000" ry="2000" width="57000" x="9000" y="17500">
  </rect>
 </g>
 <g fill="red">
 </g>
 <g class="black_layer" fill="#000" stroke="#000" stroke-width="0.8mm" style="shape-rendering: geometricPrecision">
  <symbol id="photo">
   <path d="M6812 16119c1389,0 2515,339 2515,758 0,418 -1126,757 -2515,757 -1389,0 -2515,-339 -2515,-757 0,-419 1126,-758 2515,-758zm34718 -10428l-3020 -113 2429 1408 -2338 2407 2906 -500 636 2566 1544 -2543 2248 1385 -591 -1976 2316 -1317 -2611 -703 795 -2362 -3043 1703 -1112 -3156 -159 3201zm-39385 6880l22215 0c2209,-1914 5091,-3072 8243,-3072 108,0 214,2 321,4l0 -2517 3678 0 0 1816 1177 808 2229 -2420 -3610 -2134 4496 0 363 -4924 1908 4629 3474 -2044 -795 3179 3156 795 -2838 1907 613 2770 -2952 -1635 -1617 2915 3660 2512 0 18063c0,1180 -965,2145 -2145,2145l-41576 0c-1180,0 -2145,-965 -2145,-2145l0 -18506c0,-1180 965,-2146 2145,-2146zm30458 5510c2216,0 4013,1796 4013,4012 0,2216 -1797,4012 -4013,4012 -2216,0 -4012,-1796 -4012,-4012 0,-2216 1796,-4012 4012,-4012zm0 -3218c3994,0 7231,3237 7231,7230 0,3993 -3237,7231 -7231,7231 -3993,0 -7230,-3238 -7230,-7231 0,-3993 3237,-7230 7230,-7230zm0 1931c2927,0 5300,2372 5300,5299 0,2927 -2373,5300 -5300,5300 -2926,0 -5299,-2373 -5299,-5300 0,-2927 2373,-5299 5299,-5299zm0 -5149c5771,0 10449,4678 10449,10448 0,5771 -4678,10449 -10449,10449 -5770,0 -10448,-4678 -10448,-10449 0,-5770 4678,-10448 10448,-10448zm0 1931c4705,0 8518,3813 8518,8517 0,4704 -3813,8518 -8518,8518 -4704,0 -8517,-3814 -8517,-8518 0,-4704 3813,-8517 8517,-8517zm-25791 1470c1981,0 3587,820 3587,1831 0,1011 -1606,1830 -3587,1830 -1982,0 -3588,-819 -3588,-1830 0,-1011 1606,-1831 3588,-1831zm25791 -4689c6482,0 11736,5255 11736,11736 0,6482 -5254,11736 -11736,11736 -6481,0 -11735,-5254 -11735,-11736 0,-6481 5254,-11736 11735,-11736zm5686 -397l3699 2538 -912 -2878 -2787 340z">
   </path>
  </symbol>
  <g transform="scale(1)">
   <use x="14500" xlink:href="#photo" y="24000">
   </use>
  </g>
 </g>
</svg>
