<svg role="img" style="shape-rendering: geometricPrecision;
text-rendering: optimizeLegibility; fill-rule:evenodd; clip-rule:evenodd;" version="1.1" viewbox="0 0 75000 75000" width="140px" xml:space="preserve" xmlns="http://www.w3.org/2000/svg">
 <title>
  3.26
 </title>
 <g fill="#FFF" stroke="gray" stroke-width="800">
  <circle cx="37500" cy="37500" r="35000">
  </circle>
 </g>
 <g class="blue_layer" fill="#0177D9" style="fill-rule: evenodd; clip-rule: nonzero;">
 </g>
 <g fill="red">
  <path d="M71500 37500c0,-18778 -15222,-34000 -34000,-34000 -18778,0 -34000,15222 -34000,34000 0,18778 15222,34000 34000,34000 18778,0 34000,-15222 34000,-34000zm-51759 -21648l39407 39407c3969,-4833 6352,-11017 6352,-17759 0,-15464 -12536,-28000 -28000,-28000 -6742,0 -12926,2383 -17759,6352zm35518 43296l-39407 -39407c-3969,4833 -6352,11017 -6352,17759 0,15464 12536,28000 28000,28000 6742,0 12926,-2383 17759,-6352z">
  </path>
 </g>
 <g class="black_layer" fill="#000" stroke="#000" stroke-width="0.8mm" style="shape-rendering: geometricPrecision">
  <symbol id="3_26" viewbox="0 0 75000 75000">
   <path d="M39241 34304l-2839 -2839 6246 0c4088,0 6813,3009 7665,6416l3350 0c568,-1987 2442,-3463 4599,-3463 2726,0 4884,2214 4884,4883 0,2669 -2158,4883 -4884,4883 -2270,0 -4201,-1590 -4712,-3748l-2896 0c0,1477 -284,2953 -965,4316l-2215 -2215c170,-567 284,-1249 284,-1987l-2271 0 -2612 -2612 4486 0c-966,-2555 -3294,-3634 -6190,-3634l-1930 0zm3009 13003l2158 2158c-852,284 -1760,397 -2669,397l-14195 0c-8290,0 -8007,-11924 0,-11924l5337 0 2612 2612 -7211 0c-4940,0 -5849,6757 0,6757l13968 0zm-15842 -15842l2839 2839 -2442 0c-5848,0 -9539,4940 -10788,7268 -3180,-5508 -3180,-11413 0,-17602 1703,4940 5451,7381 10391,7495z">
   </path>
  </symbol>
  <use x="0" xlink:href="#3_26" y="0">
  </use>
 </g>
</svg>
