<svg role="img" style="shape-rendering: geometricPrecision;
text-rendering: optimizeLegibility; fill-rule:evenodd; clip-rule:evenodd;" version="1.1" viewbox="0 0 95000 85000" width="140px" xml:space="preserve" xmlns="http://www.w3.org/2000/svg">
 <title>
  1.2
 </title>
 <g fill="#FFF" stroke="gray" stroke-width="800">
  <path d="M91867 75270c1761,2953 -345,6802 -3867,6802l-81000 0c-3522,0 -5628,-3849 -3867,-6802l40470 -70097c1762,-3051 6146,-2951 7824,52l40440 70045z">
  </path>
 </g>
 <g class="blue_layer" fill="#0177D9" style="fill-rule: evenodd; clip-rule: nonzero;">
 </g>
 <g fill="red">
  <path d="M91005 75776l-40448 -70057c-1321,-2368 -4733,-2393 -6088,-46l-40474 70103c-1383,2317 306,5296 3005,5296l81000 0c2740,0 4379,-2994 3005,-5296zm-42613 -61812l34411 59607c380,656 -90,1500 -866,1500l-68874 0c-801,0 -1265,-892 -838,-1546l34387 -59554c368,-724 1407,-728 1780,-7z">
  </path>
  <path d="M91596 78067l12 -110c148,16 339,32 484,59l-90 -104 75 -55 131 176 -11 100 -601 -66zm-75 384l24 -108c145,31 334,66 476,107l-80 -112 81 -47 112 189 -21 97 -592 -126zm-130 426l98 -309 80 26c18,12 148,221 231,276 100,66 184,18 111,-107l83 -39c37,63 52,115 32,179 -55,170 -244,130 -365,-24l-115 -160 -60 188 -95 -30zm247 373c-69,161 -294,69 -344,-41 -40,-90 19,-211 84,-256l97 42c-61,35 -158,155 -22,213 97,43 133,-33 139,-113l39 -22 271 137 -103 237 -92 -40 64 -149 -116 -59c-3,15 -9,33 -17,51zm-288 128l85 47 -101 182 -84 -47 100 -182zm-473 414l184 -267 69 47c14,17 78,255 141,331 77,92 171,70 138,-70l90 -14c18,71 17,125 -21,181 -101,147 -270,54 -342,-129l-64 -186 -112 163 -83 -56zm-25 499c-115,-97 -226,-214 -131,-327 95,-113 229,-23 344,74 113,95 226,215 132,327 -95,113 -227,24 -345,-74zm141 -167c-69,-57 -162,-141 -199,-98 -39,46 80,137 131,179 65,54 163,141 200,98 36,-43 -66,-123 -132,-179zm-459 464c-101,-112 -193,-244 -83,-342 109,-99 229,9 329,121 99,111 194,246 85,343 -110,99 -229,-8 -331,-122zm163 -145c-60,-67 -141,-163 -183,-126 -45,41 60,147 104,196 56,63 142,163 184,125 42,-37 -47,-131 -105,-195zm-669 155l261 -192 49 68c7,21 -9,266 25,359 42,112 139,122 153,-21l90 16c-7,73 -25,124 -80,164 -143,106 -273,-37 -281,-234l1 -197 -159 118 -59 -81z">
  </path>
 </g>
 <g class="black_layer" fill="#000" stroke="#000" stroke-width="0.8mm" style="shape-rendering: geometricPrecision">
  <g transform="scale(1.45) translate(0, 0)">
   <path d="M24515 31287c1010,-4165 5980,321 7476,-5193 4093,481 5586,-5300 1676,-6752 1799,-1658 1353,-3362 269,-4147 -1045,-758 -3040,-656 -3665,1417 -300,998 195,2065 1115,2597 -2063,105 -2850,2300 -2519,3972 -1899,-110 -3048,893 -2860,2897 -2522,525 -4000,2764 -4312,5209l2820 0zm-82 3859l11752 0 0 6997 -15260 0c-990,-895 -1556,-2165 -1556,-3498 0,-1334 566,-2604 1556,-3499l747 0 0 -3007 2761 0 0 3007zm12849 6997l0 -9637 7379 0 0 1397 -1084 0 0 8240 -6295 0zm839 3510c535,0 970,434 970,969 0,536 -435,970 -970,970 -535,0 -970,-434 -970,-970 0,-535 435,-969 970,-969zm2907 654c11,104 17,209 17,315 0,1612 -1310,2920 -2924,2920 -1614,0 -2924,-1308 -2924,-2920 0,-106 6,-211 17,-315l-1024 1c11,103 17,208 17,314 0,1612 -1309,2920 -2923,2920 -1615,0 -2924,-1308 -2924,-2920 0,-106 6,-211 17,-314l-1024 0c11,103 17,208 17,314 0,1612 -1309,2920 -2924,2920 -1331,0 -2455,-890 -2808,-2106l-3534 0 0 -3290 2053 0 0 -1071 23466 0 0 3232 -2595 0zm-9744 -654c535,0 969,434 969,969 0,536 -434,970 -969,970 -536,0 -970,-434 -970,-970 0,-535 434,-969 970,-969zm-6838 -1616c1428,0 2586,1158 2586,2585 0,1428 -1158,2586 -2586,2586 -1428,0 -2585,-1158 -2585,-2586 0,-1427 1157,-2585 2585,-2585zm6838 0c1427,0 2585,1158 2585,2585 0,1428 -1158,2586 -2585,2586 -1428,0 -2586,-1158 -2586,-2586 0,-1427 1158,-2585 2586,-2585zm6837 0c1428,0 2585,1158 2585,2585 0,1428 -1157,2586 -2585,2586 -1428,0 -2585,-1158 -2585,-2586 0,-1427 1157,-2585 2585,-2585zm-13675 1616c536,0 970,434 970,969 0,536 -434,970 -970,970 -535,0 -969,-434 -969,-970 0,-535 434,-969 969,-969zm14169 -11738l0 3152 3116 0 0 -3152 -3116 0z">
   </path>
  </g>
 </g>
</svg>
