<svg role="img" style="shape-rendering: geometricPrecision;
text-rendering: optimizeLegibility; fill-rule:evenodd; clip-rule:evenodd;" version="1.1" viewbox="0 0 118000 105000" width="140px" xml:space="preserve" xmlns="http://www.w3.org/2000/svg">
 <title>
  1.15 временный
 </title>
 <g fill="#FFD323" stroke="gray" stroke-width="800">
  <path d="M58999 2791c1665,0 3119,904 3897,2248l1 0 52156 90336c33,55 65,110 96,167l5 9 0 0c351,641 551,1376 551,2158 0,2486 -2015,4500 -4500,4500l-104410 -4c-2485,0 -4500,-2015 -4500,-4500 0,-797 208,-1545 571,-2194l-1 0 12 -20c11,-20 23,-40 34,-59l52187 -90391 3 0c778,-1345 2232,-2250 3898,-2250z">
  </path>
 </g>
 <g class="blue_layer" fill="#0177D9" style="fill-rule: evenodd; clip-rule: nonzero;">
 </g>
 <g fill="red">
  <path d="M55624 6130l-51847 89802c-10,17 -20,35 -30,52l-9 16c-292,522 -443,1106 -443,1705 0,1933 1567,3500 3500,3500l104410 4c1933,1 3500,-1566 3500,-3500 0,-586 -145,-1159 -426,-1674l-1 -2 -5 -9c-24,-44 -49,-87 -75,-129l-5 -10 -51817 -89748 0 0 -345 -597c-627,-1082 -1777,-1749 -3032,-1749 -1255,0 -2406,667 -3032,1751l-341 589 -2 -1zm3374 12157c368,0 690,199 863,495l0 0 4 6 1 3 41787 72376c100,155 158,340 158,539 0,552 -448,1000 -1000,1000l-83623 0c-553,0 -1000,-448 -1000,-1000 0,-183 48,-354 134,-501l-1 0 41809 -72414 2 -3 3 -6 0 0c174,-296 495,-495 863,-495z">
  </path>
 </g>
 <g class="black_layer" fill="#000" stroke="#000" stroke-width="0.8mm" style="shape-rendering: geometricPrecision">
  <g transform="scale(1.73) translate(1600, 2200)">
   <path d="M26852 36162l239 -1316 -2094 -359 -219 1276c-259,1535 1795,2073 2074,399zm11763 2033l219 -1316 -2093 -359 -220 1276c-259,1536 1795,2074 2094,399zm219 -2373c975,169 1456,-318 1555,-897l634 -3706c126,-841 -629,-1388 -1312,-1497l-757 -3290c-200,-937 -1396,-1416 -1934,-1495l-6320 -1097c-539,-100 -1855,-20 -2333,778l-1814 2831c-619,-99 -1421,-43 -1715,837l-630 3663c-120,843 470,1441 1129,1541l13497 2332zm-578 -6360l-458 -2352c-80,-439 -439,-918 -978,-997l-6300 -1097c-538,-79 -1037,279 -1236,618l-1236 2074 10208 1754zm-14654 20098l6878 0c2951,-3250 2832,-3609 -159,-5244l-5463 -2951c-1515,-837 -798,-2053 0,-3090 -3609,578 -6540,2153 -3011,4127l3808 2153c2034,1137 1356,2632 0,3569l-2053 1436zm18422 0l5922 0c-320,-2004 -1528,-3452 -4598,-4597l-6303 -2324c-1879,-707 -948,-1734 -700,-2609 -3525,959 -5461,2609 -913,4361l4852 1885c2102,809 2975,1533 1740,3284z">
   </path>
  </g>
 </g>
</svg>
