<svg role="img" style="shape-rendering: geometricPrecision;
text-rendering: optimizeLegibility; fill-rule:evenodd; clip-rule:evenodd;" version="1.1" viewbox="0 0 95000 85000" width="140px" xml:space="preserve" xmlns="http://www.w3.org/2000/svg">
 <title>
  1.14
 </title>
 <g fill="#FFF" stroke="gray" stroke-width="800">
  <path d="M91867 75270c1761,2953 -345,6802 -3867,6802l-81000 0c-3522,0 -5628,-3849 -3867,-6802l40470 -70097c1762,-3051 6146,-2951 7824,52l40440 70045z">
  </path>
 </g>
 <g class="blue_layer" fill="#0177D9" style="fill-rule: evenodd; clip-rule: nonzero;">
 </g>
 <g fill="red">
  <path d="M91005 75776l-40448 -70057c-1321,-2368 -4733,-2393 -6088,-46l-40474 70103c-1383,2317 306,5296 3005,5296l81000 0c2740,0 4379,-2994 3005,-5296zm-42613 -61812l34411 59607c380,656 -90,1500 -866,1500l-68874 0c-801,0 -1265,-892 -838,-1546l34387 -59554c368,-724 1407,-728 1780,-7z">
  </path>
  <path d="M91596 78067l12 -110c148,16 339,32 484,59l-90 -104 75 -55 131 176 -11 100 -601 -66zm-75 384l24 -108c145,31 334,66 476,107l-80 -112 81 -47 112 189 -21 97 -592 -126zm-130 426l98 -309 80 26c18,12 148,221 231,276 100,66 184,18 111,-107l83 -39c37,63 52,115 32,179 -55,170 -244,130 -365,-24l-115 -160 -60 188 -95 -30zm247 373c-69,161 -294,69 -344,-41 -40,-90 19,-211 84,-256l97 42c-61,35 -158,155 -22,213 97,43 133,-33 139,-113l39 -22 271 137 -103 237 -92 -40 64 -149 -116 -59c-3,15 -9,33 -17,51zm-288 128l85 47 -101 182 -84 -47 100 -182zm-473 414l184 -267 69 47c14,17 78,255 141,331 77,92 171,70 138,-70l90 -14c18,71 17,125 -21,181 -101,147 -270,54 -342,-129l-64 -186 -112 163 -83 -56zm-25 499c-115,-97 -226,-214 -131,-327 95,-113 229,-23 344,74 113,95 226,215 132,327 -95,113 -227,24 -345,-74zm141 -167c-69,-57 -162,-141 -199,-98 -39,46 80,137 131,179 65,54 163,141 200,98 36,-43 -66,-123 -132,-179zm-459 464c-101,-112 -193,-244 -83,-342 109,-99 229,9 329,121 99,111 194,246 85,343 -110,99 -229,-8 -331,-122zm163 -145c-60,-67 -141,-163 -183,-126 -45,41 60,147 104,196 56,63 142,163 184,125 42,-37 -47,-131 -105,-195zm-669 155l261 -192 49 68c7,21 -9,266 25,359 42,112 139,122 153,-21l90 16c-7,73 -25,124 -80,164 -143,106 -273,-37 -281,-234l1 -197 -159 118 -59 -81z">
  </path>
 </g>
 <g class="black_layer" fill="#000" stroke="#000" stroke-width="0.8mm" style="shape-rendering: geometricPrecision">
  <g transform="scale(1.45) translate(0, 500)">
   <polygon points="9799,50099 43939,30294 55374,50099 ">
   </polygon>
   <g>
    <path d="M36154 31515c-318,-554 -432,-1034 -342,-1442 89,-407 345,-732 766,-974 425,-244 835,-302 1232,-174 397,128 754,468 1072,1022 321,559 437,1040 347,1447 -89,407 -343,731 -759,970 -430,247 -842,306 -1239,178 -397,-128 -756,-469 -1077,-1027zm925 -528c232,403 433,645 603,726 131,64 259,60 382,-11 127,-73 196,-180 205,-321 15,-190 -95,-487 -326,-890 -232,-403 -432,-648 -601,-732 -129,-62 -257,-55 -384,17 -127,73 -195,180 -204,321 -15,190 94,487 325,890z">
    </path>
    <polygon points="35179,34244 34302,34747 33838,26321 34695,25828 ">
    </polygon>
    <path d="M30101 30633c-318,-552 -430,-1031 -340,-1437 90,-406 343,-729 759,-968 430,-247 843,-308 1238,-183 395,125 752,465 1071,1021 317,552 431,1030 341,1436 -90,406 -344,730 -760,969 -430,247 -842,307 -1237,182 -395,-125 -753,-464 -1072,-1020zm924 -531c229,399 428,640 600,723 129,60 256,54 379,-17 127,-72 197,-180 210,-321 12,-189 -97,-482 -326,-881 -229,-398 -427,-639 -594,-721 -130,-63 -259,-57 -386,15 -124,71 -193,178 -205,319 -15,191 93,485 322,883z">
    </path>
    <path d="M31348 34665l630 1097 -4153 2386c-195,-443 -286,-915 -276,-1417 10,-501 171,-1252 478,-2249 248,-805 380,-1331 399,-1577 22,-338 -35,-627 -173,-868 -152,-264 -339,-427 -563,-487 -223,-62 -459,-20 -708,123 -248,143 -401,330 -461,564 -61,231 -2,527 174,887l-1250 562c-305,-694 -354,-1290 -147,-1788 209,-497 590,-905 1147,-1225 610,-351 1184,-461 1723,-332 538,129 947,439 1229,930 161,279 263,573 309,883 45,309 38,663 -20,1064 -37,266 -146,679 -323,1238 -178,560 -284,924 -318,1094 -37,170 -53,327 -54,469l2357 -1354z">
    </path>
    <path d="M26201 39081l-1183 680 -2571 -4475c-199,654 -535,1247 -1011,1779l-620 -1079c252,-279 477,-663 675,-1154 201,-490 259,-962 178,-1415l960 -552 3572 6216z">
    </path>
   </g>
  </g>
 </g>
</svg>
