<svg role="img" style="shape-rendering: geometricPrecision;
text-rendering: optimizeLegibility; fill-rule:evenodd; clip-rule:evenodd;" version="1.1" viewbox="0 0 75000 75000" width="140px" xml:space="preserve" xmlns="http://www.w3.org/2000/svg">
 <title>
  3.24 временный
 </title>
 <g fill="#FFD323" stroke="gray" stroke-width="800">
  <circle cx="37500" cy="37500" r="35000">
  </circle>
 </g>
 <g class="blue_layer" fill="#0177D9" style="fill-rule: evenodd; clip-rule: nonzero;">
 </g>
 <g fill="red">
  <path d="M37500 3500c18778,0 34000,15222 34000,34000 0,18778 -15222,34000 -34000,34000 -18778,0 -34000,-15222 -34000,-34000 0,-18778 15222,-34000 34000,-34000zm0 6000c15464,0 28000,12536 28000,28000 0,15464 -12536,28000 -28000,28000 -15464,0 -28000,-12536 -28000,-28000 0,-15464 12536,-28000 28000,-28000z">
  </path>
 </g>
 <g class="black_layer" fill="#000" stroke="#000" stroke-width="0.8mm" style="shape-rendering: geometricPrecision">
  <symbol id="digit 4 fill #000">
   <path d="M5427 12305l0 -2161 -5005 0 0 -1943 5143 -7506 1871 0 0 7498 1142 0 -363 1951 -779 0 0 2161 -2009 0zm-163 -4112l0 -4300 -2753 4300 2753 0z" fill="#000">
   </path>
  </symbol>
  <g transform="scale(2.1) translate(8500, 11500)">
   <use x="1" xlink:href="#digit 4 fill #000" y="0">
   </use>
   <use x="9401" xlink:href="#digit 0 fill #000" y="0">
   </use>
  </g>
 </g>
</svg>
