<svg role="img" style="shape-rendering: geometricPrecision;
text-rendering: optimizeLegibility; fill-rule:evenodd; clip-rule:evenodd;" version="1.1" viewbox="0 0 75000 75000" width="140px" xml:space="preserve" xmlns="http://www.w3.org/2000/svg">
 <title>
  3.17.3
 </title>
 <g fill="#FFF" stroke="gray" stroke-width="800">
  <circle cx="37500" cy="37500" r="35000">
  </circle>
 </g>
 <g class="blue_layer" fill="#0177D9" style="fill-rule: evenodd; clip-rule: nonzero;">
 </g>
 <g fill="red">
  <path d="M37500 3500c18778,0 34000,15222 34000,34000 0,18778 -15222,34000 -34000,34000 -18778,0 -34000,-15222 -34000,-34000 0,-18778 15222,-34000 34000,-34000zm0 6000c15464,0 28000,12536 28000,28000 0,15464 -12536,28000 -28000,28000 -15464,0 -28000,-12536 -28000,-28000 0,-15464 12536,-28000 28000,-28000z">
  </path>
 </g>
 <g class="black_layer" fill="#000" stroke="#000" stroke-width="0.8mm" style="shape-rendering: geometricPrecision">
  <symbol id="3_17_3">
   <path d="M26369 28997c616,574 1179,849 1690,829 421,0 731,-80 929,-238 198,-160 303,-365 318,-618 15,-253 -110,-456 -373,-610 -261,-155 -672,-284 -1229,-389 -556,-106 -991,-316 -1302,-630 -310,-313 -465,-675 -465,-1085 0,-413 94,-758 281,-1039 187,-282 442,-510 764,-686 323,-177 732,-266 1227,-266 816,0 1550,274 2207,821l-722 801c-452,-374 -893,-561 -1327,-561 -432,0 -751,76 -956,231 -207,155 -312,385 -313,694 -2,307 316,528 951,663 636,135 1118,272 1447,411 327,138 585,349 772,637 188,286 274,613 259,979 -15,367 -126,709 -332,1025 -206,317 -498,560 -876,729 -377,168 -847,254 -1408,254 -795,-15 -1580,-409 -2353,-1180l811 -772zm10254 -3497l-1751 0 0 5319 -1140 0 0 -5333 -1751 0 0 -1047 4642 0 0 1061zm4003 5404c-743,0 -1357,-317 -1842,-953 -487,-636 -729,-1402 -729,-2299 0,-898 242,-1664 729,-2300 485,-636 1099,-953 1841,-953 717,-1 1318,317 1803,953 486,636 728,1402 728,2300 0,897 -242,1664 -728,2299 -485,636 -1086,954 -1802,953zm9 -1056c398,0 730,-213 993,-642 264,-428 397,-944 397,-1550 0,-605 -133,-1122 -397,-1551 -263,-427 -595,-640 -993,-640 -431,-1 -778,213 -1039,640 -260,428 -391,946 -391,1551 0,605 131,1123 391,1550 262,429 608,642 1039,642zm4596 976l0 -6380 2013 0c484,0 891,96 1223,289 331,193 577,421 736,686 159,264 226,571 237,919 19,570 -127,1080 -471,1528 -345,449 -895,672 -1649,672l-940 0 0 2286 -1149 0zm1149 -3258l735 0c306,0 581,-94 825,-282 247,-189 381,-497 369,-925 -8,-291 -151,-512 -393,-668 -240,-154 -515,-231 -819,-231l-717 0 0 2106z">
   </path>
   <path d="M15690 44440l4113 0 0 1060 -3004 0 0 1448 1226 0c810,21 1370,222 1678,604 311,382 470,806 480,1274 10,469 -77,848 -262,1138 -185,292 -437,510 -750,656 -313,145 -652,219 -1017,219l-2464 -1 0 -6398zm38309 0l1291 0 1574 3208 1211 -3208 1235 0 -1943 4963c-307,675 -661,1110 -1066,1306 -402,196 -845,216 -1327,63l-236 -1053c274,43 547,47 824,14 277,-32 508,-257 695,-672l-2258 -4621zm-4061 4041l1563 0 -832 -2376 -731 2376zm1399 -4041l2143 6380 -1305 0 -424 -1318 -2107 0 -411 1318 -1304 0 2120 -6380 1288 0zm-8585 0l4046 0 0 6385 -1154 0 0 -5325 -1697 0 0 2540c0,773 -126,1342 -375,1708 -250,368 -540,642 -873,824 -333,183 -680,308 -1043,373l-236 -1146c374,-44 693,-223 958,-538 265,-314 389,-716 374,-1203l0 -3618zm-7477 0l0 2374 1162 0c782,34 1346,221 1691,565 347,342 511,810 497,1403 -14,592 -177,1042 -488,1348 -310,305 -614,497 -914,575 -298,77 -660,115 -1084,115l-2014 0 0 -6380 1150 0zm0 5364l717 0c573,0 973,-85 1198,-254 226,-168 343,-404 354,-704 11,-299 -99,-544 -330,-733 -229,-189 -631,-283 -1204,-283l-735 0 0 1974zm5020 -5364l0 6380 -1136 0 0 -6380 1136 0zm-8489 6362l-362 0 -1028 -1697c-295,-540 -548,-893 -761,-1059 -211,-164 -476,-217 -791,-158l1 2914 -1114 0 0 -6371 1114 0 0 2370c214,30 405,-32 577,-187 171,-154 499,-575 984,-1261 485,-686 1000,-1025 1539,-1016l303 958c-471,131 -839,432 -1104,905 -327,530 -628,913 -905,1145 414,85 821,526 1226,1323l748 1275 638 0 -63 1983 -797 -9 -205 -1115zm-8732 -2321l1563 0 -832 -2376 -731 2376zm1399 -4041l2143 6380 -1305 0 -424 -1318 -2107 0 -410 1318 -1306 0 2121 -6380 1288 0zm-7674 5369l820 0c900,56 1361,-249 1383,-919 23,-668 -436,-984 -1379,-949l-824 0 0 1868z">
   </path>
  </symbol>
  <g transform="scale(1)">
   <rect height="6000" rx="2963" ry="3000" width="45156" x="14922" y="34500">
   </rect>
   <use x="1" xlink:href="#3_17_3" y="1">
   </use>
  </g>
 </g>
</svg>
