<svg role="img" style="shape-rendering: geometricPrecision;
text-rendering: optimizeLegibility; fill-rule:evenodd; clip-rule:evenodd;" version="1.1" viewbox="0 0 75000 110000" width="140px" xml:space="preserve" xmlns="http://www.w3.org/2000/svg">
 <title>
  5.38
 </title>
 <g fill="#FFF" stroke="gray" stroke-width="800">
  <rect height="105000" rx="4500" ry="4500" width="70000" x="2500" y="2500">
  </rect>
 </g>
 <g class="blue_layer" fill="#0177D9" style="fill-rule: evenodd; clip-rule: nonzero;">
  <path d="M37958 22954c0,-1062 -847,-1923 -1892,-1923 -1046,0 -1893,861 -1893,1923 0,1062 847,1922 1893,1922 1045,0 1892,-860 1892,-1922zm6093 77993c326,266 740,355 1154,296 384,-89 739,-325 946,-680l5206 -7779c88,-118 177,-237 325,-296l5472 -3608c414,-266 562,-799 355,-1242l-3905 -6596 4851 -7926c414,-710 355,-1627 -799,-2248 -621,-326 -1390,-59 -1774,532l-6714 11003c-207,295 -207,680 -30,1005l2721 4555 -2839 2218c-118,89 -237,207 -325,355l-5235 8400c-355,621 -207,1390 355,1834l236 177 0 0zm1449 -11860l4200 -2987 -1449 -2426 -2514 1805 -2129 -3224c-1006,-1657 -3461,-59 -2603,1538l3372 5028c325,355 709,443 1123,266l0 0zm13073 8488c-414,30 -1064,-118 -1508,-857l-2869 -4821 2721 -1775 2691 4496 4289 0c1035,118 976,3076 0,2957l-5324 0zm-7897 -21443c1834,-4998 -3490,-4436 -5412,-1419 -592,946 -799,2129 -325,3076 621,1035 1123,2425 2573,2366 1478,-59 2721,-2869 3164,-4023l0 0zm-11950 22508c0,-1469 -1191,-2660 -2660,-2660 -1470,0 -2660,1191 -2660,2660 0,1469 1190,2660 2660,2660 1469,0 2660,-1191 2660,-2660zm-25671 -10440c-1952,3164 -4969,118 -3549,-2189l8252 -14581 3076 2455 -7779 14315 0 0zm11860 -41230c-680,-858 -1627,-1361 -2662,-1183 -1005,177 -1833,946 -2188,2011 -355,1094 -119,2278 562,3135 798,1095 1922,1804 3135,2218 917,296 1981,-29 2307,-1035 562,-1774 -30,-3726 -1154,-5146l0 0zm976 16090l0 4761 3313 2899c1863,1213 3845,-1627 2129,-3224l-5442 -4436zm-6773 -34339l3756 0 0 2573c0,1302 -769,1952 -1863,1952 -1213,-29 -1863,-650 -1893,-1952l0 -2573zm15055 0l3756 0 0 2573c0,1302 -769,1952 -1893,1952 -1213,-29 -1863,-650 -1863,-1952l0 -2573zm-11299 -5767c0,-1062 -860,-1923 -1922,-1923 -1062,0 -1923,861 -1923,1923 0,1062 861,1922 1923,1922 1062,0 1922,-860 1922,-1922zm-16298 -18454l41468 0 0 42500 22880 0 0 56000c0,1375 -1125,2500 -2500,2500l-61848 0c-1375,0 -2500,-1125 -2500,-2500l0 -96000c0,-1375 1125,-2500 2500,-2500zm13814 15230l16267 0 -1863 -5146c-119,-326 -207,-621 -621,-651l-11299 0c-355,0 -591,296 -739,651l-1745 5146 0 0zm-1272 7719l18811 0c1242,0 1715,-650 1863,-1301l0 -5146c-89,-740 -828,-858 -1242,-1272l-2514 -6448c-444,-1271 -621,-1271 -1863,-1271l-11299 0c-621,0 -1242,0 -1863,1271l-2514 6448c-414,414 -1153,532 -1242,1272l0 5146c0,651 621,1301 1863,1301zm15025 61431l-3845 -13191c-59,-178 -148,-355 -296,-503l-5797 -5886 740 -12540c0,-296 -119,-562 -326,-740l-3756 -2957c-296,-237 -1124,-237 -1419,-30l-7513 6093c-858,710 -1005,1567 -1005,1893l0 7335c29,2543 3223,2750 3223,-207l237 -5413c0,-325 148,-1035 414,-1183l4289 -3372 -503 11861 7838 7039c177,118 266,325 325,532l3579 11890c562,2425 4288,1538 3815,-621l0 0zm21246 -50972l6004 0 0 -8636 -6004 0 0 8636zm0 -13457l6004 0 0 -8636 -6004 0 0 8636zm-5363 20567l0 -40518 5363 0 0 6494 6004 0 0 -6494 5324 0 0 6494 4207 0 0 4821 -4207 0 0 8636 4207 0 0 4821 -4207 0 0 8636 4207 0 0 7110 -20898 0z">
  </path>
 </g>
 <g fill="red">
 </g>
</svg>
