<svg role="img" style="shape-rendering: geometricPrecision;
text-rendering: optimizeLegibility; fill-rule:evenodd; clip-rule:evenodd;" version="1.1" viewbox="0 0 75000 110000" width="140px" xml:space="preserve" xmlns="http://www.w3.org/2000/svg">
 <title>
  6.5
 </title>
 <g fill="#FFF" stroke="gray" stroke-width="800">
  <rect height="105000" rx="4500" ry="4500" width="70000" x="2500" y="2500">
  </rect>
 </g>
 <g class="blue_layer" fill="#0177D9" style="fill-rule: evenodd; clip-rule: nonzero;">
  <rect height="101000" rx="2500" ry="2500" width="66000" x="4500" y="4500">
  </rect>
  <rect fill="#FFFFFF" height="57000" rx="2000" ry="2000" width="57000" x="9000" y="17500">
  </rect>
 </g>
 <g fill="red">
 </g>
 <g class="black_layer" fill="#000" stroke="#000" stroke-width="0.8mm" style="shape-rendering: geometricPrecision">
  <symbol id="cleaning-place">
   <path d="M13229 43841l0 0 -4639 0 0 2410c40,874 529,1657 1279,2049 751,392 1646,332 2342,-156 696,-489 1085,-1331 1017,-2202l1 -2101zm16712 2410l0 -2410 4644 0 -5 2101c67,871 -322,1713 -1018,2202 -696,488 -1591,548 -2342,156 -750,-393 -1239,-1175 -1279,-2049zm5407 -13149c0,-335 -231,-621 -548,-677 -339,-61 -623,-301 -751,-633l-2982 -7314c-251,-652 -857,-1079 -1532,-1079l-15755 0c-682,0 -1293,436 -1538,1097l-2900 7285c-132,356 -443,607 -807,651 -331,41 -582,334 -582,682l0 2499 0 0 0 5810c0,320 123,628 340,855 218,227 513,354 821,354l25073 0c641,0 1161,-541 1161,-1209l0 -8321zm-6256 -8252c521,0 978,361 1119,883l2137 5662 -21359 0 2348 -5705c154,-500 601,-840 1107,-840l14648 0zm-27761 24150l12604 -38850 -1176 0 -12604 38850 1176 0zm42014 0l-1176 0 -13277 -38675 1177 0 13276 38675zm-27393 -26972l1345 -11703 -1177 0 -1512 11703 1344 0zm12604 0l-1848 -11703 -1009 0 1681 11703 1176 0zm-7730 0l0 -11703 1344 0 0 11703 -1344 0zm-7899 -13103l17310 0 0 -1428c0,-828 -316,-1622 -879,-2208 -560,-583 -1328,-914 -2120,-914l-557 0c-795,0 -1558,-329 -2120,-914 -562,-586 -879,-1379 -879,-2207l1 -1254 -4370 0 0 1429c0,1723 -1342,3121 -2998,3121l-389 0c-796,0 -1558,329 -2121,914 -562,586 -878,1380 -878,2208l0 1253z">
   </path>
  </symbol>
  <g transform="scale(0.95)">
   <use x="18000" xlink:href="#cleaning-place" y="23000">
   </use>
  </g>
 </g>
</svg>
