<svg role="img" style="shape-rendering: geometricPrecision;
text-rendering: optimizeLegibility; fill-rule:evenodd; clip-rule:evenodd;" version="1.1" viewbox="0 0 185000 95000" width="240px" xml:space="preserve" xmlns="http://www.w3.org/2000/svg">
 <title>
  5.8.7а
 </title>
 <g fill="#FFF" stroke="gray" stroke-width="800">
  <rect height="90000" rx="4500" ry="4500" width="180000" x="2500" y="2500">
  </rect>
 </g>
 <g class="blue_layer" fill="#0177D9" style="fill-rule: evenodd; clip-rule: nonzero;">
  <symbol id="5_8_7а">
   <path d="M94338 10734l2500 0 0 -7234 -2500 0 0 7234zm0 10128l2500 0 0 -7234 -2500 0 0 7234zm0 10127l2500 0 0 -7234 -2500 0 0 7234zm0 10128l2500 0 0 -7234 -2500 0 0 7234zm0 10128l2500 0 0 -7234 -2500 0 0 7234zm0 10127l2500 0 0 -7234 -2500 0 0 7234zm0 10128l2500 0 0 -7234 -2500 0 0 7234zm-46111 0l2500 0 0 -68000 -2500 0 0 68000z" fill="#FFF">
   </path>
  </symbol>
  <symbol id="3_4_mini">
   <g>
    <circle cx="37500" cy="37500" fill="#FFF" r="37000">
    </circle>
    <path d="M37500 3500c18778,0 34000,15222 34000,34000 0,18778 -15222,34000 -34000,34000 -18778,0 -34000,-15222 -34000,-34000 0,-18778 15222,-34000 34000,-34000zm0 6000c15464,0 28000,12536 28000,28000 0,15464 -12536,28000 -28000,28000 -15464,0 -28000,-12536 -28000,-28000 0,-15464 12536,-28000 28000,-28000z" fill="red">
    </path>
    <path d="M28652 31735l0 10017 29648 0 0 4513c-1392,-2 -2785,-2 -4177,-3 -96,-2406 -2087,-4445 -4517,-4445 -2430,0 -4422,2040 -4517,4447 -5652,2 -11305,3 -16958,-9 -126,-2378 -2104,-4385 -4514,-4385 -2398,0 -4369,1989 -4512,4351 -923,-5 -1845,-11 -2768,-17 -740,-4 -1337,-686 -1337,-1524l0 -7070c0,-360 112,-708 315,-983l4157 -5874c255,-344 631,-542 1027,-542l6810 0c357,0 698,161 950,447 252,286 393,684 393,1077zm20936 10709c2217,0 4014,1791 4014,4000 0,2209 -1797,4000 -4014,4000 -2217,0 -4015,-1791 -4015,-4000 0,-2209 1798,-4000 4015,-4000zm0 2050c1085,0 1964,873 1964,1950 0,1077 -879,1950 -1964,1950 -1085,0 -1965,-873 -1965,-1950 0,-1077 880,-1950 1965,-1950zm-25952 -1997c2217,0 4014,1790 4014,4000 0,2209 -1797,4000 -4014,4000 -2218,0 -4015,-1791 -4015,-4000 0,-2210 1797,-4000 4015,-4000zm0 2050c1084,0 1964,873 1964,1950 0,1077 -880,1950 -1964,1950 -1085,0 -1965,-873 -1965,-1950 0,-1077 880,-1950 1965,-1950zm33322 -20044c357,0 698,160 950,446 251,286 392,673 392,1078l0 14455 -27739 0 0 -14455c0,-405 141,-793 393,-1078 251,-286 594,-446 949,-446l25055 0zm-36939 7254l-1645 2244c-334,453 -401,1089 -184,1621 217,529 695,877 1215,877l5785 0c740,0 1342,-684 1342,-1523l0 -2244c0,-404 -142,-793 -394,-1078 -251,-286 -593,-446 -948,-446l-4139 0c-399,0 -777,200 -1032,549z" fill="#000" stroke="#FFF" stroke-width="500">
    </path>
   </g>
  </symbol>
  <rect height="86000" rx="2500" ry="2500" width="176000" x="4500" y="4500">
  </rect>
  <g transform="scale(1.280)">
   <use x="1" xlink:href="#5_8_7а" y="-500">
   </use>
  </g>
  <g fill="#FFF" transform="scale(1.280)">
   <use x="17000" xlink:href="#arrow down direction" y="2500">
   </use>
  </g>
  <g fill="#FFF" transform="scale(1.280)">
   <use x="63000" xlink:href="#arrow up direction" y="9000">
   </use>
  </g>
  <g fill="#FFF" transform="scale(1.280)">
   <use x="109500" xlink:href="#arrow up direction" y="9000">
   </use>
  </g>
  <g fill="#FFF" transform="scale(0.35)">
   <use x="228000" xlink:href="#3_4_mini" y="130000">
   </use>
  </g>
 </g>
 <g fill="red">
 </g>
 <g class="black_layer" fill="#000" stroke="#000" stroke-width="0.8mm" style="shape-rendering: geometricPrecision">
 </g>
</svg>
