<svg role="img" style="shape-rendering: geometricPrecision;
text-rendering: optimizeLegibility; fill-rule:evenodd; clip-rule:evenodd;" version="1.1" viewbox="0 0 75000 40000" width="140px" xml:space="preserve" xmlns="http://www.w3.org/2000/svg">
 <title>
  7.21
 </title>
 <g fill="#FFF" stroke="gray" stroke-width="800">
  <rect height="35000" rx="4500" ry="4500" width="70000" x="2500" y="2500">
  </rect>
 </g>
 <g class="blue_layer" fill="#0177D9" style="fill-rule: evenodd; clip-rule: nonzero;">
 </g>
 <g fill="red">
 </g>
 <g class="black_layer" fill="#000" stroke="#000" stroke-width="0.8mm" style="shape-rendering: geometricPrecision">
  <symbol id="7_22">
   <g>
    <path d="M57014 18063c826,-1556 234,-3494 -1319,-4319 -1553,-826 -3490,-232 -4315,1324 -827,1555 -230,3485 1323,4311 1553,826 3485,241 4311,-1316zm-57014 1927l67000 0 0 1000 -67000 0 0 -1000zm27 -4115l7210 0c26,-2554 2105,-4617 4665,-4617 2559,0 4637,2063 4663,4617l3832 0 0 -6912 -2068 0 0 -4734 9140 10383 8647 0c105,0 192,-87 192,-192l0 -859c0,-105 -87,-191 -192,-191l-7965 0 -9822 -11201 0 -2159 -1437 0 0 2081 -11927 6872 -4938 0 0 6912zm16865 -6912l-9050 0 9050 -5215 0 5215zm22780 -5597l-9183 -679c-709,-77 -993,-50 -1460,448 -836,893 -1078,2226 -1186,3412l1742 1823c1176,-3914 8465,-3496 7620,2719l12801 4120c2668,-5180 8453,-2437 8306,1433l1354 179 2042 -3377c272,-442 542,-710 409,-1144l-4617 -7519c-134,-434 -1001,-689 -1455,-838l-9590 -3014c-321,-91 -621,-68 -954,46 -2413,565 -3609,1201 -5829,2391zm16118 1112c438,141 757,551 898,971l749 2471c109,460 -49,947 -417,1256 -370,309 -885,397 -1359,248l-12894 -4166c-498,-162 -865,-564 -966,-1039 -104,-487 81,-977 470,-1276l2769 -1220c574,-257 1073,-292 1527,-144l9223 2899zm-40476 13305c1025,-1886 327,-4256 -1557,-5281 -1882,-1025 -4250,-323 -5275,1563 -1024,1886 -321,4245 1563,5269 1882,1026 4244,335 5269,-1551zm-1162 -635c675,-1245 214,-2806 -1027,-3483 -1242,-676 -2803,-213 -3478,1032 -677,1244 -212,2799 1030,3474 1242,676 2799,221 3475,-1023zm21847 -5690c825,-1556 233,-3494 -1320,-4320 -1553,-826 -3489,-231 -4316,1324 -826,1556 -229,3486 1324,4312 1553,825 3485,240 4312,-1316zm-960 -511c545,-1026 155,-2305 -869,-2849 -1025,-545 -2302,-153 -2846,874 -545,1025 -152,2298 872,2843 1025,543 2298,158 2843,-868zm21016 6605c545,-1026 155,-2305 -870,-2849 -1024,-544 -2301,-153 -2846,874 -545,1025 -151,2298 873,2843 1024,544 2299,158 2843,-868z">
    </path>
   </g>
  </symbol>
  <g transform="scale(1)">
   <use x="4000" xlink:href="#7_22" y="10000">
   </use>
  </g>
  <use x="0" xlink:href="#border 350x700" y="0">
  </use>
 </g>
</svg>
