<svg role="img" style="shape-rendering: geometricPrecision;
text-rendering: optimizeLegibility; fill-rule:evenodd; clip-rule:evenodd;" version="1.1" viewbox="0 0 118000 105000" width="140px" xml:space="preserve" xmlns="http://www.w3.org/2000/svg">
 <title>
  1.23 временный
 </title>
 <g fill="#FFD323" stroke="gray" stroke-width="800">
  <path d="M58999 2791c1665,0 3119,904 3897,2248l1 0 52156 90336c33,55 65,110 96,167l5 9 0 0c351,641 551,1376 551,2158 0,2486 -2015,4500 -4500,4500l-104410 -4c-2485,0 -4500,-2015 -4500,-4500 0,-797 208,-1545 571,-2194l-1 0 12 -20c11,-20 23,-40 34,-59l52187 -90391 3 0c778,-1345 2232,-2250 3898,-2250z">
  </path>
 </g>
 <g class="blue_layer" fill="#0177D9" style="fill-rule: evenodd; clip-rule: nonzero;">
 </g>
 <g fill="red">
  <path d="M55624 6130l-51847 89802c-10,17 -20,35 -30,52l-9 16c-292,522 -443,1106 -443,1705 0,1933 1567,3500 3500,3500l104410 4c1933,1 3500,-1566 3500,-3500 0,-586 -145,-1159 -426,-1674l-1 -2 -5 -9c-24,-44 -49,-87 -75,-129l-5 -10 -51817 -89748 0 0 -345 -597c-627,-1082 -1777,-1749 -3032,-1749 -1255,0 -2406,667 -3032,1751l-341 589 -2 -1zm3374 12157c368,0 690,199 863,495l0 0 4 6 1 3 41787 72376c100,155 158,340 158,539 0,552 -448,1000 -1000,1000l-83623 0c-553,0 -1000,-448 -1000,-1000 0,-183 48,-354 134,-501l-1 0 41809 -72414 2 -3 3 -6 0 0c174,-296 495,-495 863,-495z">
  </path>
 </g>
 <g class="black_layer" fill="#000" stroke="#000" stroke-width="0.8mm" style="shape-rendering: geometricPrecision">
  <g transform="scale(1.73) translate(1600, 2200)">
   <path d="M44989 43433c1894,-962 1295,-3725 3387,-4495l6133 10622 -18014 0c1116,-2378 2524,-4095 4793,-4466 463,-76 2631,-774 3065,-962l-5638 -3723c-540,872 -2349,418 -2367,1335l-128 6149c-33,1566 -3307,1574 -3292,-64l-138 -7645 -6077 -3848c-1275,-843 -560,-2894 110,-3779l-2372 -1567 -921 1152c-1045,1069 -2879,111 -2123,-1565l4157 -5822c191,-269 499,-400 825,-428l4867 -417c365,0 676,218 885,524l2582 3785 3076 10467 7190 4747zm-9327 -23139c-617,-145 -1307,-61 -1684,452 -859,1172 -845,4091 379,5362 869,901 1920,229 2430,-266 958,-929 1581,-1714 1682,-2590 130,-1129 -584,-2432 -2807,-2958zm-2717 11828l-1788 2177 2712 1791 -924 -3968zm-2755 -4657l-2763 -53c-334,0 -646,166 -837,445l-1612 2362 2440 1587 2772 -4341zm-5932 21799l4591 -7197c198,-232 284,-541 236,-844l-90 -2569 -3199 -1941 15 3858c27,287 -64,572 -251,787l-3686 5882c-855,1447 1273,2888 2384,2024z">
   </path>
  </g>
 </g>
</svg>
