<svg role="img" style="shape-rendering: geometricPrecision;
text-rendering: optimizeLegibility; fill-rule:evenodd; clip-rule:evenodd;" version="1.1" viewbox="0 0 75000 75000" width="140px" xml:space="preserve" xmlns="http://www.w3.org/2000/svg">
 <title>
  3.5
 </title>
 <g fill="#FFF" stroke="gray" stroke-width="800">
  <circle cx="37500" cy="37500" r="35000">
  </circle>
 </g>
 <g class="blue_layer" fill="#0177D9" style="fill-rule: evenodd; clip-rule: nonzero;">
 </g>
 <g fill="red">
  <path d="M37500 3500c18778,0 34000,15222 34000,34000 0,18778 -15222,34000 -34000,34000 -18778,0 -34000,-15222 -34000,-34000 0,-18778 15222,-34000 34000,-34000zm0 6000c15464,0 28000,12536 28000,28000 0,15464 -12536,28000 -28000,28000 -15464,0 -28000,-12536 -28000,-28000 0,-15464 12536,-28000 28000,-28000z">
  </path>
 </g>
 <g class="black_layer" fill="#000" stroke="#000" stroke-width="0.8mm" style="shape-rendering: geometricPrecision">
  <symbol id="3_5">
   <path d="M37588 9340c4031,0 7321,3286 7321,7317 0,4030 -3290,7321 -7321,7321 -4030,0 -7316,-3291 -7316,-7321 0,-2971 1784,-5535 4334,-6681l-882 -2987 -8611 0 935 -1611c323,-559 1090,-876 1734,-876l8216 0c871,0 2337,331 2337,1211l0 1276 -2805 0 738 2469c428,-77 871,-118 1320,-118zm-2323 2853l796 2687c-501,431 -819,1071 -819,1779 0,1291 1055,2347 2346,2347 1292,0 2347,-1056 2347,-2347 0,-1246 -985,-2272 -2213,-2342l-794 -2651c216,-29 438,-43 660,-43 2774,0 5039,2261 5039,5034 0,2773 -2265,5038 -5039,5038 -2773,0 -5033,-2265 -5033,-5038 0,-1936 1101,-3622 2710,-4464zm-6403 7153c-263,-851 -406,-1754 -406,-2689 0,-2512 1092,-4737 2676,-6448 996,-1075 -204,-1271 -679,-1271l-6545 0 -2201 3554c-295,477 -840,945 -1403,945l-2069 0c-663,0 -1392,-629 -1535,-1276l-803 -3563c-147,-667 588,-1611 1271,-1611l3672 0c2399,0 2725,-3690 0,-3690l-7074 0 862 -2082 1739 0c842,0 835,-1193 0,-1193l-5392 0c-307,0 -654,347 -654,654l0 1919c0,329 374,699 704,699l935 0 -2651 6296c-604,-163 -1239,-250 -1897,-250 -4031,0 -7321,3286 -7321,7317 0,4030 3290,7321 7321,7321 4030,0 7316,-3291 7316,-7321 0,-2773 -1552,-5193 -3830,-6432l2162 -5226 3037 11456c563,2119 1663,2891 3940,2891l8825 0zm-19905 -4443c488,428 799,1059 799,1756 0,1291 -1055,2347 -2347,2347 -1291,0 -2346,-1056 -2346,-2347 0,-1260 1005,-2297 2255,-2344l1092 -2597c-322,-63 -654,-95 -998,-95 -2774,0 -5039,2261 -5039,5034 0,2773 2265,5038 5039,5038 2773,0 5033,-2265 5033,-5038 0,-1825 -976,-3427 -2428,-4308l-1060 2554z">
   </path>
  </symbol>
  <g transform="scale(1)">
   <use x="15000" xlink:href="#3_5" y="25500">
   </use>
  </g>
 </g>
</svg>
