<svg role="img" style="shape-rendering: geometricPrecision;
text-rendering: optimizeLegibility; fill-rule:evenodd; clip-rule:evenodd;" version="1.1" viewbox="0 0 75000 110000" width="140px" xml:space="preserve" xmlns="http://www.w3.org/2000/svg">
 <title>
  6.13
 </title>
 <g fill="#FFF" stroke="gray" stroke-width="800">
  <rect height="105000" rx="4500" ry="4500" width="70000" x="2500" y="2500">
  </rect>
 </g>
 <g class="blue_layer" fill="#0177D9" style="fill-rule: evenodd; clip-rule: nonzero;">
  <rect height="101000" rx="2500" ry="2500" width="66000" x="4500" y="4500">
  </rect>
  <rect fill="#FFFFFF" height="57000" rx="2000" ry="2000" width="57000" x="9000" y="17500">
  </rect>
 </g>
 <g fill="red">
 </g>
 <g class="black_layer" fill="#000" stroke="#000" stroke-width="0.8mm" style="shape-rendering: geometricPrecision">
  <symbol id="control_text">
   <path d="M3426 119l0 3453 -624 0 0 -3453 624 0zm3748 0l0 3453 -726 0 -1297 -2418 0 2418 -671 0 0 -3453 772 0 1298 2366 0 -2366 624 0zm3432 574l-948 0 0 2879 -617 0 0 -2887 -947 0 0 -566 2512 0 0 574zm912 2879l0 -3453 2187 0 0 552 -1570 0 0 818 1252 0 0 549 -1252 0 0 963 1568 0 0 571 -2185 0zm3869 -1953l349 0c246,0 428,-45 544,-130 115,-84 178,-205 174,-355 -4,-141 -71,-251 -175,-325 -105,-74 -293,-114 -552,-114l-340 0 0 924zm2122 1958l-716 0 -456 -880c-116,-223 -239,-357 -331,-415 -92,-58 -206,-90 -328,-90l-291 0 0 1382 -647 0 0 -3453 1066 0c230,0 407,14 526,34 169,29 304,82 402,161 98,79 184,191 252,333 68,142 110,303 105,473 -9,372 -224,660 -622,861 153,29 308,179 449,451l591 1143zm3316 -3458l0 3453 -726 0 -1297 -2418 0 2418 -671 0 0 -3453 772 0 1297 2366 0 -2366 625 0zm1798 2213l842 0 -437 -1357 -405 1357zm726 -2213l1187 3453 -697 0 -234 -663 -1122 0 -226 663 -697 0 1126 -3453 663 0zm3854 574l-947 0 0 2879 -617 0 0 -2887 -948 0 0 -566 2512 0 0 574zm1363 -574l0 3453 -624 0 0 -3453 624 0zm2130 3499c-402,0 -735,-173 -997,-516 -262,-344 -394,-759 -394,-1245 0,-485 132,-901 394,-1244 262,-343 595,-516 997,-516 388,0 713,173 975,516 263,343 395,759 395,1244 0,486 -132,901 -395,1245 -262,343 -587,516 -975,516zm5 -572c216,0 395,-116 537,-347 143,-231 215,-512 215,-839 0,-328 -72,-608 -215,-840 -141,-230 -321,-346 -537,-346 -233,0 -422,115 -562,346 -141,231 -212,512 -212,840 0,327 71,608 212,839 141,231 329,347 562,347zm4717 -2927l0 3453 -726 0 -1297 -2418 0 2418 -671 0 0 -3453 772 0 1298 2366 0 -2366 624 0zm1699 2213l841 0 -436 -1357 -405 1357zm726 -2213l1186 3453 -697 0 -234 -663 -1121 0 -227 663 -697 0 1126 -3453 664 0zm1897 3453l0 -3453 641 0 0 2882 1543 0 0 571 -2184 0zm-38943 4164l348 0c247,0 428,-43 545,-129 116,-85 179,-205 174,-356 -5,-141 -70,-250 -175,-325 -106,-75 -292,-113 -553,-113l-339 0 0 923zm2122 1958l-717 0 -456 -880c-115,-223 -238,-355 -331,-414 -92,-59 -203,-90 -327,-90l-291 0 0 1382 -647 0 0 -3453 1066 0c230,0 406,13 525,34 170,29 305,82 403,161 98,79 183,190 252,333 69,142 110,302 105,473 -10,373 -224,659 -622,860 153,30 307,178 449,451l591 1143zm1798 41c-402,0 -735,-172 -997,-516 -263,-343 -394,-758 -394,-1244 0,-486 131,-901 394,-1245 262,-343 595,-516 997,-516 388,0 713,173 975,516 263,344 395,759 395,1245 0,486 -132,901 -395,1244 -262,344 -587,517 -975,516zm5 -572c216,0 395,-115 537,-347 143,-231 215,-511 215,-839 0,-327 -72,-608 -215,-839 -142,-231 -322,-347 -537,-347 -233,0 -422,116 -562,347 -141,231 -212,512 -212,839 0,328 71,608 212,839 141,232 329,347 562,347zm2828 -713l841 0 -436 -1358 -405 1358zm726 -2214l1186 3453 -697 0 -234 -663 -1121 0 -227 663 -697 0 1126 -3453 664 0zm2582 2877l0 -2310 684 -3c274,18 470,131 589,339 118,209 178,480 178,817 0,336 -60,612 -181,826 -121,216 -293,326 -518,331l-752 0zm716 584c455,-5 799,-169 1033,-491 234,-322 351,-735 351,-1237 0,-503 -112,-914 -335,-1232 -224,-319 -601,-485 -1131,-496l-1257 4 0 3452 1339 0zm6622 -2887l-948 0 0 2879 -617 0 0 -2886 -947 0 0 -567 2512 0 0 574zm1451 926l349 0c246,0 427,-43 544,-129 117,-86 180,-204 175,-356 -5,-142 -70,-250 -175,-325 -107,-75 -291,-113 -553,-113l-340 0 0 923zm2122 1958l-716 0 -456 -880c-115,-223 -237,-355 -331,-414 -93,-60 -203,-90 -327,-90l-292 0 0 1382 -647 0 0 -3453 1066 0c231,0 406,12 526,34 170,30 305,82 403,161 98,79 182,190 252,333 69,143 110,301 105,473 -11,373 -224,659 -622,860 153,30 307,177 448,451l591 1143zm1727 -1244l842 0 -437 -1358 -405 1358zm726 -2214l1187 3453 -697 0 -235 -663 -1121 0 -226 663 -697 0 1126 -3453 663 0zm4610 0l0 3453 -726 0 -1297 -2418 0 2418 -671 0 0 -3453 772 0 1298 2366 0 -2366 624 0zm1166 2467c334,311 639,454 915,449 227,-4 396,-44 503,-129 107,-86 164,-198 172,-334 8,-137 -60,-247 -202,-331 -141,-83 -364,-154 -665,-210 -301,-57 -537,-172 -705,-341 -167,-170 -251,-365 -251,-588 0,-223 51,-410 152,-562 101,-152 239,-276 413,-371 175,-96 396,-144 664,-144 442,0 839,148 1195,444l-391 434c-245,-203 -483,-304 -718,-304 -234,0 -407,42 -518,125 -111,84 -169,209 -169,376 -1,166 171,286 515,359 344,72 605,147 783,222 176,74 317,190 418,345 100,154 147,332 140,530 -8,198 -69,384 -180,555 -111,171 -270,303 -474,394 -204,91 -459,140 -762,137 -430,-4 -855,-221 -1273,-638l438 -418zm2950 989l0 -3453 1090 0c262,0 483,52 662,156 179,104 313,229 399,372 85,142 122,309 128,497 9,308 -70,585 -255,827 -186,242 -485,364 -893,364l-508 0 0 1237 -623 0zm623 -1763l397 0c166,0 315,-52 447,-153 133,-102 206,-269 199,-501 -4,-157 -82,-278 -212,-361 -129,-83 -279,-125 -444,-125l-387 0 0 1140zm3624 1806c-402,0 -735,-172 -997,-516 -262,-343 -394,-758 -394,-1244 0,-486 132,-901 394,-1245 262,-343 595,-516 997,-516 388,0 713,173 976,516 262,344 394,759 394,1245 0,486 -132,901 -394,1244 -262,344 -588,517 -976,516zm5 -572c216,0 395,-116 538,-347 142,-231 214,-511 214,-839 0,-327 -72,-608 -214,-839 -142,-231 -322,-347 -538,-347 -233,0 -422,116 -562,347 -141,231 -212,512 -212,839 0,328 72,609 212,839 141,232 329,347 562,347zm2668 -1427l349 0c246,0 428,-44 544,-129 116,-85 179,-205 175,-356 -5,-141 -71,-250 -176,-325 -105,-74 -292,-113 -552,-113l-340 0 0 923zm2122 1958l-716 0 -456 -880c-116,-223 -238,-356 -331,-414 -92,-59 -204,-90 -328,-90l-291 0 0 1382 -647 0 0 -3453 1066 0c230,0 407,13 526,34 169,29 305,82 402,161 98,79 184,190 252,333 69,142 110,302 106,473 -10,372 -224,659 -623,860 153,30 308,179 449,451l591 1143zm2860 -2884l-947 0 0 2879 -617 0 0 -2886 -948 0 0 -567 2512 0 0 574zm-30882 6607c-157,-409 -418,-609 -781,-591 -230,12 -411,147 -537,389 -126,242 -191,535 -191,877 0,343 69,637 203,878 134,242 310,365 525,365 267,-1 477,-123 630,-365 36,-57 70,-120 99,-185l622 243c-61,120 -137,235 -225,343 -290,354 -642,532 -1053,532 -466,0 -828,-178 -1083,-532 -255,-355 -383,-785 -383,-1288 0,-505 128,-935 383,-1290 255,-355 617,-534 1083,-534 411,0 763,179 1053,534 80,97 150,201 208,311l-553 313zm2521 2436c-402,0 -735,-173 -997,-516 -263,-344 -394,-759 -394,-1245 0,-485 131,-901 394,-1244 262,-343 595,-516 997,-516 387,0 713,173 975,516 263,343 394,759 394,1244 0,486 -131,901 -394,1245 -262,343 -588,516 -975,516zm5 -572c215,0 395,-116 537,-347 142,-231 215,-512 215,-839 0,-328 -73,-608 -215,-840 -142,-230 -322,-346 -537,-346 -233,0 -422,115 -563,346 -140,231 -211,512 -211,840 0,327 71,608 211,839 141,231 330,347 563,347zm4717 -2927l0 3453 -726 0 -1297 -2418 0 2418 -671 0 0 -3453 772 0 1297 2366 0 -2366 625 0zm3271 574l-947 0 0 2879 -618 0 0 -2887 -947 0 0 -566 2512 0 0 574zm1452 926l349 0c246,0 427,-44 544,-130 116,-85 179,-204 174,-355 -5,-142 -70,-250 -175,-325 -106,-75 -292,-114 -552,-114l-340 0 0 924zm2122 1958l-716 0 -456 -880c-116,-223 -238,-356 -331,-415 -93,-59 -204,-90 -328,-90l-291 0 0 1382 -647 0 0 -3453 1066 0c230,0 406,13 526,34 169,30 304,82 402,161 98,79 183,190 252,333 69,143 110,302 105,473 -10,373 -224,660 -622,861 153,29 307,177 449,451l591 1143zm1659 41c-402,0 -735,-173 -997,-516 -263,-344 -395,-759 -395,-1245 0,-485 132,-900 395,-1244 262,-344 595,-516 997,-516 387,0 713,173 975,516 263,343 394,759 394,1244 0,486 -131,901 -394,1245 -262,343 -588,516 -975,516zm5 -572c215,0 395,-116 537,-347 142,-231 215,-512 215,-839 0,-328 -73,-608 -215,-840 -142,-231 -322,-346 -538,-346 -232,0 -421,115 -562,346 -140,232 -211,512 -211,840 0,327 71,608 211,839 141,231 330,347 563,347zm2004 526l0 -3453 641 0 0 2882 1544 0 0 571 -2185 0z" fill="#FFF">
   </path>
  </symbol>
  <g transform="scale(1)">
   <use x="15000" xlink:href="#control_text" y="82500">
   </use>
   <g transform="scale(0.8)">
    <use x="25000" xlink:href="#truck_side" y="32000">
    </use>
   </g>
   <g transform="scale(0.70)">
    <use x="28500" xlink:href="#bus" y="72500">
    </use>
   </g>
  </g>
 </g>
</svg>
