<svg role="img" style="shape-rendering: geometricPrecision;
text-rendering: optimizeLegibility; fill-rule:evenodd; clip-rule:evenodd;" version="1.1" viewbox="0 0 75000 40000" width="140px" xml:space="preserve" xmlns="http://www.w3.org/2000/svg">
 <title>
  7.5.7
 </title>
 <g fill="#FFF" stroke="gray" stroke-width="800">
  <rect height="35000" rx="4500" ry="4500" width="70000" x="2500" y="2500">
  </rect>
 </g>
 <g class="blue_layer" fill="#0177D9" style="fill-rule: evenodd; clip-rule: nonzero;">
 </g>
 <g fill="red">
 </g>
 <g class="black_layer" fill="#000" stroke="#000" stroke-width="0.8mm" style="shape-rendering: geometricPrecision">
  <symbol id="7_5_7">
   <path d="M62264 19461l-512 -995c-186,-355 -365,-580 -541,-674 -176,-92 -364,-121 -562,-84l0 1753 -932 0 0 -3964 932 0 0 1355c127,21 251,-19 374,-119 122,-102 354,-324 695,-666 385,-478 761,-687 1130,-628l182 712c-317,55 -572,216 -762,484 -157,268 -361,449 -608,542 345,104 638,417 879,940l726 1344 -1001 0zm-22200 -8609c-16,265 62,503 233,712 172,209 399,320 684,333 284,13 511,-41 681,-163 171,-121 278,-228 321,-321l674 448c-259,324 -499,535 -724,637 -225,103 -544,170 -960,203 -547,-25 -1001,-240 -1359,-644 -359,-403 -537,-892 -537,-1464 0,-574 178,-1062 537,-1468 358,-404 812,-608 1359,-608 529,0 973,204 1331,608 360,406 525,856 500,1352 25,192 -58,318 -251,375l-2489 0zm1715 -690c9,-217 -57,-395 -203,-538 -154,-227 -366,-340 -634,-340 -289,0 -511,113 -666,340 -142,143 -207,321 -198,538l1701 0zm10517 -2566c-118,155 -309,230 -572,225 -492,-19 -862,11 -1107,85 -246,75 -449,192 -611,352 -163,160 -242,463 -237,907 194,-275 528,-431 1003,-469 652,26 1116,235 1391,627 275,391 412,866 412,1422 0,556 -175,1030 -528,1423 -352,392 -777,588 -1275,588 -501,0 -913,-177 -1237,-534 -324,-357 -518,-823 -582,-1402 -65,-577 -76,-1106 -34,-1584 43,-480 129,-846 258,-1102 130,-255 267,-458 412,-608 146,-149 339,-268 579,-355 240,-89 489,-132 746,-134 259,-1 508,-7 748,-19 239,-12 517,-21 833,-29l-199 607zm-1524 1866c-249,0 -459,123 -633,367 -174,246 -262,543 -262,891 0,343 88,638 262,882 174,246 384,369 633,369 244,0 454,-123 629,-369 174,-244 261,-539 261,-882 0,-348 -87,-645 -261,-891 -175,-244 -385,-367 -629,-367zm-29829 -829l2867 0 0 3182 524 0 0 1540 -817 0 0 -758 -2734 0 0 758 -824 0 0 -1540 337 0c336,-433 551,-1291 647,-2574l0 -608zm1974 787l-1107 0c-57,733 -131,1269 -223,1610 -91,340 -175,589 -250,747l1580 0 0 -2357zm5466 -787l-1211 2397 0 1571 -871 0 0 -1571 -1216 -2397 937 0 735 1519 682 -1519 944 0zm1209 3972l0 -3960 906 0 0 2474 1637 -2474 945 0 0 3960 -945 0 0 -2469 -1637 2469 -906 0zm2415 -5466l716 0c-16,292 -154,541 -417,748 -279,222 -617,333 -1015,333 -395,0 -732,-111 -1011,-333 -265,-207 -405,-456 -421,-748l728 0c100,290 337,434 709,434 374,0 611,-144 711,-434zm5119 4030l847 275c-87,224 -215,430 -383,619 -355,401 -795,600 -1320,600 -544,0 -993,-199 -1350,-600 -357,-400 -534,-882 -534,-1448 0,-568 177,-1051 534,-1452 357,-399 806,-600 1350,-600 525,0 965,201 1320,602 140,159 254,330 341,514l-825 317c-46,-126 -108,-242 -185,-348 -145,-211 -367,-318 -665,-318 -319,26 -555,152 -713,376 -158,225 -236,525 -236,901 0,374 78,681 236,920 158,239 394,358 713,358 298,0 520,-107 665,-321 90,-119 159,-251 205,-395zm7061 1436l0 -3960 906 0 0 1507 1443 0 0 -1507 906 0 0 3960 -906 0 0 -1695 -1443 0 0 1695 -906 0zm10742 -3956l0 3948 -945 0 0 -3948 945 0zm-456 -1556c154,0 288,55 400,166 113,111 168,248 168,407 0,158 -55,291 -168,402 -112,111 -246,166 -400,166 -157,0 -293,-55 -406,-166 -111,-111 -168,-244 -168,-402 0,-159 57,-296 168,-407 113,-111 249,-166 406,-166zm-42738 12368l0 -3960 3293 0 0 3960 -905 0 0 -3205 -1482 0 0 3205 -906 0zm6337 58c-533,0 -976,-199 -1325,-600 -350,-400 -524,-882 -524,-1448 0,-568 174,-1051 524,-1452 349,-399 792,-600 1325,-600 514,0 945,201 1295,600 350,401 525,884 525,1452 0,566 -175,1048 -525,1448 -350,401 -781,600 -1295,600zm-11 -762c268,0 490,-128 665,-383 176,-257 263,-565 263,-925 0,-362 -87,-670 -263,-924 -175,-255 -397,-382 -665,-382 -285,0 -513,127 -689,382 -176,254 -263,562 -263,924 0,360 87,668 263,925 176,255 404,383 689,383zm3199 704l0 -3960 906 0 0 1507 1443 0 0 -1507 906 0 0 3960 -906 0 0 -1695 -1443 0 0 1695 -906 0zm5460 -1753c-15,265 62,503 234,712 172,209 399,320 683,333 284,13 512,-41 682,-163 170,-121 277,-228 321,-321l674 448c-259,324 -500,535 -724,637 -225,103 -544,170 -961,203 -547,-25 -1000,-240 -1358,-644 -359,-403 -538,-892 -538,-1464 0,-574 179,-1062 538,-1468 358,-404 811,-608 1358,-608 530,0 974,204 1332,608 360,406 525,856 500,1352 25,192 -59,318 -251,375l-2490 0zm1715 -690c10,-217 -57,-395 -202,-538 -154,-227 -366,-341 -634,-341 -289,0 -511,114 -666,341 -143,143 -207,321 -198,538l1700 0zm3015 -1529l2867 0 0 3182 523 0 0 1540 -817 0 0 -758 -2733 0 0 758 -825 0 0 -1540 337 0c336,-433 551,-1291 648,-2574l0 -608zm1974 787l-1108 0c-56,733 -130,1269 -223,1610 -91,340 -174,589 -250,747l1581 0 0 -2357zm3355 1432c-16,265 62,503 234,712 171,209 399,320 683,333 284,13 511,-41 681,-163 171,-121 278,-228 321,-321l674 448c-259,324 -499,535 -724,637 -224,103 -544,170 -960,203 -547,-25 -1000,-240 -1358,-644 -360,-403 -538,-892 -538,-1464 0,-574 178,-1062 538,-1468 358,-404 811,-608 1358,-608 530,0 973,204 1332,608 359,406 524,856 499,1352 25,192 -58,318 -251,375l-2489 0zm1715 -690c9,-217 -57,-395 -202,-538 -155,-227 -366,-341 -635,-341 -289,0 -511,114 -665,341 -143,143 -208,321 -199,538l1701 0zm2808 -1529l2926 0 0 3972 -940 0 0 -3167 -1049 0 0 1498c-68,590 -283,1023 -649,1303 -365,280 -643,447 -838,502l-305 -840c539,-200 825,-496 855,-891l0 -2377zm4363 3972l0 -3960 933 0 0 1459 1115 0c333,0 617,123 851,366 235,244 352,539 352,885 0,342 -124,637 -371,880 -248,244 -535,367 -860,370l-2020 0zm937 -1765l0 1021 778 0c187,0 343,-46 464,-140 121,-95 182,-218 182,-370 0,-152 -61,-276 -182,-370 -121,-94 -277,-141 -464,-141l-778 0zm3556 1765l0 -3960 906 0 0 1507 1443 0 0 -1507 906 0 0 3960 -906 0 0 -1695 -1443 0 0 1695 -906 0zm4712 0l0 -3960 906 0 0 2474 1637 -2474 945 0 0 3960 -945 0 0 -2469 -1637 2469 -906 0z">
   </path>
  </symbol>
  <use x="1" xlink:href="#7_5_7" y="1">
  </use>
  <g transform="scale(0.85) translate(0, 25000) ">
   <use x="8000" xlink:href="#digit 8 fill #000" y="1">
   </use>
   <use x="14000" xlink:href="#char dot" y="1">
   </use>
   <use transform="scale(0.8, 0.7)" x="25000" xlink:href="#digit 0 fill #000" y="5500">
   </use>
   <use transform="scale(0.8, 0.7)" x="34500" xlink:href="#digit 0 fill #000" y="5500">
   </use>
   <use x="35000" xlink:href="#char defice" y="1">
   </use>
   <use x="44000" xlink:href="#digit 1 fill #000" y="1">
   </use>
   <use x="52000" xlink:href="#digit 7 fill #000" y="1">
   </use>
   <use x="58000" xlink:href="#char dot" y="1">
   </use>
   <use transform="scale(0.8, 0.7)" x="81000" xlink:href="#digit 3 fill #000" y="5500">
   </use>
   <use transform="scale(0.8, 0.7)" x="90000" xlink:href="#digit 0 fill #000" y="5500">
   </use>
  </g>
  <use x="0" xlink:href="#border 350x700" y="0">
  </use>
 </g>
</svg>
