<svg role="img" style="shape-rendering: geometricPrecision;
text-rendering: optimizeLegibility; fill-rule:evenodd; clip-rule:evenodd;" version="1.1" viewbox="0 0 75000 75000" width="140px" xml:space="preserve" xmlns="http://www.w3.org/2000/svg">
 <title>
  3.16 временный
 </title>
 <g fill="#FFD323" stroke="gray" stroke-width="800">
  <circle cx="37500" cy="37500" r="35000">
  </circle>
 </g>
 <g class="blue_layer" fill="#0177D9" style="fill-rule: evenodd; clip-rule: nonzero;">
 </g>
 <g fill="red">
  <path d="M37500 3500c18778,0 34000,15222 34000,34000 0,18778 -15222,34000 -34000,34000 -18778,0 -34000,-15222 -34000,-34000 0,-18778 15222,-34000 34000,-34000zm0 6000c15464,0 28000,12536 28000,28000 0,15464 -12536,28000 -28000,28000 -15464,0 -28000,-12536 -28000,-28000 0,-15464 12536,-28000 28000,-28000z">
  </path>
 </g>
 <g class="black_layer" fill="#000" stroke="#000" stroke-width="0.8mm" style="shape-rendering: geometricPrecision">
  <symbol id="3_16">
   <path d="M19667 41241c1781,0 3264,1467 3264,3286 1,1820 -1483,3336 -3264,3336 -1780,0 -3215,-1516 -3215,-3336 0,-1820 1434,-3285 3215,-3286zm0 -1971c2819,0 5144,2376 5144,5257 0,2881 -2325,5257 -5144,5257 -2819,0 -5144,-2376 -5144,-5257 0,-2881 2325,-5257 5144,-5257zm-10436 4954l4204 0c1336,-7330 10041,-7683 12068,-910 940,-304 2078,-910 2325,-1921l1484 -5358c248,-1011 -198,-2173 -890,-2881l-8606 -8997c-594,-556 -1435,-961 -2325,-961l-7024 50c-296,607 -593,1264 -841,1922l7469 -1c792,0 1830,354 2077,1062l1781 4043c643,1669 -198,3590 -1978,3590l-11178 0c-50,454 -50,910 -50,1415 0,3134 544,6116 1484,8947zm36205 -3033c1781,0 3215,1466 3215,3286 1,1819 -1434,3336 -3215,3336 -1780,0 -3264,-1517 -3264,-3336 0,-1820 1484,-3286 3264,-3286zm0 -1972c2819,0 5144,2376 5144,5258 0,2881 -2325,5257 -5144,5257 -2819,-1 -5144,-2376 -5144,-5257 0,-2882 2325,-5257 5144,-5258zm-8705 -2982l99 4449c50,1263 940,2173 2473,2679 1979,-6925 11327,-6824 12266,808l9349 0c890,-2729 1335,-5661 1335,-8694 0,-556 0,-1112 0,-1668l-3512 0c-2769,0 -3165,-2325 -2374,-3387l3116 -3993c347,-455 693,-758 989,-960 -197,-556 -395,-1062 -593,-1567 -593,354 -1088,809 -1434,1264l-4847 6116c-792,1112 -2276,1870 -3611,2022l-11079 1364c-891,101 -2226,708 -2177,1567z">
   </path>
  </symbol>
  <use height="70000" x="2500" xlink:href="#3_16" y="2500">
  </use>
  <use x="25000" xlink:href="#digit 7 fill #000" y="14000">
  </use>
  <use x="34000" xlink:href="#digit 0 fill #000" y="14000">
  </use>
  <use x="44000" xlink:href="#char м fill #000" y="14000">
  </use>
 </g>
</svg>
