<svg role="img" style="shape-rendering: geometricPrecision;
text-rendering: optimizeLegibility; fill-rule:evenodd; clip-rule:evenodd;" version="1.1" viewbox="0 0 75000 110000" width="140px" xml:space="preserve" xmlns="http://www.w3.org/2000/svg">
 <title>
  5.14
 </title>
 <g fill="#FFF" stroke="gray" stroke-width="800">
  <rect height="105000" rx="4500" ry="4500" width="70000" x="2500" y="2500">
  </rect>
 </g>
 <g class="blue_layer" fill="#0177D9" style="fill-rule: evenodd; clip-rule: nonzero;">
  <rect height="101000" rx="2500" ry="2500" width="66000" x="4500" y="4500">
  </rect>
  <rect fill="#FFFFFF" height="57000" rx="2000" ry="2000" width="57000" x="9000" y="17500">
  </rect>
 </g>
 <g fill="red">
 </g>
 <g class="black_layer" fill="#000" stroke="#000" stroke-width="0.8mm" style="shape-rendering: geometricPrecision">
  <symbol id="taxi">
   <path d="M22791 15075c1041,0 2486,751 2833,1560l2601 7284c694,0 1850,983 1850,1850l0 5722c0,925 -1156,2024 -2081,2024l-24163 0c-867,0 -2139,-1099 -2139,-2023l0 -5723c0,-925 751,-1850 1850,-1850l2659 -7284c347,-982 1734,-1560 2832,-1560l2692 5 1302 -2087 5481 0 1682 2082 2601 0zm8547 -8821l1098 0 0 -5781 -1330 0 -2081 3931 0 -3931 -1098 0 0 5781 1272 0 2139 -3989 0 3989zm-5897 -1503l-1040 -347c-173,636 -636,925 -1156,925 -867,0 -1388,-867 -1388,-2023 0,-1098 521,-1965 1388,-1965 520,0 982,346 1156,924l1040 -347c-346,-866 -1098,-1560 -2196,-1560 -1734,0 -2602,1561 -2602,2948 0,1445 868,3122 2602,3122 1098,-1 1850,-810 2196,-1677zm-11676 1503l1156 0 0 -2717c867,0 1387,231 1792,925l982 1792 1388 0c-289,-289 -347,-462 -521,-809l-924 -1561c-290,-463 -752,-809 -1330,-809 289,-116 405,-289 520,-463l636 -694c347,-404 867,-404 1098,-404l-288 -1214c-463,0 -1099,289 -1504,752l-924 1040c-232,289 -636,520 -925,520l0 -2139 -1156 0 0 5781zm-2371 -809c-289,0 -404,-231 -404,-520l0 -2371c0,-1445 -867,-2196 -2312,-2196 -810,0 -1619,405 -2082,751l579 752c462,-289 982,-578 1503,-578 809,0 1214,578 1214,1271l-1677 289c-1156,232 -1792,868 -1792,1735 0,1098 925,1850 1908,1850 693,-1 1156,-463 1561,-868 346,578 346,810 1098,868l404 -983zm-1502 -1966l0 1156c-463,463 -925,694 -1561,694 -405,0 -752,-347 -752,-751 0,-405 231,-636 694,-810l1619 -289zm-8151 2775l1156 0 0 -4740 1676 0 0 -1041 -4509 0 0 1041 1677 0 0 4740zm1049 28301l4451 0 0 3411c0,751 -1098,1734 -2196,1734 -1156,0 -2255,-809 -2255,-1734l0 -3411zm26187 0l-4452 0 0 3411c0,751 1099,1734 2255,1734 1098,0 2196,-809 2196,-1734l1 -3411zm-6186 -17689c694,0 1098,232 1272,636l2254 6475 -20868 0 2255 -6475c173,-462 578,-635 1329,-635l13758 -1z">
   </path>
  </symbol>
  <g transform="scale(1)">
   <use x="22000" xlink:href="#taxi" y="26000">
   </use>
  </g>
 </g>
</svg>
