<svg role="img" style="shape-rendering: geometricPrecision;
text-rendering: optimizeLegibility; fill-rule:evenodd; clip-rule:evenodd;" version="1.1" viewbox="0 0 75000 75000" width="140px" xml:space="preserve" xmlns="http://www.w3.org/2000/svg">
 <title>
  3.10
 </title>
 <g fill="#FFF" stroke="gray" stroke-width="800">
  <circle cx="37500" cy="37500" r="35000">
  </circle>
 </g>
 <g class="blue_layer" fill="#0177D9" style="fill-rule: evenodd; clip-rule: nonzero;">
 </g>
 <g fill="red">
  <path d="M71500 37500c0,-18778 -15222,-34000 -34000,-34000 -18778,0 -34000,15222 -34000,34000 0,18778 15222,34000 34000,34000 18778,0 34000,-15222 34000,-34000zm-51759 -21648l39407 39407c3969,-4833 6352,-11017 6352,-17759 0,-15464 -12536,-28000 -28000,-28000 -6742,0 -12926,2383 -17759,6352zm35518 43296l-39407 -39407c-3969,4833 -6352,11017 -6352,17759 0,15464 12536,28000 28000,28000 6742,0 12926,-2383 17759,-6352z">
  </path>
 </g>
 <g class="black_layer" fill="#000" stroke="#000" stroke-width="0.8mm" style="shape-rendering: geometricPrecision">
  <symbol id="3_10" viewbox="0 0 75000 75000">
   <g>
    <path d="M39787 14782c-753,-860 -1825,-1371 -2955,-1197 -1129,174 -2074,952 -2459,2030 -385,1077 -148,2277 615,3129 894,1117 2155,1830 3526,2235 1011,299 2197,-33 2546,-1028 630,-1793 -21,-3741 -1273,-5169zm-9879 42305c-1579,3534 -5445,1116 -4302,-1422l6694 -18627 3396 3396 -5788 16653zm20176 -319l-940 -2887 -6770 -6770 3468 10305c619,2417 4771,1517 4242,-648zm-9221 -25867l0 4767 3724 2919c2064,1214 4278,-1624 2361,-3245l-6085 -4441zm-1695 3530l646 -9832c0,-290 -136,-565 -367,-743l-4193 -2958c-309,-236 -1244,-254 -1573,-49l-4679 3415 2793 2793 1499 -1055 -117 2438 5991 5991zm-14994 -5519l0 7310c39,2536 3608,2744 3608,-213l151 -3338 -3759 -3759z">
    </path>
   </g>
  </symbol>
  <use x="0" xlink:href="#3_10" y="0">
  </use>
 </g>
</svg>
