<svg role="img" style="shape-rendering: geometricPrecision;
text-rendering: optimizeLegibility; fill-rule:evenodd; clip-rule:evenodd;" version="1.1" viewbox="0 0 95000 85000" width="140px" xml:space="preserve" xmlns="http://www.w3.org/2000/svg">
 <title>
  1.10
 </title>
 <g fill="#FFF" stroke="gray" stroke-width="800">
  <path d="M91867 75270c1761,2953 -345,6802 -3867,6802l-81000 0c-3522,0 -5628,-3849 -3867,-6802l40470 -70097c1762,-3051 6146,-2951 7824,52l40440 70045z">
  </path>
 </g>
 <g class="blue_layer" fill="#0177D9" style="fill-rule: evenodd; clip-rule: nonzero;">
 </g>
 <g fill="red">
  <path d="M91005 75776l-40448 -70057c-1321,-2368 -4733,-2393 -6088,-46l-40474 70103c-1383,2317 306,5296 3005,5296l81000 0c2740,0 4379,-2994 3005,-5296zm-42613 -61812l34411 59607c380,656 -90,1500 -866,1500l-68874 0c-801,0 -1265,-892 -838,-1546l34387 -59554c368,-724 1407,-728 1780,-7z">
  </path>
  <path d="M91596 78067l12 -110c148,16 339,32 484,59l-90 -104 75 -55 131 176 -11 100 -601 -66zm-75 384l24 -108c145,31 334,66 476,107l-80 -112 81 -47 112 189 -21 97 -592 -126zm-130 426l98 -309 80 26c18,12 148,221 231,276 100,66 184,18 111,-107l83 -39c37,63 52,115 32,179 -55,170 -244,130 -365,-24l-115 -160 -60 188 -95 -30zm247 373c-69,161 -294,69 -344,-41 -40,-90 19,-211 84,-256l97 42c-61,35 -158,155 -22,213 97,43 133,-33 139,-113l39 -22 271 137 -103 237 -92 -40 64 -149 -116 -59c-3,15 -9,33 -17,51zm-288 128l85 47 -101 182 -84 -47 100 -182zm-473 414l184 -267 69 47c14,17 78,255 141,331 77,92 171,70 138,-70l90 -14c18,71 17,125 -21,181 -101,147 -270,54 -342,-129l-64 -186 -112 163 -83 -56zm-25 499c-115,-97 -226,-214 -131,-327 95,-113 229,-23 344,74 113,95 226,215 132,327 -95,113 -227,24 -345,-74zm141 -167c-69,-57 -162,-141 -199,-98 -39,46 80,137 131,179 65,54 163,141 200,98 36,-43 -66,-123 -132,-179zm-459 464c-101,-112 -193,-244 -83,-342 109,-99 229,9 329,121 99,111 194,246 85,343 -110,99 -229,-8 -331,-122zm163 -145c-60,-67 -141,-163 -183,-126 -45,41 60,147 104,196 56,63 142,163 184,125 42,-37 -47,-131 -105,-195zm-669 155l261 -192 49 68c7,21 -9,266 25,359 42,112 139,122 153,-21l90 16c-7,73 -25,124 -80,164 -143,106 -273,-37 -281,-234l1 -197 -159 118 -59 -81z">
  </path>
 </g>
 <g class="black_layer" fill="#000" stroke="#000" stroke-width="0.8mm" style="shape-rendering: geometricPrecision">
  <g transform="scale(1.4625) translate(0, 0)">
   <path d="M38426 36148c-1039,-365 -2187,182 -2569,1221 -365,1039 182,2187 1221,2569 1038,365 2186,-182 2569,-1221 364,-1038 -182,-2187 -1221,-2569zm-255 705c-656,-237 -1385,110 -1603,766 -237,656 109,1384 765,1621 638,219 1366,-109 1603,-765 237,-656 -109,-1385 -765,-1622zm-12209 -5169c-1039,-365 -2205,182 -2569,1220 -365,1039 182,2187 1220,2570 1039,364 2187,-182 2570,-1221 364,-1039 -182,-2187 -1221,-2569zm-246 705c-656,-237 -1385,109 -1622,765 -237,656 109,1385 765,1622 656,219 1385,-109 1622,-766 237,-655 -109,-1384 -765,-1621zm16300 3850l-620 1549c-182,456 -601,692 -1239,656 146,-2752 -3280,-3936 -4610,-1330l-7927 -2825c456,-2824 -2697,-4100 -4337,-1931 -309,-219 -619,-602 -601,-1002l164 -2114c36,-383 346,-766 692,-930l4319 -2077c292,-146 674,-164 984,-55l5540 1986c510,183 911,711 1075,1203l966 2825c182,528 619,984 1111,1221l3900 1931c310,164 711,565 583,893zm-7781 -3790l-7307 -2624c-656,-237 -711,-1057 -273,-1531l1184 -1239c200,-219 601,-219 893,-109l5321 1913c401,127 674,237 856,820l620 1859c182,492 -292,1275 -1294,911zm19316 15507l528 911c-911,456 -1968,802 -2988,802 -1130,0 -2223,-802 -3317,-802 -1275,0 -2769,802 -4045,802 -1640,0 -2916,-802 -4519,-802 -1604,0 -3135,802 -4738,802 -1239,0 -2442,-802 -3681,-802 -1148,0 -2187,274 -3116,693l-17184 0 8073 -13977 9111 0 0 8382c1020,-400 2077,-656 3098,-656 1239,0 2442,802 3717,802 1567,0 3098,-802 4702,-802 1639,0 2915,802 4555,802 1239,0 2770,-802 4009,-802 1130,0 2187,802 3317,802 72,0 145,0 236,0l583 1002c-273,55 -546,92 -819,92 -1130,0 -2187,-802 -3317,-802 -1239,0 -2770,802 -4009,802 -1640,0 -2916,-802 -4555,-802 -1604,0 -3135,802 -4702,802 -1275,0 -2478,-802 -3717,-802 -1021,0 -2078,218 -3098,637l0 1076c929,-438 2059,-656 3116,-656 1239,0 2442,802 3681,802 1603,0 3134,-802 4738,-802 1603,0 2879,802 4519,802 1276,0 2770,-802 4045,-802 1094,0 2187,802 3317,802 437,0 893,-110 1330,-256l528 930c-619,273 -1239,419 -1858,419 -1130,0 -2223,-802 -3317,-802 -1275,0 -2769,802 -4045,802 -1640,0 -2916,-802 -4519,-802 -1604,0 -3135,802 -4738,802 -1239,0 -2442,-802 -3681,-802 -1057,0 -2114,255 -3116,638l0 1239c947,-328 2059,-656 3116,-656 1239,0 2442,802 3681,802 1603,0 3134,-802 4738,-802 1603,0 2879,802 4519,802 1276,0 2770,-802 4045,-802 1094,0 2187,802 3317,802 838,0 1694,-292 2460,-620z">
   </path>
  </g>
 </g>
</svg>
