<svg role="img" style="shape-rendering: geometricPrecision;
text-rendering: optimizeLegibility; fill-rule:evenodd; clip-rule:evenodd;" version="1.1" viewbox="0 0 140000 40000" width="220px" xml:space="preserve" xmlns="http://www.w3.org/2000/svg">
 <title>
  5.32.1
 </title>
 <g fill="#FFD323" stroke="gray" stroke-width="800">
  <rect height="35000" rx="4500" ry="4500" width="135000" x="2500" y="2500">
  </rect>
 </g>
 <g class="blue_layer" fill="#0177D9" style="fill-rule: evenodd; clip-rule: nonzero;">
 </g>
 <g fill="red">
 </g>
 <g class="black_layer" fill="#000" stroke="#000" stroke-width="0.8mm" style="shape-rendering: geometricPrecision">
  <symbol id="5_32_x text">
   <path d="M4974 10757c-186,233 -422,451 -711,650 -291,199 -674,300 -1156,300 -795,0 -1432,-228 -1915,-682 -480,-454 -721,-1009 -721,-1667 0,-396 81,-751 241,-1073 163,-324 372,-594 635,-815 262,-220 556,-379 884,-477 241,-67 650,-149 1230,-250 577,-98 1051,-212 1421,-340 61,-525 -21,-878 -244,-1067 -223,-186 -613,-279 -1177,-279 -580,0 -1254,242 -2023,722l-852 -1290c672,-509 1243,-817 1718,-926 472,-109 1020,-162 1639,-162 622,0 1215,199 1784,602 569,401 910,1176 1023,2321l0 1797c-21,1322 10,2041 99,2155 87,114 250,202 491,263l-622 1269c-881,-58 -1463,-409 -1744,-1051zm41025 7296l5692 0 0 6392 1038 0 0 3096 -1620 0 0 -1524 -5427 0 0 1524 -1637 0 0 -3096 669 0c666,-870 1094,-2593 1285,-5171l0 -1221zm3919 1579l-2198 0c-113,1474 -260,2551 -443,3236 -181,683 -347,1184 -496,1500l3137 0 0 -4736zm-9311 6565c-383,106 -986,162 -1804,162 -1042,0 -1931,-241 -2668,-722 -291,-188 -524,-393 -700,-616l1091 -1136c805,645 1679,958 2620,942 945,-15 1411,-392 1409,-1128 -5,-735 -735,-1048 -2182,-939l0 -1338c700,16 1164,-27 1392,-125 228,-98 404,-279 522,-536 121,-261 92,-529 -86,-802 -181,-276 -548,-438 -1105,-491 -556,-51 -1290,175 -2208,677l-845 -1399c87,-77 480,-271 1183,-576 703,-306 1461,-409 2274,-308 816,101 1477,353 1983,751 506,398 761,926 761,1582 0,656 -338,1216 -1015,1678 -45,29 -92,64 -137,101 126,61 250,127 368,202 737,480 1107,1061 1107,1738 0,675 -231,1198 -693,1567 -459,369 -881,605 -1267,716zm-11799 -3687c-32,534 123,1011 464,1431 341,419 792,642 1356,669 564,26 1015,-82 1353,-327 339,-244 551,-459 638,-645l1337 900c-514,651 -991,1075 -1437,1280 -446,207 -1081,342 -1907,408 -1086,-50 -1985,-483 -2696,-1295 -714,-810 -1068,-1792 -1068,-2941 0,-1152 354,-2135 1068,-2950 711,-812 1610,-1221 2696,-1221 1052,0 1933,409 2644,1221 713,815 1041,1721 991,2716 50,388 -115,640 -498,754l-4941 0zm3404 -1386c18,-435 -113,-793 -401,-1080 -307,-457 -727,-685 -1259,-685 -575,0 -1015,228 -1322,685 -283,287 -412,645 -394,1080l3376 0zm-11465 -3047l0 2930 2442 0c611,0 1135,247 1576,736 441,491 661,1083 661,1778 0,688 -247,1280 -737,1768 -493,492 -1078,738 -1752,744l-4042 0 0 -6377 -1715 0 0 -1579 3567 0zm8 4409l0 2052 1773 0c375,0 669,-93 884,-281 215,-191 322,-438 322,-744 0,-305 -107,-554 -322,-743 -215,-188 -509,-284 -884,-284l-1773 0zm-5197 -6517c-236,311 -614,462 -1136,451 -978,-37 -1712,22 -2198,170 -487,152 -891,388 -1214,709 -323,321 -480,929 -469,1821 385,-552 1049,-865 1990,-942 1296,53 2217,472 2762,1261 546,785 818,1738 818,2856 0,1118 -348,2071 -1049,2859 -697,788 -1542,1181 -2531,1181 -994,0 -1812,-355 -2455,-1072 -642,-717 -1028,-1654 -1156,-2817 -129,-1160 -150,-2222 -66,-3183 84,-963 255,-1699 512,-2214 257,-512 529,-921 818,-1221 288,-300 671,-539 1149,-714 477,-178 970,-265 1482,-268 514,-3 1007,-16 1484,-40 475,-24 1026,-42 1652,-58l-393 1221zm-3027 3748c-493,0 -910,247 -1256,738 -346,494 -519,1091 -519,1790 0,690 173,1282 519,1773 346,494 763,740 1256,740 486,0 903,-246 1249,-740 346,-491 519,-1083 519,-1773 0,-699 -173,-1296 -519,-1790 -346,-491 -763,-738 -1249,-738zm-8832 6432c-1059,0 -1938,-400 -2630,-1205 -695,-804 -1042,-1773 -1042,-2909 0,-1142 347,-2113 1042,-2918 692,-801 1571,-1205 2630,-1205 1021,0 1876,404 2571,1205 695,805 1041,1776 1041,2918 0,1136 -346,2105 -1041,2909 -695,805 -1550,1205 -2571,1205zm-23 -1531c532,0 973,-258 1322,-770 349,-515 522,-1134 522,-1858 0,-728 -173,-1346 -522,-1856 -349,-512 -790,-767 -1322,-767 -564,0 -1018,255 -1367,767 -349,510 -522,1128 -522,1856 0,724 173,1343 522,1858 349,512 803,770 1367,770zm82174 -21156l1920 0 1636 4582 1160 -4582 1907 0 -2413 8540c-415,1213 -916,1975 -1498,2283 -585,308 -1165,385 -1736,228l-486 -1694c585,104 1023,88 1320,-45 293,-130 556,-679 787,-1643l-2597 -7669zm-5871 7980l0 -6401 -2274 0 0 -1579 6408 0 0 1579 -2282 0 0 6401 -1852 0zm-7175 116c-1060,0 -1939,-400 -2631,-1205 -695,-804 -1041,-1773 -1041,-2909 0,-1142 346,-2113 1041,-2918 692,-801 1571,-1205 2631,-1205 1020,0 1875,404 2570,1205 695,805 1041,1776 1041,2918 0,1136 -346,2105 -1041,2909 -695,805 -1550,1205 -2570,1205zm1752 -4900c-76,-414 -228,-788 -454,-1120 -349,-507 -789,-762 -1322,-762 -564,0 -1018,255 -1366,762 -226,332 -378,706 -454,1120l3596 0zm-3612 1407c76,446 234,844 470,1192 348,512 802,770 1366,770 533,0 973,-258 1322,-770 236,-348 393,-746 469,-1192l-3627 0zm-17072 3377l0 -7956 6539 0 0 7956 -1797 0 0 -6440 -2943 0 0 6440 -1799 0zm-1737 -7956l0 7956 -1860 0 0 -7956 1860 0zm-9322 7956l0 -7956 1852 0 0 2930 2214 0c661,0 1225,247 1689,736 467,491 700,1083 700,1778 0,688 -246,1280 -737,1768 -493,491 -1062,738 -1707,744l-4011 0zm1860 -3547l0 2052 1545 0c372,0 682,-93 921,-281 241,-191 361,-438 361,-744 0,-305 -120,-554 -361,-743 -239,-188 -549,-284 -921,-284l-1545 0zm-9482 -4433l5809 0 0 7980 -1867 0 0 -6363 -2083 0 0 3010c-133,1184 -561,2055 -1287,2617 -724,563 -1278,898 -1663,1009l-606 -1688c1070,-401 1636,-996 1697,-1789l0 -4776zm-5303 7295c-186,233 -422,451 -711,650 -291,199 -674,300 -1156,300 -795,0 -1433,-228 -1915,-682 -480,-454 -721,-1009 -721,-1667 0,-396 81,-751 241,-1073 163,-324 372,-594 635,-815 262,-220 556,-379 884,-477 241,-67 650,-149 1230,-250 577,-98 1051,-212 1421,-340 61,-525 -21,-878 -244,-1067 -223,-186 -613,-279 -1177,-279 -580,0 -1254,242 -2023,722l-852 -1290c671,-509 1243,-817 1718,-926 472,-109 1020,-162 1639,-162 622,0 1215,199 1784,602 569,401 910,1176 1023,2321l0 1797c-21,1322 10,2041 99,2155 87,114 250,202 491,263l-622 1269c-881,-58 -1463,-409 -1744,-1051zm0 -2955c-323,159 -810,295 -1461,404 -367,63 -629,132 -779,209 -152,80 -270,194 -354,343 -84,151 -126,318 -126,507 0,279 89,512 273,703 181,189 443,284 787,284 349,0 669,-100 960,-305 293,-202 501,-454 624,-762 97,-241 121,-571 76,-987l0 -396zm-12436 3640l0 -7956 1800 0 0 3026 2864 0 0 -3026 1799 0 0 7956 -1799 0 0 -3406 -2864 0 0 3406 -1800 0zm-8753 0l0 -7956 1799 0 0 4969 3250 -4969 1876 0 0 7956 -1876 0 0 -4962 -3250 4962 -1799 0zm4795 -10983l1421 0c-31,587 -307,1086 -828,1503 -554,446 -1225,669 -2015,669 -784,0 -1453,-223 -2006,-669 -527,-417 -805,-916 -837,-1503l1445 0c200,582 669,871 1409,871 742,0 1211,-289 1411,-871zm-8520 7343c-323,159 -810,295 -1461,404 -367,63 -629,132 -779,209 -152,80 -270,194 -354,343 -84,151 -126,318 -126,507 0,279 89,512 273,703 181,189 443,284 787,284 349,0 669,-100 960,-305 294,-202 501,-454 624,-762 97,-241 121,-571 76,-987l0 -396z">
   </path>
  </symbol>
  <symbol id="border 350x1350">
   <path d="M7000 3500l126000 0c1925,0 3500,1575 3500,3500l0 26000c0,1925 -1575,3500 -3500,3500l-126000 0c-1925,0 -3500,-1575 -3500,-3500l0 -26000c0,-1925 1575,-3500 3500,-3500zm0 1000l126000 0c1375,0 2500,1125 2500,2500l0 26000c0,1375 -1125,2500 -2500,2500l-126000 0c-1375,0 -2500,-1125 -2500,-2500l0 -26000c0,-1375 1125,-2500 2500,-2500z">
   </path>
  </symbol>
  <use x="0" xlink:href="#border 350x1350" y="0">
  </use>
  <g transform="scale(1.03)">
   <use x="35000" xlink:href="#5_32_x text" y="5000">
   </use>
   <g transform="rotate(90,12500, 9250)">
    <use x="10000" xlink:href="#5_32_x arrow" y="-8000">
    </use>
   </g>
  </g>
 </g>
</svg>
