<svg role="img" style="shape-rendering: geometricPrecision;
text-rendering: optimizeLegibility; fill-rule:evenodd; clip-rule:evenodd;" version="1.1" viewbox="0 0 75000 75000" width="140px" xml:space="preserve" xmlns="http://www.w3.org/2000/svg">
 <title>
  3.27
 </title>
 <g fill="#FFF" stroke="gray" stroke-width="800">
  <circle cx="37500" cy="37500" r="35000">
  </circle>
 </g>
 <g class="blue_layer" fill="#0177D9" style="fill-rule: evenodd; clip-rule: nonzero;">
  <g>
   <path d="M42803 37500l16256 16256c3539,-4685 5441,-10358 5441,-16256 0,-5898 -1902,-11571 -5441,-16256l-16256 16256z">
   </path>
   <path d="M21244 59059c4685,3539 10358,5441 16256,5441 5898,0 11571,-1902 16256,-5441l-16256 -16256 -16256 16256z">
   </path>
   <path d="M32197 37500l-16256 -16256c-3539,4685 -5441,10358 -5441,16256 0,5898 1902,11571 5441,16256l16256 -16256z">
   </path>
   <path d="M53756 15941c-4685,-3539 -10358,-5441 -16256,-5441 -5898,0 -11571,1902 -16256,5441l16256 16256 16256 -16256z">
   </path>
  </g>
 </g>
 <g fill="red">
  <path d="M71500 37500c0,-18778 -15222,-34000 -34000,-34000 -18778,0 -34000,15222 -34000,34000 0,18778 15222,34000 34000,34000 18778,0 34000,-15222 34000,-34000zm-16241 -21648l-17759 17759 -17759 -17759c4833,-3969 11017,-6352 17759,-6352 6742,0 12926,2383 17759,6352zm-21648 21648l-17759 17759c-3969,-4833 -6352,-11017 -6352,-17759 0,-6742 2383,-12926 6352,-17759l17759 17759zm-13870 21648l17759 -17759 17759 17759c-4833,3969 -11017,6352 -17759,6352 -6742,0 -12926,-2383 -17759,-6352zm21648 -21648l17759 -17759c3969,4833 6352,11017 6352,17759 0,6742 -2383,12926 -6352,17759l-17759 -17759z">
  </path>
 </g>
</svg>
