<svg role="img" style="shape-rendering: geometricPrecision;
text-rendering: optimizeLegibility; fill-rule:evenodd; clip-rule:evenodd;" version="1.1" viewbox="0 0 75000 110000" width="200px" xml:space="preserve" xmlns="http://www.w3.org/2000/svg">
 <title>
  5.31
 </title>
 <g fill="#FFF" stroke="gray" stroke-width="800">
  <rect height="105000" rx="4500" ry="4500" width="70000" x="2500" y="2500">
  </rect>
 </g>
 <g class="blue_layer" fill="#0177D9" style="fill-rule: evenodd; clip-rule: nonzero;">
 </g>
 <g fill="red">
 </g>
 <g class="black_layer" fill="#000" stroke="#000" stroke-width="0.8mm" style="shape-rendering: geometricPrecision">
  <g>
   <rect fill="#FFD323" height="105000" rx="4200" ry="5221" width="70000" x="2500" y="2500">
   </rect>
   <path d="M6700 3500l61600 0c1760,0 3200,1440 3200,3200l0 96600c0,1760 -1440,3200 -3200,3200l-61600 0c-1760,0 -3200,-1440 -3200,-3200l0 -96600c0,-1760 1440,-3200 3200,-3200zm0 1000l61600 0c1210,0 2200,990 2200,2200l0 96600c0,1210 -990,2200 -2200,2200l-61600 0c-1210,0 -2200,-990 -2200,-2200l0 -96600c0,-1210 990,-2200 2200,-2200z">
   </path>
   <path d="M23056 24481l2206 0 -4412 -6961 -4412 6961 2206 0c0,25278 0,56097 0,81375l4412 0 0 -20298 33404 0c607,678 1489,1105 2471,1105 1831,0 3315,-1484 3315,-3314 0,-986 -430,-1871 -1113,-2479l0 -36877 -11 1c689,-608 1124,-1497 1124,-2488 0,-1830 -1484,-3315 -3315,-3315 -985,0 -1869,430 -2476,1112l-33399 0 0 -14822zm33667 56396c-94,84 -184,174 -268,268l-33399 0 0 -37429 33404 0c88,98 183,192 282,279l-22 -2 0 36884 3 0zm-257 2147l0 649c159,1220 1202,2162 2465,2162 1373,0 2486,-1113 2486,-2486 0,-1374 -1113,-2487 -2486,-2487 -1263,0 -2306,942 -2465,2162zm0 -41843l0 650c159,1220 1202,2162 2465,2162 1373,0 2486,-1114 2486,-2487 0,-1373 -1113,-2486 -2486,-2486 -1263,0 -2306,942 -2465,2161z">
   </path>
   <path d="M50062 8997l1857 5529 -1131 0 -366 -1143 -1827 0 -356 1143 -1131 0 1838 -5529 1116 0zm16883 81400l1380 4109 -841 0 -272 -849 -1357 0 -265 849 -840 0 1365 -4109 830 0zm-30686 4109l-874 0 -660 -1117c-205,-346 -322,-584 -460,-658 -138,-73 -335,-105 -591,-93l0 1868 -714 0 0 -4114 714 0 0 1525c178,16 317,-21 415,-109 98,-89 276,-271 475,-585 373,-588 772,-897 1254,-889l123 682c-255,-12 -523,148 -763,509 -222,334 -393,569 -551,679 210,74 478,348 771,844l861 1458zm1932 43c-459,0 -842,-206 -1148,-617 -305,-411 -459,-908 -459,-1489 0,-581 154,-1078 459,-1489 306,-412 689,-617 1148,-617 459,0 842,205 1148,617 306,411 459,908 459,1489 0,581 -153,1078 -459,1489 -306,411 -689,617 -1148,617zm9 -697c267,0 477,-135 631,-404 153,-269 230,-607 230,-1016 0,-408 -77,-746 -230,-1015 -153,-268 -364,-403 -631,-403 -268,0 -478,135 -630,403 -152,269 -228,607 -228,1015 0,409 76,747 228,1016 153,269 362,404 630,404zm2862 -3455l2606 0 0 4112 -743 0 0 -3429 -1093 0 0 1636c0,497 -82,863 -242,1099 -161,237 -348,414 -562,531 -214,118 -438,198 -671,240l-153 -737c241,-29 447,-144 617,-347 171,-203 241,-461 241,-775l0 -2330zm4985 4152c-459,0 -842,-206 -1148,-617 -306,-411 -459,-908 -459,-1489 0,-581 153,-1078 459,-1489 306,-412 689,-617 1148,-617 459,0 842,205 1148,617 306,411 459,908 459,1489 0,581 -153,1078 -459,1489 -306,411 -689,617 -1148,617zm9 -697c267,0 477,-135 630,-404 154,-269 231,-607 231,-1016 0,-408 -77,-746 -231,-1015 -152,-268 -363,-403 -630,-403 -269,0 -478,135 -630,403 -152,269 -228,607 -228,1015 0,409 76,747 228,1016 152,269 361,404 630,404zm2272 651l441 -4109 790 0 898 1908 828 -1908 798 0 468 4109 -798 0 -266 -2901 -1030 2299 -1065 -2308 -296 2910 -768 0zm5118 3l0 -4112 2660 3 0 680 -1897 0 0 975 1518 0 0 683 -1518 0 0 1088 1894 0 0 683 -2657 0zm3546 0l0 -4112 743 0 0 1575 1518 0 0 -1575 743 0 0 4112 -743 0 0 -1854 -1518 0 0 1854 -743 0zm7204 0l-875 0 -660 -1117c-204,-346 -321,-584 -459,-658 -138,-73 -335,-105 -592,-93l0 1868 -714 0 0 -4114 714 0 0 1525c179,16 317,-21 416,-109 98,-89 276,-271 475,-585 373,-588 771,-897 1253,-889l124 682c-255,-12 -523,148 -763,509 -223,334 -393,569 -552,679 211,74 479,349 772,844l861 1458zm1848 -1506l1007 0 -536 -1530 -471 1530zm548 -58019c-460,0 -842,-205 -1148,-617 -306,-411 -460,-908 -460,-1489 0,-581 154,-1078 460,-1489 306,-412 688,-617 1148,-617 459,0 841,205 1147,617 306,411 460,908 460,1489 0,581 -154,1078 -460,1489 -306,412 -688,617 -1147,617zm-31295 -46l0 -3394 -1156 0 0 -714 3058 0 0 714 -1162 0 0 3394 -740 0zm4103 46c-460,0 -842,-205 -1148,-617 -306,-411 -460,-908 -460,-1489 0,-581 154,-1078 460,-1489 306,-412 688,-617 1148,-617 459,0 841,205 1147,617 306,411 460,908 460,1489 0,581 -154,1078 -460,1489 -306,412 -688,617 -1147,617zm8 -697c268,0 478,-135 631,-404 153,-268 230,-607 230,-1015 0,-409 -76,-747 -230,-1016 -153,-268 -363,-402 -631,-402 -268,0 -477,134 -629,402 -153,269 -229,607 -229,1016 0,408 77,747 229,1015 152,269 361,404 629,404zm2114 651l1309 -2141 -1136 -1967 861 0 722 1276 812 -1276 839 0 -1203 1967 1306 2141 -915 0 -839 -1478 -889 1478 -867 0zm5439 0l0 -3394 -1157 0 0 -714 3059 0 0 714 -1163 0 0 3394 -739 0zm4390 -4105l1379 4108 -840 0 -272 -849 -1357 0 -265 849 -840 0 1365 -4108 830 0zm-901 2602l1007 0 -536 -1530 -471 1530zm3081 1506l0 -4108 1231 0c563,-37 985,84 1267,361 282,277 411,596 386,958 -25,361 -151,662 -377,901 -227,239 -616,358 -1170,358l-584 0 0 1530 -753 0zm753 -2183l452 0c638,7 955,-204 952,-634 -3,-429 -314,-632 -934,-609l-470 0 0 1243zm4509 2226c-459,0 -841,-206 -1148,-617 -305,-411 -459,-908 -459,-1489 0,-581 154,-1078 459,-1489 307,-412 689,-617 1148,-617 460,0 842,205 1148,617 306,411 459,908 459,1489 0,581 -153,1078 -459,1489 -306,411 -688,617 -1148,617zm9 -697c267,0 478,-134 631,-404 154,-268 230,-607 230,-1015 0,-409 -76,-747 -230,-1016 -153,-268 -364,-402 -631,-402 -268,0 -478,134 -630,402 -152,269 -228,607 -228,1016 0,408 76,747 228,1015 152,270 362,404 630,404zm4748 -1460c490,-303 668,-704 533,-1204 -135,-501 -503,-786 -1106,-786l-1693 0 0 4104 1701 0c668,0 1068,-316 1202,-880 135,-563 -78,-975 -637,-1234zm-215 -840c-13,305 -198,484 -557,484l-788 0 0 -965 769 0c397,0 590,176 576,481zm10 1411c116,170 135,352 59,547 -77,196 -270,342 -586,342l-828 0 0 -1162 806 0c251,0 434,104 549,273zm3255 889c268,0 478,-135 631,-404 153,-268 230,-607 230,-1015 0,-409 -76,-747 -230,-1016 -153,-268 -363,-402 -631,-402 -268,0 -477,134 -629,402 -153,269 -229,607 -229,1016 0,408 76,747 229,1015 152,269 361,404 629,404zm-53555 -25287l0 2041c267,27 485,-83 650,-329 164,-247 402,-581 717,-1005 314,-423 567,-666 757,-728 190,-63 399,-95 625,-95l202 895c-245,26 -434,103 -564,228 -132,126 -325,372 -580,738 -255,364 -498,595 -729,690 376,101 752,422 1089,989l1250 2105 -1208 0c-786,-1347 -1251,-2108 -1397,-2284 -147,-177 -418,-265 -812,-265l0 2549 -1085 0 0 -2549c-329,0 -576,71 -740,211 -165,139 -654,919 -1469,2338l-1212 0 1252 -2105c339,-571 721,-890 1092,-989 -206,-79 -446,-312 -720,-698 -274,-386 -477,-635 -607,-749 -129,-113 -311,-183 -545,-209l174 -895c249,0 465,30 648,91 183,60 434,305 755,735 321,429 562,758 724,986 162,228 378,344 648,345l0 -2041 1085 0zm4304 0l1004 0 0 3694 2039 -3694 961 0 0 5529 -931 0 0 -3684 -2077 3684 -996 0 0 -5529zm6500 5525l0 -4568 -1557 0 0 -961 4116 0 0 961 -1564 0 0 4568 -995 0zm3557 -5525l1005 0 0 3694 2038 -3694 961 0 0 5529 -930 0 0 -3684 -2077 3684 -997 0 0 -5529zm9487 5529l-1177 0 -888 -1503c-276,-466 -433,-787 -619,-886 -185,-98 -450,-141 -796,-125l0 2514 -960 0 0 -5537 960 0 0 2053c240,21 427,-28 559,-147 133,-120 371,-365 639,-787 503,-792 1039,-1207 1687,-1197l166 919c-342,-17 -703,198 -1026,684 -299,449 -529,765 -742,914 283,99 644,469 1038,1136l1159 1962zm3674 -5529l1857 5529 -1131 0 -366 -1143 -1827 0 -356 1143 -1131 0 1838 -5529 1116 0zm-1213 3502l1357 0 -723 -2059 -634 2059zm3943 2027l0 -5529 1657 0c758,0 1324,113 1704,486 379,373 553,803 519,1289 -34,486 -203,891 -507,1213 -305,321 -830,482 -1574,482l-787 0 0 2059 -1012 0zm1012 -2938l609 0c858,0 1285,-274 1281,-853 -4,-577 -423,-820 -1257,-820l-633 0 0 1673zm4541 911l1356 0 -723 -2059 -633 2059z">
   </path>
   <g>
    <path d="M20969 49387c7441,0 13476,6034 13476,13475 0,7441 -6035,13476 -13476,13476 -7441,0 -13476,-6035 -13476,-13476 0,-7441 6035,-13475 13476,-13475z" fill="#FFF">
    </path>
    <path d="M20969 49945c-7133,0 -12917,5785 -12917,12917 0,7133 5784,12917 12917,12917 7133,0 12917,-5784 12917,-12917 0,-7132 -5784,-12917 -12917,-12917zm0 1938c-6063,0 -10980,4916 -10980,10979 0,6064 4917,10980 10980,10980 6063,0 10979,-4916 10979,-10980 0,-6063 -4916,-10979 -10979,-10979z" fill="red">
    </path>
   </g>
  </g>
 </g>
</svg>
