<svg role="img" style="shape-rendering: geometricPrecision;
text-rendering: optimizeLegibility; fill-rule:evenodd; clip-rule:evenodd;" version="1.1" viewbox="0 0 75000 40000" width="140px" xml:space="preserve" xmlns="http://www.w3.org/2000/svg">
 <title>
  7.19
 </title>
 <g fill="orange" stroke="gray" stroke-width="800">
  <rect height="35000" rx="4500" ry="4500" width="70000" x="2500" y="2500">
  </rect>
 </g>
 <g class="blue_layer" fill="#0177D9" style="fill-rule: evenodd; clip-rule: nonzero;">
 </g>
 <g fill="red">
 </g>
 <g class="black_layer" fill="#000" stroke="#000" stroke-width="0.8mm" style="shape-rendering: geometricPrecision">
  <symbol id="7_19">
   <path d="M2097 13782c-589,0 -1078,-264 -1471,-790 -391,-527 -588,-1163 -588,-1907 0,-745 197,-1381 588,-1908 393,-527 882,-790 1471,-790 588,0 1077,263 1470,790 391,527 588,1163 588,1908 0,744 -197,1380 -588,1907 -393,526 -882,790 -1470,790zm6404 -8273l-1120 0 -846 -1430c-216,-468 -411,-749 -588,-843 -177,-94 -429,-134 -757,-119l0 2392 -915 0 0 -5269 915 0 0 1954c227,20 404,-28 531,-141 127,-114 329,-363 608,-748 453,-769 989,-1149 1606,-1139l158 874c-326,-16 -651,201 -977,651 -267,439 -503,729 -706,870 269,95 599,455 988,1082l1103 1866zm2616 -1929l1290 0 -687 -1959 -603 1959zm1154 -3333l1768 5262 -1077 0 -350 -1087 -1737 0 -339 1087 -1076 0 1749 -5262 1062 0zm2278 0l1065 0 1299 2646 998 -2646 1019 0 -1602 4093c-223,570 -546,916 -879,1078 -333,161 -698,178 -1096,51l-194 -868c226,35 452,38 680,11 228,-27 419,-212 573,-554l-1863 -3811zm6483 0l0 5277 -878 0 0 -5277 878 0zm1650 -4l3781 0 0 5262 -918 0 0 -4384 -1948 0 0 4384 -915 0 0 -5262zm6559 5262l0 -4347 -1480 0 0 -915 3918 0 0 915 -1489 0 0 4347 -949 0zm4712 -5258l0 5277 -878 0 0 -5277 878 0zm8409 0l0 1943c254,25 460,-79 617,-313 157,-235 384,-552 684,-956 298,-403 538,-634 720,-694 180,-59 380,-90 594,-90l192 852c-233,25 -412,97 -537,217 -125,119 -308,355 -550,702 -243,348 -475,567 -695,657 357,96 715,402 1036,941l1190 2003 -1150 0c-746,-1282 -1191,-2006 -1330,-2174 -139,-168 -397,-252 -771,-252l0 2426 -1034 0 0 -2426c-313,0 -548,68 -705,201 -156,133 -622,876 -1396,2225l-1154 0 1191 -2003c323,-544 687,-847 1039,-941 -195,-75 -424,-297 -684,-665 -261,-367 -454,-605 -577,-712 -124,-108 -298,-174 -521,-199l166 -852c237,0 442,29 617,86 174,58 414,291 718,700 305,409 535,722 689,939 154,217 360,327 617,328l0 -1943 1034 0zm8307 -4l-1658 3215 0 2051 -911 0 0 -2024 -1665 -3242 1018 0 1129 2187 1057 -2187 1030 0zm5582 5266l-1121 0 -845 -1430c-262,-443 -411,-749 -588,-843 -177,-94 -429,-134 -757,-119l0 2392 -915 0 0 -5269 915 0 0 1954c227,20 405,-27 531,-141 127,-113 353,-347 608,-748 478,-754 989,-1149 1606,-1139l158 874c-326,-16 -669,188 -977,651 -285,427 -503,729 -706,870 269,95 613,446 988,1082l1103 1866zm-44778 16035l0 -1055 -2503 0 0 -771 2529 -3443 886 0 0 3439 680 0 -258 775 -422 0 0 1055 -912 0zm0 -1830l0 -2099 -1554 2099 1554 0zm2885 845c144,0 268,53 371,158 103,106 154,233 154,383 0,147 -51,272 -154,378 -103,105 -227,158 -371,158 -145,0 -268,-53 -370,-158 -102,-105 -152,-231 -152,-378 0,-150 50,-277 152,-383 102,-105 225,-158 370,-158zm1738 753l-173 -848c516,171 943,253 1287,247 342,-5 632,-94 867,-266 236,-172 328,-370 279,-596 -48,-224 -193,-401 -434,-530 -239,-129 -558,-178 -955,-149l0 -614c424,-78 726,-208 907,-391 179,-182 263,-360 249,-533 -14,-172 -73,-316 -178,-429 -105,-114 -252,-178 -439,-190 -188,-12 -355,3 -500,46 -146,42 -372,156 -678,339l-316 -745c281,-161 559,-279 832,-353 273,-73 575,-93 905,-59 331,35 634,183 907,445 272,262 377,623 313,1082 -66,460 -352,752 -858,876 371,110 656,281 850,509 194,230 294,533 297,910 4,377 -160,715 -493,1012 -331,299 -757,467 -1277,504 -519,38 -983,-51 -1392,-267zm4274 1051l-342 0 427 -724c-123,-2 -236,-56 -339,-161 -103,-106 -154,-231 -154,-378 0,-150 51,-277 154,-383 103,-105 227,-158 371,-158 145,0 268,53 369,158 102,106 153,233 153,383 0,103 -16,189 -47,262 -33,73 -230,407 -592,1001zm5055 -2478c-99,-465 -111,-960 -32,-1488 78,-528 265,-994 561,-1395 295,-401 657,-652 1089,-751 431,-99 873,-24 1327,225l158 835c-503,-260 -916,-365 -1239,-315 -323,51 -587,217 -792,500 -204,283 -347,784 -428,1506 373,-596 777,-891 1215,-885 437,6 804,166 1098,479 295,314 426,733 391,1257 -37,525 -217,945 -545,1261 -327,316 -700,474 -1119,473 -419,-2 -780,-170 -1082,-504 -303,-334 -503,-734 -602,-1198zm1167 720c148,155 340,229 576,219 235,-10 419,-105 551,-285 133,-180 223,-426 272,-738 49,-313 -35,-555 -253,-727 -219,-172 -437,-214 -655,-128 -217,86 -413,237 -583,454 -172,216 -274,402 -306,556 117,277 250,493 398,649zm3748 1758l-341 0 426 -724c-123,-2 -236,-56 -339,-161 -102,-106 -154,-231 -154,-378 0,-150 52,-277 154,-383 103,-105 228,-158 372,-158 144,0 267,53 369,158 101,106 153,233 153,383 0,103 -16,190 -48,262 -32,73 -230,407 -592,1001zm1495 -5163l231 -922 3154 0 0 823c-630,1342 -1058,2283 -1284,2822 -224,540 -367,1079 -426,1621l-1057 0c46,-495 234,-1064 563,-1707 330,-644 757,-1522 1284,-2637l-2465 0zm12370 4344l-485 -944c-176,-338 -348,-551 -515,-640 -166,-88 -344,-116 -532,-80l0 1664 -885 0 0 -3763 885 0 0 1286c119,20 238,-18 354,-113 116,-97 336,-307 660,-632 365,-454 722,-653 1073,-596l172 676c-301,51 -542,204 -724,459 -149,255 -341,427 -577,514 329,99 608,397 835,893l691 1276 -952 0zm2543 -3771l2778 0 0 3771 -894 0 0 -3007 -994 0 0 1423c-64,559 -270,971 -616,1237 -348,266 -612,424 -795,476l-291 -797c511,-190 782,-471 812,-846l0 -2257zm4281 2786c145,0 269,53 372,158 103,106 154,233 154,383 0,147 -51,272 -154,378 -103,105 -227,158 -372,158 -144,0 -267,-53 -370,-158 -101,-106 -151,-231 -151,-378 0,-150 50,-277 151,-383 103,-105 226,-158 370,-158zm-48921 -7670c342,0 612,-172 808,-517 197,-344 294,-778 294,-1301 0,-523 -97,-956 -294,-1301 -196,-343 -466,-515 -808,-515 -344,0 -612,172 -807,515 -195,345 -292,778 -292,1301 0,523 97,957 292,1301 195,345 463,517 807,517zm3521 -4428l3780 0 0 5262 -918 0 0 -4384 -1948 0 0 4384 -914 0 0 -5262zm6732 3336l1289 0 -686 -1959 -603 1959zm1154 -3332l1767 5262 -1076 0 -350 -1088 -1737 0 -339 1088 -1076 0 1748 -5262 1063 0zm5934 3450l845 378c-95,251 -223,483 -382,699 -392,526 -893,790 -1507,790 -612,0 -1107,-264 -1487,-790 -380,-527 -570,-1163 -570,-1907 0,-745 190,-1381 570,-1908 380,-527 875,-790 1487,-790 614,0 1115,263 1507,790 182,245 321,512 420,802l-864 312c-49,-192 -118,-365 -206,-522 -196,-344 -465,-514 -809,-514 -342,0 -611,172 -807,515 -194,345 -292,778 -292,1301 0,523 98,957 292,1301 196,345 465,517 807,517 344,0 613,-173 809,-518 78,-137 141,-290 187,-456zm2239 1812l0 -5266 951 0 0 2017 1944 0 0 -2017 952 0 0 5266 -952 0 0 -2375 -1944 0 0 2375 -951 0zm6442 -5262l0 1958 958 0c645,27 1111,182 1395,465 286,282 422,669 411,1158 -13,488 -147,859 -403,1111 -256,252 -507,410 -754,474 -246,64 -544,96 -894,96l-1661 0 0 -5262 948 0zm0 4424l591 0c473,0 803,-70 988,-210 187,-139 284,-333 293,-580 8,-248 -82,-450 -273,-605 -189,-156 -520,-233 -993,-233l-606 0 0 1628zm4141 -4424l0 5262 -937 0 0 -5262 937 0zm4208 -1408c-36,73 -79,142 -128,206 -169,139 -335,209 -497,209 -161,0 -327,-70 -496,-209 -52,-64 -94,-133 -128,-206l-816 0c73,276 232,515 477,714 246,201 565,300 956,300 390,0 707,-99 952,-300 245,-199 404,-438 478,-714l-798 0zm-2580 1408l956 0 0 3516 1940 -3516 915 0 0 5262 -886 0 0 -3506 -1977 3506 -948 0 0 -5262zm8291 0l3344 0 0 933 -2355 0 0 4329 -989 0 0 -5262zm4494 5262l0 -5262 1577 0c720,-47 1261,107 1622,462 361,355 527,764 494,1227 -31,463 -193,848 -483,1154 -291,306 -789,459 -1497,459l-751 0 0 1960 -962 0zm962 -2796l581 0c817,8 1222,-261 1220,-812 -4,-549 -403,-810 -1197,-780l-604 0 0 1592zm3713 -2466l1065 0 1298 2645 999 -2645 1019 0 -1602 4093c-254,557 -546,915 -880,1077 -332,162 -697,178 -1095,52l-194 -868c226,35 451,38 680,11 228,-27 419,-212 573,-555l-1863 -3810zm5696 3925c370,365 773,551 1207,561 435,11 736,-40 904,-150 168,-110 265,-307 289,-590 25,-283 -53,-499 -234,-649 -179,-150 -466,-224 -861,-224l-301 0 0 -761c301,0 538,-6 711,-20 172,-14 326,-123 460,-331 136,-207 142,-428 22,-665 -122,-236 -340,-358 -655,-361 -315,-5 -568,26 -759,93 -191,67 -404,196 -640,387l-525 -720c495,-399 1063,-616 1707,-650 643,-35 1129,94 1457,385 329,293 477,685 447,1178 -31,494 -306,849 -825,1068 274,32 516,169 727,410 211,241 301,579 270,1015 -30,434 -213,791 -547,1072 -335,281 -833,424 -1495,430 -664,7 -1309,-239 -1936,-737l577 -741z">
   </path>
  </symbol>
  <g transform="scale(1)">
   <use x="7250" xlink:href="#7_19" y="9000">
   </use>
  </g>
  <use x="0" xlink:href="#border 350x700" y="0">
  </use>
 </g>
</svg>
