<svg role="img" style="shape-rendering: geometricPrecision;
text-rendering: optimizeLegibility; fill-rule:evenodd; clip-rule:evenodd;" version="1.1" viewbox="0 0 75000 75000" width="140px" xml:space="preserve" xmlns="http://www.w3.org/2000/svg">
 <title>
  4.5.2
 </title>
 <g fill="#FFF" stroke="gray" stroke-width="800">
  <circle cx="37500" cy="37500" r="35000">
  </circle>
 </g>
 <g class="blue_layer" fill="#0177D9" style="fill-rule: evenodd; clip-rule: nonzero;">
  <circle cx="37500" cy="37500" r="33000">
  </circle>
  <path d="M36492.67 4007.33l2000 0 0 67000 -2000 0 0 -67000zm-7094.63 32507.69c2293.23,0 4163.1,1872.55 4163.1,4165.92 0,2293.24 -1869.87,4166.63 -4163.1,4166.63 -2060.36,0 -3778.6,-1511.7 -4108.19,-3479.56l3937.83 0c432.52,0 744.79,-187.82 748.88,-645.96 3.52,-358.74 -308.76,-635.54 -497.85,-942.18l-1782.15 -2900.33c519.38,-234.28 1095.93,-364.38 1701.48,-364.38l0 -0.14zm-15346.56 -228.79c-719.73,-399.14 -1547.17,-627.23 -2424.03,-627.23 -2766.86,0 -5023.35,2256.49 -5023.35,5023.35 0,2765.45 2256.49,5021.94 5023.35,5021.94 2766.16,0 5021.94,-2256.49 5021.94,-5021.94 0,-1512.4 -675.24,-2873.16 -1741.19,-3795.92l456.88 -847.01 6315.26 5328.59 2742.5 0c337.91,2443.46 2442.06,4336.28 4975.34,4336.28 2764.05,0 5020.53,-2256.49 5020.53,-5023.35 0,-2766.86 -2256.48,-5023.35 -5020.53,-5023.35 -769.01,0 -1499.87,174.59 -2152.86,486.73l-1550.7 -2527.66 696.79 -1184.91 426.88 0c906.71,0 910.93,-1237.01 0,-1237.01l-3211.2 0c-790.69,0 -786.47,1291.35 0,1291.35l1552.1 0 -374.09 699.6 -8404.06 0c166.13,-621.6 6.19,-1159.14 -374.09,-1506.9 -321.29,-294.12 -918.53,-441.53 -803.08,-915.86 68.14,-282.29 403.93,-536.14 696.78,-536.14l2033.19 0c812.94,0 819.13,-916.42 0,-916.42l-1658.4 0c-1120.29,0 -1927.59,671.02 -1927.59,1614.61 0,778.87 586.12,1172.39 1017.37,1237.71 371.97,54.91 328.19,791.26 160.64,1130.71l-1474.1 2992.83 -0.28 0zm-379.02 770.42c-606.39,-343.53 -1303.03,-540.36 -2045.01,-540.36 -2294.64,0 -4165.92,1871.28 -4165.92,4165.92 0,2293.23 1871.28,4165.21 4165.92,4165.21 2293.23,0 4164.51,-1871.84 4164.51,-4165.21 0,-1186.32 -500.66,-2259.16 -1301.07,-3018.6l-847.01 1574.35c-388.73,724.52 -860.1,1518.02 -1554.07,1958.14 -307.35,194.02 -878.26,29.85 -1001.32,-312.28 -136.28,-380.42 177.26,-770.41 552.76,-848.27 501.36,-102.22 899.8,-682.85 1100.01,-1090.3l931.06 -1888.6 0.14 0zm13040.8 442.94c-771.83,652.29 -1305.85,1581.95 -1444.96,2630.57l3049.86 0 -1604.9 -2630.57zm-451.24 -739.17c-1013.15,814.21 -1708.52,2011.65 -1855.93,3369.74l-1708.52 0 2567.92 -5005.89 996.39 1636.15 0.14 0zm-4581.68 3208.39l-5834.03 -4898.74 374.79 -915.16 8295.65 0 -2836.41 5813.9zm28908.89 -16041.75c477.36,-545.07 1157.08,-868.65 1873.25,-758.16 715.39,110.36 1314.74,603.09 1558.58,1286.7 244.5,682.95 93.82,1443.7 -389.35,1983.6 -567.43,707.77 -1366.43,1159.67 -2235.08,1416.83 -641.48,189.57 -1392.66,-21.06 -1614.03,-651.68 -399.56,-1137.32 13.44,-2371.68 806.76,-3277.29l-0.13 0zm8383.75 26182.09c1385.55,2025.09 3522.42,78.44 2521.7,-1374.7l-5743.42 -9461.1 -2183.39 1727.74 5405.11 9108.19 0 -0.13zm-14910.92 433.42l2725.88 -8368.5c30.62,-125.74 102.08,-237.39 202.36,-318.54l4104.46 -3747.67 -522.72 -7957.43c0,-184.41 86.19,-358.09 232.99,-470.38l2658.17 -1875.71c195.9,-149.38 788.27,-160.89 996.97,-30.63l5317.75 3880.38c606.98,443.63 708.42,985.47 708.42,1189l0 4674.99c-24.3,1607.69 -2287.42,1739.76 -2287.42,-134.65l-155.07 -3442.57c0,-212.57 -113.59,-655.43 -297.99,-760.75l-3040.55 -2140.61 361.83 7540.68 -5550.74 4472.75c-111.65,84.25 -188.93,204.17 -220.85,340.77l-2544.57 7559.81c-392.46,1531.7 -3024.52,961.17 -2688.92,-411.07l0 0.13zm5844.86 -16396.76l199.13 2822.29 -2559.3 2049.38c-1308.41,769.02 -2711.8,-1029.41 -1496.69,-2056.36l3856.86 -2815.18 0 -0.13z" fill="white">
  </path>
 </g>
 <g fill="red">
 </g>
 <g class="black_layer" fill="#000" stroke="#000" stroke-width="0.8mm" style="shape-rendering: geometricPrecision">
 </g>
</svg>
