<svg role="img" style="shape-rendering: geometricPrecision;
text-rendering: optimizeLegibility; fill-rule:evenodd; clip-rule:evenodd;" version="1.1" viewbox="0 0 95000 95000" width="140px" xml:space="preserve" xmlns="http://www.w3.org/2000/svg">
 <title>
  5.10.2
 </title>
 <g fill="#FFF" stroke="gray" stroke-width="800">
  <rect height="90000" rx="4500" ry="4500" width="90000" x="2500" y="2500">
  </rect>
 </g>
 <g class="blue_layer" fill="#0177D9" style="fill-rule: evenodd; clip-rule: nonzero;">
  <rect height="86000" rx="2500" ry="2500" width="86000" x="4500" y="4500">
  </rect>
  <symbol id="5_10_2">
   <path d="M66631 55070l-16077 -9400 0 5994 -46676 0 0 6812 46676 0 0 5995 16077 -9401zm-24120 -32645l0 5995c0,455 176,892 489,1214 312,322 737,504 1178,504l2339 0c109,-2641 2245,-4711 4811,-4697 2564,15 4658,2120 4737,4762l14527 8 0 -11617 -3247 0c-442,0 -868,-181 -1180,-503 -311,-321 -487,-759 -487,-1215l0 -3538c0,-457 176,-895 487,-1216 312,-323 738,-503 1180,-503l3036 0 211 0 0 -1510 -3026 0 -18960 0c-1040,0 -1994,600 -2469,1553l-3626 7365 0 3398zm2010 -4647c-80,176 -67,386 34,550 100,164 279,266 469,266l3481 0 2170 0c1023,0 1852,-854 1852,-1909l-11 -3559c0,-506 77,-980 -270,-1338 -347,-358 -556,-298 -1046,-298l-2876 0c-650,0 -1241,390 -1514,1000l-2289 5288zm11805 816l5952 0c921,0 1666,-768 1666,-1718l0 -3538c0,-457 -176,-893 -487,-1216 -314,-323 -738,-503 -1180,-503l-5951 0c-443,0 -866,180 -1180,503 -313,323 -487,759 -487,1216l0 3538c0,456 186,905 487,1215 302,309 737,503 1180,503zm-2703 11760c0,-1322 -1040,-2394 -2323,-2394 -1284,0 -2325,1072 -2325,2394 0,1322 1041,2395 2325,2395 1283,0 2323,-1073 2323,-2395zm1616 0c0,-2243 -1764,-4060 -3939,-4060 -2176,0 -3941,1817 -3941,4060 0,2244 1765,4062 3941,4062 2175,0 3939,-1818 3939,-4062zm16132 4813l0 4666 -67742 0 0 -4666 67742 0zm-63059 -13132l16077 -9401 0 5995 15096 0 0 6813 -15096 0 0 5994 -16077 -9401z" fill="#FFF">
   </path>
  </symbol>
  <g fill="#FFF" transform="scale(1.3)">
   <use x="-700" xlink:href="#5_10_2" y="1">
   </use>
  </g>
 </g>
 <g fill="red">
 </g>
</svg>
