<svg role="img" style="shape-rendering: geometricPrecision;
text-rendering: optimizeLegibility; fill-rule:evenodd; clip-rule:evenodd;" version="1.1" viewbox="0 0 75000 110000" width="140px" xml:space="preserve" xmlns="http://www.w3.org/2000/svg">
 <title>
  6.19
 </title>
 <g fill="#FFF" stroke="gray" stroke-width="800">
  <rect height="105000" rx="4500" ry="4500" width="70000" x="2500" y="2500">
  </rect>
 </g>
 <g class="blue_layer" fill="#0177D9" style="fill-rule: evenodd; clip-rule: nonzero;">
  <rect height="101000" rx="2500" ry="2500" width="66000" x="4500" y="4500">
  </rect>
  <rect fill="#FFFFFF" height="57000" rx="2000" ry="2000" width="57000" x="9000" y="17500">
  </rect>
 </g>
 <g fill="red">
 </g>
 <g class="black_layer" fill="#000" stroke="#000" stroke-width="0.8mm" style="shape-rendering: geometricPrecision">
  <g>
   <path d="M60080.72 49567.81c917.7,1882.84 884.57,3696.12 -74.92,5510.32 -541.27,1023.48 -1439.99,2104.76 -2278.06,2820.51 -1767.59,1509.57 -3201.67,2908.67 -3251.24,5404.01l-1787.2 -7.43c-178.17,-6130.27 8422.84,-7593.18 5696.69,-12988.4 -850.63,-1683.55 -2515.1,-3243.21 -2501.8,-5471.57l-2293.4 0c-52.27,0 -95.28,-42.87 -95.28,-95.27l0 -1703.88c0,-52.4 42.88,-95.27 95.28,-95.27l598.73 0 -2025.91 -3055.7 0.02 0c-63.81,-93.71 -101.21,-342.85 -101.21,-464.04l0 -4932.25c0,-321.8 263.47,-585.27 585.27,-585.27l853.89 0 0 -4355.08c0,-488.63 396.12,-884.74 884.73,-884.74 488.61,0 884.72,396.11 884.72,884.74l0 4355.08 3185.02 0 0 -4355.08c0,-488.63 396.11,-884.74 884.72,-884.74 488.62,0 884.73,396.11 884.73,884.74l0 4355.08 853.91 0c321.78,0 585.25,263.36 585.25,585.27l0 4932.25c0,135.59 -46.74,396.93 -124.89,496.44l0.01 0 -2002.22 3023.3 598.73 0c52.4,0 95.28,42.87 95.28,95.27l0 1703.88c0,52.4 -42.88,95.27 -95.28,95.27l-2377.19 0c149.45,2180.2 1392.15,2825.53 2321.62,4732.56zm-29462.62 13784.28l0 -32906.11c0,-458.1 181.08,-899.8 505.45,-1224.16 324.37,-325.98 766.06,-508.64 1225.77,-508.64l13878.38 0c458.91,0 899.01,182.66 1223.37,508.64 325.98,324.36 508.65,766.06 508.65,1224.16l0 32905.31 -17341.46 0.8 -0.16 0zm3421.3 -20938.4l10534.08 -1.61c573.83,0 1002.13,-464.47 1002.13,-1038.3l0 -8506.24c0,-274.8 -101.54,-558.21 -291.21,-747.09 -188.9,-190.48 -472.3,-292.82 -747.9,-292.82l-10497.1 0c-274.8,0 -540.04,110.95 -734.5,305.42 -193.66,193.66 -304.61,458.09 -304.61,734.49l0 8506.24c0,274.8 110.95,540.83 304.61,734.5 194.46,194.46 459.7,305.41 734.5,305.41zm-4481.76 -9647.68l0 -1354.08 -2573.47 0c-458.12,0 -905.38,189.68 -1224.18,507.04 -318,318.8 -494.45,814.85 -494.45,1274.54l-13.39 5476.89c0,740.71 -296,1450.04 -822.65,1971.26l-9455.6 9910.68c-4251.12,6050.72 233.04,13872.02 7359.22,12566.72 3582.76,-655.77 6364.08,-2825.48 6364.08,-6427.06l0 -11861.38c0,-185.06 73.96,-362.94 202.28,-491.26 128.31,-128.32 351.16,-202.27 535.26,-202.27l0 -1723.25 -727.49 0c-459.71,0 -900.59,182.67 -1224.97,507.04 -325.17,324.37 -507.05,766.07 -507.05,1225.77l0 12296.06c0,2975.78 -1887.73,4680.21 -4880.89,5232.05 -2926.21,540.83 -5080.15,-504.65 -6502.62,-3262.38 -1438.23,-2787.71 -435.31,-5464.3 1088.05,-7134.78l9483.18 -9775.2c520.43,-521.22 825.84,-1176.97 825.84,-1912.28l-14.99 -6821.4 2583.67 -2.4 0.17 -0.31z">
   </path>
   <path d="M25935.44 90424.53c-751.72,356.53 -1184.72,783.7 -1297.25,1282.21 -112.88,500.09 -26.29,898.35 257.73,1196.3 285.04,299.03 730.31,412.44 1335.91,345.79 603.49,-66.41 935.3,-423.27 998.7,-1067.44 63.22,-642.24 -367.26,-1228.51 -1295.09,-1756.86zm-25.78 -1245.7c689.43,-369.41 1053.62,-760.24 1095.36,-1170.53 41.93,-412.21 -48.35,-722.75 -268.47,-934.27 -220.07,-211.49 -498.28,-317.87 -835.48,-317.87 -337.19,0 -616.38,122.53 -833.33,369.42 -218.95,249.15 -297.22,571.49 -234.1,966.49 63.5,397.43 423.11,758.15 1076.02,1086.76zm-1548.53 616.41c-347.93,-311.43 -630.74,-631.99 -848.36,-960.05 -218.27,-329.06 -295.29,-749.49 -231.96,-1258.59 63.29,-508.84 311.43,-994.42 745.27,-1454.03 433.84,-459.61 1048.11,-689.42 1840.63,-689.42 792.52,0 1417.04,219.68 1877.14,659.36 459.04,438.65 709.88,927.97 751.71,1471.21 41.84,543.42 -20.66,976.62 -189,1301.54 -168.76,325.75 -461.77,635.73 -887.02,929.98 403.77,199.74 729.1,462.73 981.52,786.07 252.2,323.04 357.48,818.41 315.72,1484.1 -41.91,667.96 -342.08,1260.2 -899.91,1780.49 -558.91,521.28 -1179.12,781.78 -1862.1,781.78 -796.82,0 -1473.41,-266.37 -2029.63,-796.81 -556.22,-530.45 -833.33,-1108.24 -833.33,-1731.09 0,-622.85 104.79,-1095.74 320.01,-1421.82 214.23,-324.59 530.5,-618.55 949.31,-882.72zm8772.55 -2820.01c-425.26,0 -786.53,294.07 -1086.77,884.88 -298.93,588.24 -448.88,1301.54 -448.88,2134.87 0,835.47 149.95,1548.77 448.88,2139.16 300.24,592.96 661.51,889.17 1086.77,889.17 423.1,0 774.07,-297.03 1052.4,-889.17 277.88,-591.21 418.81,-1303.69 418.81,-2139.16 0,-833.33 -140.92,-1545.81 -418.81,-2134.87 -278.32,-590 -629.3,-884.88 -1052.4,-884.88zm-38.66 -1565.71c852.66,0 1578.6,448.88 2179.97,1346.64 601.37,897.76 904.2,1980.23 904.2,3251.7 0,1271.47 -302.83,2356.09 -904.2,3253.85 -601.37,897.76 -1327.31,1346.64 -2179.97,1346.64 -850.51,0 -1578.63,-448.91 -2179.97,-1346.64 -601.35,-897.73 -902.06,-1982.38 -902.06,-3253.85 0,-1271.47 300.71,-2353.97 902.06,-3251.7 601.34,-897.73 1329.46,-1346.64 2179.97,-1346.64zm7618.51 1565.71c-425.26,0 -786.08,294.25 -1086.77,884.88 -298.54,588.48 -448.88,1301.54 -448.88,2134.87 0,835.47 150.34,1548.53 448.88,2139.16 300.69,592.78 661.51,889.17 1086.77,889.17 423.1,0 775.34,-296.39 1052.4,-889.17 279.2,-590.63 418.81,-1303.69 418.81,-2139.16 0,-833.33 -139.61,-1546.39 -418.81,-2134.87 -277.06,-590.63 -629.3,-884.88 -1052.4,-884.88zm-38.66 -1565.71c852.66,0 1578.6,448.88 2179.97,1346.64 601.37,897.76 904.2,1980.23 904.2,3251.7 0,1271.47 -302.83,2356.09 -904.2,3253.85 -601.37,897.76 -1327.31,1346.64 -2179.97,1346.64 -850.51,0 -1578.6,-448.88 -2179.97,-1346.64 -601.38,-897.76 -902.06,-1982.38 -902.06,-3253.85 0,-1271.47 300.68,-2353.94 902.06,-3251.7 601.37,-897.76 1329.46,-1346.64 2179.97,-1346.64zm5114.91 3667.51l1466.92 0 1354.97 2493.03 1365.71 -2493.03 1516.32 0 616.41 5430.38 -1471.22 0 -491.83 -3472.14 -1531.09 2421.63 -1528.95 -2421.63 -491.83 3472.14 -1477.66 0 672.25 -5430.38z" fill="white">
   </path>
  </g>
 </g>
</svg>
