<svg role="img" style="shape-rendering: geometricPrecision;
text-rendering: optimizeLegibility; fill-rule:evenodd; clip-rule:evenodd;" version="1.1" viewbox="0 0 140000 50000" width="220px" xml:space="preserve" xmlns="http://www.w3.org/2000/svg">
 <title>
  5.33
 </title>
 <g fill="#FFF" stroke="gray" stroke-width="800">
  <rect height="45000" rx="4500" ry="4500" width="135000" x="2500" y="2500">
  </rect>
 </g>
 <g class="blue_layer" fill="#0177D9" style="fill-rule: evenodd; clip-rule: nonzero;">
 </g>
 <g fill="red">
 </g>
 <g class="black_layer" fill="#000" stroke="#000" stroke-width="0.8mm" style="shape-rendering: geometricPrecision">
  <symbol id="5_33">
   <path d="M27633 15681l0 -9311 -3170 0 0 -1958 8390 0 0 1958 -3189 0 0 9311 -2031 0zm9826 11085l1810 808c-204,538 -478,1035 -819,1497 -838,1128 -1913,1692 -3226,1692 -1311,0 -2373,-564 -3187,-1692 -814,-1128 -1219,-2490 -1219,-4084 0,-1595 405,-2957 1219,-4086 814,-1128 1876,-1692 3187,-1692 1313,0 2388,564 3226,1692 389,524 688,1096 900,1717l-1851 669c-105,-411 -253,-782 -441,-1118 -419,-736 -996,-1101 -1732,-1101 -734,0 -1309,368 -1728,1104 -416,739 -626,1666 -626,2786 0,1120 210,2050 626,2786 419,738 994,1107 1728,1107 736,0 1313,-371 1732,-1110 167,-293 301,-621 401,-975zm8185 3871l0 -9311 -3170 0 0 -1959 8390 0 0 1959 -3189 0 0 9311 -2031 0zm12326 126c-1260,0 -2308,-564 -3149,-1692 -838,-1128 -1260,-2490 -1260,-4084 0,-1595 422,-2957 1260,-4086 841,-1128 1889,-1692 3149,-1692 1260,0 2307,564 3148,1692 838,1129 1260,2491 1260,4086 0,1594 -422,2956 -1260,4084 -841,1128 -1888,1692 -3148,1692zm24 -1912c733,0 1311,-369 1730,-1107 422,-736 631,-1666 631,-2786 0,-1120 -209,-2047 -631,-2786 -419,-736 -997,-1104 -1730,-1104 -736,0 -1311,368 -1728,1104 -419,739 -626,1666 -626,2786 0,1120 207,2050 626,2786 417,738 992,1107 1728,1107zm8091 -9484l8097 0 0 11270 -1966 0 0 -9389 -4172 0 0 9389 -1959 0 0 -11270zm-26046 -3559c-1260,0 -2308,-565 -3149,-1693 -838,-1128 -1260,-2490 -1260,-4083 0,-1596 422,-2958 1260,-4086 841,-1129 1889,-1693 3149,-1693 1260,0 2307,564 3148,1693 838,1128 1260,2490 1260,4086 0,1593 -422,2955 -1260,4083 -841,1128 -1888,1693 -3148,1693zm24 -1913c733,0 1311,-368 1730,-1107 422,-736 631,-1666 631,-2786 0,-1120 -209,-2047 -631,-2786 -419,-736 -997,-1104 -1730,-1104 -736,0 -1311,368 -1728,1104 -419,739 -625,1666 -625,2786 0,1120 206,2050 625,2786 417,739 992,1107 1728,1107zm15165 1762l-639 0 -1816 -2998c-521,-954 -967,-1577 -1344,-1870 -373,-290 -840,-384 -1396,-279l0 5147 -1967 0 0 -11253 1967 0 0 4185c378,54 717,-56 1020,-330 301,-272 882,-1016 1738,-2227 857,-1212 1765,-1811 2719,-1795l535 1693c-833,231 -1483,762 -1951,1598 -577,938 -1109,1612 -1598,2023 731,150 1451,929 2165,2337l1322 2251 1126 0 -111 3503 -1407 -16 -363 -1969zm7522 24l0 -9311 -3170 0 0 -1958 8390 0 0 1958 -3189 0 0 9311 -2031 0zm11530 -4123l2762 0 -1470 -4197 -1292 4197zm2472 -7138l3785 11269 -2305 0 -750 -2329 -3720 0 -726 2329 -2305 0 3745 -11269 2276 0z">
   </path>
  </symbol>
  <use x="2500" xlink:href="#border 450x1350" y="2500">
  </use>
  <g transform="scale(1.28)">
   <use x="2500" xlink:href="#5_33" y="2500">
   </use>
  </g>
 </g>
</svg>
