<svg role="img" style="shape-rendering: geometricPrecision;
text-rendering: optimizeLegibility; fill-rule:evenodd; clip-rule:evenodd;" version="1.1" viewbox="0 0 75000 75000" width="140px" xml:space="preserve" xmlns="http://www.w3.org/2000/svg">
 <title>
  3.14
 </title>
 <g fill="#FFF" stroke="gray" stroke-width="800">
  <circle cx="37500" cy="37500" r="35000">
  </circle>
 </g>
 <g class="blue_layer" fill="#0177D9" style="fill-rule: evenodd; clip-rule: nonzero;">
 </g>
 <g fill="red">
  <path d="M37500 3500c18778,0 34000,15222 34000,34000 0,18778 -15222,34000 -34000,34000 -18778,0 -34000,-15222 -34000,-34000 0,-18778 15222,-34000 34000,-34000zm0 6000c15464,0 28000,12536 28000,28000 0,15464 -12536,28000 -28000,28000 -15464,0 -28000,-12536 -28000,-28000 0,-15464 12536,-28000 28000,-28000z">
  </path>
 </g>
 <g class="black_layer" fill="#000" stroke="#000" stroke-width="0.8mm" style="shape-rendering: geometricPrecision">
  <symbol id="digit 2 fill #000">
   <path d="M8080 10397l-448 2080 -6856 0 0 -1879c2827,-3064 4388,-4791 4684,-5181 293,-387 508,-810 644,-1263 135,-453 69,-873 -199,-1263 -268,-387 -763,-597 -1487,-627 -721,-28 -1492,459 -2307,1462l-1272 -1393c918,-1070 1957,-1661 3118,-1780 1160,-119 2152,108 2973,683 818,575 1252,1478 1293,2708 44,1230 -1520,3382 -4687,6453l4544 0z" fill="#000">
   </path>
  </symbol>
  <g transform="rotate(90, 37500, 37500)">
   <use x="30750" xlink:href="#3_13" y="13000">
   </use>
  </g>
  <g transform="rotate(-90, 37500, 37500)">
   <use x="30750" xlink:href="#3_13" y="13000">
   </use>
  </g>
  <g transform="scale(1.5)">
   <use x="14500" xlink:href="#digit 2 fill #000" y="14000">
   </use>
   <use transform="scale(1.3)" x="15000" xlink:href="#char_comma" y="8000">
   </use>
   <use x="27000" xlink:href="#digit 7 fill #000" y="14000">
   </use>
   <use x="20500" xlink:href="#char м fill #000" y="23000">
   </use>
  </g>
 </g>
</svg>
