<svg role="img" style="shape-rendering: geometricPrecision;
text-rendering: optimizeLegibility; fill-rule:evenodd; clip-rule:evenodd;" version="1.1" viewbox="0 0 75000 110000" width="140px" xml:space="preserve" xmlns="http://www.w3.org/2000/svg">
 <title>
  5.51
 </title>
 <g fill="#FFF" stroke="gray" stroke-width="800">
  <rect height="105000" rx="4500" ry="4500" width="70000" x="2500" y="2500">
  </rect>
 </g>
 <g class="blue_layer" fill="#0177D9" style="fill-rule: evenodd; clip-rule: nonzero;">
  <path d="M37492.67 26907.93c9665.03,0 17500,7834.97 17500,17500 0,9665.03 -7834.97,17500.01 -17500,17500.01 -9665.03,0 -17500.01,-7834.98 -17500.01,-17500.01 0,-9665.03 7834.98,-17500 17500.01,-17500zm0 2800.06c8118.72,0 14699.94,6581.5 14699.94,14699.94 0,8118.73 -6581.5,14699.94 -14699.94,14699.94 -8118.73,0 -14699.94,-6581.5 -14699.94,-14699.94 0,-8118.72 6581.5,-14699.94 14699.94,-14699.94z" fill="grey">
  </path>
 </g>
 <g fill="red">
 </g>
 <g class="black_layer" fill="#000" stroke="#000" stroke-width="0.8mm" style="shape-rendering: geometricPrecision">
  <path d="M18094.92 11202.45l1066.35 1460.84c907.93,-725.84 1538.24,-1083.79 2767.13,-1082.19 337.08,0.44 686.96,65.69 969.68,258.74 224.69,153.43 381.16,371.37 455.38,632.94 74.09,261.13 59.7,543.66 -22.89,800.97 -155.4,484.13 -551.51,880.79 -1075.79,916.98 -485.06,33.49 -972.03,37.73 -1458.19,38.14l0 1363.8 678.75 0c520.17,0 1099.21,89.5 1534.28,394.85 316.63,222.23 528.66,544.03 565.12,933.17 33.37,356.32 -87.51,707.59 -302.66,989.63 -246.68,323.37 -601.78,541.7 -992.25,646.9 -501.82,135.19 -1033.2,79.64 -1522.38,-79.97 -669.3,-218.38 -1285.38,-632.99 -1814.86,-1094.68l-1101.55 1415.25c1132.6,895.79 2223.26,1673.09 3738.94,1658.77 696.49,-6.57 1389.75,-141.34 2016.91,-450.82 515.67,-254.46 968.87,-619.65 1311.28,-1082.93 300.47,-406.51 509.84,-882.54 585.02,-1383.61 68.38,-455.8 23.75,-927.43 -164.26,-1350.81 -237.12,-533.97 -665.25,-912.01 -1204.44,-1126.69l-193.78 -77.15 178.23 -108.34c567.76,-345.14 955.99,-881.91 1113.61,-1526.38 238.46,-974.94 -88.31,-2045.75 -840.14,-2712.94 -1621.28,-1438.75 -4673.95,-733.42 -6213.2,505.72l-74.29 59.81zm13595.84 9087.75c1233.78,0 2182.42,-586.38 2906.47,-1559.52 1549.66,-2082.77 1549.67,-5169.89 0,-7252.66 -724.05,-973.13 -1672.69,-1559.53 -2906.47,-1559.53 -1233.78,0 -2182.42,586.4 -2906.47,1559.53 -1549.67,2082.77 -1549.66,5169.89 0,7252.66 724.05,973.14 1672.69,1559.52 2906.47,1559.52zm21.7 -1916.96c-1576.37,0 -2012.44,-2061.53 -2012.44,-3294.21 0,-1236.67 430.71,-3291.8 2012.44,-3291.8 1580.14,0 2019.68,2054.17 2019.68,3291.8 0,1236.49 -440.72,3294.21 -2019.68,3294.21zm8484.82 -8512.47l-2030.3 0 0 10323.33 2030.3 0 0 -4564.9 3537.77 0 0 4564.9 2027.89 0 0 -10323.33 -2027.89 0 0 3877.64 -3537.77 0 0 -3877.64zm14987.93 10323.33l2281.07 0 -3464.94 -10316.1 -2186.56 0 -3428.04 10316.1 2281.24 0 651.09 -2090.74 3195.75 0 670.39 2090.74zm-3338.9 -3908.83l1030.69 -3347.01 1174.23 3347.01 -2204.92 0z">
  </path>
  <path d="M6992.67 3507.92l61000 0c1925,0 3500,1575 3500,3500l0 95999.99c0,1925 -1575,3500 -3500,3500l-61000 0c-1925,0 -3500,-1575 -3500,-3500l0 -95999.99c0,-1925 1575,-3500 3500,-3500zm63500 9815.77l-66000 60914.89 0 4082.47 66000 -60914.89 0 -4082.47zm-66000 58873.65l66000 -60914.89 0 -4274.54c0,-1375 -1125,-2500 -2500,-2500l-61000 0c-1375,0 -2500,1125 -2500,2500l0 65189.43zm66000 -52749.94l-66000 60914.89 0 4082.46 66000 -60914.89 0 -4082.46zm0 6123.71l-66000 60914.89 0 4082.46 66000 -60914.89 0 -4082.46zm0 6123.7l-66000 60914.89 0 4082.47 66000 -60914.89 0 -4082.47zm0 6123.71l-66000 60914.89 0 4274.49c0,1375 1125,2500 2500,2500l61000 0c1375,0 2500,-1125 2500,-2500l0 -65189.38z">
  </path>
  <path d="M38792.64 46910.5l0 -9262.51 -5882.47 9262.51 5882.47 0zm-92.69 8008.46l0 -4675.19 -9133.25 0 0 -3808.07 7977.56 -12539.09 5366.56 0 0 12910.71 2507.82 0 0 3436.73 -2507.82 0 0 4675.19 -4210.59 0 -0.28 -0.28z">
  </path>
  <path d="M44796.78 68177c1065.02,0 2522.5,675.08 2913.27,1676.65l2825.87 7619.97c760.8,21.6 1956.75,1089.15 1956.75,1959.96l0 6095.83c0,1001.75 -1239.14,2199.22 -2195.83,2199.22l-25608.33 0c-913.33,0 -2195.84,-1154.11 -2195.84,-2199.22l0 -6095.83c0,-915.02 782.57,-1938.36 1956.75,-1959.96l2825.87 -7619.97c391.62,-1044.93 1804.22,-1676.65 2913.28,-1676.65l14608.38 0 -0.17 0zm-19956.75 20640.1l4783.3 0 0 3592.57c0,784.09 -1217.55,1829.19 -2413.33,1829.19 -1195.79,0 -2391.74,-849.21 -2391.74,-1829.19l21.6 -3592.57 0.17 0zm25304.27 0l-4782.45 0 0 3592.57c0,784.09 1217.55,1829.19 2413.33,1829.19 1195.78,0 2391.73,-849.21 2391.73,-1829.19l-22.44 -3592.57 -0.17 0zm-22804.21 -9361.76c1348.31,0 2434.92,1088.3 2434.92,2438.3 0,1350 -1086.61,2438.3 -2434.92,2438.3 -1347.47,0 -2434.09,-1088.3 -2434.09,-2438.3 0,-1350 1086.62,-2438.3 2434.09,-2438.3zm20305 0c-1348.31,0 -2434.92,1088.3 -2434.92,2438.3 0,1350 1086.61,2438.3 2434.92,2438.3 1347.47,0 2434.93,-1088.3 2434.93,-2438.3 0,-1350 -1087.46,-2438.3 -2434.93,-2438.3zm-2848.31 -9427.56c695.84,0 1195.78,370.03 1348.31,761.65l2434.09 6771.59 -22173.35 0 2434.09 -6771.59c174.13,-478.35 652.47,-761.65 1348.31,-761.65l14608.38 0 0.17 0z">
  </path>
 </g>
</svg>
