<svg role="img" style="shape-rendering: geometricPrecision;
text-rendering: optimizeLegibility; fill-rule:evenodd; clip-rule:evenodd;" version="1.1" viewbox="0 0 95000 85000" width="140px" xml:space="preserve" xmlns="http://www.w3.org/2000/svg">
 <title>
  1.5
 </title>
 <g fill="#FFF" stroke="gray" stroke-width="800">
  <path d="M91867 75270c1761,2953 -345,6802 -3867,6802l-81000 0c-3522,0 -5628,-3849 -3867,-6802l40470 -70097c1762,-3051 6146,-2951 7824,52l40440 70045z">
  </path>
 </g>
 <g class="blue_layer" fill="#0177D9" style="fill-rule: evenodd; clip-rule: nonzero;">
 </g>
 <g fill="red">
  <path d="M91005 75776l-40448 -70057c-1321,-2368 -4733,-2393 -6088,-46l-40474 70103c-1383,2317 306,5296 3005,5296l81000 0c2740,0 4379,-2994 3005,-5296zm-42613 -61812l34411 59607c380,656 -90,1500 -866,1500l-68874 0c-801,0 -1265,-892 -838,-1546l34387 -59554c368,-724 1407,-728 1780,-7z">
  </path>
  <path d="M91596 78067l12 -110c148,16 339,32 484,59l-90 -104 75 -55 131 176 -11 100 -601 -66zm-75 384l24 -108c145,31 334,66 476,107l-80 -112 81 -47 112 189 -21 97 -592 -126zm-130 426l98 -309 80 26c18,12 148,221 231,276 100,66 184,18 111,-107l83 -39c37,63 52,115 32,179 -55,170 -244,130 -365,-24l-115 -160 -60 188 -95 -30zm247 373c-69,161 -294,69 -344,-41 -40,-90 19,-211 84,-256l97 42c-61,35 -158,155 -22,213 97,43 133,-33 139,-113l39 -22 271 137 -103 237 -92 -40 64 -149 -116 -59c-3,15 -9,33 -17,51zm-288 128l85 47 -101 182 -84 -47 100 -182zm-473 414l184 -267 69 47c14,17 78,255 141,331 77,92 171,70 138,-70l90 -14c18,71 17,125 -21,181 -101,147 -270,54 -342,-129l-64 -186 -112 163 -83 -56zm-25 499c-115,-97 -226,-214 -131,-327 95,-113 229,-23 344,74 113,95 226,215 132,327 -95,113 -227,24 -345,-74zm141 -167c-69,-57 -162,-141 -199,-98 -39,46 80,137 131,179 65,54 163,141 200,98 36,-43 -66,-123 -132,-179zm-459 464c-101,-112 -193,-244 -83,-342 109,-99 229,9 329,121 99,111 194,246 85,343 -110,99 -229,-8 -331,-122zm163 -145c-60,-67 -141,-163 -183,-126 -45,41 60,147 104,196 56,63 142,163 184,125 42,-37 -47,-131 -105,-195zm-669 155l261 -192 49 68c7,21 -9,266 25,359 42,112 139,122 153,-21l90 16c-7,73 -25,124 -80,164 -143,106 -273,-37 -281,-234l1 -197 -159 118 -59 -81z">
  </path>
 </g>
 <g class="black_layer" fill="#000" stroke="#000" stroke-width="0.8mm" style="shape-rendering: geometricPrecision">
  <g transform="scale(1.44) translate(500, 0)">
   <path d="M35561 34476l2877 -2775 -5517 -4465 0 -1326 -841 0 0 1326 -5517 4465 2878 2775 6120 0zm3726 11345c971,0 1775,750 1862,1700 86,-950 890,-1700 1861,-1700 1029,0 1870,841 1870,1870 0,1028 -841,1869 -1870,1869 -971,0 -1775,-750 -1861,-1700 -87,950 -891,1700 -1862,1700 -1029,0 -1870,-841 -1870,-1869 0,-1029 841,-1870 1870,-1870zm6326 1744c-63,-1363 -1204,-2462 -2582,-2462l-21175 0c-1382,0 -2523,1099 -2585,2462 -306,0 -606,0 -896,0 -1329,0 -2580,-950 -2580,-2535l0 -3799c0,-496 319,-1016 538,-1446l1862 -3622c183,-360 611,-723 1018,-723l26575 0c402,0 833,358 1018,723l1862 3622c221,436 538,942 538,1446l0 3799c0,1595 -1251,2535 -2580,2535 -329,0 -666,3 -1013,0zm-23825 -10530l0 2990c0,392 -186,603 -603,603l-3295 0c-447,0 -609,-577 -421,-966l1259 -2593c177,-365 616,-663 1021,-663l1501 0c263,0 538,256 538,629zm21423 0l0 2990c0,392 185,603 603,603l3295 0c447,0 608,-577 420,-966l-1258 -2593c-178,-365 -616,-663 -1021,-663l-1501 0c-264,0 -538,256 -538,629zm-19768 -629l4499 0c397,0 720,324 720,721l0 2780c0,397 -323,721 -720,721l-4499 0c-397,0 -721,-324 -721,-721l0 -2780c0,-397 324,-721 721,-721zm13616 0l4499 0c397,0 721,324 721,721l0 2780c0,397 -324,721 -721,721l-4499 0c-397,0 -720,-324 -720,-721l0 -2780c0,-397 323,-721 720,-721zm-6807 0l4499 0c397,0 721,324 721,721l0 2780c0,397 -324,721 -721,721l-4499 0c-396,0 -720,-324 -720,-721l0 -2780c0,-397 324,-721 720,-721zm-8399 9415c971,0 1775,750 1862,1700 86,-950 890,-1700 1861,-1700 1029,0 1870,841 1870,1870 0,1028 -841,1869 -1870,1869 -971,0 -1775,-750 -1861,-1700 -87,950 -891,1700 -1862,1700 -1029,0 -1870,-841 -1870,-1869 0,-1029 841,-1870 1870,-1870zm15546 175c-387,421 -637,969 -679,1569l-8559 0c-26,-595 -261,-1141 -627,-1569l9865 0zm-9285 -14227l1742 1679 5289 0 1742 -1679 -4444 -3504 -4329 3504z">
   </path>
  </g>
 </g>
</svg>
