<svg role="img" style="shape-rendering: geometricPrecision;
text-rendering: optimizeLegibility; fill-rule:evenodd; clip-rule:evenodd;" version="1.1" viewbox="0 0 75000 75000" width="140px" xml:space="preserve" xmlns="http://www.w3.org/2000/svg">
 <title>
  3.3
 </title>
 <g fill="#FFF" stroke="gray" stroke-width="800">
  <circle cx="37500" cy="37500" r="35000">
  </circle>
 </g>
 <g class="blue_layer" fill="#0177D9" style="fill-rule: evenodd; clip-rule: nonzero;">
 </g>
 <g fill="red">
  <path d="M37500 3500c18778,0 34000,15222 34000,34000 0,18778 -15222,34000 -34000,34000 -18778,0 -34000,-15222 -34000,-34000 0,-18778 15222,-34000 34000,-34000zm0 6000c15464,0 28000,12536 28000,28000 0,15464 -12536,28000 -28000,28000 -15464,0 -28000,-12536 -28000,-28000 0,-15464 12536,-28000 28000,-28000z">
  </path>
 </g>
 <g class="black_layer" fill="#000" stroke="#000" stroke-width="0.8mm" style="shape-rendering: geometricPrecision">
  <symbol id="auto_front">
   <path d="M26765 13c1278,0 3027,810 3496,2012l3391 9144c913,26 2348,1307 2348,2352l0 7315c0,1202 -1487,2639 -2635,2639l-30730 0c-1096,0 -2635,-1385 -2635,-2639l0 -7315c0,-1098 939,-2326 2348,-2352l3391 -9144c470,-1254 2165,-2012 3496,-2012l17530 0zm-23948 24768l5740 0 0 4311c0,941 -1461,2195 -2896,2195 -1435,0 -2870,-1019 -2870,-2195l26 -4311zm30365 0l-5739 0 0 4311c0,941 1461,2195 2896,2195 1435,0 2870,-1019 2870,-2195l-27 -4311zm-27365 -11234c1618,0 2922,1306 2922,2926 0,1620 -1304,2926 -2922,2926 -1617,0 -2921,-1306 -2921,-2926 0,-1620 1304,-2926 2921,-2926zm24366 0c-1618,0 -2922,1306 -2922,2926 0,1620 1304,2926 2922,2926 1617,0 2922,-1306 2922,-2926 0,-1620 -1305,-2926 -2922,-2926zm-3418 -11313c835,0 1435,444 1618,914l2921 8126 -26608 0 2921 -8126c209,-574 783,-914 1618,-914l17530 0z">
   </path>
  </symbol>
  <g transform="scale(1.05)">
   <use x="18000" xlink:href="#auto_front" y="20915">
   </use>
  </g>
 </g>
</svg>
