<svg role="img" style="shape-rendering: geometricPrecision;
text-rendering: optimizeLegibility; fill-rule:evenodd; clip-rule:evenodd;" version="1.1" viewbox="0 0 75000 40000" width="140px" xml:space="preserve" xmlns="http://www.w3.org/2000/svg">
 <title>
  7.16
 </title>
 <g fill="#FFF" stroke="gray" stroke-width="800">
  <rect height="35000" rx="4500" ry="4500" width="70000" x="2500" y="2500">
  </rect>
 </g>
 <g class="blue_layer" fill="#0177D9" style="fill-rule: evenodd; clip-rule: nonzero;">
 </g>
 <g fill="red">
 </g>
 <g class="black_layer" fill="#000" stroke="#000" stroke-width="0.8mm" style="shape-rendering: geometricPrecision">
  <symbol id="7_16">
   <path d="M8688 9231c287,-875 740,-1693 1345,-2398 1177,-1368 2806,-2171 4603,-2304 1662,-123 3279,328 4746,1076 1860,-3247 4919,-5466 8849,-5578 3527,-100 7190,1646 8952,4778 1351,2400 1288,5107 161,7581l-12 28 -14 27c-340,670 -738,1275 -1210,1859l-18 22 -18 22c-521,593 -1089,1119 -1718,1596l-22 17 -23 16c-674,472 -1383,868 -2135,1199l-38 16 -780 289 -40 13c-981,299 -1966,487 -2992,530l-4 0 -4 0c-7424,269 -14849,-92 -22274,-92l-26 0 -27 -1c-1692,-63 -3231,-873 -3887,-2494 -724,-1790 -58,-3838 1374,-5067 1480,-1269 3387,-1484 5212,-1135zm20628 9784l2072 0 -3580 5155 -2072 0 3580 -5155zm-11157 0l2073 0 -3580 5155 -2073 0 3580 -5155zm3675 2807l2073 0 -3580 5155 -2073 0 3580 -5155zm-10438 0l2072 0 -3580 5155 -2072 0 3580 -5155zm-3915 -2807l2073 0 -3580 5155 -2072 0 3579 -5155zm2277 -8023c362,-3990 4652,-7132 10211,-3403 4953,-11471 20306,-5052 16089,4212 -316,622 -651,1119 -1049,1611 -484,551 -972,994 -1510,1403 -622,436 -1238,775 -1893,1063l-701 260c-893,271 -1743,432 -2640,470 -7379,267 -14834,-93 -22223,-93 -4940,-185 -3195,-8053 3716,-5523z">
   </path>
  </symbol>
  <g transform="scale(1)">
   <use x="17500" xlink:href="#7_16" y="6500">
   </use>
  </g>
  <use x="0" xlink:href="#border 350x700" y="0">
  </use>
 </g>
</svg>
