<svg role="img" style="shape-rendering: geometricPrecision;
text-rendering: optimizeLegibility; fill-rule:evenodd; clip-rule:evenodd;" version="1.1" viewbox="0 0 75000 40000" width="140px" xml:space="preserve" xmlns="http://www.w3.org/2000/svg">
 <title>
  7.4.8б
 </title>
 <g fill="#FFF" stroke="gray" stroke-width="800">
  <rect height="35000" rx="4500" ry="4500" width="70000" x="2500" y="2500">
  </rect>
 </g>
 <g class="blue_layer" fill="#0177D9" style="fill-rule: evenodd; clip-rule: nonzero;">
 </g>
 <g fill="red">
 </g>
 <g class="black_layer" fill="#000" stroke="#000" stroke-width="0.8mm" style="shape-rendering: geometricPrecision">
  <path d="M51148.37 29802.65c445.46,0 871.05,-1076.84 905.78,-2748.32 34.73,-1671.47 -502.86,-2735.76 -948.32,-2735.76 -308.81,0 -549.42,389.19 -639.88,627.14 -257.95,678.71 -350.89,1596.91 -350.89,2318.53 0,79.61 -0.27,159.23 -0.27,238.85 0,265.72 -89.42,338.21 -323.26,447.04l-957.67 445.78c144.06,743.52 419,1406.74 701.43,1406.74l1613.08 0zm1271.94 -13487.66c53.65,31.43 89.87,89.64 89.87,155.98l0 9765.33c0,144.15 -146.28,182.58 -253.53,232.57 -26.96,12.56 -54.78,-1.17 -55.55,-51.98 -22.35,-1463.5 -554.7,-2393.49 -1161.3,-2393.49 -713.17,0 -1225.24,1361.67 -1225.24,3238.26 0,68.51 -0.27,149.12 -0.27,238.86 0,94.34 -45.34,113.89 -94.79,137.01l-2739.33 1281.56c-197.45,92.35 -274.35,122.11 -267.72,-121.84l6.06 -223.23c-94.7,-1446.57 -227.34,-2197.54 -579.64,-2710.7 -186.51,-271.73 -415.79,-524.63 -775.4,-563.51 -1038.55,-112.36 -1496.02,1368.99 -1563.22,3200.74 -13.91,378.66 -16.71,1056.61 50.94,1700.91 14.5,138.19 -34.68,188.5 -111.5,232.13l-2800.26 1303.5c-376.59,174.73 -626.28,282.71 -1058.28,282.71l-11652.49 0c-185.43,551.9 -428.7,886.81 -695.15,886.81l-2105.96 0c-266.4,0 -509.68,-334.91 -695.15,-886.81l-179.88 0c-1142.42,0 -2077.37,-934.82 -2077.37,-2077.38l0 -20758.2c0,-1142.55 934.82,-2077.37 2077.37,-2077.37l14425.42 0c387.21,0 763.53,107.93 1092.16,312.55 77,56.36 149.61,99.31 225.75,162.08l12124.46 8733.51zm-7126.79 16591.62c581.57,0 980.25,-1257.49 1053,-3562.2 72.75,-2304.71 -471.43,-3562.2 -1053,-3562.2 -836.55,0 -1023.6,2133.55 -1023.6,2718.34 0,603.11 -4.93,1217.52 66.15,1817.25l24.66 208.05c12.02,101.25 -74.69,171.47 -146.09,204.71l-1844.62 858.68c193.06,803.72 487.55,1317.37 817.54,1317.37l2105.96 0zm276.33 -2433.15c184.35,0 333.74,-505.48 333.74,-1129 0,-623.53 -149.39,-1129.01 -333.74,-1129.01 -184.29,0 -333.73,505.48 -333.73,1129.01 0,623.52 149.44,1129 333.73,1129zm-4163.77 -7150.5l14.36 -13606.48c0.09,-104.23 59.29,-258.36 216.58,-154.4l1838.39 1215.31c126.4,83.5 155.71,214.82 155.71,309.44l-7.22 12299.63c-0.05,145.01 -97.55,179.01 -176.26,178.92l-1837.12 -1.8c-116.29,-0.14 -204.58,-93.3 -204.44,-240.62zm3670.62 -11487.02l4025.86 2661.35c144.56,95.51 211.76,318.15 211.76,462.62l0 7238.29c0,275.39 -167.18,308.58 -285.95,314.09l-3875.39 180.69c-437.92,20.36 -595.71,-233.21 -595.71,-440.45l0 -9999.44c0,-495.72 227.83,-609.89 519.43,-417.15zm4817.7 3184.8l2170.99 1424.08c110.38,72.35 137.61,186.74 137.43,285.73l-12.56 5312.75c-0.09,56.32 -45.74,110.51 -102.38,117.42l-2108.44 257.14c-229.96,28 -261.84,-144.33 -261.84,-245.81l0 -7016.1c0,-113.67 21,-237.36 176.8,-135.21zm-24968.63 13838.6l13990.66 0c149.03,0 270.96,121.94 270.96,270.97l0 264.64c0,149.02 -121.93,270.96 -270.96,270.96l-13990.66 0c-149.03,0 -270.96,-121.94 -270.96,-270.96l0 -264.64c0,-149.03 121.93,-270.97 270.96,-270.97zm12635.04 -3639.64c723.29,0 1309.65,586.36 1309.65,1309.64 0,723.29 -586.36,1309.65 -1309.65,1309.65 -723.29,0 -1309.65,-586.36 -1309.65,-1309.65 0,-723.28 586.36,-1309.64 1309.65,-1309.64zm-11651.35 0c723.28,0 1309.64,586.36 1309.64,1309.64 0,723.29 -586.36,1309.65 -1309.64,1309.65 -723.29,0 -1309.65,-586.36 -1309.65,-1309.65 0,-723.28 586.36,-1309.64 1309.65,-1309.64zm3420.98 -16747.97l3463.7 0c49.68,0 90.32,40.64 90.32,90.32l0 790.21c0,49.68 -40.64,90.32 -90.32,90.32l-3463.7 0c-49.68,0 -90.32,-40.64 -90.32,-90.32l0 -790.21c0,-49.68 40.64,-90.32 90.32,-90.32zm-4713.47 1861.23l14893.95 0c422.25,0 767.73,345.48 767.73,767.73l0 11727.54c0,422.25 -345.48,767.73 -767.73,767.73l-14893.95 0c-422.25,0 -767.73,-345.48 -767.73,-767.73l0 -11727.54c0,-422.25 345.48,-767.73 767.73,-767.73zm26743.07 17606.02c141.21,0 255.6,-387.21 255.6,-864.78 0,-477.61 -114.39,-864.77 -255.6,-864.77 -141.17,0 -255.61,387.16 -255.61,864.77 0,477.57 114.44,864.78 255.61,864.78z">
  </path>
  <use x="0" xlink:href="#border 350x700" y="0">
  </use>
 </g>
</svg>
