<svg role="img" style="shape-rendering: geometricPrecision;
text-rendering: optimizeLegibility; fill-rule:evenodd; clip-rule:evenodd;" version="1.1" viewbox="0 0 75000 110000" width="140px" xml:space="preserve" xmlns="http://www.w3.org/2000/svg">
 <title>
  6.16
 </title>
 <g fill="#FFF" stroke="gray" stroke-width="800">
  <rect height="105000" rx="4500" ry="4500" width="70000" x="2500" y="2500">
  </rect>
 </g>
 <g class="blue_layer" fill="#0177D9" style="fill-rule: evenodd; clip-rule: nonzero;">
  <rect height="101000" rx="2500" ry="2500" width="66000" x="4500" y="4500">
  </rect>
  <rect fill="#FFFFFF" height="57000" rx="2000" ry="2000" width="57000" x="9000" y="17500">
  </rect>
 </g>
 <g fill="red">
 </g>
 <g class="black_layer" fill="#000" stroke="#000" stroke-width="0.8mm" style="shape-rendering: geometricPrecision">
  <symbol id="6_16">
   <path d="M152 4750l4797 0 0 1236 -3504 0 0 1689 1430 0c945,25 1598,259 1958,704 362,446 548,941 559,1487 12,546 -89,988 -305,1327 -217,340 -509,594 -875,764 -365,171 -761,256 -1186,256l-2874 0 0 -7463zm15097 18250c-720,0 -1314,-278 -1780,-826 -484,-568 -700,-1238 -700,-1982 0,-745 215,-1418 700,-1987 466,-547 1060,-826 1780,-826 705,0 1282,290 1738,826 485,569 701,1242 701,1987 0,744 -218,1414 -701,1982 -456,537 -1032,826 -1738,826zm-20 -1057c392,0 682,-194 905,-509 262,-372 367,-801 367,-1252 0,-452 -103,-883 -367,-1254 -223,-315 -514,-506 -905,-506 -404,0 -710,178 -942,506 -264,371 -367,802 -367,1254 0,451 105,880 367,1252 231,328 538,509 942,509zm-4663 -4234c-339,-884 -900,-1309 -1684,-1274 -498,34 -885,314 -1158,837 -273,524 -412,1153 -412,1891 0,738 148,1370 438,1891 291,524 669,786 1132,786 575,0 1027,-262 1357,-786 80,-124 151,-257 213,-399l1341 525c-131,259 -292,506 -484,738 -626,765 -1384,1148 -2271,1148 -1004,0 -1782,-383 -2332,-1148 -552,-766 -827,-1690 -827,-2776 0,-1087 275,-2013 827,-2780 550,-766 1328,-1149 2332,-1149 887,0 1645,383 2271,1149 174,211 323,435 447,671l-1190 676zm9296 439c429,-495 967,-799 1645,-799 276,0 550,49 798,174 213,108 404,253 544,448 132,184 220,393 269,614 29,134 45,274 56,412 14,183 18,368 18,551l0 3369 -1286 0 0 -2776c0,-236 -3,-475 -21,-710 -8,-120 -21,-279 -60,-393 -48,-145 -129,-272 -253,-363 -125,-91 -270,-129 -424,-129 -239,0 -487,45 -684,189 -177,130 -302,301 -380,506 -53,138 -77,311 -93,457 -25,246 -31,497 -31,744l0 2475 -1338 0 0 -5449 1240 0 0 680zm6485 597l0 2877c54,142 143,297 295,347 121,40 249,58 376,39 83,-13 166,-31 247,-50 127,-30 254,-62 380,-96l59 -16 234 1093 -55 14c-217,50 -436,98 -656,135 -153,26 -312,49 -466,54 -218,7 -442,-4 -654,-58 -176,-46 -348,-115 -499,-218 -157,-108 -283,-259 -382,-420 -104,-170 -177,-355 -196,-554l-1 -3 0 -3144 -832 0 0 -1127 832 0 0 -1827 1318 -485 0 2312 1372 0 0 1127 -1372 0zm5815 3781c-120,132 -293,250 -432,338 -304,191 -714,236 -1065,236 -444,0 -833,-144 -1133,-475 -284,-314 -435,-682 -451,-1105 -16,-402 92,-774 354,-1080 195,-228 447,-461 738,-557 296,-98 615,-162 921,-217 379,-67 756,-140 1133,-218 21,-261 -36,-506 -265,-662 -252,-172 -567,-228 -867,-231 -454,-6 -957,275 -1322,522l-50 34 -566 -907 42 -32c320,-250 739,-536 1140,-630 351,-83 720,-110 1080,-110 457,0 884,169 1266,412 531,339 710,1003 766,1594l1 3 0 1205c-6,336 -10,677 5,1013 2,59 17,346 48,391 67,88 282,135 383,153l81 15 -538 945 -36 -1c-485,-25 -1037,-155 -1233,-636zm30 -2105c-94,38 -197,67 -293,92 -190,49 -386,88 -580,122 -225,39 -666,134 -796,349 -90,149 -148,311 -148,487 0,168 71,310 186,430 144,150 350,193 551,193 234,0 446,-65 628,-214 135,-111 290,-248 390,-392 94,-137 99,-343 87,-502 -14,-188 -22,-376 -25,-565zm6226 438l1101 411 -21 55c-119,312 -289,595 -505,849 -456,537 -1032,826 -1739,826 -719,0 -1313,-278 -1779,-826 -484,-568 -700,-1238 -700,-1982 0,-745 215,-1418 700,-1987 466,-547 1060,-826 1779,-826 707,0 1284,290 1739,828 181,213 331,448 447,703l24 54 -1070 475 -20 -60c-56,-160 -132,-313 -231,-451 -224,-316 -516,-506 -908,-506 -404,0 -710,178 -942,506 -264,371 -367,802 -367,1254 0,451 105,880 367,1252 231,328 537,509 942,509 393,0 684,-196 908,-511 112,-157 198,-331 257,-514l18 -59zm4181 -2114l0 2877c54,142 142,297 295,347 121,40 249,58 376,39 82,-13 165,-31 246,-50 128,-30 254,-62 380,-96l60 -16 234 1093 -56 14c-217,50 -436,98 -656,135 -152,26 -311,49 -466,54 -217,7 -441,-4 -653,-58 -176,-46 -348,-115 -499,-218 -158,-108 -283,-259 -382,-420 -105,-170 -177,-355 -197,-554l0 -3 0 -3144 -832 0 0 -1127 832 0 0 -1827 1318 -485 0 2312 1371 0 0 1127 -1371 0zm-29333 25218l-286 1336 -4403 0 0 -1206c1817,-1968 2819,-3076 3007,-3326 190,-249 326,-520 413,-811 87,-291 45,-561 -127,-811 -171,-248 -490,-383 -953,-402 -465,-18 -958,294 -1481,938l-816 -894c589,-687 1256,-1066 2001,-1142 745,-77 1380,69 1907,438 527,369 803,949 832,1738 26,790 -976,2172 -3011,4142l2917 0zm971 -4802l224 -1304 4667 0 0 1164c-1236,1829 -2095,3924 -2572,6284l-1497 -1c395,-1988 1300,-4035 2717,-6143l-3539 0zm10268 6138l0 -7442 1576 0 2015 3424 2001 -3424 1570 0 5 7442 -1403 0 0 -5134 -2173 3685 -2214 -3690 0 5139 -1377 0zm8893 0l0 -7442 1344 0 0 2801 2698 0 0 -2801 1347 0 0 7442 -1347 0 0 -3404 -2698 0 0 3404 -1344 0zm9303 -4562l-2242 0 0 -1126 3807 0 0 1028 -2382 3626 2445 0 0 1141 -4018 0 4 -1087 2386 -3582zm-29045 -7855l-286 1336 -4403 0 0 -1206c1816,-1967 2819,-3076 3007,-3326 190,-249 326,-520 413,-811 87,-291 44,-560 -128,-811 -170,-248 -489,-383 -952,-402 -465,-18 -958,294 -1482,938l-816 -894c589,-686 1257,-1066 2002,-1142 745,-77 1380,69 1906,438 527,369 804,949 833,1738 26,790 -976,2172 -3011,4142l2917 0zm971 -4802l224 -1304 4667 0 0 1164c-1236,1829 -2095,3924 -2572,6284l-1497 -1c395,-1988 1300,-4035 2717,-6143l-3539 0zm9828 6138l800 -7442 1430 0 1627 3456 1502 -3456 1444 0 848 7442 -1445 0 -483 -5254 -1866 4163 -1928 -4179 -536 5270 -1393 0zm9043 -7436l4730 0 0 1320 -3332 0 0 6121 -1398 0 0 -7441zm9819 7441l-3986 0 0 -5316 1215 0 0 4204 1834 0 0 -4204 1217 0 0 4220 811 0 0 2297 -1091 0 0 -1201zm-41872 -23211l956 0c1050,66 1588,-291 1614,-1072 27,-778 -509,-1147 -1608,-1106l-962 0 0 2178zm8373 722c-126,156 -286,302 -481,435 -197,133 -456,200 -782,200 -538,0 -969,-153 -1295,-456 -325,-303 -488,-674 -488,-1114 0,-264 55,-502 163,-717 110,-216 252,-397 429,-544 178,-148 376,-254 598,-320 163,-44 440,-99 832,-166 390,-66 711,-142 962,-227 40,-352 -15,-588 -165,-713 -151,-125 -416,-187 -797,-187 -392,0 -848,162 -1368,483l-576 -862c454,-341 841,-547 1162,-619 319,-73 690,-109 1108,-109 421,0 822,133 1207,403 385,268 615,786 692,1550l0 1201c-15,884 7,1365 67,1441 59,76 169,135 332,175l-421 848c-596,-39 -990,-273 -1179,-702zm0 -1975c-219,107 -549,197 -988,270 -249,43 -426,89 -527,140 -103,54 -183,130 -240,229 -56,101 -85,213 -85,339 0,186 60,342 185,470 122,126 299,190 532,190 236,0 452,-68 649,-204 199,-135 339,-303 422,-509 66,-162 82,-382 52,-660l0 -265zm6162 -5165l962 0c-22,390 -208,725 -561,1002 -374,298 -829,447 -1362,447 -531,0 -983,-149 -1356,-447 -358,-277 -546,-612 -567,-1002l977 0c135,387 452,582 954,582 501,0 818,-195 953,-582zm-3243 7598l0 -5317 1217 0 0 3321 2198 -3321 1268 0 0 5317 -1268 0 0 -3316 -2198 3316 -1217 0zm6986 -5333l3927 0 0 5333 -1263 0 0 -4253 -1407 0 0 2012c-90,791 -381,1373 -871,1749 -491,376 -865,600 -1124,674l-412 -1128c724,-268 1107,-665 1150,-1196l0 -3191zm8507 4875c-126,156 -285,302 -481,435 -197,133 -456,200 -782,200 -537,0 -969,-153 -1295,-456 -324,-303 -488,-674 -488,-1114 0,-264 55,-502 163,-717 110,-216 252,-397 430,-544 177,-148 376,-254 598,-320 163,-44 439,-99 832,-166 390,-66 711,-142 961,-227 41,-352 -14,-588 -165,-713 -151,-125 -415,-187 -796,-187 -392,0 -848,162 -1368,483l-577 -862c455,-341 841,-547 1162,-619 320,-73 690,-109 1109,-109 420,0 821,133 1206,403 385,268 616,786 692,1550l0 1201c-14,884 7,1365 67,1441 59,76 169,135 332,175l-420 848c-596,-39 -990,-273 -1180,-702zm0 -1975c-218,107 -548,197 -988,270 -248,43 -426,89 -527,140 -103,54 -183,130 -239,229 -57,101 -85,213 -85,339 0,186 60,342 184,470 122,126 300,190 532,190 236,0 453,-68 650,-204 198,-135 338,-303 422,-509 65,-162 81,-382 51,-660l0 -265zm2815 2433l0 -5317 1217 0 0 2022 1939 0 0 -2022 1215 0 0 5317 -1215 0 0 -2276 -1939 0 0 2276 -1217 0zm6154 0l0 -5317 1252 0 0 1959 1497 0c447,0 829,164 1144,491 314,328 472,724 472,1188 0,460 -167,856 -498,1182 -334,328 -717,493 -1153,497l-2714 0zm1257 -2370l0 1371 1045 0c254,0 461,-62 624,-188 164,-128 244,-293 244,-497 0,-204 -80,-371 -244,-497 -163,-126 -370,-189 -624,-189l-1045 0zm5047 -2947l0 5317 -1258 0 0 -5317 1258 0zm5206 3388l1139 369c-117,302 -289,579 -514,832 -479,538 -1070,806 -1773,806 -730,0 -1335,-268 -1814,-806 -477,-537 -717,-1185 -717,-1944 0,-763 240,-1412 717,-1949 479,-536 1084,-806 1814,-806 703,0 1294,270 1773,807 186,215 338,444 457,690l-1107 426c-62,-169 -145,-325 -250,-466 -193,-284 -491,-428 -894,-428 -426,35 -745,204 -956,506 -211,301 -318,704 -318,1209 1,502 107,914 318,1235 211,321 530,481 956,481 403,0 701,-144 894,-431 121,-160 213,-337 275,-531z">
   </path>
  </symbol>
  <symbol id="channel">
   <path d="M46622 18196c54,144 142,299 297,349 123,40 250,58 378,39 134,-20 267,-45 399,-69l70 -13 6 1079 -39 14c-223,82 -458,122 -695,130 -218,7 -445,-4 -657,-59 -178,-45 -350,-115 -502,-219 -160,-108 -286,-259 -387,-423 -103,-169 -196,-360 -196,-562l0 -6568 1326 0 0 6302zm-32368 -15543c124,705 139,1430 45,2174 -94,744 -376,1435 -848,2074 -470,637 -1030,992 -1677,1062 -650,69 -1330,-46 -2046,-346l-73 -1203c823,332 1437,462 1844,391 405,-72 755,-307 1046,-707 291,-400 478,-975 562,-1728 -673,614 -1269,899 -1787,855 -517,-44 -977,-277 -1379,-701 -403,-424 -588,-1005 -555,-1746 33,-741 273,-1342 719,-1804 446,-463 1003,-702 1669,-720 665,-18 1214,202 1647,657 432,455 709,1035 833,1742zm-1793 -808c-211,-238 -466,-340 -766,-307 -300,33 -535,150 -707,351 -169,200 -281,495 -333,884 -53,389 40,696 282,921 240,223 488,310 747,257 257,-53 561,-194 911,-430 348,-236 465,-514 351,-837 -113,-323 -275,-602 -485,-839zm8970 5552c-126,157 -287,304 -483,437 -198,134 -459,202 -787,202 -541,0 -975,-153 -1303,-459 -327,-305 -491,-678 -491,-1120 0,-266 55,-506 164,-721 111,-218 253,-400 432,-548 178,-149 378,-256 601,-322 165,-44 443,-100 838,-167 392,-67 715,-143 967,-229 41,-353 -14,-591 -166,-717 -152,-125 -418,-188 -801,-188 -395,0 -854,163 -1377,486l-580 -868c457,-343 846,-549 1169,-623 322,-73 695,-109 1116,-109 423,0 826,134 1214,406 387,269 619,790 696,1560l0 1208c-15,889 7,1372 67,1449 59,77 170,136 334,177l-423 853c-599,-39 -996,-275 -1187,-707zm0 -1986c-219,107 -551,198 -994,271 -250,43 -428,89 -530,141 -103,53 -184,130 -241,230 -57,102 -86,214 -86,341 1,187 61,345 186,473 123,127 302,191 536,191 237,0 455,-68 653,-205 200,-136 341,-305 425,-512 66,-163 82,-384 51,-664l0 -266zm3810 1834l0 2547 -1233 0 0 -7283 1233 0 0 360c406,-351 893,-528 1466,-528 651,0 1199,262 1642,785 442,523 664,1167 664,1935 0,762 -215,1415 -639,1954 -425,541 -964,810 -1616,810 -571,0 -1078,-192 -1517,-580zm63 -1238c77,84 144,162 200,235 241,323 557,486 951,486 366,0 671,-161 916,-484 242,-321 366,-714 366,-1174 0,-455 -124,-846 -366,-1167 -245,-324 -550,-484 -916,-484 -394,0 -710,162 -951,485 -56,73 -123,152 -200,236l0 1867zm4819 1851l0 -5349 1224 0 0 2034 1951 0 0 -2034 1222 0 0 5349 -1222 0 0 -2290 -1951 0 0 2290 -1224 0zm8636 -461c-127,157 -287,304 -484,437 -197,135 -458,202 -787,202 -540,0 -975,-153 -1303,-459 -327,-304 -490,-678 -490,-1120 0,-266 55,-506 164,-721 110,-219 253,-400 432,-548 178,-149 377,-258 601,-322 164,-47 443,-100 837,-167 393,-67 716,-143 968,-229 41,-353 -14,-591 -166,-717 -152,-126 -418,-188 -802,-188 -394,0 -853,163 -1376,486l-580 -868c457,-343 846,-549 1169,-623 322,-73 694,-109 1116,-109 423,0 826,135 1213,406 387,270 696,787 696,1560l0 1208c0,889 8,1372 68,1449 60,76 170,136 334,177l-423 853c-600,-39 -996,-275 -1187,-707zm0 -1986c-220,107 -552,197 -994,271 -250,42 -429,89 -530,141 -104,53 -184,130 -241,230 -58,102 -86,214 -86,341 0,187 61,345 186,473 123,127 301,191 535,191 238,0 455,-69 653,-205 200,-137 341,-305 425,-512 66,-163 52,-383 52,-664l0 -266zm-31658 8830c124,704 138,1429 45,2174 -94,744 -377,1435 -848,2073 -471,638 -1030,993 -1678,1062 -649,70 -1330,-46 -2045,-346l-73 -1203c822,332 1436,463 1843,391 405,-71 755,-307 1046,-707 291,-399 478,-974 562,-1727 -673,614 -1269,898 -1786,855 -518,-44 -977,-278 -1380,-702 -402,-424 -588,-1005 -555,-1745 33,-741 273,-1343 719,-1805 446,-462 1003,-701 1669,-719 666,-18 1214,201 1647,657 433,454 710,1035 834,1742zm-1794 -809c-210,-237 -466,-340 -765,-307 -300,33 -536,150 -707,352 -170,200 -281,494 -334,883 -53,389 41,697 282,921 240,224 489,310 748,257 257,-52 561,-194 910,-430 348,-235 465,-514 352,-837 -113,-323 -275,-602 -486,-839zm9111 3996l1107 414 -21 55c-120,314 -291,599 -508,854 -459,540 -1039,831 -1749,831 -724,0 -1321,-279 -1791,-831 -486,-571 -704,-1245 -704,-1994 0,-750 216,-1427 704,-1999 469,-551 1067,-831 1791,-831 710,0 1291,292 1749,833 182,215 333,451 449,708l25 54 -1076 478 -21 -61c-57,-161 -133,-315 -232,-454 -225,-317 -520,-509 -914,-509 -406,0 -714,180 -948,509 -265,374 -369,807 -369,1262 0,453 105,886 369,1260 233,329 541,512 948,512 395,0 689,-198 914,-514 113,-159 199,-333 258,-518l19 -59zm3560 -1501l0 3572 -1315 0 0 -7605 1315 0 0 2640c332,-285 724,-523 1160,-591 453,-70 879,52 1269,285 532,317 646,975 646,1546l0 3725 -1315 0 0 -3451c-13,-440 -129,-905 -638,-953 -61,-6 -124,-5 -185,4 -430,60 -739,475 -937,828zm7549 3178c-121,133 -294,252 -434,340 -306,192 -719,237 -1072,237 -447,0 -838,-145 -1140,-478 -286,-315 -437,-686 -454,-1111 -16,-404 93,-778 357,-1087 196,-229 450,-464 742,-560 298,-98 619,-163 927,-218 381,-67 761,-141 1139,-219 22,-263 -36,-510 -266,-667 -254,-173 -570,-229 -872,-232 -457,-6 -963,277 -1330,525l-51 34 -569 -912 42 -33c322,-251 744,-538 1147,-633 353,-84 724,-111 1086,-111 461,0 890,170 1274,415 535,341 715,1009 771,1603l1 3 0 1212c-6,339 -10,682 5,1020 3,59 17,348 49,393 67,89 283,136 385,154l81 15 -541 952 -36 -2c-488,-25 -1044,-156 -1241,-640zm31 -2117c-95,37 -198,67 -295,92 -192,49 -389,88 -584,122 -226,40 -670,136 -801,351 -91,151 -148,314 -148,491 0,169 71,312 187,432 145,151 352,195 554,195 235,0 449,-66 632,-215 135,-112 292,-250 392,-395 94,-138 100,-345 88,-505 -14,-189 -23,-379 -25,-568zm3810 -2287c431,-498 973,-805 1654,-805 278,0 553,50 803,176 214,108 407,254 548,450 133,186 221,395 270,618 30,135 46,276 56,414 14,185 19,371 19,555l0 3390 -1294 0 0 -2794c0,-237 -3,-477 -21,-714 -9,-120 -22,-280 -60,-395 -49,-146 -130,-274 -256,-365 -125,-92 -271,-130 -425,-130 -241,0 -490,45 -689,190 -178,131 -303,303 -383,509 -53,139 -77,313 -92,460 -26,247 -32,500 -32,749l0 2490 -1346 0 0 -5483 1248 0 0 685zm5662 0c431,-498 973,-805 1655,-805 278,0 553,50 803,176 214,108 407,254 547,450 134,186 222,395 271,618 30,135 45,276 56,414 14,185 18,371 18,555l0 3390 -1293 0 0 -2794c0,-237 -4,-477 -21,-714 -9,-120 -22,-280 -60,-395 -49,-146 -130,-274 -256,-365 -126,-92 -271,-130 -426,-130 -241,0 -490,45 -688,190 -179,131 -304,303 -383,509 -53,139 -77,313 -93,460 -26,247 -32,500 -32,749l1 2490 -1346 0 0 -5483 1247 0 0 685zm5623 2460c-8,330 97,626 294,895l1 1 1 1c211,317 513,461 892,461 326,0 646,-70 913,-265 117,-114 268,-273 336,-423l29 -65 971 672 -38 49c-243,318 -577,696 -946,870 -366,174 -848,217 -1248,225l-1 0c-721,0 -1312,-281 -1778,-831 -485,-572 -701,-1246 -701,-1994 0,-749 214,-1426 701,-1999 466,-549 1057,-831 1778,-831 708,0 1285,293 1742,831 487,573 701,1250 701,1999 0,165 -61,302 -200,394l-14 10 -3433 0zm2369 -895c30,-636 -541,-1245 -1181,-1245 -659,0 -1254,577 -1223,1245l2404 0z" fill="#FFF">
   </path>
  </symbol>
  <g transform="scale(1)">
   <use x="12500" xlink:href="#6_16" y="21000">
   </use>
   <use x="12500" xlink:href="#channel" y="80000">
   </use>
  </g>
 </g>
</svg>
