<svg role="img" style="shape-rendering: geometricPrecision;
text-rendering: optimizeLegibility; fill-rule:evenodd; clip-rule:evenodd;" version="1.1" viewbox="0 0 155000 230000" width="250px" xml:space="preserve" xmlns="http://www.w3.org/2000/svg">
 <title>
  5.40
 </title>
 <g fill="#FFF" stroke="gray" stroke-width="800">
  <rect height="225000" rx="4500" ry="4500" width="150000" x="2500" y="2500">
  </rect>
 </g>
 <g class="blue_layer" fill="#0177D9" style="fill-rule: evenodd; clip-rule: nonzero;">
  <symbol id="5_40" viewbox="0 0 150000 225000">
   <path d="M4243 1925c-1231,0 -2244,1016 -2244,2246l0 216508c0,1230 1013,2246 2244,2246l141512 0c1231,0 2244,-1016 2244,-2246l0 -216508c0,-1230 -1013,-2246 -2244,-2246l-141512 0z">
   </path>
   <path d="M13889 48959l122222 0 0 53819 -122222 0 0 -53819zm0 112538l122222 0 0 53819 -122222 0 0 -53819zm0 -56259l122222 0 0 53819 -122222 0 0 -53819z" fill="#FFF">
   </path>
   <path d="M81046 165596c-1337,0 -2434,1098 -2434,2434l0 9001 29629 0 0 -9001c0,-1336 -1098,-2434 -2434,-2434l-10213 0 2603 9992 -3855 0 -269 -9992 -1127 0 -338 9992 -3930 0 2609 -9992 -10241 0zm-2434 13550l0 29518c0,771 365,1462 931,1909l7833 -29999 5064 0 -1032 30523 3865 0 -797 -30523 5020 0 7814 29999c565,-447 931,-1138 931,-1909l0 -29518 -3687 0 0 3343 -1829 0 -1300 -3343 -15786 0 -1300 3343 -1829 0 0 -3343 -3898 0z" fill="green">
   </path>
   <path d="M58317 140028l19046 0 6608 -6579 0 -2643 -5647 -14273 -5519 13912 0 2974 -1582 0 0 -3367 -6388 -2717 -6518 2665 0 10028zm-27714 54309l-2037 0 0 -9040 -1320 1033 -723 -1041 2337 -2821 1743 0 0 11869zm5679 0l-2037 0 0 -9040 -1320 1033 -722 -1041 2336 -2821 1743 0 0 11869zm5861 -12176c1131,0 2027,533 2690,1598 659,1064 999,2602 1012,4615 -73,2135 -426,3699 -1058,4698 -632,996 -1513,1496 -2644,1496 -1140,0 -2032,-500 -2671,-1502 -640,-999 -985,-2572 -1040,-4717 30,-2013 372,-3546 1025,-4602 654,-1056 1551,-1586 2686,-1586zm43 2078c-546,-23 -959,307 -1241,988 -285,680 -426,1719 -426,3113 0,1395 149,2425 443,3095 295,666 703,999 1224,999 567,0 985,-333 1254,-999 272,-670 406,-1700 406,-3095 0,-1394 -147,-2427 -441,-3096 -297,-670 -703,-1005 -1219,-1005zm-6827 -54173c177,1115 197,2261 63,3438 -131,1177 -531,2270 -1193,3281 -665,1007 -1453,1569 -2370,1679 -914,110 -1876,-73 -2883,-547l-103 -1903c1161,525 2027,731 2598,618 575,-113 1066,-485 1476,-1118 410,-632 675,-1541 793,-2733 -949,972 -1788,1420 -2518,1353 -730,-71 -1380,-438 -1949,-1110 -566,-669 -828,-1589 -780,-2761 45,-1171 385,-2123 1014,-2854 630,-731 1413,-1109 2352,-1138 939,-28 1715,319 2324,1039 610,720 1003,1638 1176,2756zm-2530 -1279c-298,-376 -658,-537 -1081,-486 -423,54 -755,237 -994,556 -242,317 -398,782 -474,1398 -73,615 61,1101 398,1456 340,353 693,492 1055,407 365,-82 793,-308 1284,-680 494,-373 658,-813 499,-1324 -161,-511 -388,-952 -687,-1327zm7898 -2665c1131,0 2027,533 2689,1598 663,1064 1000,2603 1015,4615 -75,2135 -428,3699 -1060,4698 -632,997 -1513,1496 -2644,1496 -1141,0 -2032,-499 -2672,-1502 -637,-999 -984,-2572 -1039,-4717 30,-2013 372,-3546 1027,-4602 652,-1055 1549,-1586 2684,-1586zm45 2078c-546,-23 -961,307 -1243,988 -282,680 -426,1719 -426,3113 0,1395 149,2426 443,3095 295,666 705,999 1226,999 565,0 983,-333 1254,-999 270,-669 406,-1700 406,-3095 0,-1394 -149,-2427 -443,-3096 -295,-669 -700,-1005 -1217,-1005zm-12784 -49385c-191,-1175 -212,-2387 -68,-3627 144,-1241 547,-2393 1212,-3455 664,-1065 1533,-1655 2601,-1771 1070,-116 2069,75 3001,575l30 1830c-1095,-435 -1953,-592 -2571,-473 -621,119 -1152,511 -1596,1175 -444,667 -708,1628 -787,2883 1032,-1023 1944,-1499 2734,-1425 790,71 1490,461 2105,1166 616,706 896,1679 847,2914 -51,1235 -416,2237 -1097,3005 -681,771 -1531,1172 -2547,1199 -1015,30 -1865,-336 -2551,-1092 -687,-759 -1125,-1726 -1313,-2904zm2767 1265c324,398 713,568 1171,514 457,-56 814,-253 1076,-589 261,-336 430,-830 512,-1479 79,-645 -66,-1157 -433,-1529 -365,-372 -747,-515 -1141,-432 -393,84 -856,325 -1387,715 -533,392 -713,856 -539,1395 172,539 420,1006 741,1405zm10138 -10311c1223,0 2193,562 2909,1684 716,1122 1081,2744 1097,4865 -81,2250 -463,3898 -1146,4952 -684,1050 -1637,1577 -2860,1577 -1233,0 -2197,-527 -2889,-1583 -689,-1054 -1065,-2711 -1125,-4972 33,-2122 403,-3738 1111,-4851 706,-1113 1675,-1672 2903,-1672zm49 2190c-591,-24 -1040,324 -1345,1042 -305,717 -460,1812 -460,3282 0,1470 160,2556 479,3261 319,702 763,1053 1326,1053 610,0 1062,-351 1357,-1053 291,-705 438,-1791 438,-3261 0,-1470 -161,-2559 -479,-3265 -319,-705 -757,-1059 -1316,-1059zm17375 12069l73511 0 0 -18006 -4589 -1734 -5027 1734 0 11638 -1386 0 -17 -3528 -7117 -4084 -6986 4108 -4 3371 -1599 0 0 -1601 -3352 -3411 -4376 0 0 -941 -4212 0 0 941 -4497 0 -3227 3219 0 1766 -1468 0 0 -2694 -5647 -14273 -5519 13912 0 2974 -1582 0 0 -3367 -6388 -2717 -6518 2665 0 10028zm31093 56000l42418 0 0 -18006 -4589 -1734 -5027 1734 0 11638 -1386 0 -17 -3528 -7117 -4084 -6986 4108 -4 3371 -1599 0 0 -1601 -3352 -3411 -779 0 -11562 11513z" fill="#000">
   </path>
   <polygon fill="red" points="114977,113309 77907,150221 68393,150221 105463,113309 ">
   </polygon>
   <path d="M24566 27825l1941 0 0 4171 3644 -4171 2331 0 -3803 4406 4102 5564 -2262 0 -4012 -5221 0 5221 -1941 0 0 -9970zm13787 6391l2429 0 -1259 -3919 -1170 3919zm2094 -6391l3427 9970 -2013 0 -675 -1916 -3237 0 -656 1916 -2010 0 3251 -9970 1913 0zm6095 9970l7 -1692 4427 -6650 -4171 0 0 -1628 6420 0 0 1588 -4421 6725 4532 0 0 1657 -6794 0zm12506 -3579l2429 0 -1259 -3919 -1170 3919zm2094 -6391l3427 9970 -2013 0 -675 -1916 -3237 0 -656 1916 -2010 0 3251 -9970 1913 0zm6095 0l1941 0 0 4171 3644 -4171 2331 0 -3802 4406 4102 5564 -2263 0 -4012 -5221 0 5221 -1941 0 0 -9970zm10786 9970l0 -9970 1804 0 0 3753 3612 0 0 -3753 1804 0 0 9970 -1804 0 0 -4561 -3612 0 0 4561 -1804 0zm10952 -2847c960,896 1840,1326 2638,1295 661,0 1143,-126 1452,-373 309,-250 476,-570 499,-965 22,-394 -171,-713 -582,-953 -411,-242 -1053,-444 -1922,-608 -870,-167 -1548,-495 -2032,-984 -485,-490 -728,-1055 -728,-1697 0,-644 145,-1184 438,-1623 292,-440 691,-797 1195,-1072 504,-276 1143,-416 1918,-416 1271,0 2419,428 3446,1283l-1129 1253c-703,-585 -1395,-877 -2070,-877 -675,0 -1174,119 -1497,361 -323,242 -485,601 -487,1084 -3,480 492,824 1485,1036 993,211 1747,425 2260,642 513,216 915,546 1207,995 293,447 428,958 404,1531 -23,573 -194,1107 -518,1602 -323,494 -779,874 -1369,1138 -589,264 -1321,397 -2198,397 -1245,-24 -2472,-639 -3676,-1844l1266 -1205zm15999 -5466l-2737 0 0 8313 -1783 0 0 -8335 -2735 0 0 -1635 7255 0 0 1657zm4496 4734l2429 0 -1260 -3919 -1169 3919zm2094 -6391l3427 9970 -2013 0 -675 -1916 -3237 0 -656 1916 -2011 0 3251 -9970 1914 0zm13870 0l0 9970 -2093 0 -3748 -6982 0 6982 -1935 0 0 -9970 2227 0 3748 6830 0 -6830 1801 0z" fill="#FFF">
   </path>
   <path d="M35419 22812l-563 0 -1609 -2652c-459,-844 -856,-1395 -1188,-1654 -331,-257 -744,-340 -1236,-247l0 4553 -1740 0 0 -9955 1740 0 0 3702c335,48 634,-50 903,-292 266,-240 780,-898 1538,-1970 760,-1072 1561,-1602 2405,-1588l475 1497c-739,205 -1314,675 -1728,1415 -511,829 -981,1425 -1414,1789 647,133 1284,822 1916,2068l1169 1991 996 0 -98 3099 -1245 -14 -321 -1742zm7324 -3627l2445 0 -1302 -3712 -1143 3712zm2186 -6314l3349 9970 -2040 0 -660 -2061 -3294 0 -642 2061 -2039 0 3313 -9970 2013 0zm6907 7436c702,692 1464,1046 2287,1065 824,19 1395,-76 1713,-285 319,-209 502,-583 547,-1117 47,-537 -100,-946 -442,-1231 -340,-283 -884,-423 -1633,-423l-570 0 0 -1443c570,0 1019,-12 1347,-38 326,-26 618,-233 872,-627 257,-393 269,-811 41,-1260 -231,-447 -644,-677 -1241,-684 -596,-10 -1076,49 -1438,175 -361,129 -765,373 -1212,735l-995 -1364c938,-756 2015,-1167 3234,-1231 1219,-67 2139,178 2762,729 622,554 903,1298 846,2232 -60,936 -580,1609 -1564,2022 520,62 979,321 1378,777 400,457 571,1098 511,1923 -57,822 -401,1500 -1036,2032 -634,532 -1578,803 -2833,815 -1257,12 -2479,-454 -3667,-1397l1093 -1405zm12260 -1122l2445 0 -1302 -3712 -1143 3712zm2186 -6314l3349 9970 -2039 0 -661 -2061 -3294 0 -641 2061 -2040 0 3313 -9970 2013 0zm12600 9941l-564 0 -1609 -2652c-498,-821 -855,-1395 -1188,-1654 -330,-257 -744,-340 -1236,-247l0 4553 -1739 0 0 -9955 1739 0 0 3702c335,48 635,-50 903,-292 267,-240 779,-899 1538,-1970 760,-1073 1562,-1602 2405,-1588l476 1497c-740,205 -1298,685 -1728,1415 -495,839 -982,1425 -1414,1789 646,133 1208,863 1915,2068l1169 1991 996 0 -97 3099 -1246 -14 -320 -1742zm9716 -3403l1602 715c-183,475 -423,915 -725,1324 -744,998 -1694,1497 -2854,1497 -1162,0 -2101,-499 -2821,-1497 -720,-998 -1079,-2203 -1079,-3613 0,-1411 359,-2616 1079,-3614 720,-998 1659,-1498 2821,-1498 1160,0 2110,500 2854,1498 342,463 609,969 794,1518l-1638 592c-92,-363 -221,-691 -389,-989 -371,-651 -882,-974 -1531,-974 -651,0 -1160,326 -1528,977 -371,653 -554,1473 -554,2464 0,991 183,1814 554,2465 368,653 877,979 1528,979 649,0 1160,-328 1531,-982 149,-259 268,-549 356,-862zm7150 3424l0 -8237 -2807 0 0 -1732 7422 0 0 1732 -2821 0 0 8237 -1794 0zm9670 -3648l2445 0 -1302 -3712 -1143 3712zm2186 -6314l3349 9970 -2039 0 -661 -2061 -3294 0 -641 2061 -2039 0 3312 -9970 2013 0zm6024 9970l0 -9977 1804 0 0 3821 3683 0 0 -3821 1802 0 0 9977 -1802 0 0 -4499 -3683 0 0 4499 -1804 0z" fill="#FFF">
   </path>
   <path d="M36273 171194c9389,0 17000,7611 17000,17000 0,9389 -7611,17000 -17000,17000 -9389,0 -17000,-7611 -17000,-17000 0,-9389 7611,-17000 17000,-17000zm0 3000c7732,0 14000,6268 14000,14000 0,7732 -6268,14000 -14000,14000 -7732,0 -14000,-6268 -14000,-14000 0,-7732 6268,-14000 14000,-14000z" fill="red">
   </path>
   <path d="M36273 115334c9389,0 17000,7611 17000,17000 0,9389 -7611,17000 -17000,17000 -9389,0 -17000,-7611 -17000,-17000 0,-9389 7611,-17000 17000,-17000zm0 3000c7732,0 14000,6268 14000,14000 0,7732 -6268,14000 -14000,14000 -7732,0 -14000,-6268 -14000,-14000 0,-7732 6268,-14000 14000,-14000z" fill="red">
   </path>
   <path d="M36273 59344c9389,0 17000,7611 17000,17000 0,9389 -7611,17000 -17000,17000 -9389,0 -17000,-7611 -17000,-17000 0,-9389 7611,-17000 17000,-17000zm0 3000c7732,0 14000,6268 14000,14000 0,7732 -6268,14000 -14000,14000 -7732,0 -14000,-6268 -14000,-14000 0,-7732 6268,-14000 14000,-14000z" fill="red">
   </path>
  </symbol>
  <use width="150000" x="2500" xlink:href="#5_40" y="0">
  </use>
 </g>
 <g fill="red">
 </g>
 <g class="black_layer" fill="#000" stroke="#000" stroke-width="0.8mm" style="shape-rendering: geometricPrecision">
 </g>
</svg>
