<svg role="img" style="shape-rendering: geometricPrecision;
text-rendering: optimizeLegibility; fill-rule:evenodd; clip-rule:evenodd;" version="1.1" viewbox="0 0 113200 121000" width="160px" xml:space="preserve" xmlns="http://www.w3.org/2000/svg">
 <title>
  1.3.2
 </title>
 <g fill="#FFF" stroke="gray" stroke-width="800">
  <polygon points="6139,101179 56600,72046 107061,101179 110721,114838 97062,118498 56600,95137 16138,118498 2479,114838 ">
  </polygon>
  <polygon points="6139,54996 36602,37409 6139,19821 2479,6162 16138,2502 56600,25863 97062,2502 110721,6162 107061,19821 76598,37408 107061,54996 110721,68655 97062,72315 56600,48954 16138,72315 2479,68655 ">
  </polygon>
 </g>
 <g class="blue_layer" fill="#0177D9" style="fill-rule: evenodd; clip-rule: nonzero;">
 </g>
 <g fill="red">
  <path d="M6998 101838l-3294 12293 12293 3294 40603 -23442 40603 23442 12293 -3294 -3294 -12293 -49602 -28638 -49602
 28638zm4294 3295l-1464 5462 5462 1464 41310 -23850 41310 23850 5462 -1464 -1464 -5462 -45308 -26159 -45308 26159z">
  </path>
  <path d="M6998 55655l-3294 12293 12293 3294 40603 -23442 40603 23442 12293 -3294 -3294 -12293 -31604 -18247 31604 -18246 3294 -12293 -12293 -3294 -40603 23442 -40603 -23442 -12293 3294 3294 12293 31604 18247 -31604 18246zm4294 3295l-1464 5462 5462 1464 41310 -23850 41310 23850 5462 -1464 -1464 -5462 -37310 -21542 37311 -21541 1463 -5462 -5462 -1464 -41310 23850 -41310 -23850 -5462 1464 1463 5462 37311 21542 -37310 21541z">
  </path>
 </g>
</svg>
