<svg role="img" style="shape-rendering: geometricPrecision;
text-rendering: optimizeLegibility; fill-rule:evenodd; clip-rule:evenodd;" version="1.1" viewbox="0 0 95000 95000" width="140px" xml:space="preserve" xmlns="http://www.w3.org/2000/svg">
 <title>
  5.8.3а
 </title>
 <g fill="#FFF" stroke="gray" stroke-width="800">
  <rect height="90000" rx="4500" ry="4500" width="90000" x="2500" y="2500">
  </rect>
 </g>
 <g class="blue_layer" fill="#0177D9" style="fill-rule: evenodd; clip-rule: nonzero;">
  <rect height="86000" rx="2500" ry="2500" width="86000" x="4500" y="4500">
  </rect>
  <symbol id="5_8_3">
   <path d="M17848 68464l0 -46025 -5904 0 9447 -16522 9447 16522 -5905 0 0 33211 13340 -12915c7952,-8740 6410,-16337 6677,-20296l-6119 56 9388 -16578 9837 16522 -6283 0c-60,5725 1299,14352 -7449,23302l-17451 17766c-1433,1416 -1939,3191 -1940,4955l0 2 -7085 0zm18195 -59134l-2361 0 0 -7794 2361 0 0 7794zm0 19218l-2361 0 0 -7081 2361 0 0 7081zm0 -9777l-2361 0 0 -7081 2361 0 0 7081z">
   </path>
  </symbol>
  <g fill="#FFF" transform="scale(1.325)">
   <use x="2500" xlink:href="#5_8_3" y="1000">
   </use>
  </g>
  <symbol id="4_7_mini">
   <g transform="scale(0.4)">
    <circle cx="37500" cy="37500" fill="#FFF" r="35000">
    </circle>
    <circle cx="37500" cy="37500" fill="#0177D9" r="32000">
    </circle>
    <path d="M17246 50856l-845 -4793c3130,717 5497,1073 7092,1059 1595,-13 3003,-543 4223,-1595 1213,-1059 1810,-2319 1776,-3781 -33,-1468 -516,-2587 -1441,-3358 -932,-777 -2071,-1180 -3419,-1220 -1347,-40 -2721,483 -4122,1569l-3539 -1569 0 -13627 16422 0 -1085 4772 -10290 0 0 5437c1508,-651 3191,-925 5061,-805 1864,121 3573,919 5121,2393 1555,1482 2326,3486 2320,6000 -7,2520 -765,4799 -2279,6830 -1509,2024 -3694,3204 -6536,3533 -2849,328 -5671,47 -8459,-845zm32013 -28086c3009,0 5396,1267 7159,3794 1763,2527 2661,6180 2701,10959 -201,5068 -1140,8782 -2822,11154 -1682,2367 -4029,3553 -7038,3553 -3037,0 -5410,-1186 -7112,-3566 -1696,-2373 -2621,-6106 -2769,-11201 81,-4779 992,-8419 2735,-10926 1736,-2507 4123,-3767 7146,-3767zm120 4933c-1454,-53 -2560,731 -3311,2346 -751,1616 -1133,4083 -1133,7394 0,3311 396,5758 1180,7347 784,1582 1877,2373 3264,2373 1502,0 2615,-791 3339,-2373 717,-1589 1079,-4036 1079,-7347 0,-3311 -396,-5765 -1180,-7353 -784,-1589 -1863,-2387 -3238,-2387z" fill="#FFF">
    </path>
   </g>
  </symbol>
  <g>
   <use x="16000" xlink:href="#4_7_mini" y="36000">
   </use>
  </g>
 </g>
 <g fill="red">
 </g>
 <g class="black_layer" fill="#000" stroke="#000" stroke-width="0.8mm" style="shape-rendering: geometricPrecision">
 </g>
</svg>
