<svg role="img" style="shape-rendering: geometricPrecision;
text-rendering: optimizeLegibility; fill-rule:evenodd; clip-rule:evenodd;" version="1.1" viewbox="0 0 75000 75000" width="140px" xml:space="preserve" xmlns="http://www.w3.org/2000/svg">
 <title>
  6.3а
 </title>
 <g fill="#FFF" stroke="gray" stroke-width="800">
  <rect height="70000" rx="4500" ry="4500" width="70000" x="2500" y="2500">
  </rect>
 </g>
 <g class="blue_layer" fill="#0177D9" style="fill-rule: evenodd; clip-rule: nonzero;">
  <rect height="66000" rx="2500" ry="2500" width="66000" x="4500" y="4500">
  </rect>
  <symbol id="gas station blue">
   <path d="M12571 24937l0 -23633c0,-328 130,-644 362,-877 233,-233 549,-364 878,-364l9947 0c330,0 645,131 878,364 233,233 364,549 364,878l0 23631 -12429 1z">
   </path>
   <rect fill="#FFF" height="7640" rx="944" ry="386" width="9013" x="14378" y="2294">
   </rect>
  </symbol>
  <g transform="scale(0.99)">
   <g fill="#FFF">
    <rect height="50000" width="50000" x="12500" y="12500">
    </rect>
   </g>
   <use x="33000" xlink:href="#gas station blue" y="30000">
   </use>
  </g>
 </g>
 <g fill="red">
 </g>
 <g class="black_layer" fill="#000" stroke="#000" stroke-width="0.8mm" style="shape-rendering: geometricPrecision">
  <symbol id="gas station">
   <path d="M12571 24937l0 -23633c0,-328 130,-644 362,-877 233,-233 549,-364 878,-364l9947 0c330,0 645,131 878,364 233,233 364,549 364,878l0 23631 -12429 1zm-760 -21970l0 -971 -1844 0c-329,0 -649,136 -878,364 -228,228 -354,583 -354,913l-10 3980c0,531 -212,1039 -589,1413l-6981 7101c-3047,4335 336,9938 5444,9003 2568,-469 4595,-2024 4595,-4605l0 -8498c0,-133 53,-260 145,-352 92,-92 252,-145 384,-145l0 -1235 -521 0c-330,0 -646,131 -879,364 -232,232 -363,548 -363,878l0 8809c0,2133 -1386,3354 -3532,3749 -2097,388 -3810,-361 -4830,-2337 -1030,-1998 -312,-3915 780,-5112l7000 -7004c373,-373 592,-843 592,-1370l-11 -4944 1852 -1z">
   </path>
   <rect fill="#FFF" height="7640" rx="944" ry="386" width="8700" x="14378" y="2294">
   </rect>
  </symbol>
  <symbol id="LPG">
   <path d="M1470 8862l0 -7632 1418 0 0 6369 3411 0 0 1263 -4829 0zm6463 5l0 -7631 2409 0c580,0 1067,115 1462,345 397,232 690,504 881,821 190,316 270,682 284,1099 22,682 -151,1291 -564,1828 -413,537 -1070,804 -1972,804l-1125 0 0 2734 -1375 0zm1375 -3897l879 0c366,0 697,-112 990,-338 293,-225 452,-593 438,-1106 -10,-348 -180,-613 -467,-799 -289,-186 -615,-276 -981,-276l-859 0 0 2519zm9794 3257c-430,516 -992,773 -1685,773 -955,0 -1705,-389 -2247,-1170 -540,-780 -811,-1721 -811,-2825 0,-1102 271,-2045 811,-2823 542,-781 1292,-1170 2247,-1170 1137,-107 2139,513 3007,1859l-1232 613c-429,-828 -1011,-1242 -1742,-1242 -630,71 -1066,353 -1312,846 -246,491 -367,1124 -367,1899 0,775 121,1417 367,1930 246,511 664,768 1259,768 549,0 984,-153 1299,-457 316,-304 471,-649 464,-1037l-1354 0 0 -1182 2724 0 0 3847 -1216 0 -212 -629z">
   </path>
  </symbol>
  <g transform="scale(0.99)">
   <g transform="scale(1.2)">
    <use x="12000" xlink:href="#LPG" y="12000">
    </use>
   </g>
   <use x="26000" xlink:href="#gas station" y="34000">
   </use>
  </g>
 </g>
</svg>
