<svg role="img" style="shape-rendering: geometricPrecision;
text-rendering: optimizeLegibility; fill-rule:evenodd; clip-rule:evenodd;" version="1.1" viewbox="0 0 75000 40000" width="140px" xml:space="preserve" xmlns="http://www.w3.org/2000/svg">
 <title>
  7.23
 </title>
 <g fill="#FFF" stroke="gray" stroke-width="800">
  <rect height="35000" rx="4500" ry="4500" width="70000" x="2500" y="2500">
  </rect>
 </g>
 <g class="blue_layer" fill="#0177D9" style="fill-rule: evenodd; clip-rule: nonzero;">
 </g>
 <g fill="red">
 </g>
 <g class="black_layer" fill="#000" stroke="#000" stroke-width="0.8mm" style="shape-rendering: geometricPrecision">
  <path d="M34791.63 6348.21c736.33,0 1744.01,466.75 2014.19,1159.22l1953.77 5268.34c526,14.93 1352.87,753.02 1352.87,1355.08l0 4214.57c0,53.21 -5.1,107.21 -14.73,161.57 419.01,-287.99 777.09,-682.06 1148.79,-1117.28 351.77,-411.87 883.18,-853.56 1386.18,-1119.59 891.62,-471.56 1782.79,-487.84 2708.13,-36.81 937.24,456.8 1254.4,1067.54 2325.89,1140.99l0 -1168.31c0,-25.75 21.07,-46.82 46.82,-46.82l837.4 0c25.76,0 46.83,21.07 46.83,46.82l0 294.25 1485.84 -984c48.9,-38.42 177.35,-61.39 243.99,-61.39l2424.03 0c158.2,0 287.63,129.49 287.63,287.63l0 419.67 2140.37 0c240.15,0 434.82,194.67 434.82,434.81 0,240.14 -194.67,434.81 -434.82,434.81l-2140.37 0 0 1565.33 2140.37 0c240.15,0 434.82,194.67 434.82,434.81 0,240.13 -194.67,434.81 -434.82,434.81l-2140.37 0 0 419.66c0,158.15 -129.48,287.64 -287.63,287.64l-2424.03 0c-59.57,0 -182.01,-18.38 -228.07,-49.74l-1501.76 -995.65 0 294.25c0,25.75 -21.07,46.82 -46.83,46.82l-837.4 0c-25.75,0 -46.82,-21.14 -46.82,-46.82l0 -1127.13c-1095.16,6.54 -1861.67,-811.5 -2689.08,-1229.55 -2651.57,-1339.81 -3370.53,2887.29 -6383.35,2799.73l-17705.23 0c-631.46,0 -1518.17,-797.93 -1518.17,-1520.51l0 -4214.57c0,-632.63 541.06,-1340.15 1352.87,-1355.08l1953.77 -5268.34c270.76,-722.45 1247.41,-1159.22 2014.19,-1159.22l10099.91 0zm-13797.81 14270.28l3307.1 0 0 2483.85c0,542.1 -841.8,1264.67 -1668.53,1264.67 -826.76,0 -1653.62,-587.13 -1653.62,-1264.67l14.93 -2483.85 0.12 0zm17495.01 0l-3306.52 0 0 2483.85c0,542.1 841.8,1264.67 1668.54,1264.67 826.75,0 1653.61,-587.13 1653.61,-1264.67l-15.51 -2483.85 -0.12 0zm-15766.5 -6472.58c932.2,0 1683.47,752.42 1683.47,1685.8 0,933.37 -751.27,1685.8 -1683.47,1685.8 -931.63,0 -1682.9,-752.43 -1682.9,-1685.8 0,-933.38 751.27,-1685.8 1682.9,-1685.8zm14038.58 0c-932.21,0 -1683.47,752.42 -1683.47,1685.8 0,933.37 751.26,1685.8 1683.47,1685.8 931.62,0 1683.47,-752.43 1683.47,-1685.8 0,-933.38 -751.85,-1685.8 -1683.47,-1685.8zm-1969.28 -6518.09c481.09,0 826.74,255.83 932.2,526.59l1682.89 4681.79 -15330.33 0 1682.9 -4681.79c120.38,-330.72 451.11,-526.59 932.2,-526.59l10100.14 0zm-6629.7 18538.51l2411.84 0 0 579.25 -1761.61 0 0 791.18 718.92 0c475.57,0 803.4,121.56 984.72,329.94 181.67,208.78 275.18,440.49 280.96,696.44 5.78,255.96 -44.81,462.8 -153.41,621.64 -229.18,335.2 -634.81,477.86 -1036.45,477.86l-1444.97 0 0 -3496.31zm650.23 2933.68l480.76 0c529.07,0 798.32,-136.32 811.69,-501.97 13.34,-364.82 -255.66,-518.59 -809.01,-518.59l-483.44 0 0 1020.56zm4038.72 -725.53l916.93 0 -487.9 -1298.13 -429.03 1298.13zm820.59 -2208.15l1256.77 3486.34 -765.3 0 -248.86 -720.54 -1235.35 0 -240.82 720.54 -765.3 0 1243.38 -3486.34 755.48 0zm4402.7 2286.27l601.18 250.16c-67.79,166.21 -158.5,320.23 -272.05,462.91 -277.92,349.22 -635.07,523.57 -1071.24,523.57 -435.27,0 -787.64,-174.57 -1057.86,-523.57 -270.21,-349.01 -404.94,-770.41 -404.94,-1263.23 0,-493.66 134.73,-915.07 404.94,-1264.07 270.22,-349.01 622.59,-523.57 1057.86,-523.57 436.17,0 792.94,174.61 1071.24,523.57 129.23,162.06 228.34,339.08 298.8,531.06l-614.55 206.94c-100.38,-366.88 -318.63,-686.47 -721.59,-686.47 -583.79,0 -781.36,671.12 -781.36,1203.39 0,532.35 198.33,1204.23 781.36,1204.23 383.41,0 602.69,-294.25 708.21,-644.92zm4144.03 1190.1l-212.28 0 -602.96 -927.48c-186.94,-287.56 -321.1,-487.93 -445.98,-578.42 -123.89,-89.78 -279.18,-118.85 -463.82,-86.44l0 1592.34 -652.91 0 0 -3481.36 652.91 0 0 1294.81c125.77,16.62 238.17,-17.52 338.94,-102.22 99.85,-83.93 292.61,-314.19 577.1,-688.96 284.49,-374.78 586.01,-560.14 902.66,-555.16l177.49 523.58c-276.5,71.47 -486.2,239.38 -647.55,494.48 -185.61,293.45 -368.38,498.65 -530.71,625.8 242.61,46.54 453.57,301.95 718.91,723.03l438.84 696.44 373.73 0 -36.57 1083.72 -467.39 -4.99 -120.41 -609.17zm2711.59 -1268.22l916.93 0 -487.9 -1298.13 -429.03 1298.13zm820.6 -2208.15l1256.76 3486.34 -765.29 0 -248.86 -720.54 -1235.35 0 -240.83 720.54 -765.3 0 1243.38 -3486.34 755.49 0zm-14767.2 8406.81l-796.52 0 -601.18 -947.42c-153.42,-309.99 -292.56,-496.15 -418.33,-558.48 -125.76,-62.33 -305.04,-88.92 -537.84,-78.95l0 1584.85 -651.13 0 0 -3491.33 651.13 0 0 1294.81c161.44,13.3 287.21,-18.28 377.3,-93.08 90.09,-75.63 233.69,-241.01 432.59,-496.15 322,-509.45 702.86,-761.26 1141.71,-754.61l112.39 579.25c-231.92,-10.8 -462.93,132.97 -694.84,431.33 -189.98,290.87 -357.68,482.85 -502.17,576.76 191.77,62.34 426.35,300.85 702.86,716.39l784.03 1236.63zm1084.65 0l0 -3486.34 1121.18 0c513.05,0 896.43,71.47 1153.31,306.66 256.87,235.19 374.15,506.11 351.42,812.79 -22.72,306.62 -137.15,562.03 -343.4,764.58 -357.75,351.33 -1032.1,304.18 -1598.38,304.18l0 1298.13 -684.13 0zm684.13 -1852.46l412.97 0c580.69,0 869.2,-172.88 866.99,-537.7 -2.21,-363.99 -285.96,-516.93 -850.93,-516.93l-429.03 0 0 1054.63zm4301.86 1889.03c-418.33,0 -766.19,-174.52 -1045.37,-523.57 -278.29,-349.05 -418.33,-770.41 -418.33,-1263.23 0,-493.66 140.04,-915.02 418.33,-1264.07 279.18,-349.05 627.04,-523.57 1045.37,-523.57 418.33,0 766.19,174.52 1045.38,523.57 278.28,349.05 418.32,770.41 418.32,1264.07 0,492.82 -140.04,914.18 -418.32,1263.23 -279.19,349.05 -627.05,523.57 -1045.38,523.57zm8.03 -591.72c583.07,0 784.03,-671.75 784.03,-1204.23 0,-532.13 -200.55,-1203.39 -784.03,-1203.39 -584.31,0 -781.35,671.41 -781.35,1203.39 0,532.32 197.45,1204.23 781.35,1204.23zm2445.71 552.66l402.27 -3486.35 718.91 0 817.92 1618.93 755.49 -1618.93 726.05 0 426.36 3486.35 -726.95 0 -242.61 -2461.63 -938.34 1950.52 -969.55 -1958.01 -269.37 2469.12 -700.18 0zm5067.23 2.49l0 -3488.84 2422.55 2.5 0 576.76 -1727.72 0 0 827.75 1382.53 0 0 579.25 -1382.53 0 0 923.33 1725.04 0 0 579.25 -2419.87 0z">
  </path>
  <use x="0" xlink:href="#border 350x700" y="0">
  </use>
 </g>
</svg>
