<svg role="img" style="shape-rendering: geometricPrecision;
text-rendering: optimizeLegibility; fill-rule:evenodd; clip-rule:evenodd;" version="1.1" viewbox="0 0 75000 110000" width="140px" xml:space="preserve" xmlns="http://www.w3.org/2000/svg">
 <title>
  6.17
 </title>
 <g fill="#FFF" stroke="gray" stroke-width="800">
  <rect height="105000" rx="4500" ry="4500" width="70000" x="2500" y="2500">
  </rect>
 </g>
 <g class="blue_layer" fill="#0177D9" style="fill-rule: evenodd; clip-rule: nonzero;">
  <rect height="101000" rx="2500" ry="2500" width="66000" x="4500" y="4500">
  </rect>
  <rect fill="#FFFFFF" height="57000" rx="2000" ry="2000" width="57000" x="9000" y="17500">
  </rect>
 </g>
 <g fill="red">
 </g>
 <g class="black_layer" fill="#000" stroke="#000" stroke-width="0.8mm" style="shape-rendering: geometricPrecision">
  <symbol id="beach">
   <path d="M297 37683c2599,0 5512,5076 8111,5076 2773,0 5233,-5076 8006,-5076 2652,0 5250,5076 7902,5076 2634,0 5320,-5076 7954,-5076 2651,0 5512,5076 8163,5076 2599,0 4968,-5076 7567,-5076 -7,1134 -14,2268 -21,3402 -2515,-28 -5266,4970 -7677,4971 -2684,1 -5042,-4971 -7928,-4971 -2686,0 -5410,5043 -8111,4971 -2654,72 -5128,-4971 -7797,-4971 -3856,0 -4878,4891 -8451,4971 -2066,47 -4224,-5076 -7718,-4971l0 -3402zm19797 -14617c767,-158 975,-493 998,-885 50,-808 -1110,-1857 -3034,-2132 -2854,-409 -1470,-2706 -1510,-2734 -453,-322 -65,-950 -147,-1047 -663,-773 462,-1241 -589,-2137 -754,-643 -272,-1540 275,-1923 376,-262 686,-679 742,-1220 60,-579 -147,-1294 -126,-1968 45,-1452 73,-2024 351,-2915 1039,-3289 5774,-4162 7805,-4162 6319,0 9198,2625 9740,8516 304,3302 -554,7472 -3609,9249 -790,460 -2380,2919 -192,3725 4236,1560 8008,1894 8410,8547 16,263 56,594 76,937 -2316,-1067 -4742,-4794 -7014,-4794 -2634,0 -5320,5076 -7954,5076 -2652,0 -5251,-5076 -7902,-5076 -2378,0 -4525,3731 -6837,4795 15,-113 37,-233 67,-363 2053,-8913 2743,-7908 10450,-9489zm-20094 8132c2599,0 5512,5076 8111,5076 2774,0 5233,-5076 8006,-5076 2652,0 5251,5076 7902,5076 2634,0 5320,-5076 7954,-5076 2652,0 5512,5076 8163,5076 2599,0 4968,-5076 7567,-5076 -6,1134 -13,2268 -20,3402 -2516,-29 -5267,4970 -7678,4971 -2683,1 -5042,-4971 -7927,-4971 -2686,0 -5411,5043 -8111,4971 -2654,72 -5129,-4971 -7797,-4971 -3856,0 -4879,4890 -8451,4971 -2067,46 -4225,-5076 -7719,-4971l0 -3402z">
   </path>
  </symbol>
  <g transform="scale(1)">
   <use x="13500" xlink:href="#beach" y="22000">
   </use>
  </g>
  <use fill="#FFF" height="10000" x="-10000" xlink:href="#digit_6" y="85000">
  </use>
  <use fill="#FFF" height="10000" x="-3000" xlink:href="#digit_0" y="85000">
  </use>
  <use fill="#FFF" height="10000" x="4000" xlink:href="#digit_0" y="85000">
  </use>
  <use fill="#FFF" height="10000" x="11500" xlink:href="#char_m" y="85000">
  </use>
 </g>
</svg>
