<svg role="img" style="shape-rendering: geometricPrecision;
text-rendering: optimizeLegibility; fill-rule:evenodd; clip-rule:evenodd;" version="1.1" viewbox="0 0 75000 75000" width="140px" xml:space="preserve" xmlns="http://www.w3.org/2000/svg">
 <title>
  5.17.3
 </title>
 <g fill="#FFF" stroke="gray" stroke-width="800">
  <rect height="70000" rx="4500" ry="4500" width="70000" x="2500" y="2500">
  </rect>
 </g>
 <g class="blue_layer" fill="#0177D9" style="fill-rule: evenodd; clip-rule: nonzero;">
  <rect height="66000" rx="2500" ry="2500" width="66000" x="4500" y="4500">
  </rect>
  <symbol id="5_17_3">
   <path d="M45759 31740l11241 0 0 4091 -8946 0 0 4093 -11564 0 0 4092 -11197 0 0 4092 -11686 0 0 4092 -11596 0 -2011 -1976 0 -2116 11686 0 0 -4092 11197 0 0 -4092 11564 0 0 -4093 11312 0 0 -4091zm-5328 -14621l107 -266c333,-831 -78,-1775 -922,-2099l-5551 -2141 -240 3698 4540 1714c821,311 1740,-92 2066,-906zm-11174 -13773c399,1128 1163,2093 2171,2740 796,501 2020,554 2569,-107 541,-650 686,-1600 774,-2372 189,-1658 -520,-3132 -2623,-3524 -942,-175 -1905,-120 -2508,623 -603,744 -750,1757 -383,2640l0 0zm7984 30245l1 -6937c0,-684 -7,-866 -654,-1091l-9341 -3679c-273,-95 -325,-253 -322,-432l524 -10392 -3278 2338c-260,131 -430,390 -446,680l-298 5398c-92,1695 -3441,1512 -3347,-183l428 -7779c15,-279 173,-531 418,-665l7648 -4752c344,-226 942,-197 1358,100l2750 2343c383,325 591,810 564,1310l-837 9598 7054 3226c622,238 1032,835 1032,1500l0 9415c0,856 -673,1562 -1530,1605l-32 2 0 0c-918,46 -1692,-688 -1692,-1605zm-5694 -8863l-3293 -1203 -2572 13671c-149,849 399,1662 1240,1847l106 24c427,94 874,10 1238,-232 364,-241 614,-619 693,-1049l2588 -13058z">
   </path>
  </symbol>
  <g fill="#FFF" transform="scale(1.189999932)">
   <use x="2600" xlink:href="#5_17_3" y="8250">
   </use>
  </g>
 </g>
 <g fill="red">
 </g>
</svg>
