<svg role="img" style="shape-rendering: geometricPrecision;
text-rendering: optimizeLegibility; fill-rule:evenodd; clip-rule:evenodd;" version="1.1" viewbox="0 0 75000 110000" width="140px" xml:space="preserve" xmlns="http://www.w3.org/2000/svg">
 <title>
  6.15
 </title>
 <g fill="#FFF" stroke="gray" stroke-width="800">
  <rect height="105000" rx="4500" ry="4500" width="70000" x="2500" y="2500">
  </rect>
 </g>
 <g class="blue_layer" fill="#0177D9" style="fill-rule: evenodd; clip-rule: nonzero;">
  <rect height="101000" rx="2500" ry="2500" width="66000" x="4500" y="4500">
  </rect>
  <rect fill="#FFFFFF" height="57000" rx="2000" ry="2000" width="57000" x="9000" y="17500">
  </rect>
 </g>
 <g fill="red">
 </g>
 <g class="black_layer" fill="#000" stroke="#000" stroke-width="0.8mm" style="shape-rendering: geometricPrecision">
  <symbol id="radio">
   <path d="M6090 21456l0 -8632 2587 0c1183,0 2068,177 2660,759 593,582 864,1253 811,2013 -52,759 -317,1391 -792,1893 -475,502 -1295,753 -2457,753l-1229 0 0 3214 -1580 0zm3351 10553l875 0c615,0 1068,-107 1360,-323 290,-214 451,-511 437,-889 -14,-355 -176,-625 -441,-813 -266,-189 -724,-284 -1381,-284l-850 0 0 2309zm5306 4896l-1791 0 -1140 -2200c-289,-559 -593,-888 -825,-1037 -233,-150 -506,-225 -819,-225l-731 0 0 3455 -1615 0 0 -8632 2665 0c574,0 1012,30 1315,84 425,76 761,206 1006,403 245,198 455,474 630,832 175,358 274,753 261,1183 -26,933 -557,1648 -1553,2151 380,74 765,443 1119,1127l1478 2859zm5298 -537c-97,142 -285,298 -562,473 -276,174 -677,263 -1200,263 -523,0 -943,-176 -1264,-529 -319,-351 -488,-763 -506,-1238 -17,-474 115,-878 395,-1206 282,-330 558,-537 828,-626 269,-88 621,-172 1057,-249 436,-77 891,-165 1365,-263 45,-408 -66,-700 -332,-881 -265,-181 -613,-275 -1043,-280 -430,-5 -953,200 -1572,617l-585 -940c507,-395 939,-634 1295,-718 358,-85 771,-126 1237,-126 467,0 944,155 1432,467 487,312 858,908 858,1799l0 1393c0,1025 10,1583 76,1671 66,89 229,156 486,204l-556 977c-802,-41 -1274,-310 -1409,-808zm78 -2406c-202,97 -566,191 -1091,284 -527,93 -852,239 -971,436 -121,200 -181,399 -181,601 0,200 78,383 234,545 157,163 387,245 688,245 302,0 559,-89 771,-263 214,-176 369,-331 465,-469 98,-140 133,-348 114,-626 -20,-276 -29,-527 -29,-753zm8057 881l0 -1996c-76,-221 -183,-425 -319,-610 -316,-430 -702,-644 -1152,-644 -445,0 -827,214 -1142,644 -315,430 -474,947 -474,1550 0,607 159,1126 474,1554 314,428 697,642 1142,642 450,0 835,-217 1152,-646 113,-153 218,-317 319,-494zm0 1640c-457,409 -1004,615 -1640,615 -790,0 -1468,-320 -2029,-959 -561,-639 -840,-1412 -840,-2315 0,-905 280,-1677 840,-2315 562,-640 1239,-959 2029,-959 636,0 1183,206 1640,615l0 -2905 1381 0 0 8632 -1097 0 -284 -409zm5005 -5746l0 6149 -1350 0 0 -6149 1350 0zm-669 -2321c224,0 418,80 578,241 161,160 241,354 241,578 0,230 -81,423 -241,584 -161,162 -354,243 -578,243 -228,0 -423,-81 -584,-243 -160,-161 -241,-354 -241,-584 0,-224 80,-418 241,-578 160,-161 356,-241 584,-241zm5696 8573c-811,0 -1481,-311 -2012,-934 -531,-624 -797,-1375 -797,-2256 0,-885 265,-1638 797,-2261 530,-622 1201,-935 2012,-935 780,0 1437,313 1966,935 530,623 796,1376 796,2261 0,881 -266,1632 -796,2256 -530,623 -1186,934 -1966,934zm25 -1091c447,0 815,-204 1103,-609 290,-407 434,-897 434,-1471 0,-578 -145,-1069 -434,-1474 -289,-404 -656,-607 -1103,-607 -469,0 -850,202 -1140,607 -288,404 -432,896 -432,1474 0,574 143,1065 432,1471 289,406 671,609 1140,609zm-30567 -19029l951 0c1340,0 2006,-428 2000,-1331 -6,-901 -659,-1280 -1963,-1280l-988 0 0 2611zm9817 4057c-146,181 -331,350 -558,504 -228,155 -528,232 -907,232 -624,0 -1124,-176 -1502,-529 -377,-351 -566,-782 -566,-1292 0,-307 63,-583 189,-831 127,-252 292,-461 498,-632 206,-171 436,-297 694,-371 188,-53 510,-116 965,-193 452,-77 825,-165 1115,-263 47,-408 -16,-682 -191,-828 -175,-144 -482,-216 -924,-216 -455,0 -984,188 -1587,560l-669 -1000c527,-395 976,-634 1348,-718 371,-84 801,-126 1286,-126 488,0 953,155 1400,467 446,312 802,908 802,1799l0 1393c0,1025 9,1582 79,1671 68,88 195,156 384,204l-487 983c-692,-45 -1149,-316 -1369,-814zm0 -2291c-253,124 -636,227 -1146,313 -288,48 -494,102 -611,162 -120,62 -213,150 -278,266 -66,117 -99,247 -99,393 0,216 70,397 214,545 142,146 348,221 618,221 273,0 523,-80 753,-237 229,-158 393,-352 489,-591 76,-187 60,-440 60,-765l0 -307zm5305 -3364l4466 0 0 4955 815 0 0 2399 -1272 0 0 -1181 -4258 0 0 1181 -1284 0 0 -2399 525 0c523,-675 1008,-2005 1008,-4009l0 -946zm3075 1224l-1725 0c-88,1142 -204,1977 -347,2508 -143,529 -272,918 -389,1163l2461 0 0 -3671zm4527 4961l0 -6167 1412 0 0 3852 2550 -3852 1471 0 0 6167 -1471 0 0 -3846 -2550 3846 -1412 0zm10683 91c-832,0 -1521,-311 -2065,-934 -544,-624 -816,-1375 -816,-2256 0,-885 271,-1638 816,-2261 544,-622 1233,-935 2065,-935 800,0 1471,313 2016,935 546,623 817,1376 817,2261 0,881 -271,1632 -817,2256 -545,623 -1216,934 -2016,934zm-19 -1187c418,0 764,-200 1037,-597 274,-399 410,-879 410,-1441 0,-564 -137,-1043 -410,-1438 -274,-397 -619,-595 -1037,-595 -442,0 -798,198 -1072,595 -273,395 -410,874 -410,1438 0,562 136,1042 410,1441 273,397 630,597 1072,597z">
   </path>
  </symbol>
  <symbol id="mhz">
   <path d="M5266 8362c-108,-611 -121,-1241 -39,-1887 82,-646 311,-1245 689,-1798 378,-554 872,-861 1479,-921 608,-60 1177,39 1706,299l17 952c-622,-226 -1110,-308 -1461,-246 -353,62 -655,266 -908,612 -252,346 -402,846 -447,1500 587,-533 1105,-780 1554,-742 449,37 847,240 1197,607 350,367 510,873 482,1516 -30,643 -237,1164 -624,1564 -387,401 -870,610 -1448,624 -577,15 -1061,-175 -1451,-568 -390,-395 -639,-898 -746,-1512zm1573 659c184,207 406,295 666,267 260,-29 463,-131 611,-306 149,-175 245,-432 292,-770 44,-336 -38,-602 -247,-796 -207,-193 -424,-267 -648,-224 -223,43 -487,169 -789,371 -303,205 -405,446 -306,727 97,280 238,523 421,731zm6096 -1518c-615,232 -928,544 -940,934 0,285 102,514 307,687 204,175 432,263 684,267 254,3 486,-55 701,-169 216,-115 347,-347 395,-699 48,-351 -192,-651 -721,-902l-426 -118zm26 -1201c533,-209 847,-497 945,-863 0,-212 -78,-381 -233,-506 -153,-126 -360,-188 -620,-188 -261,0 -466,61 -620,182 -153,120 -229,280 -229,480 0,323 252,622 757,895zm-1002 597c-336,-229 -579,-466 -730,-709 -151,-245 -226,-511 -226,-800 0,-497 175,-906 528,-1230 353,-323 851,-486 1498,-486 644,0 1145,163 1501,486 354,324 532,733 532,1230 0,308 -82,582 -244,822 -164,241 -392,470 -686,687 375,149 659,342 855,581 195,238 292,545 292,917 0,613 -200,1113 -598,1497 -399,384 -929,576 -1588,576 -616,0 -1129,-160 -1538,-477 -483,-375 -726,-889 -726,-1542 0,-360 91,-668 273,-923 181,-256 467,-465 857,-629zm4782 4446l-421 0 526 -894c-152,-3 -291,-69 -418,-200 -127,-130 -191,-284 -191,-466 0,-185 64,-342 191,-472 127,-130 280,-195 458,-195 178,0 330,65 455,195 126,130 189,287 189,472 0,127 -20,234 -58,324 -41,90 -284,502 -731,1236zm4038 -7690c695,0 1246,293 1653,877 408,583 615,1427 624,2531 -46,1171 -263,2029 -651,2577 -389,546 -931,821 -1626,821 -702,0 -1250,-275 -1643,-824 -392,-548 -606,-1411 -640,-2588 19,-1104 230,-1944 632,-2523 401,-580 952,-871 1651,-871zm28 1140c-336,-12 -592,169 -765,542 -174,373 -262,943 -262,1708 0,765 91,1330 273,1697 181,365 433,548 754,548 346,0 603,-183 771,-548 165,-367 249,-932 249,-1697 0,-765 -91,-1332 -273,-1699 -181,-367 -430,-551 -747,-551zm7108 5534l0 -6496 1375 0 1759 2989 1747 -2989 1370 0 5 6496 -1225 0 0 -4481 -1897 3216 -1932 -3221 0 4486 -1202 0zm7744 0l0 -6496 1175 0 0 2445 2353 0 0 -2445 1176 0 0 6496 -1176 0 0 -2971 -2353 0 0 2971 -1175 0zm5996 0l0 -880 2069 -2921 -1947 0 0 -849 2995 0 0 830 -2059 2957 2113 0 0 863 -3171 0z" fill="#FFF">
   </path>
  </symbol>
  <g transform="scale(1)">
   <use x="13000" xlink:href="#radio" y="22500">
   </use>
   <use x="12500" xlink:href="#mhz" y="82500">
   </use>
  </g>
 </g>
</svg>
